<svg xmlns="http://www.w3.org/2000/svg" width="52" height="40" viewBox="0 0 52 40" fill="none">
<mask id="mask0_528_1480" style="mask-type:luminance" maskUnits="userSpaceOnUse" x="0" y="0" width="52" height="40">
<path d="M52 0H0V40H52V0Z" fill="white"/>
<path d="M2.29602 10.592V2.95996H15.592V38H7.04802V10.592H2.29602ZM35.9813 13.7056C35.9813 14.1664 35.9525 14.6464 35.8949 15.1456H24.7493C24.8261 16.144 25.1429 16.912 25.6997 17.4496C26.2757 17.968 26.9765 18.2272 27.8021 18.2272C29.0309 18.2272 29.8853 17.7088 30.3653 16.672H35.6069C35.3381 17.728 34.8485 18.6784 34.1381 19.5232C33.4469 20.368 32.5733 21.0304 31.5173 21.5104C30.4613 21.9904 29.2805 22.2304 27.9749 22.2304C26.4005 22.2304 24.9989 21.8944 23.7701 21.2224C22.5413 20.5504 21.5813 19.5904 20.8901 18.3424C20.1989 17.0944 19.8533 15.6352 19.8533 13.9648C19.8533 12.2944 20.1893 10.8352 20.8613 9.58716C21.5525 8.33916 22.5125 7.37916 23.7413 6.70716C24.9701 6.03516 26.3813 5.69916 27.9749 5.69916C29.5301 5.69916 30.9125 6.02556 32.1221 6.67836C33.3317 7.33116 34.2725 8.26236 34.9445 9.47196C35.6357 10.6816 35.9813 12.0928 35.9813 13.7056ZM30.9413 12.4096C30.9413 11.5648 30.6533 10.8928 30.0773 10.3936C29.5013 9.89436 28.7813 9.64476 27.9173 9.64476C27.0917 9.64476 26.3909 9.88476 25.8149 10.3648C25.2581 10.8448 24.9125 11.5264 24.7781 12.4096H30.9413ZM44.3681 8.60796C44.9441 7.72476 45.6641 7.03356 46.5282 6.53436C47.3922 6.01596 48.3522 5.75676 49.4082 5.75676V10.9696H48.0546C46.8258 10.9696 45.9042 11.2384 45.2897 11.776C44.6753 12.2944 44.3681 13.216 44.3681 14.5408V22H39.4433V5.92956H44.3681V8.60796Z" fill="black"/>
</mask>
<g mask="url(#mask0_528_1480)">
<path d="M2.29602 10.592H0.296021V12.592H2.29602V10.592ZM2.29602 2.95996V0.959961H0.296021V2.95996H2.29602ZM15.592 2.95996H17.592V0.959961H15.592V2.95996ZM15.592 38V40H17.592V38H15.592ZM7.04802 38H5.04802V40H7.04802V38ZM7.04802 10.592H9.04802V8.59196H7.04802V10.592ZM4.29602 10.592V2.95996H0.296021V10.592H4.29602ZM2.29602 4.95996H15.592V0.959961H2.29602V4.95996ZM13.592 2.95996V38H17.592V2.95996H13.592ZM15.592 36H7.04802V40H15.592V36ZM9.04802 38V10.592H5.04802V38H9.04802ZM7.04802 8.59196H2.29602V12.592H7.04802V8.59196ZM35.8949 15.1456V17.1456H37.6774L37.8817 15.3748L35.8949 15.1456ZM24.7493 15.1456V13.1456H22.5895L22.7552 15.299L24.7493 15.1456ZM25.6997 17.4496L24.3105 18.8884L24.3357 18.9127L24.3617 18.9362L25.6997 17.4496ZM30.3653 16.672V14.672H29.0873L28.5503 15.8318L30.3653 16.672ZM35.6069 16.672L37.5451 17.1654L38.1797 14.672H35.6069V16.672ZM34.1381 19.5232L32.6074 18.236L32.5987 18.2463L32.5902 18.2567L34.1381 19.5232ZM20.8613 9.58716L19.1117 8.61816L19.106 8.62853L19.1003 8.63896L20.8613 9.58716ZM34.9445 9.47196L33.1962 10.4433L33.202 10.4538L33.208 10.4642L34.9445 9.47196ZM30.9413 12.4096V14.4096H32.9413V12.4096H30.9413ZM25.8149 10.3648L24.5345 8.82832L24.5217 8.83902L24.509 8.84994L25.8149 10.3648ZM24.7781 12.4096L22.8008 12.1087L22.4507 14.4096H24.7781V12.4096ZM33.9813 13.7056C33.9813 14.0833 33.9577 14.4865 33.9081 14.9164L37.8817 15.3748C37.9473 14.8063 37.9813 14.2495 37.9813 13.7056H33.9813ZM35.8949 13.1456H24.7493V17.1456H35.8949V13.1456ZM22.7552 15.299C22.8582 16.6384 23.3082 17.9207 24.3105 18.8884L27.0889 16.0108C26.9776 15.9033 26.794 15.6496 26.7434 14.9922L22.7552 15.299ZM24.3617 18.9362C25.3304 19.808 26.5176 20.2272 27.8021 20.2272V16.2272C27.4353 16.2272 27.221 16.128 27.0376 15.963L24.3617 18.9362ZM27.8021 20.2272C28.6985 20.2272 29.5973 20.0365 30.4019 19.5483C31.2159 19.0544 31.7979 18.3381 32.1802 17.5122L28.5503 15.8318C28.4527 16.0427 28.3675 16.104 28.327 16.1285C28.2772 16.1587 28.1344 16.2272 27.8021 16.2272V20.2272ZM30.3653 18.672H35.6069V14.672H30.3653V18.672ZM33.6687 16.1786C33.4752 16.9388 33.1265 17.6187 32.6074 18.236L35.6688 20.8104C36.5705 19.7381 37.201 18.5172 37.5451 17.1654L33.6687 16.1786ZM32.5902 18.2567C32.1055 18.8491 31.4842 19.3285 30.6897 19.6897L32.3449 23.3311C33.6624 22.7323 34.7883 21.8869 35.686 20.7897L32.5902 18.2567ZM30.6897 19.6897C29.9244 20.0375 29.0309 20.2304 27.9749 20.2304V24.2304C29.53 24.2304 30.9981 23.9433 32.3449 23.3311L30.6897 19.6897ZM27.9749 20.2304C26.6935 20.2304 25.6292 19.9596 24.7297 19.4677L22.8105 22.9771C24.3685 23.8292 26.1074 24.2304 27.9749 24.2304V20.2304ZM24.7297 19.4677C23.8398 18.981 23.1509 18.2965 22.6397 17.3734L19.1405 19.3114C20.0117 20.8843 21.2427 22.1198 22.8105 22.9771L24.7297 19.4677ZM22.6397 17.3734C22.1388 16.469 21.8533 15.3544 21.8533 13.9648H17.8533C17.8533 15.916 18.259 17.7198 19.1405 19.3114L22.6397 17.3734ZM21.8533 13.9648C21.8533 12.5663 22.133 11.444 22.6222 10.5354L19.1003 8.63896C18.2456 10.2263 17.8533 12.0225 17.8533 13.9648H21.8533ZM22.6109 10.5562C23.1221 9.63309 23.811 8.94855 24.7009 8.4619L22.7817 4.95242C21.2139 5.80976 19.9829 7.04523 19.1117 8.61816L22.6109 10.5562ZM24.7009 8.4619C25.5969 7.97188 26.6698 7.69916 27.9749 7.69916V3.69916C26.0927 3.69916 24.3432 4.09844 22.7817 4.95242L24.7009 8.4619ZM27.9749 7.69916C29.2426 7.69916 30.291 7.96282 31.1722 8.4384L33.0719 4.91832C31.534 4.0883 29.8175 3.69916 27.9749 3.69916V7.69916ZM31.1722 8.4384C32.0434 8.90859 32.7083 9.56501 33.1962 10.4433L36.6928 8.50067C35.8367 6.95971 34.6199 5.75373 33.0719 4.91832L31.1722 8.4384ZM33.208 10.4642C33.7009 11.3269 33.9813 12.3854 33.9813 13.7056H37.9813C37.9813 11.8002 37.5704 10.0363 36.681 8.47968L33.208 10.4642ZM32.9413 12.4096C32.9413 11.0553 32.4521 9.80515 31.3871 8.88218L28.7674 11.9049C28.8545 11.9804 28.9413 12.0743 28.9413 12.4096H32.9413ZM31.3871 8.88218C30.3989 8.02569 29.1939 7.64476 27.9173 7.64476V11.6448C28.3686 11.6448 28.6037 11.763 28.7674 11.9049L31.3871 8.88218ZM27.9173 7.64476C26.6744 7.64476 25.507 8.01792 24.5345 8.82832L27.0952 11.9012C27.2748 11.7516 27.509 11.6448 27.9173 11.6448V7.64476ZM24.509 8.84994C23.5172 9.70494 22.9909 10.8595 22.8008 12.1087L26.7553 12.7105C26.834 12.1932 26.999 11.9846 27.1208 11.8796L24.509 8.84994ZM24.7781 14.4096H30.9413V10.4096H24.7781V14.4096ZM44.3681 8.60796H42.3681V15.3359L46.0434 9.70049L44.3681 8.60796ZM46.5282 6.53436L47.5287 8.26609L47.543 8.25783L47.5571 8.24934L46.5282 6.53436ZM49.4082 5.75676H51.4082V3.75676H49.4082V5.75676ZM49.4082 10.9696V12.9696H51.4082V10.9696H49.4082ZM45.2897 11.776L46.5795 13.3046L46.5932 13.293L46.6068 13.2812L45.2897 11.776ZM44.3681 22V24H46.3681V22H44.3681ZM39.4433 22H37.4433V24H39.4433V22ZM39.4433 5.92956V3.92956H37.4433V5.92956H39.4433ZM44.3681 5.92956H46.3681V3.92956H44.3681V5.92956ZM46.0434 9.70049C46.4578 9.06505 46.9521 8.59925 47.5287 8.26609L45.5276 4.80263C44.3762 5.46787 43.4305 6.38447 42.6929 7.51542L46.0434 9.70049ZM47.5571 8.24934C48.0951 7.92659 48.6964 7.75676 49.4082 7.75676V3.75676C48.0079 3.75676 46.6892 4.10533 45.4992 4.81937L47.5571 8.24934ZM47.4082 5.75676V10.9696H51.4082V5.75676H47.4082ZM49.4082 8.96956H48.0546V12.9696H49.4082V8.96956ZM48.0546 8.96956C46.5782 8.96956 45.0974 9.28674 43.9727 10.2708L46.6068 13.2812C46.7109 13.19 47.0733 12.9696 48.0546 12.9696V8.96956ZM44 10.2474C42.7123 11.3339 42.3681 12.9994 42.3681 14.5408H46.3681C46.3681 14.0207 46.43 13.6863 46.4959 13.4885C46.5576 13.3035 46.6069 13.2815 46.5795 13.3046L44 10.2474ZM42.3681 14.5408V22H46.3681V14.5408H42.3681ZM44.3681 20H39.4433V24H44.3681V20ZM41.4433 22V5.92956H37.4433V22H41.4433ZM39.4433 7.92956H44.3681V3.92956H39.4433V7.92956ZM42.3681 5.92956V8.60796H46.3681V5.92956H42.3681Z" fill="#DCA130" fill-opacity="0.5"/>
</g>
</svg>