<svg xmlns="http://www.w3.org/2000/svg" width="75" height="31" viewBox="0 0 75 31" fill="none">
<mask id="mask0_528_1481" style="mask-type:luminance" maskUnits="userSpaceOnUse" x="0" y="0" width="75" height="31">
<path d="M75 0H0V31H75V0Z" fill="white"/>
<path d="M2.40397 24.068C3.21997 23.42 3.59197 23.12 3.51997 23.168C5.87197 21.224 7.71997 19.628 9.06397 18.38C10.432 17.132 11.584 15.824 12.52 14.456C13.456 13.088 13.924 11.756 13.924 10.46C13.924 9.47604 13.696 8.70804 13.24 8.15604C12.784 7.60404 12.1 7.32804 11.188 7.32804C10.276 7.32804 9.55597 7.67605 9.02797 8.37205C8.52397 9.04405 8.27197 10.004 8.27197 11.252H2.33197C2.37997 9.21204 2.81197 7.50804 3.62797 6.14004C4.46797 4.77204 5.55997 3.76405 6.90397 3.11604C8.27197 2.46804 9.78397 2.14404 11.44 2.14404C14.296 2.14404 16.444 2.87604 17.884 4.34004C19.348 5.80404 20.08 7.71204 20.08 10.064C20.08 12.632 19.204 15.02 17.452 17.228C15.7 19.412 13.468 21.548 10.756 23.636H20.476V28.64H2.40397V24.068ZM34.2672 10.7792C34.2672 11.1248 34.2456 11.4848 34.2024 11.8592H25.8432C25.9008 12.608 26.1384 13.184 26.556 13.5872C26.988 13.976 27.5136 14.1704 28.1328 14.1704C29.0544 14.1704 29.6952 13.7816 30.0552 13.004H33.9864C33.7848 13.796 33.4176 14.5088 32.8848 15.1424C32.3664 15.776 31.7112 16.2728 30.9192 16.6328C30.1272 16.9928 29.2416 17.1728 28.2624 17.1728C27.0816 17.1728 26.0304 16.9208 25.1088 16.4168C24.1872 15.9128 23.4672 15.1928 22.9488 14.2568C22.4304 13.3208 22.1712 12.2264 22.1712 10.9736C22.1712 9.72085 22.4232 8.62644 22.9272 7.69044C23.4456 6.75444 24.1656 6.03445 25.0872 5.53045C26.0088 5.02645 27.0672 4.77445 28.2624 4.77445C29.4288 4.77445 30.4656 5.01925 31.3728 5.50885C32.28 5.99845 32.9856 6.69684 33.4896 7.60404C34.008 8.51124 34.2672 9.56964 34.2672 10.7792ZM30.4872 9.80724C30.4872 9.17364 30.2712 8.66964 29.8392 8.29524C29.4072 7.92084 28.8672 7.73364 28.2192 7.73364C27.6 7.73364 27.0744 7.91364 26.6424 8.27364C26.2248 8.63364 25.9656 9.14484 25.8648 9.80724H30.4872ZM52.243 4.81765C53.7406 4.81765 54.9286 5.27124 55.807 6.17844C56.6998 7.08564 57.1462 8.34564 57.1462 9.95844V17H53.4742V10.4552C53.4742 9.67765 53.2654 9.08004 52.8478 8.66244C52.4446 8.23044 51.883 8.01444 51.163 8.01444C50.443 8.01444 49.8742 8.23044 49.4566 8.66244C49.0534 9.08004 48.8518 9.67765 48.8518 10.4552V17H45.1798V10.4552C45.1798 9.67765 44.971 9.08004 44.5534 8.66244C44.1502 8.23044 43.5886 8.01444 42.8686 8.01444C42.1486 8.01444 41.5798 8.23044 41.1622 8.66244C40.759 9.08004 40.5574 9.67765 40.5574 10.4552V17H36.8638V4.94725H40.5574V6.45924C40.9318 5.95524 41.4214 5.55924 42.0262 5.27125C42.631 4.96885 43.315 4.81765 44.0782 4.81765C44.9854 4.81765 45.7918 5.01205 46.4974 5.40085C47.2174 5.78965 47.779 6.34404 48.1822 7.06404C48.5998 6.40164 49.1686 5.86165 49.8886 5.44405C50.6086 5.02645 51.3934 4.81765 52.243 4.81765ZM71.739 10.7792C71.739 11.1248 71.7174 11.4848 71.6742 11.8592H63.315C63.3726 12.608 63.6102 13.184 64.0278 13.5872C64.4598 13.976 64.9854 14.1704 65.6046 14.1704C66.5262 14.1704 67.167 13.7816 67.527 13.004H71.4582C71.2566 13.796 70.8894 14.5088 70.3566 15.1424C69.8382 15.776 69.183 16.2728 68.391 16.6328C67.599 16.9928 66.7134 17.1728 65.7342 17.1728C64.5534 17.1728 63.5022 16.9208 62.5806 16.4168C61.659 15.9128 60.939 15.1928 60.4206 14.2568C59.9022 13.3208 59.643 12.2264 59.643 10.9736C59.643 9.72085 59.895 8.62644 60.399 7.69044C60.9174 6.75444 61.6374 6.03445 62.559 5.53045C63.4806 5.02645 64.539 4.77445 65.7342 4.77445C66.9006 4.77445 67.9374 5.01925 68.8446 5.50885C69.7518 5.99845 70.4574 6.69684 70.9614 7.60404C71.4798 8.51124 71.739 9.56964 71.739 10.7792ZM67.959 9.80724C67.959 9.17364 67.743 8.66964 67.311 8.29524C66.879 7.92084 66.339 7.73364 65.691 7.73364C65.0718 7.73364 64.5462 7.91364 64.1142 8.27364C63.6966 8.63364 63.4374 9.14484 63.3366 9.80724H67.959Z" fill="black"/>
</mask>
<g mask="url(#mask0_528_1481)">
<path d="M2.40397 24.068L1.16021 22.5018L0.403973 23.1023V24.068H2.40397ZM9.06397 18.38L7.71605 16.9025L7.70953 16.9084L7.70307 16.9144L9.06397 18.38ZM9.02797 8.37204L7.43456 7.16325L7.42797 7.17204L9.02797 8.37204ZM8.27197 11.252V13.252H10.272V11.252H8.27197ZM2.33197 11.252L0.332523 11.205L0.284363 13.252H2.33197V11.252ZM3.62797 6.14004L1.92363 5.09351L1.91691 5.10445L1.91033 5.11548L3.62797 6.14004ZM6.90397 3.11604L6.04778 1.30852L6.03537 1.3145L6.90397 3.11604ZM17.884 4.34004L16.4581 5.74252L16.4639 5.74841L16.4698 5.75425L17.884 4.34004ZM17.452 17.228L19.0121 18.4795L19.0187 18.4711L17.452 17.228ZM10.756 23.636L9.53587 22.0513L4.87985 25.636H10.756V23.636ZM20.476 23.636H22.476V21.636H20.476V23.636ZM20.476 28.64V30.64H22.476V28.64H20.476ZM2.40397 28.64H0.403973V30.64H2.40397V28.64ZM3.64773 25.6342C4.0562 25.3098 4.35821 25.0689 4.55047 24.9138C4.64335 24.8389 4.72264 24.7744 4.7771 24.7287C6.34944 23.4048 1.32139 19.8702 4.62937 24.8321C4.61918 24.8389 4.58798 24.8596 4.54582 24.8846C4.52539 24.8967 4.48424 24.9207 4.4304 24.948C4.4041 24.9613 4.257 25.0374 4.05451 25.0926C3.97368 25.1146 3.69517 25.189 3.33345 25.1535C2.92691 25.1136 3.38866 25.4438 3 24.5C2.70505 23.7837 2.93178 24.1906 2.97656 24.068C2.99523 24.0169 4.49464 24.006 4.5 24C4.89079 23.5622 2.51758 21.3982 2.2458 21.6264C1.89027 21.926 1.52428 22.2127 1.16021 22.5018L3.64773 25.6342ZM10.4249 19.8456L7.70307 16.9144C6.39954 18.1248 4.58478 19.6932 2.2458 21.6264C5.77303 25.3065 6.82603 23.1875 10.4249 19.8456ZM10.4119 19.8575C11.8808 18.5175 13.138 17.0946 14.1706 15.5854L10.8694 13.3266C10.03 14.5534 8.98315 15.7465 7.71605 16.9025L10.4119 19.8575ZM14.1706 15.5854C15.2709 13.9772 15.924 12.2582 15.924 10.46H11.924C11.924 11.2538 11.6411 12.1988 10.8694 13.3266L14.1706 15.5854ZM15.924 10.46C15.924 9.18416 15.6281 7.90664 14.7819 6.88227L11.6981 9.4298C11.7638 9.50943 11.924 9.76792 11.924 10.46H15.924ZM14.7819 6.88227C13.8461 5.74941 12.5196 5.32804 11.188 5.32804V9.32804C11.4462 9.32804 11.5814 9.36747 11.6366 9.38974C11.6795 9.40707 11.6886 9.41841 11.6981 9.4298L14.7819 6.88227ZM11.188 5.32804C9.68244 5.32804 8.35969 5.94375 7.43456 7.16325L10.6214 9.58081C10.7522 9.40831 10.8695 9.32804 11.188 9.32804V5.32804ZM7.42797 7.17204C6.56541 8.32213 6.27197 9.77183 6.27197 11.252H10.272C10.272 10.2363 10.4825 9.76595 10.628 9.57204L7.42797 7.17204ZM8.27197 9.25204H2.33197V13.252H8.27197V9.25204ZM4.33142 11.2991C4.37354 9.509 4.74916 8.16453 5.34561 7.16459L1.91033 5.11548C0.874783 6.85155 0.386403 8.91508 0.332523 11.205L4.33142 11.2991ZM5.33231 7.18656C5.9877 6.11923 6.80009 5.38645 7.77257 4.91758L6.03537 1.3145C4.31985 2.14163 2.94825 3.42485 1.92363 5.09351L5.33231 7.18656ZM7.76014 4.92351C8.83615 4.41383 10.0519 4.14404 11.44 4.14404V0.144043C9.51605 0.144043 7.70777 0.52221 6.04778 1.30852L7.76014 4.92351ZM11.44 4.14404C13.9736 4.14404 15.5214 4.79013 16.4581 5.74252L19.3099 2.93756C17.3666 0.961953 14.6184 0.144043 11.44 0.144043V4.14404ZM16.4698 5.75425C17.5066 6.79108 18.08 8.16395 18.08 10.064H22.08C22.08 7.26013 21.1894 4.817 19.2982 2.92583L16.4698 5.75425ZM18.08 10.064C18.08 12.1359 17.3858 14.0938 15.8853 15.9848L19.0187 18.4711C21.0222 15.9462 22.08 13.1281 22.08 10.064H18.08ZM15.8919 15.9765C14.2587 18.0124 12.1485 20.0398 9.53587 22.0513L11.9761 25.2207C14.7875 23.0562 17.1413 20.8116 19.0121 18.4795L15.8919 15.9765ZM10.756 25.636H20.476V21.636H10.756V25.636ZM18.476 23.636V28.64H22.476V23.636H18.476ZM20.476 26.64H2.40397V30.64H20.476V26.64ZM4.40397 28.64V24.068H2.40397H0.403973V28.64H4.40397ZM34.2024 11.8592V13.8592H35.9849L36.1892 12.0884L34.2024 11.8592ZM25.8432 11.8592V9.85924H23.6835L23.8491 12.0126L25.8432 11.8592ZM26.556 13.5872L25.1668 15.026L25.192 15.0503L25.2181 15.0738L26.556 13.5872ZM30.0552 13.004V11.004H28.7772L28.2403 12.1638L30.0552 13.004ZM33.9864 13.004L35.9246 13.4974L36.5593 11.004H33.9864V13.004ZM32.8848 15.1424L31.3541 13.8552L31.3454 13.8655L31.3369 13.8759L32.8848 15.1424ZM22.9272 7.69044L21.1776 6.72144L21.1719 6.73181L21.1663 6.74224L22.9272 7.69044ZM33.4896 7.60404L31.7413 8.57533L31.7471 8.58586L31.7531 8.59632L33.4896 7.60404ZM30.4872 9.80724V11.8072H32.4872V9.80724H30.4872ZM26.6424 8.27364L25.362 6.7372L25.3492 6.7479L25.3365 6.75882L26.6424 8.27364ZM25.8648 9.80724L23.8876 9.50636L23.5374 11.8072H25.8648V9.80724ZM32.2672 10.7792C32.2672 11.0417 32.2508 11.3249 32.2156 11.63L36.1892 12.0884C36.2404 11.6447 36.2672 11.208 36.2672 10.7792H32.2672ZM34.2024 9.85924H25.8432V13.8592H34.2024V9.85924ZM23.8491 12.0126C23.9329 13.1024 24.3037 14.1927 25.1668 15.026L27.9452 12.1484C27.9452 12.1484 27.9427 12.1461 27.9388 12.1402C27.9346 12.134 27.9253 12.1187 27.9135 12.0901C27.8893 12.0315 27.8532 11.9124 27.8373 11.7059L23.8491 12.0126ZM25.2181 15.0738C26.0427 15.816 27.0548 16.1704 28.1328 16.1704V12.1704C27.9724 12.1704 27.9333 12.136 27.8939 12.1006L25.2181 15.0738ZM28.1328 16.1704C28.8756 16.1704 29.6443 16.0121 30.3421 15.5887C31.0492 15.1596 31.5478 14.5405 31.8701 13.8442L28.2403 12.1638C28.2188 12.2101 28.2071 12.2208 28.2147 12.2119C28.2237 12.2015 28.2421 12.1841 28.2672 12.1689C28.2914 12.1542 28.3027 12.1531 28.2884 12.1567C28.2719 12.1608 28.2234 12.1704 28.1328 12.1704V16.1704ZM30.0552 15.004H33.9864V11.004H30.0552V15.004ZM32.0482 12.5106C31.9219 13.0068 31.6956 13.4491 31.3541 13.8552L34.4155 16.4296C35.1396 15.5685 35.6477 14.5852 35.9246 13.4974L32.0482 12.5106ZM31.3369 13.8759C31.025 14.2571 30.6221 14.5709 30.0916 14.8121L31.7468 18.4535C32.8003 17.9747 33.7078 17.2949 34.4327 16.4089L31.3369 13.8759ZM30.0916 14.8121C29.5904 15.0399 28.992 15.1728 28.2624 15.1728V19.1728C29.4912 19.1728 30.6641 18.9457 31.7468 18.4535L30.0916 14.8121ZM28.2624 15.1728C27.3747 15.1728 26.6608 14.986 26.0684 14.6621L24.1492 18.1715C25.4 18.8556 26.7885 19.1728 28.2624 19.1728V15.1728ZM26.0684 14.6621C25.4858 14.3434 25.0368 13.8989 24.6984 13.2878L21.1992 15.2258C21.8976 16.4867 22.8887 17.4822 24.1492 18.1715L26.0684 14.6621ZM24.6984 13.2878C24.3703 12.6954 24.1712 11.9457 24.1712 10.9736H20.1712C20.1712 12.5072 20.4905 13.9462 21.1992 15.2258L24.6984 13.2878ZM24.1712 10.9736C24.1712 9.9927 24.3669 9.23527 24.6881 8.63864L21.1663 6.74224C20.4795 8.01761 20.1712 9.44898 20.1712 10.9736H24.1712ZM24.6768 8.65944C25.0152 8.04837 25.4642 7.60384 26.0468 7.28518L24.1276 3.7757C22.8671 4.46504 21.876 5.46051 21.1776 6.72144L24.6768 8.65944ZM26.0468 7.28518C26.6357 6.96316 27.3558 6.77444 28.2624 6.77444V2.77444C26.7786 2.77444 25.3819 3.08972 24.1276 3.7757L26.0468 7.28518ZM28.2624 6.77444C29.1414 6.77444 29.8441 6.9565 30.4229 7.26888L32.3227 3.7488C31.0871 3.08198 29.7163 2.77444 28.2624 2.77444V6.77444ZM30.4229 7.26888C30.9918 7.57587 31.4214 7.99949 31.7413 8.57533L35.2379 6.63275C34.5498 5.39419 33.5682 4.421 32.3227 3.7488L30.4229 7.26888ZM31.7531 8.59632C32.0732 9.15654 32.2672 9.86221 32.2672 10.7792H36.2672C36.2672 9.27707 35.9428 7.86594 35.2261 6.61176L31.7531 8.59632ZM32.4872 9.80724C32.4872 8.66414 32.07 7.58203 31.1491 6.78386L28.5293 9.80662C28.5311 9.80814 28.5239 9.80207 28.5133 9.78764C28.5024 9.77295 28.4933 9.75673 28.4869 9.74188C28.4807 9.72742 28.4804 9.72174 28.4818 9.72942C28.4834 9.73773 28.4872 9.76241 28.4872 9.80724H32.4872ZM31.1491 6.78386C30.3048 6.05217 29.2799 5.73364 28.2192 5.73364V9.73364C28.4545 9.73364 28.5096 9.78951 28.5293 9.80662L31.1491 6.78386ZM28.2192 5.73364C27.1827 5.73364 26.1905 6.0468 25.362 6.7372L27.9228 9.81008C27.9583 9.78048 28.0173 9.73364 28.2192 9.73364V5.73364ZM25.3365 6.75882C24.4839 7.49382 24.0441 8.47799 23.8876 9.50636L27.842 10.1081C27.8657 9.95243 27.8998 9.86852 27.9186 9.8315C27.935 9.7992 27.9449 9.79139 27.9483 9.78846L25.3365 6.75882ZM25.8648 11.8072H30.4872V7.80724H25.8648V11.8072ZM55.807 6.17844L54.3701 7.56966L54.3758 7.5755L54.3815 7.58129L55.807 6.17844ZM57.1462 17V19H59.1462V17H57.1462ZM53.4742 17H51.4742V19H53.4742V17ZM52.8478 8.66244L51.3857 10.0271L51.4092 10.0523L51.4336 10.0767L52.8478 8.66244ZM49.4566 8.66244L48.0186 7.2724L48.0178 7.27325L49.4566 8.66244ZM48.8518 17V19H50.8518V17H48.8518ZM45.1798 17H43.1798V19H45.1798V17ZM44.5534 8.66244L43.0913 10.0271L43.1148 10.0523L43.1392 10.0767L44.5534 8.66244ZM41.1622 8.66244L39.7242 7.27239L39.7234 7.27325L41.1622 8.66244ZM40.5574 17V19H42.5574V17H40.5574ZM36.8638 17H34.8638V19H36.8638V17ZM36.8638 4.94724V2.94724H34.8638V4.94724H36.8638ZM40.5574 4.94724H42.5574V2.94724H40.5574V4.94724ZM40.5574 6.45924H38.5574V12.5054L42.1629 7.65189L40.5574 6.45924ZM42.0262 5.27124L42.886 7.07696L42.9034 7.06869L42.9206 7.06009L42.0262 5.27124ZM46.4974 5.40084L45.5322 7.15252L45.5396 7.15662L45.5471 7.16065L46.4974 5.40084ZM48.1822 7.06404L46.4372 8.04125L48.0804 10.9757L49.874 8.13064L48.1822 7.06404ZM52.243 6.81764C53.3077 6.81764 53.938 7.12333 54.3701 7.56966L57.2438 4.78722C55.9192 3.41915 54.1734 2.81764 52.243 2.81764V6.81764ZM54.3815 7.58129C54.8144 8.02123 55.1462 8.72348 55.1462 9.95844H59.1462C59.1462 7.9678 58.5851 6.15005 57.2324 4.77558L54.3815 7.58129ZM55.1462 9.95844V17H59.1462V9.95844H55.1462ZM57.1462 15H53.4742V19H57.1462V15ZM55.4742 17V10.4552H51.4742V17H55.4742ZM55.4742 10.4552C55.4742 9.32152 55.1621 8.1484 54.262 7.24823L51.4336 10.0767C51.4146 10.0577 51.417 10.0478 51.4295 10.0835C51.4451 10.1282 51.4742 10.2416 51.4742 10.4552H55.4742ZM54.3099 7.2978C53.4478 6.37414 52.3069 6.01444 51.163 6.01444V10.0144C51.3246 10.0144 51.3947 10.0387 51.4062 10.0431C51.4119 10.0453 51.4085 10.0446 51.4006 10.0392C51.3925 10.0338 51.3871 10.0286 51.3857 10.0271L54.3099 7.2978ZM51.163 6.01444C50.0165 6.01444 48.8865 6.37452 48.0186 7.2724L50.8945 10.0525C50.8983 10.0486 50.8985 10.049 50.8962 10.0505C50.894 10.052 50.8961 10.0501 50.9064 10.0462C50.9266 10.0385 51.0021 10.0144 51.163 10.0144V6.01444ZM48.0178 7.27325C47.1461 8.17603 46.8518 9.33991 46.8518 10.4552H50.8518C50.8518 10.2352 50.8807 10.1144 50.898 10.0631C50.9125 10.0204 50.9168 10.0294 50.8954 10.0516L48.0178 7.27325ZM46.8518 10.4552V17H50.8518V10.4552H46.8518ZM48.8518 15H45.1798V19H48.8518V15ZM47.1798 17V10.4552H43.1798V17H47.1798ZM47.1798 10.4552C47.1798 9.32152 46.8677 8.1484 45.9676 7.24823L43.1392 10.0767C43.1202 10.0577 43.1226 10.0478 43.1351 10.0835C43.1507 10.1282 43.1798 10.2416 43.1798 10.4552H47.1798ZM46.0155 7.2978C45.1534 6.37414 44.0125 6.01444 42.8686 6.01444V10.0144C43.0302 10.0144 43.1003 10.0387 43.1118 10.0431C43.1175 10.0453 43.1141 10.0446 43.1062 10.0392C43.0981 10.0338 43.0927 10.0286 43.0913 10.0271L46.0155 7.2978ZM42.8686 6.01444C41.7221 6.01444 40.5921 6.37451 39.7242 7.27239L42.6001 10.0525C42.6039 10.0486 42.6041 10.049 42.6018 10.0505C42.5996 10.052 42.6017 10.0501 42.612 10.0462C42.6322 10.0385 42.7077 10.0144 42.8686 10.0144V6.01444ZM39.7234 7.27325C38.8517 8.17603 38.5574 9.33991 38.5574 10.4552H42.5574C42.5574 10.2352 42.5863 10.1144 42.6036 10.0631C42.6181 10.0204 42.6224 10.0294 42.601 10.0516L39.7234 7.27325ZM38.5574 10.4552V17H42.5574V10.4552H38.5574ZM40.5574 15H36.8638V19H40.5574V15ZM38.8638 17V4.94724H34.8638V17H38.8638ZM36.8638 6.94724H40.5574V2.94724H36.8638V6.94724ZM38.5574 4.94724V6.45924H42.5574V4.94724H38.5574ZM42.1629 7.65189C42.3295 7.42753 42.5558 7.23421 42.886 7.07696L41.1663 3.46552C40.2869 3.88426 39.534 4.48294 38.9519 5.26659L42.1629 7.65189ZM42.9206 7.06009C43.2138 6.91351 43.5852 6.81764 44.0782 6.81764V2.81764C43.0448 2.81764 42.0482 3.02417 41.1317 3.48238L42.9206 7.06009ZM44.0782 6.81764C44.6911 6.81764 45.1579 6.94628 45.5322 7.15252L47.4626 3.64916C46.4256 3.0778 45.2797 2.81764 44.0782 2.81764V6.81764ZM45.5471 7.16065C45.9303 7.36761 46.2176 7.64922 46.4372 8.04125L49.9272 6.08683C49.3403 5.03886 48.5044 4.21167 47.4477 3.64103L45.5471 7.16065ZM49.874 8.13064C50.1083 7.75898 50.4336 7.43996 50.892 7.1741L48.8851 3.71398C47.9035 4.28332 47.0912 5.0443 46.4903 5.99744L49.874 8.13064ZM50.892 7.1741C51.3006 6.93712 51.7381 6.81764 52.243 6.81764V2.81764C51.0486 2.81764 49.9165 3.11576 48.8851 3.71398L50.892 7.1741ZM71.6742 11.8592V13.8592H73.4567L73.661 12.0884L71.6742 11.8592ZM63.315 11.8592V9.85924H61.1552L61.3209 12.0126L63.315 11.8592ZM64.0278 13.5872L62.6386 15.026L62.6638 15.0503L62.6899 15.0738L64.0278 13.5872ZM67.527 13.004V11.004H66.249L65.7121 12.1638L67.527 13.004ZM71.4582 13.004L73.3964 13.4974L74.0311 11.004H71.4582V13.004ZM70.3566 15.1424L68.8259 13.8552L68.8172 13.8655L68.8087 13.8759L70.3566 15.1424ZM60.399 7.69044L58.6494 6.72144L58.6437 6.73181L58.638 6.74224L60.399 7.69044ZM70.9614 7.60404L69.2131 8.57533L69.2189 8.58586L69.2249 8.59632L70.9614 7.60404ZM67.959 9.80724V11.8072H69.959V9.80724H67.959ZM64.1142 8.27364L62.8338 6.7372L62.821 6.7479L62.8083 6.75882L64.1142 8.27364ZM63.3366 9.80724L61.3594 9.50636L61.0092 11.8072H63.3366V9.80724ZM69.739 10.7792C69.739 11.0417 69.7226 11.3249 69.6874 11.63L73.661 12.0884C73.7122 11.6447 73.739 11.208 73.739 10.7792H69.739ZM71.6742 9.85924H63.315V13.8592H71.6742V9.85924ZM61.3209 12.0126C61.4047 13.1024 61.7755 14.1927 62.6386 15.026L65.417 12.1484C65.417 12.1484 65.4145 12.1461 65.4106 12.1402C65.4064 12.134 65.3971 12.1187 65.3853 12.0901C65.3611 12.0315 65.325 11.9124 65.3091 11.7059L61.3209 12.0126ZM62.6899 15.0738C63.5145 15.816 64.5266 16.1704 65.6046 16.1704V12.1704C65.4442 12.1704 65.4051 12.136 65.3657 12.1006L62.6899 15.0738ZM65.6046 16.1704C66.3474 16.1704 67.116 16.0121 67.8138 15.5887C68.521 15.1596 69.0196 14.5405 69.3419 13.8442L65.7121 12.1638C65.6906 12.2101 65.6789 12.2208 65.6865 12.2119C65.6955 12.2015 65.7139 12.1841 65.7389 12.1689C65.7632 12.1542 65.7745 12.1531 65.7602 12.1567C65.7437 12.1608 65.6952 12.1704 65.6046 12.1704V16.1704ZM67.527 15.004H71.4582V11.004H67.527V15.004ZM69.52 12.5106C69.3937 13.0068 69.1674 13.4491 68.8259 13.8552L71.8873 16.4296C72.6114 15.5685 73.1195 14.5852 73.3964 13.4974L69.52 12.5106ZM68.8087 13.8759C68.4968 14.2571 68.0939 14.5709 67.5634 14.8121L69.2186 18.4535C70.2721 17.9747 71.1796 17.2949 71.9045 16.4089L68.8087 13.8759ZM67.5634 14.8121C67.0621 15.0399 66.4638 15.1728 65.7342 15.1728V19.1728C66.963 19.1728 68.1358 18.9457 69.2186 18.4535L67.5634 14.8121ZM65.7342 15.1728C64.8465 15.1728 64.1326 14.986 63.5402 14.6621L61.621 18.1715C62.8718 18.8556 64.2603 19.1728 65.7342 19.1728V15.1728ZM63.5402 14.6621C62.9575 14.3434 62.5086 13.8989 62.1702 13.2878L58.671 15.2258C59.3694 16.4867 60.3604 17.4822 61.621 18.1715L63.5402 14.6621ZM62.1702 13.2878C61.8421 12.6954 61.643 11.9457 61.643 10.9736H57.643C57.643 12.5072 57.9623 13.9462 58.671 15.2258L62.1702 13.2878ZM61.643 10.9736C61.643 9.9927 61.8387 9.23527 62.1599 8.63864L58.638 6.74224C57.9513 8.01761 57.643 9.44898 57.643 10.9736H61.643ZM62.1486 8.65944C62.487 8.04837 62.9359 7.60384 63.5186 7.28518L61.5994 3.7757C60.3388 4.46504 59.3478 5.46051 58.6494 6.72144L62.1486 8.65944ZM63.5186 7.28518C64.1075 6.96316 64.8276 6.77444 65.7342 6.77444V2.77444C64.2504 2.77444 62.8537 3.08972 61.5994 3.7757L63.5186 7.28518ZM65.7342 6.77444C66.6131 6.77444 67.3159 6.9565 67.8947 7.26888L69.7945 3.7488C68.5589 3.08198 67.188 2.77444 65.7342 2.77444V6.77444ZM67.8947 7.26888C68.4636 7.57587 68.8932 7.99949 69.2131 8.57533L72.7097 6.63275C72.0216 5.39419 71.04 4.421 69.7945 3.7488L67.8947 7.26888ZM69.2249 8.59632C69.545 9.15654 69.739 9.86221 69.739 10.7792H73.739C73.739 9.27707 73.4145 7.86594 72.6979 6.61176L69.2249 8.59632ZM69.959 9.80724C69.959 8.66414 69.5418 7.58203 68.6209 6.78386L66.0011 9.80662C66.0029 9.80814 65.9957 9.80207 65.985 9.78764C65.9742 9.77295 65.9651 9.75673 65.9587 9.74188C65.9525 9.72742 65.9521 9.72174 65.9536 9.72942C65.9552 9.73773 65.959 9.76241 65.959 9.80724H69.959ZM68.6209 6.78386C67.7766 6.05217 66.7517 5.73364 65.691 5.73364V9.73364C65.9263 9.73364 65.9814 9.78951 66.0011 9.80662L68.6209 6.78386ZM65.691 5.73364C64.6545 5.73364 63.6623 6.0468 62.8338 6.7372L65.3946 9.81008C65.4301 9.78048 65.4891 9.73364 65.691 9.73364V5.73364ZM62.8083 6.75882C61.9557 7.49382 61.5158 8.47799 61.3594 9.50636L65.3138 10.1081C65.3375 9.95243 65.3716 9.86852 65.3904 9.8315C65.4068 9.7992 65.4167 9.79139 65.4201 9.78846L62.8083 6.75882ZM63.3366 11.8072H67.959V7.80724H63.3366V11.8072Z" fill="#888888" fill-opacity="0.5"/>
</g>
</svg>