<svg xmlns="http://www.w3.org/2000/svg" width="76" height="32" viewBox="0 0 76 32" fill="none">
<mask id="mask0_528_1488" style="mask-type:luminance" maskUnits="userSpaceOnUse" x="0" y="0" width="76" height="32">
<path d="M76 0H0V32H76V0Z" fill="white"/>
<path d="M2.83602 10.1359C2.93202 7.56791 3.77202 5.58791 5.35602 4.19591C6.94002 2.80391 9.08802 2.10791 11.8 2.10791C13.6 2.10791 15.136 2.41991 16.408 3.04391C17.704 3.66791 18.676 4.51991 19.324 5.59991C19.996 6.67991 20.332 7.89191 20.332 9.23591C20.332 10.8199 19.936 12.1159 19.144 13.1239C18.352 14.1079 17.428 14.7799 16.372 15.1399V15.2839C17.74 15.7399 18.82 16.4959 19.612 17.5519C20.404 18.6079 20.8 19.9639 20.8 21.6199C20.8 23.1079 20.452 24.4279 19.756 25.5799C19.084 26.7079 18.088 27.5959 16.768 28.2439C15.472 28.8919 13.924 29.2159 12.124 29.2159C9.24402 29.2159 6.94002 28.5079 5.21202 27.0919C3.50802 25.6759 2.60802 23.5399 2.51202 20.6839H8.48802C8.51202 21.7399 8.81202 22.5799 9.38802 23.2039C9.96402 23.8039 10.804 24.1039 11.908 24.1039C12.844 24.1039 13.564 23.8399 14.068 23.3119C14.596 22.7599 14.86 22.0399 14.86 21.1519C14.86 19.9999 14.488 19.1719 13.744 18.6679C13.024 18.1399 11.86 17.8759 10.252 17.8759H9.10002V12.8719H10.252C11.476 12.8719 12.46 12.6679 13.204 12.2599C13.972 11.8279 14.356 11.0719 14.356 9.99191C14.356 9.12791 14.116 8.45591 13.636 7.97591C13.156 7.49591 12.496 7.25591 11.656 7.25591C10.744 7.25591 10.06 7.53191 9.60402 8.08391C9.17202 8.63591 8.92002 9.31991 8.84802 10.1359H2.83602ZM35.4977 10.7791C35.4977 11.1247 35.4761 11.4847 35.4329 11.8591H27.0737C27.1313 12.6079 27.3689 13.1839 27.7865 13.5871C28.2185 13.9759 28.7441 14.1703 29.3633 14.1703C30.2849 14.1703 30.9257 13.7815 31.2857 13.0039H35.2169C35.0153 13.7959 34.6481 14.5087 34.1153 15.1423C33.5969 15.7759 32.9417 16.2727 32.1497 16.6327C31.3577 16.9927 30.4721 17.1727 29.4929 17.1727C28.3121 17.1727 27.2609 16.9207 26.3393 16.4167C25.4177 15.9127 24.6977 15.1927 24.1793 14.2567C23.6609 13.3207 23.4017 12.2263 23.4017 10.9735C23.4017 9.72071 23.6537 8.62631 24.1577 7.69031C24.6761 6.75431 25.3961 6.03431 26.3177 5.53031C27.2393 5.02631 28.2977 4.77431 29.4929 4.77431C30.6593 4.77431 31.6961 5.01911 32.6033 5.50871C33.5105 5.99831 34.2161 6.69671 34.7201 7.60391C35.2385 8.51111 35.4977 9.56951 35.4977 10.7791ZM31.7177 9.80711C31.7177 9.17351 31.5017 8.66951 31.0697 8.29511C30.6377 7.92071 30.0977 7.73351 29.4497 7.73351C28.8305 7.73351 28.3049 7.91351 27.8729 8.27351C27.4553 8.63351 27.1961 9.14471 27.0953 9.80711H31.7177ZM53.4734 4.81751C54.971 4.81751 56.159 5.27111 57.0374 6.17831C57.9302 7.08551 58.3766 8.34551 58.3766 9.95831V16.9999H54.7046V10.4551C54.7046 9.67751 54.4958 9.07991 54.0782 8.66231C53.675 8.23031 53.1134 8.01431 52.3934 8.01431C51.6734 8.01431 51.1046 8.23031 50.687 8.66231C50.2838 9.07991 50.0822 9.67751 50.0822 10.4551V16.9999H46.4102V10.4551C46.4102 9.67751 46.2014 9.07991 45.7838 8.66231C45.3806 8.23031 44.819 8.01431 44.099 8.01431C43.379 8.01431 42.8102 8.23031 42.3926 8.66231C41.9894 9.07991 41.7878 9.67751 41.7878 10.4551V16.9999H38.0942V4.94711H41.7878V6.45911C42.1622 5.95511 42.6518 5.55911 43.2566 5.27111C43.8614 4.96871 44.5454 4.81751 45.3086 4.81751C46.2158 4.81751 47.0222 5.01191 47.7278 5.40071C48.4478 5.78951 49.0094 6.34391 49.4126 7.06391C49.8302 6.40151 50.399 5.86151 51.119 5.44391C51.839 5.02631 52.6238 4.81751 53.4734 4.81751ZM72.9695 10.7791C72.9695 11.1247 72.9479 11.4847 72.9047 11.8591H64.5455C64.6031 12.6079 64.8407 13.1839 65.2583 13.5871C65.6903 13.9759 66.2159 14.1703 66.8351 14.1703C67.7567 14.1703 68.3975 13.7815 68.7575 13.0039H72.6887C72.4871 13.7959 72.1199 14.5087 71.5871 15.1423C71.0687 15.7759 70.4135 16.2727 69.6215 16.6327C68.8295 16.9927 67.9439 17.1727 66.9647 17.1727C65.7839 17.1727 64.7327 16.9207 63.8111 16.4167C62.8895 15.9127 62.1695 15.1927 61.6511 14.2567C61.1327 13.3207 60.8735 12.2263 60.8735 10.9735C60.8735 9.72071 61.1255 8.62631 61.6295 7.69031C62.1479 6.75431 62.8679 6.03431 63.7895 5.53031C64.7111 5.02631 65.7695 4.77431 66.9647 4.77431C68.1311 4.77431 69.1679 5.01911 70.0751 5.50871C70.9823 5.99831 71.6879 6.69671 72.1919 7.60391C72.7103 8.51111 72.9695 9.56951 72.9695 10.7791ZM69.1895 9.80711C69.1895 9.17351 68.9735 8.66951 68.5415 8.29511C68.1095 7.92071 67.5695 7.73351 66.9215 7.73351C66.3023 7.73351 65.7767 7.91351 65.3447 8.27351C64.9271 8.63351 64.6679 9.14471 64.5671 9.80711H69.1895Z" fill="black"/>
</mask>
<g mask="url(#mask0_528_1488)">
<path d="M2.83602 10.1359L0.837425 10.0612L0.759865 12.1359H2.83602V10.1359ZM16.408 3.04391L15.5272 4.83949L15.5337 4.84272L15.5404 4.84591L16.408 3.04391ZM19.324 5.59991L17.609 6.6289L17.6173 6.64277L17.6259 6.65651L19.324 5.59991ZM19.144 13.1239L20.702 14.3779L20.7094 14.3688L20.7166 14.3595L19.144 13.1239ZM16.372 15.1399L15.7267 13.2469L14.372 13.7087V15.1399H16.372ZM16.372 15.2839H14.372V16.7254L15.7395 17.1813L16.372 15.2839ZM19.756 25.5799L18.0441 24.5456L18.0378 24.5563L19.756 25.5799ZM16.768 28.2439L15.8867 26.4486L15.8801 26.4518L15.8736 26.455L16.768 28.2439ZM5.21202 27.0919L3.93375 28.6302L3.94438 28.6389L5.21202 27.0919ZM2.51202 20.6839V18.6839H0.443665L0.513155 20.7511L2.51202 20.6839ZM8.48802 20.6839L10.4875 20.6385L10.4431 18.6839H8.48802V20.6839ZM9.38802 23.2039L7.91841 24.5605L7.93169 24.5748L7.94525 24.589L9.38802 23.2039ZM14.068 23.3119L12.6227 21.9295L12.6213 21.9309L14.068 23.3119ZM13.744 18.6679L12.5613 20.2807L12.5914 20.3028L12.6223 20.3237L13.744 18.6679ZM9.10002 17.8759H7.10002V19.8759H9.10002V17.8759ZM9.10002 12.8719V10.8719H7.10002V12.8719H9.10002ZM13.204 12.2599L14.1657 14.0135L14.1751 14.0083L14.1845 14.0031L13.204 12.2599ZM9.60402 8.08391L8.0621 6.81015L8.04528 6.8305L8.02901 6.85129L9.60402 8.08391ZM8.84802 10.1359V12.1359H10.6793L10.8403 10.3117L8.84802 10.1359ZM4.83462 10.2106C4.91493 8.06254 5.59261 6.65053 6.67625 5.69824L4.03579 2.69358C1.95144 4.52529 0.949115 7.07328 0.837425 10.0612L4.83462 10.2106ZM6.67625 5.69824C7.80068 4.7101 9.43126 4.10791 11.8 4.10791V0.10791C8.74479 0.10791 6.07936 0.897709 4.03579 2.69358L6.67625 5.69824ZM11.8 4.10791C13.3748 4.10791 14.5932 4.38131 15.5272 4.83949L17.2889 1.24833C15.6788 0.4585 13.8252 0.10791 11.8 0.10791V4.10791ZM15.5404 4.84591C16.5359 5.32525 17.1894 5.92957 17.609 6.6289L21.039 4.57092C20.1626 3.11025 18.8721 2.01056 17.2756 1.24191L15.5404 4.84591ZM17.6259 6.65651C18.0892 7.40115 18.332 8.24328 18.332 9.23591H22.332C22.332 7.54054 21.9028 5.95867 21.0221 4.54331L17.6259 6.65651ZM18.332 9.23591C18.332 10.48 18.0263 11.3092 17.5714 11.8883L20.7166 14.3595C21.8457 12.9226 22.332 11.1598 22.332 9.23591H18.332ZM17.586 11.8699C16.9993 12.5988 16.3783 13.0247 15.7267 13.2469L17.0173 17.0329C18.4777 16.5351 19.7047 15.617 20.702 14.3779L17.586 11.8699ZM14.372 15.1399V15.2839H18.372V15.1399H14.372ZM15.7395 17.1813C16.759 17.5211 17.4867 18.0515 18.012 18.7519L21.212 16.3519C20.1533 14.9403 18.721 13.9587 17.0045 13.3865L15.7395 17.1813ZM18.012 18.7519C18.4845 19.3819 18.8 20.285 18.8 21.6199H22.8C22.8 19.6428 22.3235 17.8339 21.212 16.3519L18.012 18.7519ZM18.8 21.6199C18.8 22.783 18.5321 23.7379 18.0441 24.5456L21.4678 26.6141C22.3718 25.1178 22.8 23.4328 22.8 21.6199H18.8ZM18.0378 24.5563C17.5873 25.3124 16.902 25.9501 15.8867 26.4486L17.6493 30.0392C19.274 29.2417 20.5807 28.1034 21.4742 26.6035L18.0378 24.5563ZM15.8736 26.455C14.9144 26.9346 13.6871 27.2159 12.124 27.2159V31.2159C14.1609 31.2159 16.0296 30.8492 17.6624 30.0328L15.8736 26.455ZM12.124 27.2159C9.57046 27.2159 7.75762 26.5922 6.47967 25.5449L3.94438 28.6389C6.12242 30.4236 8.91758 31.2159 12.124 31.2159V27.2159ZM6.49026 25.5537C5.34491 24.6019 4.59363 23.0781 4.51089 20.6167L0.513155 20.7511C0.622415 24.0017 1.6711 26.75 3.93375 28.6302L6.49026 25.5537ZM2.51202 22.6839H8.48802V18.6839H2.51202V22.6839ZM6.48854 20.7293C6.5208 22.149 6.93698 23.4972 7.91841 24.5605L10.8576 21.8473C10.6871 21.6626 10.5032 21.3308 10.4875 20.6385L6.48854 20.7293ZM7.94525 24.589C9.01008 25.6982 10.4451 26.1039 11.908 26.1039V22.1039C11.163 22.1039 10.918 21.9096 10.8308 21.8188L7.94525 24.589ZM11.908 26.1039C13.2278 26.1039 14.534 25.7203 15.5147 24.6929L12.6213 21.9309C12.594 21.9595 12.4602 22.1039 11.908 22.1039V26.1039ZM15.5133 24.6943C16.4549 23.7099 16.86 22.4651 16.86 21.1519H12.86C12.86 21.6147 12.7371 21.8099 12.6227 21.9295L15.5133 24.6943ZM16.86 21.1519C16.86 19.546 16.3123 17.992 14.8657 17.0121L12.6223 20.3237C12.6637 20.3518 12.86 20.4538 12.86 21.1519H16.86ZM14.9267 17.0551C13.6829 16.1429 11.9866 15.8759 10.252 15.8759V19.8759C11.7335 19.8759 12.3651 20.1369 12.5613 20.2807L14.9267 17.0551ZM10.252 15.8759H9.10002V19.8759H10.252V15.8759ZM11.1 17.8759V12.8719H7.10002V17.8759H11.1ZM9.10002 14.8719H10.252V10.8719H9.10002V14.8719ZM10.252 14.8719C11.673 14.8719 13.0251 14.639 14.1657 14.0135L12.2423 10.5063C11.8949 10.6968 11.279 10.8719 10.252 10.8719V14.8719ZM14.1845 14.0031C15.7336 13.1317 16.356 11.6023 16.356 9.99191H12.356C12.356 10.3009 12.3007 10.432 12.2848 10.4632C12.2773 10.478 12.2732 10.4818 12.2722 10.4829C12.2707 10.4844 12.2585 10.4971 12.2235 10.5168L14.1845 14.0031ZM16.356 9.99191C16.356 8.74939 16.0006 7.51203 15.0502 6.5617L12.2218 9.39012C12.2314 9.39978 12.356 9.50642 12.356 9.99191H16.356ZM15.0502 6.5617C14.1103 5.62176 12.893 5.25591 11.656 5.25591V9.25591C12.099 9.25591 12.2017 9.37007 12.2218 9.39012L15.0502 6.5617ZM11.656 5.25591C10.3244 5.25591 8.99793 5.67729 8.0621 6.81015L11.1459 9.35767C11.1554 9.34628 11.1645 9.33494 11.2074 9.31761C11.2626 9.29534 11.3978 9.25591 11.656 9.25591V5.25591ZM8.02901 6.85129C7.32073 7.75631 6.9559 8.82521 6.85576 9.96012L10.8403 10.3117C10.8841 9.81461 11.0233 9.51551 11.179 9.31653L8.02901 6.85129ZM8.84802 8.13591H2.83602V12.1359H8.84802V8.13591ZM35.4329 11.8591V13.8591H37.2154L37.4197 12.0883L35.4329 11.8591ZM27.0737 11.8591V9.85911H24.9139L25.0796 12.0125L27.0737 11.8591ZM27.7865 13.5871L26.3973 15.0259L26.4225 15.0502L26.4485 15.0737L27.7865 13.5871ZM31.2857 13.0039V11.0039H30.0077L29.4707 12.1637L31.2857 13.0039ZM35.2169 13.0039L37.1551 13.4973L37.7897 11.0039H35.2169V13.0039ZM34.1153 15.1423L32.5846 13.8551L32.5759 13.8654L32.5674 13.8758L34.1153 15.1423ZM24.1577 7.69031L22.4081 6.72131L22.4024 6.73168L22.3967 6.74211L24.1577 7.69031ZM34.7201 7.60391L32.9718 8.5752L32.9776 8.58573L32.9836 8.59619L34.7201 7.60391ZM31.7177 9.80711V11.8071H33.7177V9.80711H31.7177ZM27.8729 8.27351L26.5925 6.73707L26.5797 6.74777L26.567 6.75869L27.8729 8.27351ZM27.0953 9.80711L25.118 9.50623L24.7679 11.8071H27.0953V9.80711ZM33.4977 10.7791C33.4977 11.0416 33.4813 11.3248 33.4461 11.6299L37.4197 12.0883C37.4709 11.6446 37.4977 11.2078 37.4977 10.7791H33.4977ZM35.4329 9.85911H27.0737V13.8591H35.4329V9.85911ZM25.0796 12.0125C25.1634 13.1023 25.5342 14.1926 26.3973 15.0259L29.1757 12.1483C29.1751 12.1478 29.1732 12.146 29.1692 12.1401C29.1651 12.1339 29.1558 12.1186 29.144 12.09C29.1197 12.0314 29.0837 11.9122 29.0678 11.7057L25.0796 12.0125ZM26.4485 15.0737C27.2732 15.8159 28.2852 16.1703 29.3633 16.1703V12.1703C29.2029 12.1703 29.1638 12.1359 29.1244 12.1005L26.4485 15.0737ZM29.3633 16.1703C30.1061 16.1703 30.8747 16.012 31.5725 15.5886C32.2797 15.1595 32.7783 14.5404 33.1006 13.8441L29.4707 12.1637C29.4493 12.21 29.4376 12.2207 29.4452 12.2118C29.4542 12.2014 29.4726 12.184 29.4976 12.1688C29.5219 12.1541 29.5332 12.153 29.5189 12.1566C29.5024 12.1607 29.4539 12.1703 29.3633 12.1703V16.1703ZM31.2857 15.0039H35.2169V11.0039H31.2857V15.0039ZM33.2787 12.5105C33.1524 13.0067 32.9261 13.449 32.5846 13.8551L35.646 16.4295C36.3701 15.5684 36.8782 14.5851 37.1551 13.4973L33.2787 12.5105ZM32.5674 13.8758C32.2555 14.257 31.8526 14.5708 31.3221 14.812L32.9773 18.4534C34.0308 17.9746 34.9383 17.2948 35.6632 16.4088L32.5674 13.8758ZM31.3221 14.812C30.8208 15.0398 30.2225 15.1727 29.4929 15.1727V19.1727C30.7216 19.1727 31.8945 18.9456 32.9773 18.4534L31.3221 14.812ZM29.4929 15.1727C28.6051 15.1727 27.8912 14.9859 27.2989 14.662L25.3797 18.1714C26.6305 18.8555 28.019 19.1727 29.4929 19.1727V15.1727ZM27.2989 14.662C26.7162 14.3433 26.2673 13.8988 25.9289 13.2877L22.4297 15.2257C23.1281 16.4866 24.1191 17.4821 25.3797 18.1714L27.2989 14.662ZM25.9289 13.2877C25.6008 12.6953 25.4017 11.9455 25.4017 10.9735H21.4017C21.4017 12.5071 21.721 13.9461 22.4297 15.2257L25.9289 13.2877ZM25.4017 10.9735C25.4017 9.99257 25.5974 9.23514 25.9186 8.63851L22.3967 6.74211C21.71 8.01748 21.4017 9.44885 21.4017 10.9735H25.4017ZM25.9073 8.65931C26.2457 8.04824 26.6946 7.60371 27.2773 7.28505L25.3581 3.77557C24.0975 4.46491 23.1065 5.46038 22.4081 6.72131L25.9073 8.65931ZM27.2773 7.28505C27.8661 6.96303 28.5862 6.77431 29.4929 6.77431V2.77431C28.0091 2.77431 26.6125 3.08959 25.3581 3.77557L27.2773 7.28505ZM29.4929 6.77431C30.3718 6.77431 31.0746 6.95637 31.6534 7.26875L33.5531 3.74867C32.3176 3.08185 30.9467 2.77431 29.4929 2.77431V6.77431ZM31.6534 7.26875C32.2222 7.57574 32.6519 7.99936 32.9718 8.5752L36.4684 6.63262C35.7803 5.39406 34.7987 4.42087 33.5531 3.74867L31.6534 7.26875ZM32.9836 8.59619C33.3037 9.15641 33.4977 9.86208 33.4977 10.7791H37.4977C37.4977 9.27694 37.1732 7.86581 36.4566 6.61163L32.9836 8.59619ZM33.7177 9.80711C33.7177 8.66401 33.3005 7.5819 32.3795 6.78373L29.7598 9.80649C29.7616 9.80801 29.7544 9.80194 29.7437 9.78751C29.7329 9.77282 29.7237 9.7566 29.7174 9.74175C29.7112 9.72729 29.7108 9.72161 29.7123 9.72929C29.7139 9.7376 29.7177 9.76228 29.7177 9.80711H33.7177ZM32.3795 6.78373C31.5353 6.05204 30.5103 5.73351 29.4497 5.73351V9.73351C29.685 9.73351 29.7401 9.78938 29.7598 9.80649L32.3795 6.78373ZM29.4497 5.73351C28.4132 5.73351 27.421 6.04667 26.5925 6.73707L29.1532 9.80995C29.1888 9.78035 29.2478 9.73351 29.4497 9.73351V5.73351ZM26.567 6.75869C25.7144 7.49369 25.2745 8.47786 25.118 9.50623L29.0725 10.108C29.0962 9.9523 29.1303 9.86839 29.1491 9.83137C29.1655 9.79907 29.1754 9.79126 29.1788 9.78833L26.567 6.75869ZM27.0953 11.8071H31.7177V7.80711H27.0953V11.8071ZM57.0374 6.17831L55.6006 7.56953L55.6063 7.57537L55.612 7.58116L57.0374 6.17831ZM58.3766 16.9999V18.9999H60.3766V16.9999H58.3766ZM54.7046 16.9999H52.7046V18.9999H54.7046V16.9999ZM54.0782 8.66231L52.6161 10.0269L52.6396 10.0522L52.664 10.0765L54.0782 8.66231ZM50.687 8.66231L49.2491 7.27227L49.2482 7.27312L50.687 8.66231ZM50.0822 16.9999V18.9999H52.0822V16.9999H50.0822ZM46.4102 16.9999H44.4102V18.9999H46.4102V16.9999ZM45.7838 8.66231L44.3217 10.0269L44.3452 10.0522L44.3696 10.0765L45.7838 8.66231ZM42.3926 8.66231L40.9547 7.27226L40.9538 7.27312L42.3926 8.66231ZM41.7878 16.9999V18.9999H43.7878V16.9999H41.7878ZM38.0942 16.9999H36.0942V18.9999H38.0942V16.9999ZM38.0942 4.94711V2.94711H36.0942V4.94711H38.0942ZM41.7878 4.94711H43.7878V2.94711H41.7878V4.94711ZM41.7878 6.45911H39.7878V12.5053L43.3933 7.65176L41.7878 6.45911ZM43.2566 5.27111L44.1165 7.07683L44.1339 7.06856L44.1511 7.05996L43.2566 5.27111ZM47.7278 5.40071L46.7626 7.15239L46.7701 7.15649L46.7775 7.16052L47.7278 5.40071ZM49.4126 7.06391L47.6676 8.04112L49.3109 10.9755L51.1045 8.13051L49.4126 7.06391ZM53.4734 6.81751C54.5382 6.81751 55.1684 7.1232 55.6006 7.56953L58.4743 4.78709C57.1496 3.41902 55.4039 2.81751 53.4734 2.81751V6.81751ZM55.612 7.58116C56.0449 8.0211 56.3766 8.72335 56.3766 9.95831H60.3766C60.3766 7.96767 59.8156 6.14992 58.4629 4.77545L55.612 7.58116ZM56.3766 9.95831V16.9999H60.3766V9.95831H56.3766ZM58.3766 14.9999H54.7046V18.9999H58.3766V14.9999ZM56.7046 16.9999V10.4551H52.7046V16.9999H56.7046ZM56.7046 10.4551C56.7046 9.32139 56.3926 8.14827 55.4924 7.2481L52.664 10.0765C52.6451 10.0576 52.6475 10.0477 52.66 10.0834C52.6756 10.128 52.7046 10.2415 52.7046 10.4551H56.7046ZM55.5403 7.29767C54.6783 6.37401 53.5374 6.01431 52.3934 6.01431V10.0143C52.555 10.0143 52.6252 10.0386 52.6367 10.043C52.6423 10.0452 52.639 10.0444 52.631 10.0391C52.6229 10.0337 52.6176 10.0285 52.6161 10.0269L55.5403 7.29767ZM52.3934 6.01431C51.247 6.01431 50.117 6.37439 49.2491 7.27227L52.125 10.0524C52.1287 10.0485 52.129 10.0489 52.1267 10.0504C52.1245 10.0518 52.1266 10.0499 52.1369 10.046C52.157 10.0384 52.2325 10.0143 52.3934 10.0143V6.01431ZM49.2482 7.27312C48.3766 8.1759 48.0822 9.33978 48.0822 10.4551H52.0822C52.0822 10.235 52.1112 10.1143 52.1285 10.063C52.1429 10.0202 52.1473 10.0293 52.1258 10.0515L49.2482 7.27312ZM48.0822 10.4551V16.9999H52.0822V10.4551H48.0822ZM50.0822 14.9999H46.4102V18.9999H50.0822V14.9999ZM48.4102 16.9999V10.4551H44.4102V16.9999H48.4102ZM48.4102 10.4551C48.4102 9.32139 48.0982 8.14827 47.198 7.2481L44.3696 10.0765C44.3507 10.0576 44.3531 10.0477 44.3656 10.0834C44.3812 10.128 44.4102 10.2415 44.4102 10.4551H48.4102ZM47.2459 7.29767C46.3839 6.37401 45.243 6.01431 44.099 6.01431V10.0143C44.2606 10.0143 44.3308 10.0386 44.3423 10.043C44.3479 10.0452 44.3446 10.0444 44.3366 10.0391C44.3285 10.0337 44.3232 10.0285 44.3217 10.0269L47.2459 7.29767ZM44.099 6.01431C42.9526 6.01431 41.8226 6.37438 40.9547 7.27226L43.8306 10.0524C43.8343 10.0485 43.8346 10.0489 43.8323 10.0504C43.8301 10.0518 43.8322 10.0499 43.8425 10.046C43.8626 10.0384 43.9381 10.0143 44.099 10.0143V6.01431ZM40.9538 7.27312C40.0822 8.1759 39.7878 9.33978 39.7878 10.4551H43.7878C43.7878 10.235 43.8168 10.1143 43.8341 10.063C43.8485 10.0202 43.8529 10.0293 43.8314 10.0515L40.9538 7.27312ZM39.7878 10.4551V16.9999H43.7878V10.4551H39.7878ZM41.7878 14.9999H38.0942V18.9999H41.7878V14.9999ZM40.0942 16.9999V4.94711H36.0942V16.9999H40.0942ZM38.0942 6.94711H41.7878V2.94711H38.0942V6.94711ZM39.7878 4.94711V6.45911H43.7878V4.94711H39.7878ZM43.3933 7.65176C43.56 7.4274 43.7863 7.23408 44.1165 7.07683L42.3968 3.46539C41.5174 3.88413 40.7645 4.48281 40.1823 5.26646L43.3933 7.65176ZM44.1511 7.05996C44.4442 6.91338 44.8156 6.81751 45.3086 6.81751V2.81751C44.2752 2.81751 43.2786 3.02404 42.3622 3.48225L44.1511 7.05996ZM45.3086 6.81751C45.9215 6.81751 46.3883 6.94615 46.7626 7.15239L48.693 3.64903C47.6561 3.07767 46.5101 2.81751 45.3086 2.81751V6.81751ZM46.7775 7.16052C47.1608 7.36748 47.4481 7.64909 47.6676 8.04112L51.1576 6.0867C50.5708 5.03873 49.7349 4.21154 48.6781 3.6409L46.7775 7.16052ZM51.1045 8.13051C51.3388 7.75885 51.6641 7.43983 52.1225 7.17397L50.1156 3.71385C49.134 4.28319 48.3217 5.04417 47.7208 5.99731L51.1045 8.13051ZM52.1225 7.17397C52.5311 6.93699 52.9686 6.81751 53.4734 6.81751V2.81751C52.2791 2.81751 51.147 3.11563 50.1156 3.71385L52.1225 7.17397ZM72.9047 11.8591V13.8591H74.6872L74.8915 12.0883L72.9047 11.8591ZM64.5455 11.8591V9.85911H62.3857L62.5513 12.0125L64.5455 11.8591ZM65.2583 13.5871L63.8691 15.0259L63.8943 15.0502L63.9203 15.0737L65.2583 13.5871ZM68.7575 13.0039V11.0039H67.4794L66.9425 12.1637L68.7575 13.0039ZM72.6887 13.0039L74.6269 13.4973L75.2615 11.0039H72.6887V13.0039ZM71.5871 15.1423L70.0563 13.8551L70.0477 13.8654L70.0391 13.8758L71.5871 15.1423ZM61.6295 7.69031L59.8799 6.72131L59.8741 6.73168L59.8685 6.74211L61.6295 7.69031ZM72.1919 7.60391L70.4435 8.5752L70.4494 8.58573L70.4554 8.59619L72.1919 7.60391ZM69.1895 9.80711V11.8071H71.1895V9.80711H69.1895ZM65.3447 8.27351L64.0643 6.73707L64.0514 6.74777L64.0388 6.75869L65.3447 8.27351ZM64.5671 9.80711L62.5898 9.50623L62.2397 11.8071H64.5671V9.80711ZM70.9695 10.7791C70.9695 11.0416 70.953 11.3248 70.9178 11.6299L74.8915 12.0883C74.9427 11.6446 74.9695 11.2078 74.9695 10.7791H70.9695ZM72.9047 9.85911H64.5455V13.8591H72.9047V9.85911ZM62.5513 12.0125C62.6352 13.1023 63.006 14.1926 63.8691 15.0259L66.6474 12.1483C66.6469 12.1478 66.645 12.146 66.641 12.1401C66.6369 12.1339 66.6275 12.1186 66.6157 12.09C66.5915 12.0314 66.5555 11.9122 66.5396 11.7057L62.5513 12.0125ZM63.9203 15.0737C64.745 15.8159 65.757 16.1703 66.8351 16.1703V12.1703C66.6747 12.1703 66.6356 12.1359 66.5962 12.1005L63.9203 15.0737ZM66.8351 16.1703C67.5779 16.1703 68.3465 16.012 69.0443 15.5886C69.7515 15.1595 70.2501 14.5404 70.5724 13.8441L66.9425 12.1637C66.9211 12.21 66.9094 12.2207 66.917 12.2118C66.9259 12.2014 66.9444 12.184 66.9694 12.1688C66.9936 12.1541 67.005 12.153 66.9906 12.1566C66.9742 12.1607 66.9256 12.1703 66.8351 12.1703V16.1703ZM68.7575 15.0039H72.6887V11.0039H68.7575V15.0039ZM70.7505 12.5105C70.6242 13.0067 70.3979 13.449 70.0563 13.8551L73.1178 16.4295C73.8419 15.5684 74.35 14.5851 74.6269 13.4973L70.7505 12.5105ZM70.0391 13.8758C69.7272 14.257 69.3243 14.5708 68.7939 14.812L70.4491 18.4534C71.5026 17.9746 72.4101 17.2948 73.135 16.4088L70.0391 13.8758ZM68.7939 14.812C68.2926 15.0398 67.6943 15.1727 66.9647 15.1727V19.1727C68.1934 19.1727 69.3663 18.9456 70.4491 18.4534L68.7939 14.812ZM66.9647 15.1727C66.0769 15.1727 65.363 14.9859 64.7707 14.662L62.8514 18.1714C64.1023 18.8555 65.4908 19.1727 66.9647 19.1727V15.1727ZM64.7707 14.662C64.188 14.3433 63.7391 13.8988 63.4006 13.2877L59.9015 15.2257C60.5998 16.4866 61.5909 17.4821 62.8514 18.1714L64.7707 14.662ZM63.4006 13.2877C63.0726 12.6953 62.8735 11.9455 62.8735 10.9735H58.8735C58.8735 12.5071 59.1928 13.9461 59.9015 15.2257L63.4006 13.2877ZM62.8735 10.9735C62.8735 9.99257 63.0691 9.23514 63.3904 8.63851L59.8685 6.74211C59.1818 8.01748 58.8735 9.44885 58.8735 10.9735H62.8735ZM63.379 8.65931C63.7175 8.04824 64.1664 7.60371 64.7491 7.28505L62.8298 3.77557C61.5693 4.46491 60.5782 5.46038 59.8799 6.72131L63.379 8.65931ZM64.7491 7.28505C65.3379 6.96303 66.058 6.77431 66.9647 6.77431V2.77431C65.4809 2.77431 64.0842 3.08959 62.8298 3.77557L64.7491 7.28505ZM66.9647 6.77431C67.8436 6.77431 68.5464 6.95637 69.1252 7.26875L71.0249 3.74867C69.7893 3.08185 68.4185 2.77431 66.9647 2.77431V6.77431ZM69.1252 7.26875C69.694 7.57574 70.1236 7.99936 70.4435 8.5752L73.9402 6.63262C73.2521 5.39406 72.2705 4.42087 71.0249 3.74867L69.1252 7.26875ZM70.4554 8.59619C70.7755 9.15641 70.9695 9.86208 70.9695 10.7791H74.9695C74.9695 9.27694 74.645 7.86581 73.9283 6.61163L70.4554 8.59619ZM71.1895 9.80711C71.1895 8.66401 70.7723 7.5819 69.8513 6.78373L67.2316 9.80649C67.2334 9.80801 67.2262 9.80194 67.2155 9.78751C67.2047 9.77282 67.1955 9.7566 67.1892 9.74175C67.183 9.72729 67.1826 9.72161 67.1841 9.72929C67.1856 9.7376 67.1895 9.76228 67.1895 9.80711H71.1895ZM69.8513 6.78373C69.0071 6.05204 67.9821 5.73351 66.9215 5.73351V9.73351C67.1568 9.73351 67.2119 9.78938 67.2316 9.80649L69.8513 6.78373ZM66.9215 5.73351C65.885 5.73351 64.8928 6.04667 64.0643 6.73707L66.625 9.80995C66.6606 9.78035 66.7195 9.73351 66.9215 9.73351V5.73351ZM64.0388 6.75869C63.1862 7.49369 62.7463 8.47786 62.5898 9.50623L66.5443 10.108C66.568 9.9523 66.6021 9.86839 66.6209 9.83137C66.6372 9.79907 66.6471 9.79126 66.6505 9.78833L64.0388 6.75869ZM64.5671 11.8071H69.1895V7.80711H64.5671V11.8071Z" fill="#AE6938" fill-opacity="0.5"/>
</g>
</svg>