<svg width="112" height="80" viewBox="0 0 112 80" fill="none" xmlns="http://www.w3.org/2000/svg">
<path d="M55.6522 20.8696C44.121 20.8696 33.0622 25.4503 24.9084 33.6041C16.7547 41.7578 12.1739 52.8167 12.1739 64.3478V69.5652H99.1304V64.3478C99.1304 58.6382 98.0058 52.9844 95.8209 47.7094C93.6359 42.4344 90.4333 37.6414 86.396 33.6041C82.3586 29.5667 77.5656 26.3641 72.2906 24.1792C67.0156 21.9942 61.3618 20.8696 55.6522 20.8696Z" fill="url(#paint0_linear_974_380)"/>
<path d="M12.1739 69.5652H99.1304V76.5217C99.1304 77.4442 98.764 78.3289 98.1117 78.9812C97.4594 79.6335 96.5747 80 95.6522 80H15.6522C14.7297 80 13.845 79.6335 13.1927 78.9812C12.5404 78.3289 12.1739 77.4442 12.1739 76.5217V69.5652Z" fill="#F6B756"/>
<path d="M104.348 13.9131C102.47 43.9826 101.322 62.3826 100.974 67.9305C100.947 68.3734 100.752 68.7894 100.429 69.0933C100.106 69.3972 99.6785 69.566 99.2348 69.5652H12.0696C11.6258 69.566 11.1986 69.3972 10.8753 69.0933C10.552 68.7894 10.357 68.3734 10.3304 67.9305C9.46086 53.9131 10.4348 70.887 6.95651 13.9131L33.0435 44.9739C33.2273 45.1919 33.4619 45.3614 33.7267 45.4674C33.9914 45.5734 34.2781 45.6126 34.5616 45.5817C34.8451 45.5508 35.1166 45.4506 35.3523 45.2901C35.588 45.1295 35.7805 44.9134 35.913 44.6609L55.6522 6.95654L75.3217 44.6609C75.4542 44.9134 75.6468 45.1295 75.8825 45.2901C76.1181 45.4506 76.3896 45.5508 76.6731 45.5817C76.9566 45.6126 77.2434 45.5734 77.5081 45.4674C77.7728 45.3614 78.0075 45.1919 78.1913 44.9739L104.348 13.9131Z" fill="url(#paint1_linear_974_380)"/>
<path d="M55.6522 13.913C59.4942 13.913 62.6087 10.7985 62.6087 6.95652C62.6087 3.11454 59.4942 0 55.6522 0C51.8102 0 48.6957 3.11454 48.6957 6.95652C48.6957 10.7985 51.8102 13.913 55.6522 13.913Z" fill="url(#paint2_linear_974_380)"/>
<path d="M6.95652 20.8696C10.7985 20.8696 13.913 17.755 13.913 13.9131C13.913 10.0711 10.7985 6.95654 6.95652 6.95654C3.11454 6.95654 0 10.0711 0 13.9131C0 17.755 3.11454 20.8696 6.95652 20.8696Z" fill="url(#paint3_linear_974_380)"/>
<path d="M104.348 20.8696C108.19 20.8696 111.304 17.755 111.304 13.9131C111.304 10.0711 108.19 6.95654 104.348 6.95654C100.506 6.95654 97.3913 10.0711 97.3913 13.9131C97.3913 17.755 100.506 20.8696 104.348 20.8696Z" fill="url(#paint4_linear_974_380)"/>
<path d="M17.3912 53.913C17.3912 55.758 16.6583 57.5274 15.3537 58.832C14.0491 60.1366 12.2797 60.8695 10.4347 60.8695C10.2554 60.8868 10.0748 60.8868 9.89554 60.8695L9.02597 47.1304C10.0352 46.9217 11.0781 46.9398 12.0795 47.1835C13.0808 47.4271 14.0155 47.8902 14.816 48.5393C15.6164 49.1883 16.2627 50.0071 16.7081 50.9364C17.1535 51.8658 17.3868 52.8825 17.3912 53.913Z" fill="url(#paint5_linear_974_380)"/>
<path d="M102.278 47.0956L101.409 60.8348C101.231 60.8636 101.05 60.8752 100.87 60.8695C99.8985 60.8661 98.9388 60.6594 98.0524 60.2626C97.1659 59.8659 96.3724 59.288 95.7228 58.566C95.0732 57.844 94.582 56.9941 94.2808 56.0708C93.9796 55.1475 93.875 54.1714 93.9738 53.2053C94.0726 52.2392 94.3726 51.3044 94.8545 50.4613C95.3364 49.6181 95.9895 48.8851 96.7717 48.3096C97.554 47.7341 98.4481 47.3288 99.3965 47.1197C100.345 46.9106 101.327 46.9024 102.278 47.0956Z" fill="url(#paint6_linear_974_380)"/>
<path d="M55.6522 62.6087C61.4152 62.6087 66.087 57.9369 66.087 52.1739C66.087 46.4109 61.4152 41.7391 55.6522 41.7391C49.8892 41.7391 45.2174 46.4109 45.2174 52.1739C45.2174 57.9369 49.8892 62.6087 55.6522 62.6087Z" fill="url(#paint7_linear_974_380)"/>
<defs>
<linearGradient id="paint0_linear_974_380" x1="12.1739" y1="45.2174" x2="99.1304" y2="45.2174" gradientUnits="userSpaceOnUse">
<stop stop-color="#DA5466"/>
<stop offset="1" stop-color="#F4929C"/>
</linearGradient>
<linearGradient id="paint1_linear_974_380" x1="6.95651" y1="38.2609" x2="104.348" y2="38.2609" gradientUnits="userSpaceOnUse">
<stop stop-color="#FBCC88"/>
<stop offset="1" stop-color="#FFE5C3"/>
</linearGradient>
<linearGradient id="paint2_linear_974_380" x1="48.6957" y1="6.95652" x2="62.6087" y2="6.95652" gradientUnits="userSpaceOnUse">
<stop stop-color="#E9A254"/>
<stop offset="1" stop-color="#F4BB79"/>
</linearGradient>
<linearGradient id="paint3_linear_974_380" x1="0" y1="13.9131" x2="13.913" y2="13.9131" gradientUnits="userSpaceOnUse">
<stop stop-color="#E9A254"/>
<stop offset="1" stop-color="#F4BB79"/>
</linearGradient>
<linearGradient id="paint4_linear_974_380" x1="97.3913" y1="13.9131" x2="111.304" y2="13.9131" gradientUnits="userSpaceOnUse">
<stop stop-color="#E9A254"/>
<stop offset="1" stop-color="#F4BB79"/>
</linearGradient>
<linearGradient id="paint5_linear_974_380" x1="9.02597" y1="53.913" x2="17.3912" y2="53.913" gradientUnits="userSpaceOnUse">
<stop stop-color="#DA5466"/>
<stop offset="1" stop-color="#F4929C"/>
</linearGradient>
<linearGradient id="paint6_linear_974_380" x1="93.9131" y1="53.913" x2="102.278" y2="53.913" gradientUnits="userSpaceOnUse">
<stop stop-color="#DA5466"/>
<stop offset="1" stop-color="#F4929C"/>
</linearGradient>
<linearGradient id="paint7_linear_974_380" x1="45.2174" y1="52.1739" x2="66.087" y2="52.1739" gradientUnits="userSpaceOnUse">
<stop stop-color="#DA5466"/>
<stop offset="1" stop-color="#F4929C"/>
</linearGradient>
</defs>
</svg>
