<svg width="1000" height="1000" viewBox="0 0 1000 1000" fill="none" xmlns="http://www.w3.org/2000/svg">
<path fill-rule="evenodd" clip-rule="evenodd" d="M334.929 693C324.029 692.999 322.386 832.243 357.099 841.997C442.594 866.022 475.134 866.009 500.488 866C500.995 865.999 501.499 865.999 502 865.999L502 754.355V866C502.501 866 503.005 866 503.512 866.001C528.866 866.01 561.406 866.023 646.901 841.998C681.614 832.244 679.971 693 669.071 693.001C667.172 693.001 665.45 699.499 663.068 708.492C658.53 725.62 651.595 751.799 636.461 759.384C632.413 761.412 629.053 758.883 625.609 756.29C622.605 754.028 619.536 751.718 615.89 752.344C609.905 753.371 603.168 757.791 596.342 762.269C589.923 766.481 583.426 770.743 577.404 772.283C579.285 771.78 573.892 760.967 566.742 756.567C560.283 752.544 552.193 748.458 544.73 746.823C529.803 743.554 511.156 749.578 502 754.355V754.354C492.844 749.577 474.197 743.553 459.271 746.822C451.807 748.457 443.717 752.543 437.258 756.566C430.108 760.966 424.715 771.779 426.596 772.282C420.574 770.742 414.077 766.48 407.658 762.268C400.832 757.79 394.095 753.37 388.11 752.343C384.464 751.717 381.395 754.027 378.391 756.289C374.947 758.882 371.587 761.411 367.539 759.383C352.405 751.798 345.47 725.619 340.932 708.491C338.55 699.498 336.829 693 334.929 693Z" fill="#E1E7EA"/>
<path fill-rule="evenodd" clip-rule="evenodd" d="M494.676 772.428C494.571 772.369 494.513 772.311 494.506 772.252C493.082 755.968 469.426 754.916 457.35 757.516C450.352 759.064 442.487 761.417 438.214 767.422C435.967 770.534 434.291 774.301 433.261 778.207C433.538 794.148 433.925 817.39 433.925 822.612C433.925 827.987 429.55 832.299 424.237 832.299C418.862 832.299 414.55 827.924 414.55 822.612C414.55 816.133 414.585 788.801 414.602 775.32C413.168 774.067 411.802 772.779 410.579 771.488C409.811 770.676 409.096 769.893 408.411 769.143C403.42 763.678 400.053 759.992 389.597 759.992C375.556 759.992 371.684 768.797 368.488 776.065C367.704 777.848 366.96 779.539 366.117 780.984C359.123 792.979 357.624 791.98 357.624 791.98C349.45 757.432 374.298 750.89 384.014 749.529C407.795 746.199 421.679 766.803 421.679 766.803C421.679 766.803 429.792 753.863 436.79 749.529C443.168 745.567 449.918 743.586 457.288 741.976C472.027 738.756 486.58 744.143 495.621 748.848C498.222 750.21 501.213 750.768 504 750.706V752.022C504.042 752.026 504.084 752.031 504.126 752.036V750.726C506.913 750.788 509.904 750.231 512.505 748.869C521.546 744.163 536.099 738.777 550.838 741.996C558.208 743.606 564.958 745.587 571.336 749.55C578.334 753.884 586.447 766.824 586.447 766.824C586.447 766.824 600.331 746.22 624.112 749.55C633.828 750.91 658.676 757.452 650.502 792C650.502 792 649.003 793 642.009 781.005C641.166 779.559 640.422 777.869 639.638 776.086C636.442 768.817 632.57 760.013 618.529 760.013C608.073 760.013 604.706 763.699 599.715 769.164C599.03 769.913 598.315 770.697 597.547 771.508C596.549 772.562 595.456 773.613 594.308 774.645C594.302 782.461 594.06 795.647 593.864 806.389L593.864 806.391V806.392V806.392L593.864 806.396C593.727 813.85 593.612 820.125 593.612 822.612C593.612 827.987 589.3 832.299 583.925 832.299C578.55 832.299 574.237 827.924 574.237 822.612C574.237 818.543 575.209 799.232 575.97 784.729C575.508 778.675 573.399 772.27 569.912 767.443C565.639 761.437 557.774 759.085 550.776 757.537C539.221 755.048 517.061 755.905 513.925 770.251V822.612C513.925 827.987 509.612 832.299 504.237 832.299C498.862 832.299 494.55 827.924 494.55 822.612V788.487C494.55 785.79 494.607 779.324 494.676 772.428Z" fill="#8ABFD1"/>
<path d="M197.095 785.87C195.657 783.307 194.157 780.807 193.157 778.182C188.157 765.495 187.657 756.12 175.032 750.87C168.657 748.182 154.657 744.12 148.032 742.12C136.22 738.62 126.47 728.745 123.22 716.807C119.97 704.87 123.345 691.432 131.782 682.432C144.782 668.557 165.782 667.057 184.657 664.932C236.22 658.995 273.97 604.37 308.407 569.932L377.032 501.307L431.032 555.307L364.657 621.682C330.282 656.057 270.845 694.745 272.595 748.557C272.907 758.62 275.032 768.995 271.845 778.557C267.532 791.557 254.407 799.62 241.47 804.182C234.72 806.557 227.407 808.307 220.407 806.807C209.845 804.495 202.595 795.62 197.095 785.87Z" fill="#C8DEE9"/>
<path d="M190.095 722.995C203.657 724.432 204.595 741.307 201.22 756.495C200.032 761.807 197.22 767.495 192.657 769.495C188.47 771.307 187.97 759.682 178.907 753.182C175.97 751.057 152.97 746.682 139.22 738.245C135.345 735.87 136.22 730.057 140.72 729.12C155.845 725.995 184.032 722.307 190.095 722.995Z" fill="#8ABFD1"/>
<path d="M261.407 619.932C262.907 618.432 279.845 619.432 286.97 632.057C291.595 640.245 293.845 649.87 292.72 659.057C291.157 671.62 285.595 683.245 280.532 694.745C270.095 718.432 273.345 733.245 273.595 734.182C281.47 687.682 333.47 652.87 364.72 621.62L431.095 555.245L372.345 500.182C363.845 508.745 270.345 611.057 261.407 619.932Z" fill="#8ABFD1"/>
<path d="M271.22 598.87C270.907 599.182 270.595 599.557 270.282 599.87L270.032 600.682C270.407 600.057 270.845 599.495 271.22 598.87Z" fill="#A5C7D3"/>
<path d="M802.595 785.87C804.032 783.307 805.345 780.745 806.532 778.182C812.407 765.807 818.845 752.12 831.47 746.807C837.845 744.12 845.032 744.12 851.657 742.12C863.47 738.62 873.22 728.745 876.47 716.807C879.72 704.87 876.345 691.432 867.907 682.432C854.907 668.557 833.907 667.057 815.032 664.932C763.47 658.995 725.72 604.37 691.282 569.932L622.657 501.307L568.657 555.307L635.032 621.682C669.407 656.057 728.845 694.745 727.095 748.557C726.782 758.62 724.657 768.995 727.845 778.557C732.157 791.557 745.282 799.62 758.22 804.182C764.97 806.557 772.282 808.307 779.282 806.807C789.845 804.495 797.095 795.62 802.595 785.87Z" fill="#C8DEE9"/>
<path d="M738.282 619.932C736.782 618.432 719.845 619.432 712.72 632.057C708.095 640.245 705.845 649.87 706.97 659.057C708.532 671.62 714.095 683.245 719.157 694.745C729.595 718.432 726.345 733.245 726.095 734.182C718.22 687.682 666.22 652.87 634.97 621.62C631.22 617.932 568.657 555.307 568.657 555.307L627.407 500.245C635.845 508.745 729.345 611.057 738.282 619.932Z" fill="#8ABFD1"/>
<path d="M728.47 598.87C728.782 599.182 729.095 599.557 729.407 599.87L729.657 600.682C729.282 600.057 728.845 599.495 728.47 598.87Z" fill="#A5C7D3"/>
<path d="M810.595 722.995C797.033 724.432 796.095 741.307 799.47 756.495C800.658 761.807 803.47 767.495 808.033 769.495C812.22 771.307 812.72 759.682 821.783 753.182C824.72 751.057 847.72 746.682 861.47 738.245C865.345 735.87 864.47 730.057 859.97 729.12C844.845 725.995 816.658 722.307 810.595 722.995Z" fill="#8ABFD1"/>
<path d="M197.095 78.4946C195.657 81.0571 194.345 83.6196 193.157 86.1821C187.282 98.5571 180.845 112.245 168.22 117.557C161.845 120.245 154.657 120.245 148.032 122.245C136.22 125.745 126.47 135.62 123.22 147.557C119.97 159.432 123.345 172.932 131.782 181.932C144.782 195.807 165.782 197.307 184.657 199.432C236.22 205.37 273.97 259.995 308.407 294.432L377.032 363.057L431.032 309.057L364.657 242.682C330.282 208.307 270.845 169.62 272.595 115.807C272.907 105.745 275.032 95.3696 271.845 85.8071C267.532 72.8071 254.407 64.7446 241.47 60.1821C234.72 57.8071 227.407 56.0571 220.407 57.5571C209.845 59.8696 202.595 68.7446 197.095 78.4946Z" fill="#C8DEE9"/>
<path d="M271.22 265.495C270.907 265.182 270.595 264.807 270.282 264.495L270.032 263.682C270.407 264.307 270.845 264.87 271.22 265.495Z" fill="#A5C7D3"/>
<path d="M149.158 173.057C179.97 173.682 187.595 168.37 195.533 165.495C221.033 156.37 227.845 173.307 220.72 186.807C211.97 203.432 176.658 202.557 150.595 193.182C145.033 191.182 130.595 184.745 128.845 177.932C126.095 167.245 144.72 172.932 149.158 173.057Z" fill="#8ABFD1"/>
<path d="M431.032 309.057C431.032 309.057 342.97 226.37 324.22 206.245C286.282 210.057 265.72 233.995 262.532 245.995C282.657 264.682 354.157 340.182 377.032 363.057L431.032 309.057Z" fill="#8ABFD1"/>
<path d="M802.595 78.4946C804.032 81.0571 805.345 83.6196 806.532 86.1821C812.407 98.5571 818.845 112.245 831.47 117.557C837.845 120.245 845.032 120.245 851.657 122.245C863.47 125.745 873.22 135.62 876.47 147.557C879.72 159.432 876.345 172.932 867.907 181.932C854.907 195.807 833.907 197.307 815.032 199.432C763.47 205.37 725.72 259.995 691.282 294.432L622.657 363.057L568.657 309.057L635.032 242.682C669.407 208.307 728.845 169.62 727.095 115.807C726.782 105.745 724.657 95.3696 727.845 85.8071C732.157 72.8071 745.282 64.7446 758.22 60.1821C764.97 57.8071 772.282 56.0571 779.282 57.5571C789.845 59.8696 797.095 68.7446 802.595 78.4946Z" fill="#C8DEE9"/>
<path d="M728.47 265.495C728.782 265.182 729.095 264.807 729.407 264.495L729.657 263.682C729.282 264.307 728.845 264.87 728.47 265.495Z" fill="#A5C7D3"/>
<path d="M850.532 172.37C819.72 172.995 812.095 167.682 804.157 164.807C778.657 155.682 771.845 172.62 778.97 186.12C787.72 202.745 823.032 201.87 849.095 192.495C854.657 190.495 869.095 184.057 870.845 177.245C873.595 166.62 854.97 172.307 850.532 172.37Z" fill="#8ABFD1"/>
<path d="M568.657 309.057C568.657 309.057 664.595 219.307 683.345 199.182C733.407 210.057 742.095 240.62 742.095 240.62C742.095 240.62 645.595 340.12 622.72 362.995C622.657 363.057 568.657 309.057 568.657 309.057Z" fill="#8ABFD1"/>
<path d="M723.032 460.182C725.657 444.37 736.595 374.057 726.657 318.807C720.282 283.62 703.032 256.37 678.47 233.12C631.157 188.307 566.72 167.307 505.157 165.495C504.845 165.432 504.47 165.432 504.157 165.432C503.845 165.432 503.47 165.37 503.157 165.37C502.595 165.37 502.032 165.432 501.532 165.432C500.97 165.432 500.407 165.37 499.907 165.37C499.595 165.37 499.22 165.432 498.907 165.432C498.595 165.432 498.22 165.37 497.907 165.495C436.345 167.307 371.907 188.307 324.595 233.12C300.095 256.37 282.782 283.62 276.407 318.807C266.407 374.057 277.407 444.37 280.032 460.182C283.595 481.745 258.374 512.5 256.499 534C254.499 557.375 281.282 568.557 301.032 581.37C317.532 592.057 336.657 597.745 354.47 606.057C375.657 615.932 356.407 651.557 364.22 669.557C368.157 678.682 376.782 684.87 385.657 689.307C396.97 694.932 410.032 698.495 422.282 695.37C420.407 695.87 425.782 706.62 432.907 710.995C439.345 714.995 447.407 719.057 454.845 720.682C469.72 723.932 484.407 718.495 493.532 713.745C498.532 711.182 504.407 711.182 509.345 713.745C518.532 718.495 533.22 723.995 548.032 720.682C559.22 718.245 569.157 711.62 576.282 702.932C579.595 698.87 584.782 696.62 590.032 696.995C605.595 697.995 629.407 691.682 639.782 668.182C645.532 655.12 639.72 639.745 643.595 626.057C650.095 602.87 672.907 597.12 691.282 586.37C715.595 572.057 747.312 556.562 748 534C748.938 510 719.97 478.682 723.032 460.182Z" fill="#E1E7EA"/>
<path d="M698.844 371.38C698.963 395.414 689.824 419.482 671.394 437.838C634.806 474.297 575.449 474.297 538.845 437.838L632.459 344.599C656.742 320.412 698.69 337.158 698.844 371.38Z" fill="#424242"/>
<path d="M464.595 549.182C464.595 528.745 481.157 478.182 501.595 478.182C522.032 478.182 538.595 528.745 538.595 549.182C538.595 590.682 501.595 562.432 501.595 562.432C501.595 562.432 464.595 593.12 464.595 549.182Z" fill="#424242"/>
<path d="M411.782 696.557C411.282 692.37 412.345 649.745 412.345 642.182C412.345 636.807 416.657 632.495 422.032 632.495C427.407 632.495 431.72 636.87 431.72 642.182C431.72 648.87 429.095 696.745 429.095 696.745C429.095 696.745 420.345 698.995 411.782 696.557Z" fill="#8ABFD1"/>
<path d="M491.97 715.12C491.97 715.12 492.032 708.557 492.032 705.182V642.182C492.032 636.807 496.345 632.495 501.72 632.495C507.095 632.495 511.407 636.87 511.407 642.182V676.307C511.407 683.245 511.032 715.12 511.032 715.12C496.032 709.495 491.97 715.12 491.97 715.12Z" fill="#8ABFD1"/>
<path d="M572.97 702.057C572.97 702.057 572.032 650.307 572.032 642.182C572.032 636.807 576.407 632.495 581.72 632.495C587.095 632.495 591.407 636.87 591.407 642.182C591.407 650.87 591.345 697.057 591.345 697.057C591.345 697.057 586.22 696.807 582.282 697.495C580.595 697.682 572.97 702.057 572.97 702.057Z" fill="#8ABFD1"/>
<path d="M501.532 690.745C496.782 691.12 492.032 691.682 491.969 692.245C490.532 708.682 466.657 709.745 454.469 707.12C447.407 705.557 439.469 703.182 435.157 697.12C431.094 691.495 429.282 684.37 429.344 677.495C429.344 677.12 411.719 675.245 411.719 675.245C411.719 675.245 410.532 684.932 398.594 683.995C378.969 682.432 375.094 676.12 370.907 669.182C365.657 660.432 363.782 641.057 363.782 641.057C355.532 675.932 373.032 688.807 381.719 693.557C397.969 702.432 418.469 697.745 418.469 697.745C418.469 697.745 426.657 710.807 433.719 715.182C440.157 719.182 446.969 721.182 454.407 722.807C469.282 726.057 483.969 720.62 493.094 715.87C495.719 714.495 498.594 713.932 501.407 713.995V690.745H501.532Z" fill="#8ABFD1"/>
<path d="M501.532 690.745C506.282 691.12 511.032 691.682 511.095 692.245C512.532 708.682 536.407 709.745 548.595 707.12C555.657 705.557 563.595 703.182 567.907 697.12C571.97 691.495 573.782 684.37 573.72 677.495C573.72 677.12 591.345 675.245 591.345 675.245C591.345 675.245 592.532 684.932 604.47 683.995C624.095 682.432 627.97 676.12 632.157 669.182C637.407 660.432 642.407 641.057 642.407 641.057C648.282 676.62 630.032 688.807 621.345 693.557C605.095 702.432 584.595 697.745 584.595 697.745C584.595 697.745 576.407 710.807 569.345 715.182C562.907 719.182 556.095 721.182 548.657 722.807C533.782 726.057 519.095 720.62 509.97 715.87C507.345 714.495 504.47 713.932 501.657 713.995V690.745H501.532Z" fill="#8ABFD1"/>
<path d="M371.231 344.6L464.845 437.839C428.24 474.297 368.9 474.297 332.296 437.839C313.883 419.482 304.727 395.415 304.846 371.38C305.017 337.158 346.948 320.412 371.231 344.6Z" fill="#424242"/>
</svg>
