<svg width="433" height="167" viewBox="0 0 433 167" fill="none" xmlns="http://www.w3.org/2000/svg">
<path d="M406.379 33.8721C397.999 27.8165 394.954 25.5199 384.065 26.8567C380.357 27.3138 376.701 28.0679 373.039 28.8277C370.085 29.439 367.189 30.3416 364.464 31.6327C358.437 34.4891 352.187 36.0316 345.372 34.2435C340.641 33.0038 337.134 29.3704 332.786 27.2052C310.837 16.2936 293.813 41.9959 271.876 31.1357C254.731 22.6463 241.534 7.99281 222.848 2.68555C203.361 -2.85023 183.457 2.42847 165.079 10.3979C155.716 14.4598 147.009 19.6471 139.994 27.0567C133.515 33.9007 134.247 39.6307 131.407 47.9601C126.591 62.0823 114.337 62.7907 101.712 60.2656C90.3145 57.9862 78.6374 57.4492 68.8912 64.7902C62.9441 69.2691 59.465 75.7075 54.2949 80.7863C48.8905 86.0935 43.1319 87.5675 36.1393 90.1383C21.5029 95.5141 5.8954 103.249 1.45078 118.971C-4.58202 140.326 15.6871 143.834 32.3573 139.812C45.9254 136.544 64.7779 122.936 78.9001 130.643C90.3944 136.915 97.387 156.43 113.303 150.655C119.781 148.301 125.363 140.069 133.218 140.652C141.793 141.286 143.827 149.307 147.946 155.117C154.247 164 164.393 167.816 175.396 166.12C183.252 164.908 190.718 160.967 196.74 155.979C201.95 151.66 203.058 146.302 207.32 141.371C215.284 132.156 225.213 132.865 235.507 135.601C246.259 138.458 254.828 134.79 261.495 125.655C268.042 116.692 273.664 109.573 285.935 109.996C297.978 110.408 306.764 114.012 319.452 110.573C334.226 106.563 343.069 102.284 351.49 89.6527C357.946 79.9636 359.54 73.0053 372.136 69.3263C384.962 65.5786 397.302 71.2344 410.253 69.5262C420.313 68.2008 428.545 62.3166 432.356 53.8672C432.796 41.276 415.594 40.5276 406.379 33.8721Z" fill="url(#paint0_linear_1111_16943)"/>
<path d="M432.563 52.8502C432.551 52.7702 432.483 51.839 432.426 51.0963C432.38 50.9821 432.323 50.845 432.249 50.6393C432.14 50.348 432.106 50.0338 432.014 49.7367C427.718 50.0223 422.708 47.8571 419.212 49.3653C415.35 51.0278 416.447 53.7414 413.893 56.5921C412.248 58.4317 407.22 59.9399 404.838 58.0604C398.914 53.3872 409.98 43.9153 410.248 39.3735C405.564 41.9729 402.719 41.9957 398.251 42.5156C397.731 42.5727 397.194 42.6413 396.629 42.7213C392.161 43.3326 389.396 46.5718 390.533 51.1078C391.739 55.9123 392.841 59.54 386.3 60.7911C380.278 61.9451 381.141 58.5231 379.387 54.3298C376.022 46.2975 360.706 53.1358 354.736 54.1699C353.891 54.3184 359.941 60.6597 360.072 60.9511C361.609 64.4873 361.735 63.9675 359.706 66.9896C356.593 71.6341 347.189 78.5125 341.945 80.3292C333.49 83.2599 327.206 77.4156 335.575 70.5773C330.434 74.7762 325.76 78.0954 319.408 75.6903C314.22 73.7251 312.638 70.3545 306.257 73.2737C300.601 75.8617 295.025 82.2258 288.844 83.1456C284.091 83.8483 280.206 80.8833 275.824 80.192C276.801 80.3463 286.353 87.8587 287.101 89.1555C290.706 95.394 282.606 100.433 277.07 102.227C273.933 103.244 261.811 103.935 259.56 100.576C257.109 96.9308 264.576 89.1384 265.935 85.7164C258.023 86.3791 255.703 94.4857 248.791 96.091C244.209 97.1536 239.53 95.4397 234.72 97.0736C228.276 99.2616 222.643 104.123 215.496 104.123C212.114 104.123 209.166 101.941 205.87 101.787C205.584 106.957 212.131 108.951 213.754 113.635C215.416 118.445 212.954 122.393 210.012 126.118C206.927 130.02 198.74 139.098 193.005 136.761C187.343 134.459 192.188 126.843 192.194 122.844C187.869 125.278 185.807 133.356 179.808 132.888C175.061 132.516 172.107 125.358 168.348 122.787C166.828 121.753 152.718 111.967 152.592 112.098C146.69 118.16 139.561 110.562 132.568 113.31C134.345 116.086 139.938 121.468 138.909 125.135C138.155 127.832 130.974 131.231 128.678 132.516C121.582 136.492 110.762 136.481 104.427 130.568C100.639 127.032 101.005 123.781 103.118 119.222C103.901 117.531 108.974 109.071 110.813 108.728C99.5248 110.83 91.3727 111.79 80.5468 109.219C77.4047 108.471 73.5484 108.471 70.2121 107.402C66.0188 106.066 63.9108 103.226 60.3403 100.61C63.5338 109.396 53.5648 114.446 48.0004 118.594C43.8643 121.679 37.2375 128.837 32.233 129.74C26.343 130.797 20.8643 123.101 21.7613 117.583C19.9389 128.837 8.61019 128.672 0.480763 124.815C-0.473287 140.903 17.3737 143.422 32.37 139.806C45.9381 136.538 64.7906 122.93 78.9129 130.637C90.4072 136.909 97.3997 156.425 113.316 150.649C119.794 148.295 125.376 140.063 133.231 140.646C141.806 141.28 143.84 149.301 147.959 155.111C154.26 163.994 164.406 167.81 175.415 166.114C183.27 164.903 190.737 160.961 196.758 155.973C201.968 151.66 203.077 146.296 207.338 141.366C215.302 132.151 225.231 132.859 235.526 135.596C246.277 138.452 254.847 134.784 261.513 125.649C268.06 116.686 273.682 109.568 285.953 109.99C297.996 110.402 306.782 114.007 319.471 110.567C334.244 106.557 343.088 102.278 351.508 89.6468C357.964 79.9578 359.558 72.9995 372.155 69.3204C384.98 65.5728 397.32 71.2285 410.271 69.5204C420.588 68.1607 428.992 62.0137 432.637 53.2101C432.614 53.073 432.58 52.9645 432.563 52.8502Z" fill="url(#paint1_linear_1111_16943)"/>
<path d="M384.064 26.8508C380.185 27.325 376.357 28.1305 372.524 28.9246C369.913 29.4674 367.337 30.2272 364.937 31.3926C358.761 34.3918 352.363 36.0657 345.371 34.2319C340.64 32.9922 337.133 29.3531 332.785 27.1936C310.836 16.282 293.812 41.9843 271.874 31.1241C254.73 22.6348 241.533 7.98122 222.847 2.67395C203.36 -2.86182 183.456 2.41688 165.078 10.3863C155.709 14.4482 147.008 19.6355 139.993 27.0451C133.514 33.8891 134.245 39.6191 131.406 47.9485C126.59 62.0707 114.336 62.7848 101.711 60.254C90.3078 57.9746 78.6363 57.4376 68.8845 64.7786C62.9374 69.2575 59.4583 75.6959 54.2881 80.7747C48.8837 86.082 43.1251 87.5559 36.1325 90.1267C35.6184 90.3152 35.0985 90.5323 34.5786 90.7265C34.9957 90.6751 35.3785 90.6008 35.8013 90.5608C51.1118 89.0412 63.5143 92.8174 78.0364 86.8989C88.451 82.6542 95.9178 73.6107 106.504 70.143C129.635 62.5678 144.203 89.6411 166.243 69.4975C178.949 57.8832 182.576 39.145 200.406 32.9922C217.596 27.0622 234.889 37.0141 249.617 44.7607C266.31 53.5414 281.723 60.5283 299.296 50.7821C306.14 46.9887 310.219 43.4182 318.509 43.0069C333.636 42.2585 346.182 53.9813 362.029 46.4175C370.947 42.1614 376.123 33.2093 385.829 29.9929C391.325 28.1705 396.095 28.9818 400.894 30.0272C395.992 26.8966 392.239 25.8511 384.064 26.8508Z" fill="white"/>
<defs>
<linearGradient id="paint0_linear_1111_16943" x1="0.483675" y1="128.611" x2="430.688" y2="23.6613" gradientUnits="userSpaceOnUse">
<stop stop-color="white"/>
<stop offset="0.4846" stop-color="#E1EFFA"/>
</linearGradient>
<linearGradient id="paint1_linear_1111_16943" x1="239.869" y1="185.677" x2="216.184" y2="88.5879" gradientUnits="userSpaceOnUse">
<stop stop-color="white"/>
<stop offset="0.6703" stop-color="#BED9EC"/>
<stop offset="1" stop-color="#A5CAE5"/>
</linearGradient>
</defs>
</svg>
