<svg width="2241" height="244" viewBox="0 0 2241 244" fill="none" xmlns="http://www.w3.org/2000/svg">
<path d="M2227.63 80.4649C2228.01 80.3792 2228.37 80.3164 2228.74 80.225C2236.02 78.414 2241.13 76.0202 2241 67.8737C2240.85 59.4186 2235.59 50.8494 2228.91 44.0568C2201.01 30.0888 2159.63 38.8924 2129.87 41.7659C2100.46 44.6052 2070.15 40.8918 2040.73 43.9653C1986.65 49.6153 1938.04 66.9997 1882.29 66.7312C1832.8 66.4912 1791.51 43.8969 1743.1 41.8402C1688.74 39.5265 1635.51 43.1941 1581.71 34.6419C1529.17 26.2954 1483.3 5.91186 1429.35 9.5224C1380.48 12.7902 1331.44 20.931 1282.2 19.5714C1246.5 18.583 1212.87 5.94042 1177.11 3.58671C1089.85 -2.15473 1005.67 31.3056 918.638 26.8324C848.986 23.2561 783.608 16.2179 714.088 18.6402C678.771 19.8685 638.101 22.0964 603.63 15.6523C575.425 10.3793 552.779 0.033291 522.924 0.0390038C460.208 0.0504296 401.725 29.826 339.529 29.7403C313.907 29.706 288.787 28.5234 263.594 27.1295C237.8 25.7013 215.091 17.4405 189.96 15.7609C156.803 13.5386 111.574 14.0984 88.2539 41.4059C74.7144 57.2649 53.6796 64.2633 32.879 62.795C3.77192 60.7384 -15.469 78.6996 16.6945 100.357C37.2494 114.199 58.5813 110.566 77.6508 96.101C93.1213 105.921 89.8307 152.304 110.38 149.236C137.887 145.043 114.042 95.8953 158.357 100.426C174.358 102.06 198.775 105.482 213.577 111.097C231.99 118.078 233.281 135.057 248.946 143.192C262.428 150.196 290.941 147.791 306.137 152.213C328.138 158.611 340.643 171.814 347.693 188.61C364.517 200.892 381.713 187.736 391.293 169.986C391.87 168.912 392.407 167.912 392.933 166.946C405.376 123.706 475.124 162.045 509.293 153.533C530.825 148.168 541.005 123.443 566.616 119.072C598.939 113.56 589.879 131.544 610.308 145.523C651.195 173.493 733.026 98.6661 785.95 118.136C808.042 126.259 811.955 155.058 836.469 161.719C862.709 168.849 892.09 130.11 909.326 140.33C918.375 145.7 922.185 155.595 923.619 167.232C924.453 168.969 925.259 170.7 926.024 172.351C933.108 187.69 950.013 208.239 968.82 206.765L968.934 206.754C973.978 206.342 977.92 202.161 977.943 197.099C977.96 194.157 977.806 191.123 978.686 187.941C982.405 174.51 984.856 156.903 1001.3 152.333C1019.82 147.186 1033.56 167.592 1051.75 167.015C1068.99 166.472 1079.32 156.84 1092.38 149.037C1110.06 138.479 1130.89 129.881 1153.04 130.738C1170.57 131.418 1167.27 137.817 1182.89 142.553C1214.03 151.979 1223.92 122.42 1236.46 102.631C1247.96 84.4868 1264.59 75.1919 1288.28 78.8081C1301.79 80.8705 1339.35 91.6736 1347.79 101.471C1356.32 111.366 1347.1 125.18 1356.52 133.652C1362.72 139.233 1397.73 145.974 1406.77 149.242C1420.27 154.115 1444.55 164.324 1459.47 158.88C1473.12 153.898 1478.02 139.942 1494.45 135.72C1521.23 128.842 1553.59 138.748 1577.2 150.019C1592 157.08 1612.17 153.693 1615.09 172.842C1616.47 181.846 1604.31 213.678 1620.7 211.335C1625.74 210.616 1629.7 206.502 1630.82 201.532C1634.02 187.307 1640.15 174.499 1643.38 160.445C1649.07 135.691 1654.21 140.039 1683.49 136.291C1697.1 134.549 1709.87 141.93 1722.78 140.536C1730.03 139.753 1732.63 133.892 1740.18 132.206C1756.88 128.482 1780.63 123.957 1797.56 123.26C1811.45 122.689 1820.96 131.704 1833.62 133.275C1840.69 134.154 1843.48 130.298 1849.69 130.601C1866.34 131.418 1869.13 133.417 1882.7 142.387C1897.87 152.413 1908.24 161.262 1926.57 163.53C1955.84 167.158 1950.24 155.572 1964.43 137.816C1979.74 118.667 2014.31 123.186 2033.95 135.983C2058.59 152.036 2055.7 172.322 2054.51 197.899C2053.91 210.678 2049.64 247.515 2072.48 242.808C2087.66 239.683 2080.92 216.231 2081.96 204.926C2083.89 184.034 2089.57 124.637 2111.14 114.491C2123.27 108.784 2127.34 119.324 2136.36 118.398C2159.23 116.045 2170.32 86.8005 2193.91 81.6475C2202.88 79.688 2215.76 81.0248 2227.63 80.4649Z" fill="url(#paint0_linear_1111_16931)"/>
<path d="M2206.74 50.2155C2211.28 52.7749 2215.12 54.6429 2220.2 52.2149C2224.58 50.124 2227.24 51.8494 2230.28 54.9172C2233.04 57.6994 2236.29 59.7959 2239.82 61.087C2237.9 54.9457 2233.8 49.0215 2228.91 44.0513C2201 30.0833 2159.63 38.8811 2129.87 41.7546C2100.46 44.5939 2070.15 40.8806 2040.72 43.9542C1986.65 49.6042 1938.03 66.9884 1882.29 66.7199C1832.8 66.48 1791.5 43.8855 1743.09 41.8232C1688.74 39.5094 1635.51 43.1772 1581.71 34.6251C1529.16 26.2785 1483.3 5.89498 1429.34 9.50552C1380.47 12.7733 1331.44 20.9142 1282.2 19.5545C1246.5 18.5662 1212.87 5.92354 1177.11 3.56983C1089.84 -2.17161 1005.67 31.2888 918.634 26.8213C848.983 23.245 783.605 16.2066 714.085 18.6289C678.768 19.8572 638.098 22.0853 603.626 15.6412C575.422 10.3682 552.776 0.022031 522.921 0.0334567C460.205 0.0448825 401.722 29.8204 339.526 29.7347C313.904 29.7005 288.784 28.5179 263.59 27.1239C237.797 25.7014 215.088 17.435 189.957 15.7554C156.8 13.5331 111.571 14.0928 88.2507 41.4004C67.1417 66.1257 62.5885 63.5264 30.0537 62.6523C25.0892 62.5209 20.4846 62.9951 16.4285 63.9663C27.4029 69.5764 37.7318 76.586 49.9116 78.7626C62.5542 81.0249 75.2082 75.5234 84.1432 66.6971C90.3188 60.6014 96.8372 51.855 105.321 48.2502C107.52 47.3132 109.857 46.7248 112.348 46.622C120.917 46.2563 128.252 52.5291 137.073 52.1406C147.385 51.6893 156.125 44.1484 165.986 41.8347C177.606 39.1039 188.717 46.1422 200.857 44.0227C213.728 41.7718 225.103 37.1671 238.374 38.8639C256.186 41.1433 269.892 53.6088 286.653 58.7161C308.482 65.3716 323.016 48.9471 343.376 49.9012C364.268 50.8838 373.82 69.2165 396.906 57.7165C409.452 51.4666 418.546 40.1265 431.646 34.5679C445.734 28.5865 458.405 30.8431 473.087 33.1853C486.621 35.3448 497.458 37.4815 510.884 33.8081C522.378 30.666 533.015 24.8275 544.995 23.3478C555.901 22.0053 565.299 23.3478 575.365 27.7068C588.841 33.5453 599.353 43.9826 611.807 51.4722C633.893 64.7546 647.364 56.4882 668.279 48.1931C682.596 42.5145 700.682 31.2316 716.736 32.974C723.842 33.7453 725.956 36.9215 732.229 39.4123C739.736 42.3888 747.288 45.1596 755.417 45.5309C763.941 45.9251 770.745 42.5202 778.875 40.4807C785.21 38.8868 792.923 35.1621 799.367 35.0935C804.588 35.0364 815.928 40.6863 818.579 44.4111C819.059 45.0852 825.589 47.6275 826.994 48.6729C830.513 51.2837 833.393 54.4144 837.38 56.4539C863.197 69.6563 891.133 42.1774 917.492 52.0435C929.015 56.3567 935.425 66.3029 948.884 67.2398C965.309 68.3881 977.837 58.9504 990.977 50.7352C1008.09 40.0407 1027.06 32.8825 1047.63 34.0651C1058.79 34.7049 1070.53 38.0013 1081.35 40.5322C1101.34 45.2053 1113.87 44.1198 1131.49 33.928C1147.85 24.4675 1162.09 19.4231 1181.63 22.3823C1191.04 23.8048 1198.07 26.8041 1206.19 31.5744C1223.55 41.7719 1238.9 42.2002 1257.8 38.2983C1265.67 36.6758 1274.49 35.2763 1282.42 37.2358C1285.88 38.0871 1288.02 40.3779 1291.19 41.5948C1295.54 43.2686 1300.94 43.5886 1305.51 44.6226C1325.26 49.0786 1336.61 45.0853 1354.72 37.6986C1366.28 32.9797 1379.14 28.6779 1391.3 34.0251C1403.23 39.2696 1408.78 50.0098 1421.17 55.2028C1438.71 62.5438 1455.8 57.1509 1474.38 54.5173C1493.42 51.8208 1515.58 47.1648 1534.39 52.9234C1541.3 55.0372 1545.25 58.9333 1551 62.8638C1567.66 74.2495 1581.61 72.0786 1599.07 64.1377C1617.44 55.7798 1625.17 55.6369 1644.19 62.6352C1657.83 67.6511 1673.15 73.4383 1687.95 70.519C1697.86 68.5595 1706.41 61.4755 1716.24 59.5045C1726.53 57.4365 1735.12 63.7149 1743.95 67.8054C1751.28 71.1988 1758.79 70.4618 1766.55 69.5249C1774.79 68.5309 1783.14 68.5253 1791.17 70.9475C1810.9 76.8946 1823.43 90.1827 1845.94 89.2058C1862.75 88.4746 1878.59 77.5288 1895.78 81.9791C1918.03 87.7377 1927.79 100.803 1954.18 94.1531C1974.12 89.1315 1988.39 75.5863 2007.23 69.2165C2021.24 64.4805 2035.96 64.7546 2050.32 66.9369C2058.78 68.2223 2067.34 68.5653 2075.87 67.994C2082.76 67.5312 2088.87 64.6462 2095.53 62.6866C2100.76 61.1499 2102.87 61.7212 2107.55 64.3206C2117.79 70.0277 2124.76 64.8633 2134.34 60.3102C2140.19 57.528 2146.75 59.2646 2152.83 57.9107C2158.6 56.6253 2164.6 54.8371 2169.91 52.1178C2177.58 48.1873 2182.99 43.5485 2192.02 44.5825C2197.33 45.1823 2202.17 47.639 2206.74 50.2155Z" fill="white"/>
<path d="M2227.63 80.465C2228.01 80.3793 2228.37 80.3165 2228.74 80.2251C2234.87 78.6997 2239.41 76.7231 2240.64 71.2902C2240.16 71.3758 2239.71 71.5128 2239.23 71.57C2231.18 72.524 2223.03 68.6165 2215.83 65.7429C2201.02 59.8358 2189.03 57.962 2173.99 65.5201C2165.65 69.7076 2139.88 96.6268 2137.87 68.2852C2140.94 111.497 2110.53 78.5798 2086.88 94.9014C2079.81 99.7802 2075.21 108.618 2069.22 114.639C2059.85 124.048 2051.11 128.739 2038.01 123.889C2017.36 116.245 2017.99 103.785 2041.36 97.1866C2025.87 101.557 1994.76 108.475 1991.98 84.8126C1987.71 100.906 1970.34 105.704 1958.68 114.468C1946.03 123.98 1919.27 143.141 1903.38 127.939C1887.62 112.863 1910.03 103.396 1924.34 102.037C1911.72 99.346 1898.83 95.8841 1884.97 96.501C1861.61 97.5351 1847.04 108.989 1823.01 102.534C1807.55 98.3806 1794.8 96.044 1779.35 101.403C1762.18 107.356 1750.98 112.006 1733.23 108.27C1723.41 106.201 1714.33 101.18 1703.6 101.865C1690.3 102.717 1687.96 108.024 1673.95 104.476C1663.26 101.774 1653.71 93.776 1643.46 89.7085C1672.2 102.574 1657.36 125.671 1631.1 122.832C1620.3 121.661 1614.83 116.673 1605.5 113.046C1593.63 108.418 1581.84 106.967 1569.4 106.904C1555.54 110.875 1522.61 116.359 1539.47 91.2395C1521.43 118.13 1504.13 94.3587 1482.35 94.9414C1467.5 95.3413 1465.37 100.649 1453.08 107.253C1443.29 112.508 1433.11 115.154 1421.99 113.565C1410.01 111.857 1395.66 104.973 1385.68 98.5919C1381.12 95.6727 1376.71 92.0279 1373.42 88.0574C1380.62 81.1734 1389.25 75.0434 1398.34 70.7588C1387.36 71.5243 1381.59 63.3264 1371.52 61.6411C1347.97 57.7107 1322.05 68.9821 1297.37 64.6517C1290.13 63.3777 1283.43 60.2986 1276.32 58.9046C1264.33 56.5624 1254.32 61.0183 1243.08 63.3263C1223.81 72.4155 1202.89 84.5269 1200.01 87.0462C1193.2 92.9819 1187.93 101.5 1178.45 103.471C1170.76 105.076 1170.47 101.951 1163.46 100.163C1149.47 96.5981 1142.4 95.5126 1128.3 88.8286C1118.64 84.2525 1108.81 83.5556 1100.2 76.9115C1120.22 94.5757 1127.68 132.961 1088.24 125.431C1077.6 123.403 1073.63 117.376 1065.46 111.697C1059.75 107.727 1058.68 101.865 1049.91 107.441C1046.69 109.486 1044.94 117.382 1042.18 120.569C1031.46 133.006 1010.67 136.297 996.39 126.699C989.083 121.792 989.038 116.21 984.347 109.578C976.846 98.9633 976.726 96.621 967.489 106.35C963.975 110.052 961.913 115.685 958.737 119.712C949.293 131.681 937.028 136.931 923.311 127.682C911.828 119.935 905.761 100.94 888.097 104.91C884.224 105.779 880.979 107.453 877.774 109.212C851.837 127.676 811.744 104.648 847.387 80.4421C831.282 84.9781 817.628 77.4371 802.278 79.2995C788.767 80.9448 776.93 93.2161 762.465 88.3488C746.989 83.1386 741.282 77.5742 725.771 77.9284L731.061 75.1064C724.406 74.5922 718.921 76.0946 713.717 78.8882C698.829 80.6478 683.536 83.4757 669.008 79.4138C673.807 87.9946 683.399 91.148 690.02 97.0094L694.282 94.7358C688.649 100.694 683.399 107.03 677.32 112.543C667.523 121.426 654.732 129.373 641.769 122.146C636.359 119.13 634.428 114.394 630.469 110.029C618.015 96.3067 612.348 97.4893 597.866 95.5526C587.005 94.1015 558.738 77.0201 579.904 64.6517C569.575 70.6845 560.978 76.2089 549.129 78.574C539.103 80.5793 531.91 77.797 522.239 84.3497C507.842 94.1016 498.513 110.218 482.825 118.393C456.878 131.915 441.898 105.116 466.252 91.6679C449.816 100.746 444.064 98.4491 427.782 97.1294C413.774 95.9925 404.765 97.7407 396.384 110.772C388.129 123.609 381.782 144.763 366.814 151.447C352.052 158.04 339.946 144.638 328.035 138.622C328.681 131.235 332.851 120.809 340.632 118.164C316.032 122.517 307.686 125.9 302.698 101.848C298.551 81.8533 298.425 74.5636 276.168 80.4765C248.346 87.8632 213.543 109.824 216.103 66.1943C192.457 74.9293 164.538 76.7916 142.921 89.777C130.01 97.5351 119.035 108.458 103.485 101.306C88.9112 94.6044 82.8555 84.0299 65.2427 84.6354C59.8441 84.824 54.4168 86.3092 49.001 86.7091C29.7772 88.1373 11.9587 84.6582 3.1095 70.9758C-3.02613 77.9455 -0.695277 88.583 16.7176 100.311C37.2725 114.154 58.6044 110.52 77.674 96.0554C93.1444 105.876 89.8538 152.264 110.409 149.191C137.916 144.998 114.071 95.8497 158.385 100.38C174.387 102.014 198.804 105.436 213.606 111.052C232.019 118.033 233.31 135.012 248.975 143.147C262.457 150.151 290.97 147.745 306.166 152.167C328.166 158.571 340.672 171.768 347.722 188.564C364.546 200.847 381.742 187.69 391.322 169.94C391.899 168.866 392.436 167.866 392.962 166.901C405.405 123.66 475.153 161.999 509.322 153.487C530.854 148.123 541.034 123.397 566.645 119.027C598.968 113.514 589.908 131.498 610.337 145.478C651.218 173.448 733.055 98.6205 785.973 118.09C808.065 126.219 811.978 155.012 836.498 161.673C862.737 168.803 892.119 130.064 909.354 140.285C918.404 145.655 922.214 155.549 923.648 167.186C924.482 168.923 925.288 170.654 926.053 172.305C933.137 187.644 950.042 208.194 968.848 206.72L968.963 206.708C974.007 206.297 977.949 202.115 977.972 197.053C977.989 194.111 977.835 191.078 978.714 187.896C982.434 174.465 984.884 156.858 1001.33 152.287C1019.85 147.14 1033.59 167.546 1051.78 166.969C1069.02 166.427 1079.35 156.795 1092.41 148.991C1110.09 138.433 1130.92 129.836 1153.07 130.693C1170.6 131.372 1167.3 137.771 1182.92 142.507C1214.06 151.933 1223.95 122.375 1236.49 102.585C1247.99 84.4412 1264.62 75.1463 1288.31 78.7625C1301.82 80.8249 1339.37 91.628 1347.82 101.426C1356.35 111.32 1347.13 125.14 1356.55 133.606C1362.75 139.188 1397.75 145.929 1406.8 149.197C1420.3 154.07 1444.58 164.279 1459.5 158.834C1473.15 153.853 1478.05 139.896 1494.48 135.674C1521.26 128.796 1553.62 138.702 1577.23 149.973C1592.03 157.035 1612.2 153.647 1615.12 172.796C1616.5 181.8 1604.34 213.632 1620.73 211.29C1625.77 210.57 1629.73 206.457 1630.85 201.486C1634.04 187.261 1640.17 174.453 1643.41 160.4C1649.1 135.646 1654.24 139.993 1683.51 136.246C1697.12 134.503 1709.89 141.884 1722.8 140.49C1730.05 139.707 1732.65 133.846 1740.2 132.161C1756.91 128.442 1780.65 123.911 1797.58 123.22C1811.47 122.649 1820.99 131.664 1833.65 133.235C1840.71 134.115 1843.51 130.258 1849.72 130.561C1866.36 131.378 1869.16 133.378 1882.73 142.347C1897.89 152.379 1908.26 161.222 1926.6 163.49C1955.87 167.118 1950.26 155.532 1964.45 137.777C1979.76 118.627 2014.33 123.146 2033.97 135.943C2058.61 151.996 2055.72 172.282 2054.53 197.859C2053.94 210.639 2049.66 247.475 2072.51 242.768C2087.69 239.643 2080.94 216.191 2081.99 204.886C2083.92 183.994 2089.59 124.597 2111.16 114.451C2123.3 108.744 2127.36 119.284 2136.38 118.358C2159.25 116.005 2170.35 86.7606 2193.93 81.6076C2202.88 79.6881 2215.76 81.0248 2227.63 80.465Z" fill="url(#paint1_linear_1111_16931)"/>
<path d="M2227.63 80.4651C2228 80.3794 2228.36 80.3166 2228.74 80.2252C2233.25 79.0998 2236.93 77.7458 2239.05 74.9351C2233.17 76.3976 2226.93 76.7689 2220.69 76.7974C2210.77 76.8374 2201.07 78.1514 2191.23 78.3456C2189.61 78.3799 2187.98 78.317 2186.36 78.2713C2181.46 78.1457 2176.69 78.2143 2172.75 81.7334C2168.47 85.5554 2165.72 90.6626 2161.77 94.7759C2157.75 98.9577 2151.91 102.385 2146.85 105.162C2140.26 108.79 2134.02 109.064 2126.83 107.31C2122.73 106.31 2119.99 106.344 2115.91 107.019C2111.59 107.727 2106.92 106.596 2103.57 110.155C2101.2 112.669 2098.03 116.479 2096.6 119.656C2095.06 123.06 2095.72 127.191 2093.81 130.447C2091.78 133.92 2087.63 134.64 2085.01 137.394C2082.52 140.016 2082.11 144.158 2081.31 147.637C2078.21 161.085 2077 174.79 2075.4 188.461C2073.99 200.578 2076.61 212.387 2075.73 223.978C2075.44 227.84 2076.65 229.286 2074.23 232.633C2071.73 236.061 2067.51 235.953 2065.03 232.582C2057.47 222.276 2058.63 209.182 2060.81 197.328C2063.96 180.16 2067.3 166.25 2057.64 150.488C2051.12 139.845 2038.53 130.241 2026.25 125.163C2010.03 121.392 1993.63 115.439 1976.91 120.335C1964.34 124.014 1957 132.441 1947.85 140.764C1940.11 147.803 1932.12 153.647 1922.59 151.722C1910.8 150.276 1907.27 142.69 1897.55 136.097C1878.6 123.237 1861.6 125.528 1840.21 123.232C1819.04 120.958 1799.28 116.325 1777.61 117.439C1767.06 117.982 1756.95 121.095 1746.88 124.037C1742.48 125.323 1738.11 126.494 1733.9 128.253C1729.73 129.996 1726.09 132.824 1721.87 134.412C1719.66 135.246 1717.64 134.96 1715.7 134.252C1710.45 132.338 1701.73 130.236 1696.14 130.276C1684.33 130.361 1672.49 131.904 1662.05 137.714C1649.64 144.626 1642.77 138.394 1639.19 151.853C1637.49 158.246 1636.34 164.77 1634.68 171.169C1633.01 177.556 1629.3 182.788 1627.65 189.187C1626.61 193.203 1628.08 201.195 1623.51 203.103C1619.52 204.772 1615.53 200.647 1616.38 196.688C1623.21 165.364 1622.62 154.498 1587.99 142.09C1582.79 140.227 1578.75 134.829 1573.79 132.504C1567.99 129.79 1560.4 129.173 1554.14 130.133C1550.28 130.727 1547.11 131.881 1543.11 131.675C1539.22 131.475 1535.9 129.933 1532.12 129.076C1514.09 124.986 1495.41 125.717 1478.98 134.783C1471.71 138.799 1465.14 144.906 1457.18 147.643C1440.62 153.344 1425.99 146.432 1409.81 142.096C1403.01 140.273 1396.19 138.554 1389.59 136.063C1384.61 134.183 1379.32 130.653 1373.91 130.407C1370.3 130.241 1367.96 130.704 1365.53 127.705C1361.08 122.209 1361.86 114.788 1359.73 108.447C1357.55 101.911 1352.35 96.9867 1346.51 93.6618C1339.84 89.8685 1332.96 85.7953 1325.94 82.6418C1319.71 79.8425 1314.01 76.7517 1308.12 73.6096C1301.81 70.239 1292.56 69.7535 1285.57 68.8509C1274.63 67.4284 1268.33 69.4678 1259.15 72.2443C1239.93 83.91 1232.18 98.4435 1217.67 115.039C1211.64 121.935 1203.36 130.024 1193.67 131.167C1180.17 132.761 1170.62 121.655 1157.32 120.147C1130.78 117.136 1102.07 126.665 1081.42 143.318C1080.96 143.695 1080.46 143.872 1079.97 144.072C1071.19 149.791 1061.07 156.235 1050.52 157.275C1037.38 158.56 1029.01 150.459 1016.95 147.363C1001.02 143.272 989.847 149.871 983.1 164.296C977.707 175.842 974.382 203.035 955.718 196.374C950.96 194.677 947.052 191.209 944.047 187.147C938.089 179.092 933.632 169.992 930.673 160.434C930.028 151.276 927.411 142.033 919.533 136.474C907.182 127.756 890.357 128.79 877.652 136.057C874.264 137.994 870.705 139.559 867.06 140.953C859.668 143.775 854.029 147.889 846.26 148.763C839.599 149.511 833.057 146.42 827.83 142.593C812.297 131.224 803.802 112.617 784.624 105.768C767.354 99.6033 743.617 101.934 725.947 109.098C698.976 124.111 663.682 142.41 631.673 140.553C618.139 139.771 614.214 132.852 605.405 123.883C580.902 98.9349 548.03 103.882 524.551 127.014C512.422 145.518 491.353 149.265 470.095 145.918C454.402 143.444 440.514 136.24 424.021 137.063C412.327 137.645 401.552 143.872 395.045 153.613C390.944 159.748 386.996 166.004 382.751 172.054C381.226 174.231 379.352 176.287 377.61 178.304C374.496 181.897 370.88 185.325 366.344 186.742C360.974 188.421 354.832 186.633 350.845 182.731C349.234 178.852 347.503 175.11 345.669 171.66C343.755 168.049 341.316 164.741 338.408 161.868C332.792 156.326 325.663 152.682 318.236 150.202C302.805 145.049 286.381 144.655 270.516 141.593C258.028 139.182 243.58 130.03 236.633 119.181C229.441 107.95 216.804 103.996 204.384 100.552C196.917 98.4778 189.262 96.9639 181.555 96.1469C121.576 89.7828 131.55 114.931 115.092 138.297C113.703 140.268 111.504 141.359 109.065 140.707C98.2901 137.84 97.5188 126.791 94.4682 117.359C91.0519 106.784 87.1843 99.8774 79.3462 97.5237C92.8686 109.578 90.6462 152.207 110.396 149.254C137.903 145.061 114.058 95.9128 158.372 100.443C174.374 102.077 198.791 105.499 213.593 111.115C232.006 118.096 233.297 135.075 248.961 143.21C262.444 150.214 290.957 147.809 306.153 152.23C328.153 158.634 340.659 171.831 347.709 188.627C348.651 189.313 349.594 189.878 350.531 190.415C351.033 190.924 351.57 191.404 352.159 191.803C356.318 194.671 361.888 194.923 366.721 193.431C371.548 191.94 375.747 188.895 379.546 185.559C382.768 182.731 385.819 179.595 387.847 175.813C387.95 175.625 388.013 175.413 388.11 175.219C389.241 173.534 390.338 171.808 391.315 170.003C391.892 168.929 392.429 167.929 392.955 166.964C405.397 123.723 475.146 162.062 509.314 153.55C530.846 148.186 541.027 123.46 566.637 119.09C598.961 113.577 589.9 131.561 610.329 145.54C651.211 173.511 733.048 98.6836 785.966 118.153C808.058 126.282 811.971 155.075 836.491 161.737C862.73 168.866 892.111 130.127 909.347 140.347C918.396 145.718 922.207 155.612 923.663 167.289C923.778 167.929 923.921 168.563 924.081 169.186C926.817 179.978 933.77 189.353 942.208 196.619C949.371 202.784 977.987 216.06 977.964 196.436C977.959 193.706 977.896 190.895 978.707 187.959C982.426 174.528 984.877 156.921 1001.32 152.35C1019.84 147.203 1033.58 167.609 1051.77 167.032C1069.01 166.49 1079.34 156.858 1092.4 149.054C1110.08 138.497 1130.91 129.899 1153.06 130.756C1170.59 131.435 1167.29 137.834 1182.91 142.57C1214.05 151.996 1223.94 122.438 1236.48 102.648C1247.98 84.5041 1264.61 75.2093 1288.3 78.8256C1301.81 80.8879 1339.37 91.6909 1347.81 101.488C1356.34 111.383 1347.12 125.203 1356.54 133.669C1362.74 139.251 1397.75 145.992 1406.79 149.26C1420.3 154.133 1444.58 164.342 1459.49 158.897C1473.14 153.916 1478.04 139.959 1494.47 135.737C1521.25 128.859 1553.61 138.765 1577.22 150.037C1592.02 157.098 1612.19 153.71 1615.12 172.859C1616.49 181.863 1604.34 213.695 1620.72 211.353C1625.76 210.633 1629.72 206.52 1630.84 201.55C1634.04 187.324 1640.17 174.516 1643.4 160.462C1649.1 135.709 1654.23 140.056 1683.5 136.308C1697.11 134.566 1709.89 141.947 1722.79 140.553C1730.05 139.771 1732.64 133.909 1740.19 132.224C1756.9 128.505 1780.65 123.974 1797.57 123.283C1811.47 122.712 1820.98 131.727 1833.64 133.298C1840.71 134.178 1843.5 130.321 1849.71 130.624C1866.36 131.441 1869.15 133.441 1882.72 142.41C1897.89 152.442 1908.25 161.285 1926.59 163.553C1955.86 167.181 1950.26 155.595 1964.45 137.84C1979.75 118.69 2014.33 123.209 2033.97 136.006C2058.6 152.059 2055.72 172.345 2054.52 197.922C2053.93 210.702 2049.65 247.538 2072.5 242.831C2087.68 239.706 2080.93 216.255 2081.98 204.949C2083.91 184.057 2089.58 124.66 2111.15 114.514C2123.29 108.807 2127.36 119.347 2136.38 118.422C2159.24 116.068 2170.34 86.8235 2193.92 81.6705C2202.87 79.6881 2215.76 81.025 2227.63 80.4651Z" fill="url(#paint2_linear_1111_16931)"/>
<defs>
<linearGradient id="paint0_linear_1111_16931" x1="1120.81" y1="16.9064" x2="1119.87" y2="188.558" gradientUnits="userSpaceOnUse">
<stop stop-color="white"/>
<stop offset="0.2973" stop-color="#E1EFFA"/>
</linearGradient>
<linearGradient id="paint1_linear_1111_16931" x1="1120.43" y1="55.0408" x2="1119.23" y2="273.903" gradientUnits="userSpaceOnUse">
<stop stop-color="#A5CAE5"/>
<stop offset="0.3297" stop-color="#BED9EC"/>
<stop offset="1" stop-color="white"/>
</linearGradient>
<linearGradient id="paint2_linear_1111_16931" x1="1159.79" y1="-22.9896" x2="1157.57" y2="381.4" gradientUnits="userSpaceOnUse">
<stop stop-color="#A5CAE5"/>
<stop offset="0.3297" stop-color="#BED9EC"/>
<stop offset="1" stop-color="white"/>
</linearGradient>
</defs>
</svg>
