<svg width="515" height="203" viewBox="0 0 515 203" fill="none" xmlns="http://www.w3.org/2000/svg">
<path d="M385.536 61.3025C383.308 59.6857 381.177 57.9546 379.155 56.1094C373.334 50.7793 368.386 44.3238 362.953 38.9308C352.887 28.9504 341.159 16.6735 328.219 10.8806C312.52 3.84805 295.141 1.0773 277.974 2.07705C228.255 4.96205 200.959 -10.4227 146.361 15.5366C91.7629 41.4959 95.6648 56.8635 55.6918 62.1594C15.7188 67.4552 -25.2253 88.61 19.6207 117.454C64.4668 146.299 101.515 98.2247 119.065 112.65C136.615 127.069 129.788 163.609 163.911 171.298C198.034 178.988 207.717 136.684 227.25 142.454C246.782 148.224 240.932 199.183 276.026 202.068C311.12 204.953 325.745 163.609 342.318 161.683C358.891 159.758 364.741 199.183 389.112 188.602C413.484 178.028 409.587 152.069 437.86 159.758C452.594 163.763 470.584 155.885 484.66 152.04C496.634 148.767 514.07 140.014 514.881 125.927C517.087 87.456 453.399 85.3422 428.034 79.3152C413.118 75.7732 397.865 70.2431 385.536 61.3025Z" fill="url(#paint0_linear_1111_16933)"/>
<path d="M487.499 139.249C480.438 143.785 458.849 149.692 454.587 137.598C452.285 131.057 462.088 120.374 467.27 117.226C461.717 120.597 456.833 126.572 450.714 129C444.967 131.285 439.928 128.429 433.878 129.52C428.954 130.411 424.498 134.273 419.236 133.788C412.066 133.125 409.21 125.275 403.229 123.796C404.6 129.412 410.707 133.211 409.638 139.432C408.536 145.882 400.943 149.19 395.133 149.721C387.987 150.378 374.453 144.431 371.768 137.335C370.06 132.816 373.727 120.345 378.709 118.523C373.739 120.34 368.683 123.567 363.256 123.767C358.959 123.921 355.463 121.739 351.15 121.379C341.684 120.579 332.8 125.978 323.328 125.892C317.935 125.847 313.639 123.687 308.749 123.116C311.72 123.459 319.609 132.576 319.695 135.599C319.889 142.346 306.961 145.533 302.094 148.658C297.752 151.446 296.975 156.702 292.616 159.593C289.537 161.632 280.219 162.701 277.968 159.233C273.341 152.103 287.137 142.3 275.74 141.637C270.718 141.346 267.588 145.265 261.778 140.7C258.653 138.244 256.168 133.788 257.59 129.72C260.15 122.396 276.74 122.168 266.262 113.456C258.853 107.291 249.467 108.845 244.062 98.1336C239.069 108.045 237.241 105.732 226.998 108.851C217.212 111.833 210.27 119.985 199.262 118.58C193.303 117.82 187.322 112.764 181.375 113.598C184.677 118.7 194.172 124.756 192.286 132.125C190.812 137.889 183.963 137.055 179.175 139.952C180.706 144.071 183.22 151.863 179.707 155.765C176.267 159.581 162.602 159.239 158.569 157.313C150.36 153.394 154.022 149.715 158.22 144.551C164.339 137.015 162.888 136.536 158.5 128.109C153.05 117.632 162.568 112.701 166.716 104.206C159.752 105.406 152.57 107.834 146.521 103.892C141.527 100.636 138.311 94.723 132.707 91.5009C125.012 87.0735 121.515 80.7493 130.502 73.2997C118.773 76.756 113.734 86.445 104.165 92.7749C94.7162 99.0247 83.9531 104.086 74.2355 110.513C64.2151 117.14 50.8299 109.948 42.8661 102.013C49.4359 116.443 44.8599 122.088 28.8581 118.049C20.146 115.849 6.49223 109.125 2.10474 100.687C4.81835 105.903 10.3713 111.519 19.609 117.46C64.4551 146.305 101.503 98.2307 119.047 112.656C136.597 127.075 129.77 163.615 163.893 171.304C198.016 178.994 207.7 136.69 227.232 142.46C246.764 148.23 240.914 199.189 276.009 202.074C311.108 204.959 325.728 163.615 342.301 161.689C358.874 159.764 364.724 199.189 389.095 188.608C413.466 178.034 409.57 152.075 437.843 159.764C452.576 163.775 470.566 155.891 484.643 152.046C496.617 148.772 514.053 140.02 514.864 125.932C515.104 121.768 514.555 118.037 513.373 114.672C507.049 124.921 496.211 133.651 487.499 139.249Z" fill="url(#paint1_linear_1111_16933)"/>
<path d="M42.9239 83.7487C47.8027 85.4512 51.0362 89.3074 55.5608 91.4668C66.4838 96.6884 74.0534 92.1695 83.0397 85.8625C96.882 76.1392 107.891 63.8336 120.739 53.0249C134.061 41.8219 154.828 32.1272 172.795 34.9893C180.798 36.2633 185.477 40.3594 190.819 46.2951C200.205 56.7211 201.165 60.1317 217.184 58.6749C232.169 57.3152 236.413 54.0303 247.056 44.0614C258.414 33.4297 272.49 16.5367 289.12 27.4997C308.293 40.1366 308.241 74.7852 336.509 73.9112C352.83 73.4084 366.855 65.1019 380.623 77.8473C388.21 84.8684 391.301 94.8089 397.756 102.538C412.747 120.483 429.708 108.845 445.939 100.002C460.838 91.8839 477.999 85.8854 492.916 97.5511C496.555 100.396 498.172 104.069 501.342 107.189C504.461 110.256 508.906 113.444 513.642 115.415C504.673 87.0051 450.863 84.7313 428.04 79.3098C413.124 75.7678 397.865 70.2377 385.542 61.2971C383.314 59.6803 381.183 57.9494 379.161 56.1041C373.34 50.774 368.398 44.3184 362.959 38.9255C352.893 28.9451 341.165 16.6681 328.225 10.8752C312.526 3.84839 295.147 1.07193 277.98 2.07168C228.261 4.95668 200.965 -10.4281 146.367 15.5312C91.769 41.4905 95.6709 56.8582 55.6979 62.1541C25.4025 66.1645 -5.41274 79.2927 0.945688 97.9681C12.7599 87.0108 27.1107 78.2244 42.9239 83.7487Z" fill="white"/>
<defs>
<linearGradient id="paint0_linear_1111_16933" x1="0.0701261" y1="101.175" x2="514.941" y2="101.175" gradientUnits="userSpaceOnUse">
<stop stop-color="white"/>
<stop offset="0.4846" stop-color="#E1EFFA"/>
</linearGradient>
<linearGradient id="paint1_linear_1111_16933" x1="258.531" y1="287.533" x2="258.531" y2="124.504" gradientUnits="userSpaceOnUse">
<stop stop-color="white"/>
<stop offset="0.6703" stop-color="#BED9EC"/>
<stop offset="1" stop-color="#A5CAE5"/>
</linearGradient>
</defs>
</svg>
