<svg width="945" height="173" viewBox="0 0 945 173" fill="none" xmlns="http://www.w3.org/2000/svg">
<path d="M217.954 12.9707C254.722 10.8226 254.99 19.7291 284.177 28.4526C313.364 37.1819 304.372 22.9911 344.345 24.8364C384.318 26.6817 399.366 42.7405 425.382 46.3568C451.399 49.9788 450.016 58.2738 462.202 59.7763C474.387 61.2788 469.931 44.2944 486.687 41.8607C503.449 39.4271 513.961 58.1139 523.564 53.4236C533.167 48.7276 543.542 20.1518 564.182 18.0381C584.823 15.9243 584.052 22.574 601.95 19.2606C619.849 15.9471 615.158 6.34376 637.999 4.85841C660.844 3.37307 670.482 -2.43121 689.26 1.51068C708.038 5.45256 700.457 16.3299 716.099 14.0561C731.741 11.7824 742.67 0.459537 763.385 13.3592C784.094 26.2589 785.614 30.892 809.265 38.8158C832.916 46.7395 855.779 79.1715 882.692 72.259C909.606 65.3464 949.596 66.6375 943.66 95.3561C937.73 124.075 873.729 125.903 863.372 119.453C853.014 113.003 844.508 118.236 819.411 120.51C794.32 122.784 783.66 91.3 767.372 96.333C751.085 101.366 734.42 100.829 723.977 97.1557C713.534 93.4823 702.028 122.578 670.225 126C638.421 129.422 641.466 103.943 617.838 112.632C594.204 121.321 581.367 131.964 554.271 122.778C527.174 113.592 500.684 107.41 485.156 123.475C469.623 139.539 456.506 149.68 423.92 143.064C391.328 136.449 385.112 174.057 359.022 172.657C332.937 171.257 330.606 140.048 300.545 141.299C270.478 142.55 273.277 142.087 237.692 124.812C202.112 107.536 182.037 160.82 123.811 138.922C65.5797 117.025 68.8247 137.146 37.381 129.456C5.93732 121.767 -19.5935 85.9127 23.8187 67.3002C67.2308 48.6876 80.0048 44.1916 108.386 48.3506C157.083 55.4802 181.186 15.1187 217.954 12.9707Z" fill="url(#paint0_linear_1111_16926)"/>
<path d="M910.805 77.4119C907.189 78.743 904.458 81.0853 901.327 83.2391C889.507 91.3685 882.978 84.0674 871.169 79.8113C858.624 75.2924 845.084 83.2048 832.784 79.0972C819.308 74.5955 814.663 56.9313 804.477 48.2535C789.143 35.1824 774.918 45.1971 759.574 51.9954C746.543 57.7711 731.032 57.3597 720.098 47.6193C715.756 43.7517 712.877 38.5015 708.335 34.7767C702.456 29.9608 695.292 27.0758 687.603 27.2986C679.114 27.5386 671.681 31.8574 665.58 37.4446C662.598 40.1754 660.25 43.1119 657.987 46.4425C652.497 54.5376 652.503 58.4909 640.86 59.3992C626.715 60.5075 624.39 50.6586 612.981 45.1742C606.554 42.0893 599.693 41.3751 593.06 44.083C583.903 47.8192 579.532 56.9427 573.482 63.9924C555.773 84.6273 540.182 76.1836 519.039 68.2256C509.63 64.6836 501.546 63.981 492.337 68.2599C480.711 73.6643 473.056 84.2217 459.242 83.4905C441.041 82.5307 426.107 57.434 406.404 67.98C395.863 73.6243 388.825 81.6909 374.354 74.9326C367.962 71.9505 362.951 66.8717 356.61 63.8096C350.177 60.7018 342.379 59.7249 335.284 59.8506C332.039 59.9077 328.948 60.8275 325.795 61.5473C319.476 62.9869 312.815 64.3123 306.303 63.7467C300.064 63.204 293.734 60.2733 287.97 57.9482C274.945 52.6923 262.691 50.133 248.763 53.2465C241.673 54.8289 235.109 57.9311 228.499 60.8218C214.594 66.8946 206.099 68.1171 191.36 62.7355C177.352 57.6168 165.383 53.0865 150.461 57.4911C134.734 62.1414 124.256 75.8752 109.043 81.2339C88.8134 88.3578 80.1012 67.3573 60.8203 67.8257C48.3834 68.1285 39.4199 76.8635 29.2395 82.7992C18.1508 89.2662 10.8441 89.0548 1.9834 86.6382C4.53705 79.48 11.3011 72.6646 23.8409 67.2888C67.253 48.6762 80.027 44.1802 108.409 48.3391C157.105 55.4745 181.208 15.1073 217.976 12.9593C254.744 10.8112 255.012 19.7176 284.199 28.4412C313.387 37.1705 304.395 22.9796 344.368 24.8249C384.341 26.6701 399.388 42.7291 425.405 46.3454C451.421 49.9673 450.039 58.2624 462.224 59.7649C474.41 61.2674 469.954 44.283 486.71 41.8493C503.471 39.4156 513.983 58.1025 523.586 53.4122C533.189 48.7162 543.564 20.1404 564.205 18.0266C584.845 15.9129 584.074 22.5626 601.973 19.2491C619.871 15.9357 615.181 6.33233 638.021 4.84699C660.867 3.36164 670.504 -2.44264 689.282 1.49925C708.061 5.44113 700.48 16.3184 716.121 14.0447C731.763 11.771 742.692 0.448108 763.407 13.3478C784.116 26.2475 785.636 30.8806 809.287 38.8043C832.938 46.7281 855.801 79.1601 882.715 72.2475C902.516 67.1573 929.377 66.5289 939.838 77.9889C930.451 75.1439 919.803 74.0984 910.805 77.4119Z" fill="white"/>
<path d="M31.1357 111.427C33.2551 112.94 37.1285 113.192 39.288 113.58C44.4695 114.512 56.8436 117.031 59.9571 110.838C62.1166 106.553 59.7458 97.3386 57.6377 93.3224C60.517 98.8239 65.9443 105.051 71.64 107.685C78.5069 110.861 88.0473 106.628 95.2684 106.102C101.324 105.662 110.682 107.468 104.483 99.4924C101.25 95.3391 96.5995 93.3224 92.7491 90.0947C97.8564 94.3736 107.637 92.1113 113.818 95.3963C120.839 99.1268 119 110.078 126.135 113.649C134.379 117.779 149.952 117.614 158.613 114.86C167.496 112.044 175.054 105.154 181.264 98.664C182.938 96.9158 183.321 94.4593 185.098 92.7626C187.331 90.6317 190.325 89.8662 192.564 87.3411C194.118 85.5815 196.449 82.1023 197.289 81.0569C197.483 84.3132 195.655 87.8723 196.592 91.1173C199.317 100.612 218.05 98.8982 225.174 98.4297C232.663 97.9384 239.33 99.6637 246.151 102.566C251.876 105 260.313 112.621 266.872 111.318C279.052 108.902 278.538 88.895 279.452 79.3488C280.149 87.9009 282.936 106.622 291.774 111.158C295.43 113.038 303.406 111.398 307.965 112.809C313.449 114.511 318.55 117.779 323.675 120.304C338.02 127.36 345.47 116.34 355.753 108.022C354.879 108.724 351.571 121.367 350.428 123.652C347.72 129.074 343.447 134.147 345.378 140.408C350.394 139.357 356.284 137.66 361.163 135.512C372.269 130.627 379.056 120.207 388.493 113.078C396.84 106.776 407.483 101.749 412.859 92.1399C411.476 109.873 428.506 116.397 444.319 117.814C451.238 118.431 461.538 117.819 464.543 110.781C465.828 107.77 464.32 97.2529 460.418 96.156C474.506 100.104 480.425 95.1791 491.828 89.5577C504.687 83.2164 517.513 88.398 529.361 94.3336C539.565 99.4524 556.406 105.348 567.689 100.081C576.03 96.1846 576.241 87.7924 568.517 81.6853C583.251 93.3339 591.552 87.501 607.474 84.9417C620.356 82.8679 635.918 83.9362 643.179 70.3796C634.798 83.1764 630.679 100.949 650.948 102.515C659.981 103.211 668.013 98.1841 674.72 92.7283C681.335 87.3525 687.597 78.0805 696.36 76.1095C703.376 74.5328 708.911 79.8058 715.784 76.6923C718.869 75.2926 725.999 68.5914 722.508 64.4439C734.768 79.0117 745.137 73.316 760.15 72.2134C774.952 71.128 781.91 82.0395 792.142 90.3461C799.323 96.1732 812.463 93.8594 812.651 81.4739C812.269 106.599 852.007 93.9623 865.638 94.2651C868.872 94.3394 890.861 92.5398 886.325 84.5817C891.129 93.014 903.543 105.222 913.666 103.817C928.88 101.703 937.101 92.3341 941.071 79.5201C943.928 83.4792 945.059 88.6607 943.676 95.3505C937.746 124.069 873.745 125.897 863.387 119.447C853.03 112.998 844.524 118.231 819.427 120.504C794.336 122.778 783.676 91.2944 767.388 96.3274C751.101 101.36 734.437 100.823 723.993 97.1501C713.55 93.4767 702.045 122.572 670.241 125.994C638.437 129.416 641.482 103.937 617.854 112.626C594.22 121.316 581.383 131.959 554.287 122.772C527.19 113.586 500.7 107.405 485.172 123.469C469.639 139.534 456.522 149.674 423.936 143.059C391.344 136.443 385.128 174.051 359.038 172.652C332.953 171.252 330.622 140.042 300.561 141.293C270.494 142.545 273.293 142.082 237.708 124.806C202.122 107.53 182.053 160.814 123.827 138.917C65.5958 117.019 68.8407 137.14 37.397 129.451C16.2708 124.286 -2.15328 106.405 1.17733 89.5805C0.726011 91.86 8.30131 99.4923 10.1808 100.475C13.5743 102.252 19.8984 102.686 23.4633 101.452C26.9196 100.258 30.2274 97.7842 33.8779 98.087C33.7008 101.777 28.4164 106.096 29.8846 109.861C30.1131 110.501 30.5587 111.01 31.1357 111.427Z" fill="url(#paint1_linear_1111_16926)"/>
<path d="M45.5894 124.926C46.8976 123.892 47.5946 122.098 47.2518 119.156C48.88 133.095 66.8356 125.034 74.0624 121.275C80.0381 118.162 93.1662 124.417 93.6575 113.734C94.8972 117.722 96.3483 122.509 100.193 124.806C104.512 127.388 111.379 127.519 116.355 128.965C123.907 131.164 131.225 134.129 138.744 136.466C143.148 137.831 156.859 139.054 153.591 130.141C156.059 135.512 160.795 136.866 166.023 135.506C172.375 133.855 177.431 131.867 183.15 128.599C185.589 127.205 187.834 126.005 190.451 125.114C192.467 124.429 193.747 124.514 195.153 122.503C196.838 120.092 197.718 114.283 195.078 112.089C197.923 114.448 201.277 115.991 204.847 116.888C208.246 117.739 211.211 116.968 214.736 116.893C222.494 116.728 230.172 118.619 237.319 121.538C242.032 123.463 262.93 138.214 263.781 126.154C262.822 139.739 283.222 136.706 291.363 135.934C298.636 135.243 305.737 136.26 312.684 138.419C317.088 139.79 322.293 140.733 325.32 136.151C325.298 144.435 332.256 150.017 338.277 154.615C342.676 157.969 347.526 162.099 352.679 164.173C360.609 167.367 367.139 164.659 373.537 159.683C380.375 154.358 387.248 147.966 395.058 144.075C398.017 142.601 400.542 143.121 402.21 139.831C403.267 137.745 404.05 133.843 402.296 131.901C404.067 139.162 421.942 136.694 426.673 137.117C436.156 137.962 445.782 138.465 455.174 136.563C458.042 135.98 461.532 136.026 462.595 132.855C462.806 132.221 462.429 125.914 462.035 125.903C464.823 126 466.263 129.01 468.879 129.49C474.781 130.57 480.762 121.966 484.801 118.956C487.029 117.299 489.646 115.602 492.279 114.671C494.284 113.963 496.141 114.602 498.009 113.911C499.7 113.288 504.248 106.593 502.277 104.931C508.23 109.958 517.284 108.41 524.414 109.198C531.532 109.986 538.154 113.049 545.021 114.9C551.996 116.785 559.52 116.133 559.463 107.393C559.543 119.664 572.928 121.378 582.708 119.893C586.759 119.281 591.329 118.139 594.957 116.219C596.425 115.442 601.595 111.152 598.864 108.918C602.618 111.986 607.468 111.249 611.793 110.015C621.499 107.256 630.514 106.416 639.774 111.243C644.048 113.471 648.772 118.013 653.599 118.733C657.587 119.327 660.375 115.585 659.666 111.569C662.369 126.908 681.078 117.533 689.259 112.734C691.567 111.38 696.109 110.192 697.777 108.147C699.862 105.605 698.96 99.8232 697.937 97.0068C700.302 98.6292 704.09 99.9203 707.009 99.4804C709.483 99.1091 710.951 97.3553 713.15 96.1327C718.372 93.2306 724.262 92.2708 730.146 93.2477C735.819 94.1903 742.24 96.784 743.16 88.4775C741.92 99.6519 756.363 95.0015 761.756 92.962C766.286 91.2424 770.131 91.2939 774.821 91.4539C776.278 91.5053 783.819 90.6083 783.442 87.889C784.653 96.6582 790.326 101.634 796.501 107.307C802.317 112.649 808.978 116.773 817.148 116.539C822.152 116.396 838.297 111.038 834.629 103.314C838.228 105.925 839.611 109.524 844.41 110.323C849.78 111.22 855.67 111.38 861.114 111.706C868.826 112.157 876.47 111.192 884.108 112.626C887.079 113.186 906.52 119.178 900.698 108.998C906.783 119.641 921.859 112.586 929.109 107.433C933.056 104.628 936.415 101.046 938.775 96.8126C940.369 93.9504 944.253 86.0494 942.848 82.7303C944.305 86.1694 944.682 90.3398 943.648 95.3558C937.718 124.074 873.717 125.903 863.359 119.453C853.002 113.003 844.495 118.236 819.398 120.51C794.307 122.783 783.647 91.2996 767.36 96.3327C751.073 101.366 734.408 100.829 723.965 97.1553C713.522 93.4819 702.016 122.578 670.212 126C638.409 129.422 641.454 103.942 617.825 112.631C594.191 121.321 581.354 131.964 554.258 122.778C527.162 113.591 500.671 107.41 485.144 123.475C469.611 139.539 456.494 149.679 423.907 143.064C391.316 136.448 385.1 174.056 359.009 172.657C332.924 171.257 330.593 140.048 300.532 141.299C270.465 142.55 273.265 142.087 237.679 124.811C202.094 107.536 182.024 160.82 123.799 138.922C65.5673 117.025 68.8122 137.145 37.3686 129.456C26.6112 126.828 16.5794 120.892 9.73535 113.494C12.826 116.842 32.2156 129.776 31.8156 117.333C32.0385 123.886 39.4366 129.799 45.5894 124.926Z" fill="url(#paint2_linear_1111_16926)"/>
<defs>
<linearGradient id="paint0_linear_1111_16926" x1="474.671" y1="118.051" x2="468.562" y2="44.2417" gradientUnits="userSpaceOnUse">
<stop stop-color="white"/>
<stop offset="0.4846" stop-color="#E1EFFA"/>
</linearGradient>
<linearGradient id="paint1_linear_1111_16926" x1="480.806" y1="166.388" x2="468.375" y2="54.6304" gradientUnits="userSpaceOnUse">
<stop stop-color="white"/>
<stop offset="0.6703" stop-color="#BED9EC"/>
<stop offset="1" stop-color="#A5CAE5"/>
</linearGradient>
<linearGradient id="paint2_linear_1111_16926" x1="484.214" y1="166.008" x2="471.783" y2="54.2524" gradientUnits="userSpaceOnUse">
<stop stop-color="#A5CAE5"/>
<stop offset="0.3297" stop-color="#BED9EC"/>
<stop offset="1" stop-color="white"/>
</linearGradient>
</defs>
</svg>
