<svg width="351" height="61" viewBox="0 0 351 61" fill="none" xmlns="http://www.w3.org/2000/svg">
<path d="M348.911 20.5043C348.969 20.4833 349.025 20.468 349.083 20.4457C350.221 20.0032 351.021 19.4183 351 17.4278C350.977 15.3619 350.155 13.2682 349.11 11.6085C344.748 8.1957 338.28 10.3467 333.629 11.0488C329.031 11.7425 324.294 10.8352 319.694 11.5862C311.242 12.9667 303.642 17.2143 294.928 17.1487C287.192 17.09 280.737 11.5695 273.169 11.067C264.672 10.5016 256.352 11.3978 247.942 9.30818C239.729 7.26884 232.559 2.28845 224.125 3.17063C216.486 3.96905 208.821 5.95814 201.123 5.62593C195.543 5.38445 190.287 2.29543 184.696 1.72034C171.056 0.317514 157.898 8.49299 144.293 7.40005C133.405 6.52625 123.185 4.80657 112.318 5.39841C106.798 5.69852 100.44 6.24289 95.0517 4.66837C90.6429 3.38 87.103 0.85212 82.4361 0.853516C72.6325 0.856308 63.4907 8.13147 53.7684 8.11054C49.7632 8.10216 45.8366 7.81322 41.8984 7.47263C37.8664 7.12367 34.3167 5.10529 30.3883 4.69491C25.2052 4.15192 18.1352 4.28869 14.4899 10.9608C12.3734 14.8357 9.08535 16.5457 5.83388 16.1869C1.28395 15.6844 -1.72373 20.0729 3.30396 25.3646C6.51704 28.7467 9.85156 27.859 12.8325 24.3247C15.2508 26.7242 14.7364 38.057 17.9486 37.3075C22.2484 36.2829 18.521 24.2744 25.4481 25.3813C27.9495 25.7806 31.7662 26.6167 34.08 27.9888C36.9582 29.6945 37.1601 33.843 39.6087 35.8307C41.7162 37.542 46.1733 36.9543 48.5487 38.0347C51.9877 39.5981 53.9425 42.8239 55.0445 46.9277C57.6745 49.9287 60.3624 46.7141 61.86 42.3772C61.9502 42.1148 62.0342 41.8705 62.1163 41.6346C64.0613 31.0694 74.9642 40.437 80.3053 38.3572C83.6711 37.0465 85.2625 31.0052 89.2659 29.9374C94.3185 28.5904 92.9022 32.9845 96.0957 36.4002C102.487 43.2343 115.279 24.9514 123.551 29.7085C127.005 31.6934 127.617 38.7298 131.448 40.3574C135.55 42.0994 140.143 32.6342 142.837 35.1314C144.252 36.4435 144.847 38.861 145.071 41.7044C145.202 42.1287 145.328 42.5517 145.447 42.9551C146.555 46.703 149.197 51.7238 152.137 51.3637L152.155 51.3609C152.943 51.2604 153.56 50.2386 153.563 49.0019C153.566 48.2831 153.542 47.5418 153.679 46.7643C154.261 43.4827 154.644 39.1807 157.214 38.0641C160.109 36.8064 162.258 41.7923 165.101 41.6514C167.795 41.5187 169.41 39.1653 171.452 37.2586C174.215 34.6791 177.471 32.5783 180.934 32.7877C183.674 32.9538 183.158 34.5172 185.6 35.6744C190.467 37.9775 192.013 30.7554 193.973 25.9202C195.771 21.4869 198.37 19.2159 202.075 20.0995C204.186 20.6034 210.056 23.2429 211.376 25.6368C212.71 28.0544 211.268 31.4296 212.741 33.4996C213.711 34.8633 219.182 36.5105 220.596 37.3089C222.707 38.4995 226.502 40.9939 228.834 39.6637C230.967 38.4465 231.733 35.0364 234.302 34.0049C238.488 32.3243 243.546 34.7447 247.237 37.4987C249.55 39.224 252.703 38.3963 253.161 43.0751C253.376 45.275 251.475 53.0526 254.037 52.4803C254.825 52.3045 255.443 51.2995 255.618 50.0851C256.118 46.6094 257.076 43.4799 257.582 40.0461C258.472 33.9979 259.275 35.0602 263.852 34.1445C265.979 33.7188 267.976 35.5222 269.993 35.1816C271.127 34.9904 271.533 33.5582 272.713 33.1465C275.324 32.2364 279.037 31.1309 281.683 30.9606C283.854 30.821 285.341 33.0236 287.32 33.4075C288.425 33.6224 288.862 32.6802 289.832 32.7542C292.435 32.9538 292.871 33.4424 294.992 35.6338C297.363 38.0836 298.984 40.2458 301.85 40.7999C306.426 41.6863 305.549 38.8555 307.768 34.5172C310.16 29.8383 315.565 30.9424 318.635 34.0691C322.486 37.9914 322.035 42.9481 321.848 49.1973C321.755 52.3198 321.087 61.3202 324.658 60.1701C327.031 59.4065 325.976 53.6766 326.14 50.9142C326.442 45.8096 327.328 31.297 330.7 28.8179C332.597 27.4235 333.233 29.9988 334.643 29.7727C338.218 29.1976 339.952 22.0523 343.638 20.7932C345.04 20.3144 347.055 20.6411 348.911 20.5043Z" fill="url(#paint0_linear_1111_17486)"/>
<path d="M345.644 13.1133C346.354 13.7386 346.954 14.195 347.749 13.6018C348.433 13.0909 348.849 13.5125 349.324 14.2621C349.754 14.9418 350.262 15.4541 350.814 15.7696C350.515 14.269 349.874 12.8215 349.109 11.6071C344.747 8.1943 338.279 10.3439 333.627 11.046C329.03 11.7397 324.293 10.8325 319.693 11.5834C311.24 12.9639 303.641 17.2115 294.927 17.1459C287.19 17.0872 280.736 11.5666 273.168 11.0627C264.671 10.4974 256.351 11.3936 247.941 9.304C239.727 7.26467 232.557 2.28428 224.124 3.16646C216.485 3.96488 208.82 5.95397 201.122 5.62176C195.542 5.38028 190.286 2.29126 184.695 1.71617C171.054 0.313343 157.897 8.48883 144.292 7.39728C133.404 6.52348 123.184 4.80377 112.317 5.39561C106.796 5.69571 100.439 6.24012 95.0505 4.66561C90.6417 3.37724 87.1018 0.849322 82.4349 0.852114C72.6313 0.854906 63.4895 8.13007 53.7672 8.10913C49.762 8.10076 45.8354 7.81182 41.8972 7.47123C37.8653 7.12366 34.3155 5.10389 30.3871 4.69351C25.2041 4.15052 18.134 4.28729 14.4887 10.9594C11.189 17.0007 10.4773 16.3656 5.39157 16.152C4.61553 16.1199 3.89576 16.2358 3.26172 16.4731C4.97721 17.8438 6.59178 19.5565 8.4957 20.0883C10.4719 20.6411 12.45 19.2969 13.8467 17.1403C14.812 15.6509 15.8309 13.5139 17.1571 12.6331C17.5009 12.4042 17.8661 12.2604 18.2555 12.2353C19.595 12.1459 20.7416 13.6786 22.1205 13.5836C23.7324 13.4734 25.0987 11.6309 26.64 11.0656C28.4564 10.3983 30.1933 12.118 32.091 11.6002C34.103 11.0502 35.881 9.92512 37.9555 10.3397C40.7399 10.8966 42.8822 13.9424 45.5024 15.1903C48.9146 16.8164 51.1864 12.8034 54.3691 13.0365C57.6349 13.2766 59.128 17.7559 62.7367 14.946C64.6978 13.419 66.1194 10.6482 68.1671 9.29003C70.3693 7.82858 72.35 8.37993 74.6451 8.95223C76.7607 9.47986 78.4547 10.0019 80.5533 9.10439C82.35 8.33667 84.0128 6.91013 85.8855 6.5486C87.5903 6.22058 89.0593 6.5486 90.6328 7.61363C92.7394 9.04019 94.3826 11.5904 96.3293 13.4203C99.7817 16.6657 101.887 14.6459 105.157 12.6191C107.395 11.2317 110.222 8.47487 112.731 8.9006C113.842 9.08904 114.173 9.86511 115.153 10.4737C116.327 11.2009 117.507 11.8779 118.778 11.9687C120.11 12.065 121.174 11.2331 122.445 10.7347C123.435 10.3453 124.641 9.43521 125.648 9.41846C126.464 9.40451 128.237 10.785 128.651 11.6951C128.726 11.8598 129.747 12.4809 129.967 12.7364C130.517 13.3743 130.967 14.1392 131.59 14.6375C135.626 17.8633 139.993 11.1493 144.113 13.5599C145.914 14.6138 146.916 17.044 149.02 17.2729C151.587 17.5534 153.546 15.2475 155.6 13.2403C158.275 10.6272 161.241 8.87824 164.455 9.16718C166.2 9.32351 168.035 10.1289 169.727 10.7473C172.851 11.8891 174.81 11.6239 177.564 9.1337C180.122 6.82217 182.348 5.58965 185.403 6.3127C186.872 6.66026 187.972 7.39309 189.242 8.55863C191.955 11.0502 194.354 11.1549 197.309 10.2015C198.539 9.80508 199.918 9.46313 201.157 9.94191C201.697 10.1499 202.033 10.7096 202.528 11.0069C203.208 11.4159 204.052 11.4941 204.767 11.7467C207.854 12.8355 209.628 11.8598 212.459 10.055C214.267 8.90199 216.276 7.85091 218.177 9.15742C220.042 10.4388 220.909 13.063 222.847 14.3318C225.587 16.1255 228.259 14.8078 231.164 14.1643C234.141 13.5055 237.605 12.3679 240.545 13.7749C241.624 14.2914 242.241 15.2433 243.141 16.2037C245.745 18.9856 247.926 18.4552 250.655 16.5149C253.527 14.4728 254.735 14.4379 257.708 16.1478C259.84 17.3734 262.235 18.7874 264.548 18.0741C266.097 17.5953 267.434 15.8645 268.97 15.3829C270.579 14.8776 271.922 16.4116 273.302 17.4111C274.448 18.2402 275.622 18.0601 276.835 17.8312C278.123 17.5883 279.428 17.587 280.684 18.1788C283.767 19.6319 285.726 22.8786 289.245 22.6399C291.873 22.4612 294.349 19.7868 297.036 20.8742C300.514 22.2812 302.039 25.4735 306.165 23.8487C309.281 22.6218 311.512 19.3122 314.457 17.7559C316.648 16.5987 318.949 16.6657 321.193 17.1989C322.515 17.513 323.853 17.5967 325.187 17.4572C326.264 17.3441 327.218 16.6392 328.26 16.1604C329.077 15.7849 329.408 15.9245 330.138 16.5596C331.74 17.9541 332.829 16.6922 334.327 15.5797C335.241 14.9 336.267 15.3243 337.216 14.9935C338.118 14.6794 339.057 14.2425 339.887 13.5781C341.086 12.6177 341.931 11.4843 343.343 11.7369C344.173 11.8835 344.93 12.4838 345.644 13.1133Z" fill="white"/>
<path d="M348.911 20.5043C348.969 20.4834 349.025 20.468 349.083 20.4457C350.041 20.073 350.752 19.59 350.943 18.2626C350.869 18.2835 350.798 18.317 350.723 18.331C349.465 18.5641 348.191 17.6093 347.065 16.9072C344.75 15.4639 342.876 15.0061 340.525 16.8528C339.222 17.8759 335.193 24.4532 334.879 17.5284C335.358 28.0866 330.606 20.0437 326.909 24.0316C325.803 25.2237 325.084 27.383 324.148 28.8542C322.684 31.1532 321.318 32.2992 319.27 31.1142C316.041 29.2465 316.14 26.2021 319.792 24.5899C317.371 25.6578 312.509 27.3482 312.075 21.5666C311.407 25.4987 308.692 26.6711 306.869 28.8124C304.891 31.1365 300.708 35.8181 298.225 32.1038C295.761 28.4201 299.264 26.1072 301.501 25.775C299.528 25.1176 297.513 24.2717 295.347 24.4224C291.695 24.6751 289.417 27.4738 285.662 25.8965C283.245 24.8817 281.251 24.3108 278.836 25.6201C276.153 27.0746 274.401 28.2108 271.627 27.2979C270.092 26.7926 268.673 25.5656 266.995 25.7331C264.916 25.9411 264.551 27.2379 262.361 26.371C260.69 25.7108 259.197 23.7566 257.594 22.7628C262.087 25.9062 259.767 31.5497 255.662 30.8559C253.974 30.5698 253.119 29.3512 251.661 28.4648C249.805 27.3342 247.962 26.9796 246.018 26.9643C243.852 27.9344 238.704 29.2744 241.339 23.1369C238.519 29.7071 235.816 23.899 232.41 24.0414C230.09 24.1391 229.756 25.4358 227.835 27.0494C226.304 28.3336 224.713 28.9799 222.975 28.5918C221.103 28.1745 218.859 26.4925 217.3 24.9333C216.587 24.22 215.898 23.3295 215.383 22.3594C216.509 20.6774 217.858 19.1796 219.279 18.1327C217.561 18.3198 216.659 16.3168 215.086 15.905C211.404 14.9447 207.352 17.6986 203.495 16.6406C202.364 16.3293 201.316 15.577 200.204 15.2364C198.33 14.6641 196.766 15.7528 195.009 16.3168C191.996 18.5375 188.727 21.4968 188.276 22.1123C187.212 23.5626 186.387 25.6438 184.906 26.1254C183.703 26.5176 183.659 25.7541 182.562 25.3172C180.376 24.4462 179.271 24.1809 177.067 22.5478C175.557 21.4297 174.02 21.2594 172.674 19.6361C175.803 23.952 176.97 33.3307 170.804 31.491C169.142 30.9955 168.521 29.5229 167.243 28.1354C166.35 27.1653 166.183 25.7332 164.813 27.0955C164.31 27.5952 164.036 29.5242 163.605 30.3031C161.928 33.3419 158.679 34.1459 156.447 31.8009C155.305 30.6018 155.298 29.2381 154.564 27.6175C153.392 25.0241 153.373 24.4518 151.929 26.8289C151.38 27.7334 151.057 29.1097 150.561 30.0938C149.085 33.0181 147.167 34.3009 145.023 32.041C143.228 30.1482 142.28 25.507 139.519 26.4771C138.913 26.6893 138.406 27.0983 137.905 27.5282C133.851 32.0396 127.584 26.4129 133.155 20.4987C130.638 21.607 128.503 19.7645 126.104 20.2195C123.992 20.6215 122.142 23.6198 119.88 22.4306C117.461 21.1576 116.569 19.798 114.145 19.8845L114.971 19.195C113.931 19.0694 113.074 19.4365 112.26 20.119C109.933 20.549 107.542 21.2399 105.272 20.2475C106.022 22.344 107.521 23.1145 108.556 24.5467L109.222 23.9911C108.342 25.447 107.521 26.995 106.571 28.342C105.039 30.5125 103.04 32.4541 101.014 30.6884C100.168 29.9514 99.8661 28.7942 99.2473 27.7278C97.3005 24.375 96.4146 24.6639 94.1508 24.1907C92.4532 23.8362 88.0345 19.6626 91.3431 16.6406C89.7286 18.1146 88.3846 19.4644 86.5325 20.0423C84.9652 20.5322 83.8409 19.8524 82.329 21.4535C80.0786 23.8362 78.6203 27.7739 76.1681 29.7713C72.112 33.0753 69.7705 26.5274 73.5775 23.2416C71.0082 25.4596 70.109 24.8984 67.5639 24.576C65.3742 24.2982 63.9659 24.7253 62.6558 27.9093C61.3654 31.0457 60.3733 36.2145 58.0336 37.8477C55.726 39.4585 53.8337 36.1838 51.9718 34.714C52.0727 32.9092 52.7246 30.3618 53.9409 29.7155C50.0955 30.7791 48.7908 31.6055 48.0112 25.729C47.3629 20.8435 47.3433 19.0624 43.8641 20.5071C39.5151 22.3119 34.0748 27.6776 34.4749 17.0175C30.7787 19.1517 26.4145 19.6068 23.0353 22.7795C21.0171 24.6751 19.3016 27.344 16.8708 25.5964C14.5927 23.959 13.6461 21.3753 10.893 21.5233C10.0491 21.5693 9.20069 21.9322 8.35411 22.0299C5.34911 22.3789 2.56378 21.5288 1.1805 18.1858C0.221398 19.8887 0.585749 22.4878 3.30767 25.3535C6.52075 28.7356 9.85527 27.8479 12.8362 24.3136C15.2545 26.713 14.7401 38.0473 17.9532 37.2963C22.253 36.2718 18.5256 24.2633 25.4527 25.3702C27.9541 25.7694 31.7708 26.6056 34.0846 27.9777C36.9628 29.6834 37.1647 33.8319 39.6133 35.8196C41.7208 37.5309 46.1779 36.9432 48.5533 38.0236C51.9923 39.5883 53.9471 42.8127 55.0491 46.9165C57.6791 49.9176 60.367 46.7029 61.8646 42.366C61.9548 42.1036 62.0388 41.8594 62.1209 41.6235C64.0659 31.0583 74.9688 40.4259 80.3099 38.346C83.6757 37.0353 85.2671 30.9941 89.2705 29.9263C94.3231 28.5793 92.9068 32.9734 96.1003 36.3891C102.491 43.2231 115.283 24.9403 123.555 29.6973C127.008 31.6836 127.62 38.7187 131.453 40.3463C135.555 42.0883 140.147 32.6231 142.842 35.1202C144.256 36.4323 144.852 38.8499 145.076 41.6933C145.206 42.1176 145.332 42.5405 145.452 42.9439C146.559 46.6918 149.202 51.7127 152.142 51.3525L152.159 51.3497C152.948 51.2492 153.564 50.2275 153.568 48.9907C153.57 48.2719 153.546 47.5307 153.684 46.7532C154.265 43.4716 154.648 39.1696 157.218 38.0529C160.114 36.7952 162.262 41.7812 165.106 41.6402C167.8 41.5076 169.414 39.1542 171.457 37.2475C174.22 34.668 177.476 32.5672 180.939 32.7766C183.679 32.9427 183.162 34.5061 185.605 35.6632C190.472 37.9664 192.017 30.7442 193.978 25.909C195.775 21.4758 198.375 19.2048 202.079 20.0883C204.19 20.5922 210.061 23.2318 211.381 25.6257C212.714 28.0433 211.273 31.4198 212.745 33.4885C213.715 34.8522 219.187 36.4993 220.6 37.2977C222.711 38.4884 226.507 40.9828 228.838 39.6525C230.972 38.4353 231.738 35.0253 234.306 33.9938C238.493 32.3132 243.551 34.7336 247.242 37.4876C249.555 39.2128 252.708 38.3851 253.165 43.064C253.38 45.2638 251.48 53.0415 254.041 52.4692C254.83 52.2933 255.449 51.2883 255.623 50.0739C256.123 46.5983 257.081 43.4688 257.586 40.035C258.477 33.9868 259.28 35.049 263.855 34.1334C265.983 33.7076 267.979 35.511 269.997 35.1705C271.131 34.9792 271.536 33.5471 272.717 33.1353C275.328 32.2266 279.04 31.1197 281.686 30.9508C283.858 30.8112 285.345 33.0139 287.324 33.3977C288.429 33.6127 288.865 32.6705 289.836 32.7445C292.438 32.9441 292.875 33.4326 294.996 35.6241C297.367 38.0752 298.988 40.236 301.853 40.7901C306.429 41.6765 305.553 38.8458 307.771 34.5075C310.164 29.8286 315.568 30.9327 318.639 34.0594C322.489 37.9817 322.038 42.9384 321.852 49.1876C321.759 52.3101 321.091 61.3105 324.662 60.1603C327.035 59.3968 325.98 53.6668 326.143 50.9045C326.445 45.7998 327.332 31.2872 330.704 28.8082C332.601 27.4137 333.237 29.9891 334.647 29.7629C338.221 29.1879 339.956 22.0425 343.642 20.7835C345.041 20.3145 347.055 20.6411 348.911 20.5043Z" fill="url(#paint1_linear_1111_17486)"/>
<path d="M348.911 20.5043C348.969 20.4834 349.025 20.468 349.083 20.4457C349.789 20.1707 350.365 19.8399 350.695 19.1532C349.776 19.5105 348.801 19.6012 347.825 19.6082C346.275 19.618 344.759 19.939 343.22 19.9865C342.967 19.9948 342.712 19.9795 342.46 19.9683C341.692 19.9376 340.948 19.9544 340.332 20.8142C339.663 21.748 339.232 22.9959 338.615 24.0009C337.987 25.0227 337.074 25.8602 336.283 26.5386C335.253 27.4249 334.277 27.4919 333.153 27.0634C332.512 26.8191 332.084 26.8275 331.446 26.9922C330.772 27.1653 330.041 26.8889 329.517 27.7585C329.147 28.3727 328.651 29.3038 328.428 30.0799C328.187 30.9118 328.291 31.921 327.993 32.7166C327.675 33.5653 327.026 33.7411 326.617 34.4139C326.227 35.0546 326.163 36.0666 326.038 36.9167C325.554 40.2025 325.365 43.5512 325.114 46.8914C324.893 49.852 325.303 52.7372 325.166 55.5694C325.121 56.513 325.31 56.8662 324.931 57.6841C324.541 58.5217 323.88 58.4951 323.494 57.6716C322.311 55.1535 322.493 51.9542 322.834 49.0578C323.326 44.8633 323.847 41.4644 322.338 37.6132C321.319 35.0128 319.35 32.6664 317.432 31.4254C314.896 30.5042 312.333 29.0497 309.718 30.246C307.753 31.1449 306.607 33.2037 305.176 35.2375C303.966 36.9572 302.718 38.3851 301.228 37.9147C299.385 37.5616 298.833 35.7079 297.314 34.0971C294.351 30.955 291.693 31.5148 288.35 30.9536C285.04 30.3981 281.951 29.2661 278.564 29.5383C276.915 29.6709 275.335 30.4316 273.761 31.1505C273.073 31.4645 272.391 31.7507 271.732 32.1806C271.081 32.6063 270.512 33.2973 269.852 33.6853C269.506 33.8891 269.191 33.8193 268.887 33.6462C268.066 33.1786 266.704 32.6649 265.83 32.6747C263.983 32.6957 262.133 33.0725 260.501 34.4921C258.561 36.1811 257.487 34.6582 256.927 37.9468C256.661 39.5088 256.483 41.1029 256.222 42.6662C255.962 44.2268 255.381 45.5054 255.123 47.0687C254.961 48.05 255.19 50.0028 254.476 50.469C253.853 50.8766 253.228 49.8688 253.362 48.9014C254.429 41.248 254.337 38.5931 248.923 35.5613C248.111 35.1063 247.48 33.7872 246.704 33.2191C245.798 32.5561 244.612 32.4053 243.633 32.6398C243.029 32.785 242.534 33.0669 241.908 33.0167C241.3 32.9678 240.781 32.591 240.19 32.3816C237.372 31.3822 234.453 31.5608 231.884 33.776C230.748 34.7573 229.72 36.2495 228.477 36.9181C225.887 38.3112 223.601 36.6222 221.071 35.5627C220.008 35.1174 218.942 34.6973 217.911 34.0887C217.133 33.6295 216.305 32.7669 215.46 32.7068C214.895 32.6664 214.529 32.7794 214.15 32.0466C213.453 30.7038 213.576 28.8906 213.243 27.3412C212.901 25.7444 212.09 24.5411 211.176 23.7287C210.133 22.8019 209.059 21.8067 207.961 21.0362C206.987 20.3522 206.096 19.597 205.176 18.8293C204.189 18.0057 202.742 17.8871 201.65 17.6666C199.94 17.319 198.955 17.8173 197.521 18.4957C194.517 21.346 193.305 24.8971 191.036 28.952C190.094 30.6368 188.8 32.6133 187.284 32.8925C185.174 33.2819 183.682 30.5684 181.603 30.1999C177.454 29.4643 172.967 31.7926 169.738 35.8615C169.666 35.9536 169.588 35.9968 169.512 36.0457C168.139 37.4429 166.557 39.0175 164.908 39.2715C162.855 39.5856 161.546 37.6062 159.661 36.8497C157.17 35.8503 155.424 37.4625 154.369 40.987C153.526 43.808 153.007 50.4522 150.089 48.8247C149.345 48.4101 148.735 47.5628 148.265 46.5704C147.333 44.6023 146.637 42.3787 146.174 40.0434C146.073 37.8059 145.664 35.5474 144.433 34.1892C142.502 32.0592 139.872 32.3118 137.886 34.0873C137.357 34.5605 136.8 34.943 136.231 35.2836C135.075 35.9731 134.194 36.9781 132.979 37.1917C131.938 37.3746 130.915 36.6194 130.098 35.6842C127.67 32.9064 126.342 28.3602 123.344 26.6866C120.645 25.1804 116.934 25.7499 114.172 27.5003C109.956 31.1686 104.439 35.6395 99.4355 35.1859C97.3199 34.9946 96.7064 33.3043 95.3294 31.1128C91.4993 25.0171 86.3608 26.2259 82.6905 31.8777C80.7946 36.3989 77.5012 37.3145 74.1783 36.4966C71.7252 35.8922 69.5542 34.132 66.9761 34.333C65.1481 34.4754 63.4639 35.9969 62.4467 38.3768C61.8055 39.8759 61.1884 41.4044 60.5249 42.8826C60.2865 43.4144 59.9936 43.9169 59.7212 44.4096C59.2345 45.2876 58.6692 46.1251 57.9602 46.4713C57.1207 46.8817 56.1608 46.4448 55.5374 45.4914C55.2856 44.5436 55.015 43.6294 54.7284 42.7863C54.4292 41.9041 54.0479 41.0959 53.5933 40.3937C52.7155 39.0398 51.601 38.1492 50.4401 37.5434C48.028 36.2844 45.4606 36.1881 42.9807 35.4399C41.0286 34.8509 38.7701 32.6147 37.6842 29.964C36.5599 27.2198 34.5846 26.2538 32.6431 25.4121C31.476 24.9054 30.2793 24.5355 29.0746 24.3359C19.6988 22.7809 21.2581 28.9255 18.6853 34.6345C18.4683 35.1161 18.1245 35.3827 17.7431 35.2236C16.0589 34.5228 15.9383 31.8233 15.4615 29.5187C14.9274 26.935 14.3229 25.2474 13.0977 24.6723C15.2114 27.6176 14.864 38.0334 17.9512 37.3117C22.2511 36.2872 18.5236 24.2787 25.4508 25.3856C27.9521 25.7848 31.7689 26.6209 34.0827 27.993C36.9609 29.6988 37.1627 33.8472 39.6114 35.8349C41.7189 37.5462 46.1759 36.9586 48.5514 38.039C51.9904 39.6037 53.9452 42.8281 55.0472 46.9319C55.1945 47.0994 55.3419 47.2376 55.4883 47.3688C55.5669 47.493 55.6508 47.6103 55.7428 47.708C56.3929 48.4087 57.2636 48.4701 58.0191 48.1058C58.7737 47.7415 59.4301 46.9975 60.024 46.1823C60.5276 45.4914 61.0045 44.7251 61.3215 43.801C61.3376 43.755 61.3474 43.7033 61.3626 43.6559C61.5394 43.2441 61.7109 42.8225 61.8636 42.3815C61.9538 42.119 62.0377 41.8747 62.1199 41.6388C64.0649 31.0737 74.9677 40.4412 80.3089 38.3614C83.6746 37.0507 85.266 31.0095 89.2694 29.9417C94.3221 28.5947 92.9058 32.9888 96.0992 36.4044C102.49 43.2385 115.282 24.9557 123.554 29.7128C127.007 31.699 127.619 38.7341 131.452 40.3617C135.554 42.1037 140.146 32.6384 142.841 35.1356C144.255 36.4477 144.851 38.8653 145.079 41.7184C145.096 41.8748 145.119 42.0297 145.144 42.1818C145.571 44.8186 146.658 47.1092 147.977 48.8847C149.097 50.3908 153.57 53.6348 153.567 48.84C153.566 48.1728 153.556 47.4861 153.683 46.7686C154.264 43.487 154.647 39.185 157.217 38.0683C160.112 36.8106 162.261 41.7966 165.104 41.6556C167.799 41.523 169.413 39.1696 171.456 37.2629C174.219 34.6834 177.475 32.5826 180.938 32.792C183.677 32.9581 183.161 34.5214 185.604 35.6786C190.471 37.9817 192.016 30.7596 193.977 25.9244C195.774 21.4912 198.374 19.2202 202.078 20.1037C204.189 20.6076 210.06 23.2472 211.38 25.641C212.713 28.0586 211.272 31.4352 212.744 33.5038C213.714 34.8676 219.186 36.5147 220.599 37.3131C222.71 38.5038 226.506 40.9982 228.837 39.6679C230.971 38.4507 231.737 35.0407 234.305 34.0091C238.492 32.3285 243.55 34.749 247.241 37.503C249.554 39.2282 252.707 38.4005 253.164 43.0794C253.379 45.2792 251.479 53.0569 254.04 52.4846C254.829 52.3087 255.448 51.3037 255.622 50.0893C256.122 46.6137 257.08 43.4842 257.585 40.0504C258.476 34.0022 259.279 35.0644 263.854 34.1487C265.982 33.723 267.978 35.5264 269.996 35.1859C271.13 34.9946 271.535 33.5625 272.716 33.1507C275.327 32.242 279.039 31.1351 281.685 30.9662C283.857 30.8266 285.344 33.0293 287.323 33.4131C288.428 33.6281 288.864 32.6859 289.835 32.7599C292.437 32.9595 292.874 33.448 294.995 35.6395C297.366 38.0906 298.987 40.2514 301.852 40.8055C306.428 41.6919 305.552 38.8611 307.77 34.5228C310.163 29.8439 315.567 30.9481 318.637 34.0748C322.488 37.9971 322.037 42.9537 321.851 49.203C321.758 52.3255 321.09 61.3259 324.661 60.1757C327.034 59.4122 325.979 53.6822 326.142 50.9199C326.444 45.8152 327.331 31.3026 330.703 28.8236C332.6 27.4291 333.236 30.0045 334.646 29.7784C338.22 29.2033 339.955 22.0579 343.641 20.7988C345.04 20.3145 347.055 20.6411 348.911 20.5043Z" fill="url(#paint2_linear_1111_17486)"/>
<defs>
<linearGradient id="paint0_linear_1111_17486" x1="175.896" y1="4.9748" x2="175.535" y2="46.9133" gradientUnits="userSpaceOnUse">
<stop stop-color="white"/>
<stop offset="0.2973" stop-color="#E1EFFA"/>
</linearGradient>
<linearGradient id="paint1_linear_1111_17486" x1="175.837" y1="14.2923" x2="175.377" y2="67.7655" gradientUnits="userSpaceOnUse">
<stop stop-color="#A5CAE5"/>
<stop offset="0.3297" stop-color="#BED9EC"/>
<stop offset="1" stop-color="white"/>
</linearGradient>
<linearGradient id="paint2_linear_1111_17486" x1="181.989" y1="-4.77313" x2="181.14" y2="94.0284" gradientUnits="userSpaceOnUse">
<stop stop-color="#A5CAE5"/>
<stop offset="0.3297" stop-color="#BED9EC"/>
<stop offset="1" stop-color="white"/>
</linearGradient>
</defs>
</svg>
