<svg width="449" height="233" viewBox="0 0 449 233" fill="none" xmlns="http://www.w3.org/2000/svg">
<path d="M2.50212 168.848C16.2759 134.571 89.2065 140.712 116.091 140.409C160.983 139.901 219.534 136.662 262.25 123.716C307.49 110.011 331.615 77.1449 359.757 42.5077C377.513 20.656 396.251 8.65322 416.857 2.57472C432.63 -2.08127 448.735 9.37305 448.901 25.8204C448.906 26.1746 448.906 26.5288 448.901 26.8773C448.741 43.6389 439.32 51.4541 429.248 62.6342C421.302 71.4549 414.778 80.4526 411.156 91.9527C410.853 92.9238 410.607 93.8836 410.367 94.8491C408.214 100.808 406.551 107.497 405.494 115.221C405.351 116.244 405.226 117.278 405.094 118.323C404.055 126.641 403.043 135.382 397.308 141.832C390.749 149.213 383.202 152.766 378.455 162.198C367.526 183.907 370.743 196.733 346.166 208.798C303.342 229.827 254.777 238.768 208.263 227.913C162.011 217.116 137.04 192.402 86.4871 195.504C65.538 196.795 -13.7453 209.267 2.50212 168.848Z" fill="url(#paint0_linear_1111_17348)"/>
<path d="M2.50212 168.848C16.2759 134.57 89.2065 140.712 116.091 140.409C160.983 139.901 219.534 136.661 262.25 123.716C307.49 110.011 331.615 77.1446 359.757 42.5074C377.301 20.9184 395.805 8.9385 416.126 2.79145C432.236 -2.08163 448.963 9.73832 448.901 26.5685C448.901 26.6713 448.901 26.7741 448.901 26.877C448.741 43.6385 439.32 51.4538 429.248 62.6339C421.302 71.4545 414.778 80.4523 411.156 91.9523C410.853 92.9235 410.607 93.8833 410.367 94.8488C408.214 100.807 406.551 107.497 405.494 115.221C405.351 116.243 405.226 117.277 405.094 118.323C404.055 126.641 403.043 135.382 397.308 141.831C390.749 149.212 383.202 152.766 378.455 162.198C367.526 183.907 370.743 196.732 346.166 208.798C303.342 229.827 254.777 238.768 208.263 227.913C162.011 217.116 137.04 192.402 86.4871 195.504C65.538 196.795 -13.7453 209.266 2.50212 168.848Z" fill="url(#paint1_linear_1111_17348)"/>
<path d="M1.0406 174.938C4.29123 177.6 13.6318 183.764 23.6236 188.466C36.409 194.487 50.2627 198.109 53.799 188.94C57.501 179.342 34.4438 174.058 28.2739 172.424C56.9925 167.283 81.5636 185.455 108.98 182.639C119.16 181.593 119.103 183.216 127.004 187.957C132.608 191.322 134.396 196.367 141.452 190.66C148.227 185.181 144.028 171.442 143.96 163.295C161.235 170.036 169.422 188.654 181.436 201.263C185.184 205.199 191.931 211.917 198.221 210.329C200.649 209.718 209.509 204.713 204.482 200.771C219.124 212.249 234.554 219.384 253.047 216.082C260.234 214.797 294.397 204.096 288.067 190.317C293.86 202.919 309.542 210.335 318.351 194.887C323.001 186.723 319.385 174.315 321.973 165.397C321.002 182.736 342.156 201.257 350.857 178.731C354.611 169.025 345.201 169.373 344.539 161.41C344.042 155.463 353.388 145.688 357.021 140.523C356.267 147.487 359.878 155.537 367.567 155.468C374.766 155.405 385.209 136.919 388.654 130.909C395.001 119.849 394.624 106.28 404.455 97.0713C399.308 88.1135 383.969 81.7379 393.744 68.8668C402.867 56.8526 419.886 60.1376 404.775 41.6164C414.481 39.8511 423.411 45.3412 432.98 45.4326C436.996 45.4726 440.835 44.7642 444.611 43.7416C440.892 50.5514 435.208 56.0243 429.249 62.6455C421.303 71.4662 414.779 80.464 411.157 91.964C410.854 92.9352 410.608 93.8949 410.368 94.8604C408.214 100.819 406.552 107.509 405.495 115.233C405.352 116.255 405.227 117.289 405.095 118.335C404.055 126.653 403.044 135.393 397.309 141.843C390.75 149.224 383.203 152.778 378.456 162.204C367.527 183.913 370.744 196.738 346.167 208.804C303.343 229.833 254.778 238.774 208.264 227.919C162.012 217.122 137.041 192.408 86.4881 195.51C71.5146 196.424 -9.51679 208.392 1.0406 174.938Z" fill="url(#paint2_linear_1111_17348)"/>
<path d="M116.091 140.409C160.983 139.901 219.534 136.661 262.249 123.716C307.49 110.011 331.615 77.1447 359.757 42.5075C378.781 19.0961 398.93 6.99053 421.296 1.36335C434.241 -1.89299 447.078 7.12194 448.563 20.3872C448.895 23.3351 448.958 26.2315 448.838 28.8594C448.792 28.9051 448.763 28.9337 448.723 28.9794C439.126 30.2534 430.105 28.0082 418.045 26.003C409.956 24.6548 402.62 25.146 395.833 30.1677C376.113 44.7526 380.323 73.5056 380.392 94.5518C380.414 101.779 381.511 120.048 375.884 125.944C372.359 129.64 353.09 132.622 349.154 131.326C346.411 130.423 343.898 127.761 341.304 126.47C334.414 123.048 326.993 120.894 319.355 122.853C300.914 127.595 294.761 149.373 288.071 164.603C272.281 200.566 229.035 217.596 198.442 188.18C185.514 175.755 169.249 152.606 149.786 150.155C142.559 149.247 137.783 151.658 132.396 156.154C123.94 163.203 117.662 171.184 105.711 173.869C94.8334 176.315 81.5453 170.116 72.0448 165.494C54.7747 157.102 42.3206 151.966 28.2841 161.49C24.9306 163.763 20.309 163.512 17.6296 160.473C17.6068 160.45 17.5839 160.421 17.561 160.398C15.8586 158.45 14.6874 156.725 13.4478 155.171C38.7387 136.404 93.5652 140.66 116.091 140.409Z" fill="white"/>
<defs>
<linearGradient id="paint0_linear_1111_17348" x1="533.213" y1="105.357" x2="-2.18075" y2="137.592" gradientUnits="userSpaceOnUse">
<stop stop-color="white"/>
<stop offset="0.4846" stop-color="#E1EFFA"/>
</linearGradient>
<linearGradient id="paint1_linear_1111_17348" x1="533.19" y1="105.422" x2="-2.17691" y2="137.655" gradientUnits="userSpaceOnUse">
<stop stop-color="white"/>
<stop offset="0.4846" stop-color="#E1EFFA"/>
</linearGradient>
<linearGradient id="paint2_linear_1111_17348" x1="257.023" y1="301.711" x2="230.977" y2="159.775" gradientUnits="userSpaceOnUse">
<stop stop-color="white"/>
<stop offset="0.6703" stop-color="#BED9EC"/>
<stop offset="1" stop-color="#A5CAE5"/>
</linearGradient>
</defs>
</svg>
