<svg width="507" height="384" viewBox="0 0 507 384" fill="none" xmlns="http://www.w3.org/2000/svg">
<path d="M405.221 98.6476C403.341 99.7502 401.307 100.95 399.096 102.304C378.759 114.747 379.844 139.672 356.901 151.423C331.119 164.626 298.967 157.313 274.59 173.852C250.327 190.311 242.798 216.441 211.4 224.24C186.635 230.392 161.121 228.524 136.773 233.969C111.007 239.727 94.4688 252.004 66.9727 253.678C51.4737 254.621 13.8143 260.431 3.99383 275.547C-10.1455 297.307 29.3591 298.29 43.0415 299.267C77.1131 301.689 63.4592 310.207 77.9014 334.024C108.751 384.897 168.53 321.507 208.423 345.278C216.507 350.094 218.021 361.668 224.831 368.027C232.869 375.534 247.625 380.938 258.188 382.526C292.711 387.713 296.179 368.861 303.4 342.707C311.181 314.526 323.212 297.581 354.01 295.291C381.529 293.245 396.023 285.516 402.393 255.409C409.168 223.365 431.254 208.329 464.692 204.484C496.941 200.777 495.221 183.073 498.552 155.851C500.386 140.9 507.927 127.972 505.562 113.587C502.711 96.254 486.641 88.8443 480.362 73.0996C471.433 50.7223 492.73 37.1542 488.451 18.0618C483.967 -1.97325 459.476 -5.43525 447.039 8.14997C433.448 22.992 434.036 48.6028 429.563 67.1925C424.639 87.6903 419.491 90.284 405.221 98.6476Z" fill="url(#paint0_linear_1111_16942)"/>
<path d="M477.826 145.859C474.181 153.343 474.643 162.226 466.868 166.848C460.938 170.379 435.973 175.692 429.997 173.641C423.839 171.533 417.578 154.211 428.483 151.543C424.227 152.583 419.566 152.914 414.961 153C410.271 162.855 412.493 174.955 408.146 185.186C402.753 197.886 397.868 209.803 393.92 223.406C388.305 242.749 372.789 257.523 353.296 239.053C360.123 245.52 373.171 262.853 369.584 273.685C366.367 283.391 346.801 285.762 338.409 279.238C334.221 275.981 335.638 268.212 332.256 265.081C328.971 262.036 323.229 261.973 318.911 260.888C308.039 258.163 295.876 251.382 284.982 250.325C298.367 265.241 307.462 287.481 295.008 307.042C291.934 311.875 270.22 320.833 265.941 313.715C274.259 327.546 286.627 349.934 266.243 359.052C244.574 368.741 230.961 354.608 240.793 334.818C233.777 339.943 226.505 348.495 216.376 343.376C207.035 338.657 209.052 325.243 199.363 320.519C188.474 315.212 171.861 324.524 160.692 326.357C152.294 327.734 132.979 323.581 133.648 309.784C132.871 325.866 113.933 345.678 98.1707 330.071C88.6359 320.633 99.2046 295.399 109.014 285.842C83.2086 292.806 47.4404 299.055 20.6584 296.999C28.9421 298.507 37.8484 298.878 43.0357 299.25C77.1073 301.672 63.4535 310.19 77.8956 334.007C108.745 384.88 168.525 321.49 208.418 345.261C216.502 350.083 218.015 361.651 224.825 368.01C232.863 375.517 247.62 380.927 258.183 382.509C292.706 387.697 296.173 368.844 303.389 342.69C311.17 314.509 323.201 297.564 353.999 295.274C381.518 293.228 396.011 285.499 402.381 255.392C409.157 223.348 431.243 208.312 464.68 204.467C496.929 200.76 495.21 183.056 498.54 155.834C499.734 146.082 503.351 137.187 505.07 128.189C495.067 132.645 484.253 132.685 477.826 145.859Z" fill="url(#paint1_linear_1111_16942)"/>
<path d="M77.1648 268.36C95.5317 264.51 108.489 269.988 120.063 284.253C128.295 294.399 135.093 304.083 148.176 308.504C164.606 314.063 182.939 310.247 198.552 303.848C223.329 293.697 228.733 254.415 246.894 235.157C262.376 218.744 293.831 220.818 317.848 218.829C332.239 217.641 345.161 219.441 358.141 211.454C368.076 205.336 376.131 196.498 383.529 187.626C406.912 159.581 398.914 110.845 438.276 107.171C450.61 106.017 489.926 121.391 494.233 107.794C495.507 103.766 496.05 99.556 496.421 95.3399C490.731 88.3816 483.95 82.0974 480.362 73.0996C471.433 50.7223 492.731 37.1542 488.452 18.0618C483.967 -1.97325 459.476 -5.43525 447.039 8.14997C433.448 22.992 434.037 48.6028 429.564 67.1925C424.633 87.6903 419.486 90.284 405.215 98.6476C403.336 99.7502 401.302 100.95 399.091 102.304C378.753 114.747 379.833 139.672 356.896 151.423C331.114 164.626 298.962 157.313 274.585 173.852C250.322 190.311 242.793 216.441 211.395 224.24C186.629 230.392 161.115 228.524 136.767 233.969C111.002 239.727 94.4634 252.004 66.9673 253.678C51.7311 254.609 15.1401 260.259 4.57129 274.81C25.0691 297.936 51.6682 273.702 77.1648 268.36Z" fill="white"/>
<defs>
<linearGradient id="paint0_linear_1111_16942" x1="9.45353" y1="165.978" x2="500.217" y2="201.307" gradientUnits="userSpaceOnUse">
<stop stop-color="white"/>
<stop offset="0.4846" stop-color="#E1EFFA"/>
</linearGradient>
<linearGradient id="paint1_linear_1111_16942" x1="338.955" y1="436.047" x2="277.111" y2="254.42" gradientUnits="userSpaceOnUse">
<stop stop-color="white"/>
<stop offset="0.6703" stop-color="#BED9EC"/>
<stop offset="1" stop-color="#A5CAE5"/>
</linearGradient>
</defs>
</svg>
