<svg width="447" height="136" viewBox="0 0 447 136" fill="none" xmlns="http://www.w3.org/2000/svg">
<path d="M275.971 36.7173C312.185 32.9811 352.998 22.0981 389.023 30.7988C413.018 36.5917 457.675 60.0715 443.501 90.7554C436.08 106.826 417.879 107.551 402.512 106.032C387.51 104.546 375.815 91.0525 362.596 90.5954C332.523 89.55 347.131 142.16 307.369 121.696C293.55 114.584 289.311 99.3418 273.361 95.897C257.473 92.4692 247.915 100.861 239.26 112.561C229.588 125.638 223.287 139.938 203.189 133.631C184.285 127.695 181.88 106.397 167.21 95.817C151.408 84.4198 131.773 91.7152 115.314 97.2909C90.6113 105.655 67.1371 110.231 42.3375 98.4392C10.4997 83.3058 -17.9561 43.6413 16.4411 15.7111C49.9243 -11.4822 103.871 3.67977 140.073 16.6137C186.765 33.301 225.881 41.8818 275.971 36.7173Z" fill="url(#paint0_linear_1111_16935)"/>
<path d="M8.73417 50.9261C11.802 52.2458 19.2001 59.5411 22.4393 57.5987C23.6276 56.8846 25.2044 48.4524 24.416 47.7498C30.7516 53.3941 28.8548 65.0198 33.5451 72.1552C38.7724 80.1132 48.2844 85.729 56.3567 90.4307C66.2743 96.2007 66.5256 95.6808 73.5353 87.4942C77.4086 82.9696 84.5497 81.8156 86.812 75.76C86.3893 79.8961 81.5962 82.0327 81.2649 85.8946C80.1223 99.08 102.111 91.4704 107.304 89.4252C110.76 88.0598 116.822 87.4257 119.798 85.3919C124.254 82.347 124.968 77.6796 122.803 73.0807C122.626 72.7036 116.553 64.8427 117.165 64.9284C125.254 66.0538 131.521 71.8809 139.296 73.7776C146.095 75.4344 153.561 73.5149 160.571 73.1778C164.913 72.9721 181.354 69.9157 184 66.5052C181.92 69.1902 176.967 73.1778 176.984 76.8683C177.001 81.6614 181.863 82.7183 184.776 86.1974C188.918 91.139 191.666 94.9553 198.487 94.5782C200.23 94.4811 211.878 92.2816 212.707 91.3447C207.131 97.6232 198.373 110.18 201.795 118.869C203.949 124.331 212.815 130.501 217.174 125.199C221.099 120.423 219.425 114.705 224.184 109.969C228.44 105.73 234.37 103.89 236.889 97.8745C238.552 93.9098 232.382 81.2501 230.805 83.8266C232.85 80.4846 238.575 83.518 242.008 84.3978C247.784 85.8832 279.833 87.8713 283.821 80.039C278.902 89.7337 288.145 95.5723 296.869 95.7837C299.405 95.8465 314.801 94.2126 315.938 92.2245C313.545 96.4235 307.615 106.45 310.905 111.528C312.328 113.733 319.24 115.83 321.765 114.847C326.079 113.174 323.765 110.5 325.313 107.581C326.307 105.701 328.958 103.445 329.746 101.582C332.106 95.995 328.13 92.4188 327.45 86.7859C326.753 81.0045 326.799 83.2839 331.432 83.1867C336.448 83.0839 342.515 85.7575 347.325 84.9691C351.49 84.2836 354.992 80.7016 359.202 79.5419C368.143 77.0854 382.088 84.2208 388.418 74.6517C390.594 84.872 391.76 87.4371 402.517 90.2079C412.126 92.6873 418.422 90.8249 416.502 80.0847C421.124 83.8037 426.517 89.351 433.064 88.694C436.2 88.3798 446.169 82.8497 446.181 79.0278C446.175 82.7926 445.352 86.7059 443.484 90.7506C436.063 106.821 417.862 107.546 402.494 106.027C387.492 104.541 375.798 91.0477 362.578 90.5907C332.506 89.5452 347.114 142.155 307.352 121.692C293.532 114.579 289.299 99.337 273.343 95.8922C257.456 92.4645 247.898 100.857 239.243 112.557C229.571 125.633 223.27 139.933 203.172 133.626C184.268 127.69 181.863 106.392 167.192 95.8122C151.39 84.415 131.755 91.7104 115.296 97.2861C90.5997 105.65 67.1198 110.226 42.3202 98.4344C21.7481 88.6539 2.61562 68.6361 0.907471 48.1611C3.54111 49.0523 6.19194 49.835 8.73417 50.9261Z" fill="url(#paint1_linear_1111_16935)"/>
<path d="M402.375 50.4517C388.504 53.2167 380.752 65.2194 368.743 70.8352C345.223 81.8325 340.716 61.7974 322.892 57.13C288.894 48.2293 272.944 105.027 240.843 65.7165C229.675 52.0398 218.969 34.4727 198.448 39.2658C189.222 41.4196 182.206 47.6923 174.671 52.9939C161.92 61.9688 149.826 60.592 137.971 51.0458C129.591 44.2931 119.69 42.5165 109.567 48.5036C97.7585 55.4904 92.5941 68.9499 80.2085 75.5711C68.9256 81.6039 47.668 82.678 39.2987 71.0752C33.6429 63.2371 34.9054 52.6626 32.1804 44.0133C27.1245 27.9658 11.9397 31.0679 2.54773 40.4998C1.98216 41.0654 1.47368 41.6652 0.942383 42.248C1.75361 33.0045 6.40963 23.8582 16.4472 15.706C49.9303 -11.4816 103.877 3.67458 140.08 16.6085C186.771 33.2958 225.887 41.8823 275.977 36.7179C312.191 32.9817 353.004 22.0987 389.03 30.7994C408.116 35.4097 440.245 51.2171 445.467 72.9261C433.944 59.6722 418.925 47.1496 402.375 50.4517Z" fill="white"/>
<defs>
<linearGradient id="paint0_linear_1111_16935" x1="442.685" y1="104.336" x2="1.51139" y2="37.8118" gradientUnits="userSpaceOnUse">
<stop stop-color="white"/>
<stop offset="0.4846" stop-color="#E1EFFA"/>
</linearGradient>
<linearGradient id="paint1_linear_1111_16935" x1="210.751" y1="149.506" x2="225.475" y2="51.8584" gradientUnits="userSpaceOnUse">
<stop stop-color="white"/>
<stop offset="0.6703" stop-color="#BED9EC"/>
<stop offset="1" stop-color="#A5CAE5"/>
</linearGradient>
</defs>
</svg>
