<svg width="495" height="163" viewBox="0 0 495 163" fill="none" xmlns="http://www.w3.org/2000/svg">
<path d="M408.531 125.582C427.812 109.529 485.123 132.066 493.795 101.737C497.983 87.0773 481.65 77.0569 470.178 74.1776C449.755 69.0589 439.729 69.236 424.264 52.9143C413.278 41.3171 403.052 27.3834 385.588 26.0352C363.216 24.3099 340.65 34.9758 319.016 33.3591C297.53 31.7538 277.386 12.1757 257.231 5.34315C211.928 -10.0074 176.542 11.1017 137.786 31.7652C120.39 41.0429 100.184 36.7697 81.0916 37.6837C60.331 38.6778 38.9705 42.6425 20.7236 53.1599C-18.9637 76.0229 6.06437 118.03 42.4611 131.095C59.554 137.231 71.1797 130.335 87.9813 129.433C104.366 128.553 112.592 135.814 125.412 144.749C163.34 171.171 190.653 166.532 226.33 139.824C244.44 126.268 262.327 112.345 286.538 117.813C310.321 123.188 325.363 143.452 350.722 146.177C376.847 148.988 390.387 140.687 408.531 125.582Z" fill="url(#paint0_linear_1111_16932)"/>
<path d="M473.32 101.331C469.561 100.291 466.299 97.9318 463.094 95.441C462.54 98.5431 465.339 101.131 464.928 103.73C463.579 112.334 449.806 108.044 444.784 106.524C439.597 104.947 435.689 100.823 430.336 99.7257C426.412 98.9201 425.052 100.817 421.23 97.7318C418.402 95.4524 417.374 91.3734 414.58 89.054C413.923 88.5056 405.919 85.2378 406.445 86.4832C408.93 92.3789 415.763 95.1668 410.221 101.302C407.445 104.382 400.052 108.569 396.07 109.7C379.012 114.533 385.713 88.4427 394.585 83.7524C386.359 86.4089 380.709 89.4482 378.755 98.5088C377.184 105.816 377.686 114.899 371.922 120.503C364.221 127.987 337.222 123.326 339.147 110.632C340.421 102.211 358.285 94.6355 365.01 91.4877C358.023 92.7445 350.653 93.4301 343.958 96.8007C339.142 99.2286 332.715 101.251 327.322 99.2857C322.826 97.6461 320.598 93.1844 316.296 90.705C311.383 87.8714 305.436 85.4777 301.488 81.4444C301.151 86.1804 308.663 89.7624 308.966 94.4698C309.383 100.834 301.688 102.851 296.112 102.948C289.154 103.068 266.222 104.507 262.789 96.9435C260.31 91.4705 267.834 80.6732 270.53 76.1315C269.09 78.5594 268.616 81.0274 266.16 82.667C262.641 85.0093 256.059 84.7294 251.963 85.7234C245.61 87.2659 239.56 88.9512 233.345 90.208C226.667 91.562 224.376 91.6191 218.531 88.4541C212.356 85.1121 204.483 82.3356 199.165 77.5882C205.752 85.9233 211.744 93.0244 204.158 103.045C199.616 109.038 191.11 118.401 183.249 119.247C177.016 119.915 169.469 114.545 169.029 107.781C169.446 114.219 169.206 124.251 163.276 128.41C155.536 133.843 141.613 126.736 134.769 122.691C121.624 114.916 117.356 110.037 117.608 94.2756C113.123 112.831 100.018 100.697 87.6951 101.451C81.3652 101.839 75.7266 104.976 69.3453 103.833C63.8267 102.845 58.3538 99.3886 53.8177 96.2351C56.2571 101.297 62.627 109.38 56.6342 114.419C52.1381 118.201 43.089 114.693 38.7015 112.711C34.3882 110.763 30.2921 107.747 28.5097 103.119C27.6528 100.891 26.6816 89.9566 30.0293 89.0026C24.0765 90.6936 15.3415 93.2929 9.74289 89.1511C6.29232 86.5975 3.84721 80.5589 1.27642 77.0398C-3.1682 98.206 16.7469 121.863 42.4605 131.095C59.5535 137.231 71.1792 130.335 87.9807 129.433C104.365 128.553 112.592 135.814 125.412 144.749C163.339 171.171 190.653 166.532 226.329 139.824C244.439 126.268 262.326 112.345 286.537 117.813C310.32 123.188 325.362 143.452 350.722 146.177C376.847 148.976 390.386 140.676 408.53 125.571C427.811 109.518 485.123 132.055 493.795 101.725C494.909 97.829 494.538 94.2698 493.229 91.0706C494.817 94.944 481.369 101.548 478.821 101.794C476.856 102.005 475.04 101.805 473.32 101.331Z" fill="url(#paint1_linear_1111_16932)"/>
<path d="M48.4099 57.045C77.7226 59.1759 95.1412 81.3419 125.522 75.1091C154.715 69.122 170.86 46.3162 198.316 37.4441C219.396 30.6287 232.193 37.9469 251.057 46.499C299.279 68.3565 311.951 43.357 355.517 36.0445C367.788 33.9879 379.46 33.9593 390.2 40.7462C406.253 50.8923 419.815 65.2373 435.903 76.1489C456.012 89.7912 449.722 97.3951 485.319 81.4104C480.669 77.8627 475.002 75.3834 470.186 74.1722C449.762 69.0535 439.736 69.2306 424.271 52.9089C413.286 41.3118 403.059 27.3781 385.595 26.0298C363.224 24.3045 340.658 34.9705 319.023 33.3537C297.537 31.7484 277.393 12.1704 257.238 5.33778C211.935 -10.0127 176.55 11.0964 137.794 31.7598C120.398 41.0375 100.191 36.7643 81.0989 37.6784C60.3383 38.6724 38.9779 42.6371 20.731 53.1545C14.7324 56.6108 10.3678 60.5413 7.14575 64.706C20.1483 59.2845 33.842 55.9881 48.4099 57.045Z" fill="white"/>
<defs>
<linearGradient id="paint0_linear_1111_16932" x1="0.533734" y1="81.2324" x2="494.464" y2="81.2324" gradientUnits="userSpaceOnUse">
<stop stop-color="white"/>
<stop offset="0.4846" stop-color="#E1EFFA"/>
</linearGradient>
<linearGradient id="paint1_linear_1111_16932" x1="247.552" y1="175.915" x2="247.552" y2="65.1302" gradientUnits="userSpaceOnUse">
<stop stop-color="white"/>
<stop offset="0.6703" stop-color="#BED9EC"/>
<stop offset="1" stop-color="#A5CAE5"/>
</linearGradient>
</defs>
</svg>
