<svg width="575" height="160" viewBox="0 0 575 160" fill="none" xmlns="http://www.w3.org/2000/svg">
<path d="M534.499 60.814C519.457 60.6655 504.232 62.9849 490.041 56.4779C478.044 50.9764 468.824 39.8649 459.077 30.1016C446.663 17.6646 428.593 12.7116 411.466 16.6534C403.942 18.3844 396.847 20.6124 390.414 23.2004C359.988 35.4659 350.099 22.4692 316.004 11.152C281.915 -0.165168 259.304 1.09732 237.252 5.23344C215.2 9.36956 172.514 9.12389 151.959 3.75379C131.398 -1.62203 79.1711 -4.00998 36.5758 20.3554C-6.01937 44.7209 -21.7583 114.749 52.2748 111.127C84.8954 109.528 89.0486 138.395 135.46 130.391C181.871 122.393 167.401 128.963 193.851 138.606C220.302 148.25 243.519 87.2075 265.971 108.802C288.417 130.397 314.267 158.373 334.4 159.121C354.532 159.87 369.574 104.335 389.7 105.077C409.832 105.826 407.342 128.609 433.678 139.777C460.014 150.946 464.076 117.56 487.15 110.105C487.465 110.002 487.71 109.968 488.013 109.882C509.202 101.347 527.7 115.892 549.758 112.458C559.955 110.87 566.788 106.42 571.29 100.256C574.283 96.1538 575.1 90.761 573.523 85.9336C568.416 70.3546 557.579 61.0368 534.499 60.814Z" fill="url(#paint0_linear_1111_16930)"/>
<path d="M488.018 109.882C509.207 101.352 527.705 115.897 549.763 112.458C550.768 112.304 551.62 112.012 552.562 111.801C552.379 111.738 552.168 111.693 552.014 111.624C543.622 107.785 543.753 97.5647 543.976 89.5095C525.952 105.866 505.825 97.7303 508.213 72.5022C498.398 80.1746 486.99 84.5108 476.107 90.2522C470.628 93.1372 464.79 99.4441 458.665 99.9068C452.153 100.398 443.869 94.9653 437.876 92.8515C439.122 98.9643 444.555 105.911 443.92 112.767C442.984 122.878 431.638 123.01 426.73 114.818C424.999 111.921 427.022 106.488 424.52 103.649C420.863 99.4898 420.515 103.14 416.053 101.581C406.827 98.3586 405.473 93.9484 406.724 83.8137C406.712 83.888 389.808 91.9374 388.254 92.086C384.249 92.4687 370.493 92.1831 367.196 90.7491C359.93 87.5842 362.461 81.2259 362.478 73.7477C358.724 77.2154 352.652 85.8418 350.858 90.932C347.881 99.3756 351.926 103.557 345.39 110.499C340.575 115.606 331.28 121.227 324.498 123.467C316.175 126.209 303.704 127.066 299.796 117.2C296.831 109.71 302.755 100.804 303.864 93.4514C303.007 99.1529 289.507 106.505 284.554 107.351C274.579 109.053 270.386 101.449 263.542 95.4051C257.795 90.3321 246.323 85.9446 241.885 80.5345C236.812 74.3475 242.21 68.3718 242.016 60.8765C233.961 62.8988 230.145 74.3589 222.415 78.1922C213.817 82.4597 202.18 80.7403 192.382 80.0033C182.214 79.2378 173.81 78.8093 164.161 80.5117C150.359 82.9454 147.428 78.9635 136.333 72.8336C142.075 76.6441 145.411 84.0937 151.204 87.1901C158.705 91.2005 166.183 87.2815 173.964 87.4415C184.253 87.6529 189.109 95.4109 181.762 102.895C172.307 112.527 154.26 107.614 144.034 102.838C128.29 95.4851 109.357 71.0568 90.5733 73.3877C79.816 74.7245 72.9034 84.1452 62.7859 73.0393C75.0457 86.4932 73.5204 97.2447 52.7883 91.3147C42.608 88.4011 47.8467 79.7404 31.5079 78.8835C29.3256 78.7692 26.5891 82.2655 23.984 82.454C14.5692 83.1339 6.8911 81.6599 0.77832 78.3122C1.75522 97.4675 16.5344 112.887 52.2685 111.133C84.889 109.533 89.0423 138.4 135.454 130.396C181.865 122.398 167.394 128.968 193.845 138.612C220.296 148.255 243.513 87.2129 265.964 108.808C288.41 130.402 314.261 158.378 334.393 159.127C354.525 159.875 369.567 104.34 389.7 105.088C409.832 105.837 407.341 128.62 433.677 139.789C460.014 150.957 464.075 117.571 487.15 110.116C487.464 110.007 487.71 109.973 488.018 109.882Z" fill="url(#paint1_linear_1111_16930)"/>
<path d="M490.041 56.4779C478.044 50.9764 468.823 39.8649 459.077 30.1016C446.663 17.6646 428.587 12.7116 411.466 16.6534C403.942 18.3844 396.847 20.6124 390.414 23.2004C359.987 35.4659 350.098 22.4692 316.004 11.152C281.915 -0.165167 259.304 1.09732 237.252 5.23344C215.2 9.36956 172.514 9.12389 151.959 3.75379C131.398 -1.62203 79.1708 -4.00998 36.5756 20.3554C17.4774 31.2785 3.81796 51.3821 1.18433 69.909C5.36615 63.8362 10.5877 57.9805 16.849 52.2276C35.7301 34.8891 52.8801 31.8269 73.9892 47.0517C89.6996 58.3861 103.359 68.6521 123.526 54.37C129.787 49.9368 134.786 43.8811 141.184 39.5621C153.05 31.547 167.081 27.9935 181.311 27.7078C208.642 27.1594 227.174 38.6824 245.358 57.8376C259.863 73.1196 277.065 93.5031 300.979 82.2431C315.187 75.5533 323.219 60.117 337.21 52.9302C364.055 39.1394 385.678 56.8665 406.147 72.9596C447 105.089 463.533 72.4854 492.926 57.5634C491.972 57.2206 491.001 56.9178 490.041 56.4779Z" fill="white"/>
<defs>
<linearGradient id="paint0_linear_1111_16930" x1="577.001" y1="101.307" x2="1.9367" y2="58.1137" gradientUnits="userSpaceOnUse">
<stop stop-color="white"/>
<stop offset="0.4846" stop-color="#E1EFFA"/>
</linearGradient>
<linearGradient id="paint1_linear_1111_16930" x1="269.984" y1="184.12" x2="279.129" y2="62.3575" gradientUnits="userSpaceOnUse">
<stop stop-color="white"/>
<stop offset="0.6703" stop-color="#BED9EC"/>
<stop offset="1" stop-color="#A5CAE5"/>
</linearGradient>
</defs>
</svg>
