<svg width="343" height="267" viewBox="0 0 343 267" fill="none" xmlns="http://www.w3.org/2000/svg">
<path d="M69.7724 69.0653C71.035 69.8537 72.4003 70.7164 73.8914 71.6819C87.5566 80.5825 86.334 97.5954 101.793 106.073C119.166 115.597 141.281 111.215 157.625 122.995C173.895 134.712 178.54 152.719 199.849 158.655C216.662 163.339 234.138 162.551 250.676 166.738C268.181 171.172 279.246 179.878 298.013 181.557C308.594 182.5 334.222 187.196 340.643 197.719C349.892 212.864 322.864 212.778 313.495 213.184C290.158 214.184 299.327 220.268 288.998 236.275C266.93 270.461 227.282 225.975 199.558 241.457C193.936 244.593 192.685 252.477 187.903 256.693C182.259 261.669 172.073 265.086 164.818 265.965C141.121 268.845 139.11 255.893 134.676 237.875C129.901 218.457 122.005 206.648 100.993 204.489C82.2208 202.558 72.4632 196.999 68.687 176.296C64.6708 154.261 49.863 143.555 27.0801 140.288C5.10835 137.134 6.62235 125.063 4.8685 106.393C3.90302 96.1386 -1.00438 87.1523 0.886585 77.3662C3.16602 65.5748 14.2947 60.8159 18.8935 50.1728C25.4291 35.0451 11.1298 25.3617 14.4204 12.3935C17.871 -1.22027 34.6783 -3.11122 42.9219 6.41215C51.9311 16.821 51.0342 34.3138 53.7307 47.1106C56.7071 61.2043 60.1805 63.0782 69.7724 69.0653Z" fill="url(#paint0_linear_1111_16928)"/>
<path d="M19.2326 99.943C21.5805 105.13 21.095 111.192 26.3166 114.505C30.3041 117.03 47.2656 121.143 51.3903 119.858C55.6407 118.533 60.2567 106.816 52.8528 104.782C55.7435 105.576 58.9256 105.89 62.0677 106.033C65.0841 112.86 63.3303 121.086 66.1067 128.165C69.5516 136.945 72.6594 145.189 75.0988 154.564C78.5665 167.898 88.8897 178.295 102.566 166.041C97.7732 170.331 88.5241 181.929 90.7692 189.401C92.7801 196.096 106.114 198.096 111.975 193.8C114.9 191.652 114.083 186.316 116.454 184.242C118.762 182.225 122.687 182.294 125.658 181.637C133.142 179.98 141.585 175.581 149.058 175.067C139.62 185.008 132.976 200.038 141.111 213.646C143.122 217.011 157.787 223.552 160.855 218.765C154.902 228.06 146.018 243.131 159.775 249.752C174.4 256.796 183.98 247.392 177.639 233.676C182.335 237.315 187.14 243.302 194.167 239.994C200.645 236.943 199.519 227.74 206.238 224.695C213.785 221.273 224.959 227.963 232.563 229.431C238.276 230.534 251.558 228.066 251.37 218.622C251.592 229.631 264.155 243.542 275.232 233.173C281.928 226.906 275.192 209.453 268.668 202.729C286.172 207.985 310.504 212.949 328.853 212.058C323.158 212.927 317.068 213.012 313.509 213.167C290.171 214.166 299.341 220.25 289.012 236.258C266.943 270.444 227.296 225.958 199.571 241.44C193.949 244.576 192.698 252.46 187.917 256.676C182.278 261.652 172.086 265.068 164.831 265.948C141.134 268.827 139.123 255.876 134.695 237.858C129.92 218.439 122.019 206.631 101.012 204.472C82.2399 202.541 72.4823 196.982 68.7061 176.278C64.6899 154.244 49.8821 143.538 27.0992 140.27C5.12745 137.117 6.64136 125.045 4.88751 106.376C4.25909 99.686 1.9625 93.5331 0.957031 87.3518C7.69823 90.5796 15.0964 90.8139 19.2326 99.943Z" fill="url(#paint1_linear_1111_16928)"/>
<path d="M290.763 191.395C278.28 188.407 269.316 191.903 261.136 201.438C255.314 208.213 250.481 214.703 241.449 217.474C230.109 220.959 217.649 217.994 207.103 213.321C190.359 205.906 187.422 178.946 175.374 165.43C165.108 153.912 143.565 154.724 127.186 152.907C117.371 151.816 108.505 152.798 99.7812 147.086C93.1085 142.715 87.7726 136.517 82.8824 130.307C67.4348 110.683 73.8447 77.5257 47.0056 74.2522C38.5962 73.2296 11.4201 82.9759 8.74073 73.601C7.94664 70.8246 7.65527 67.9338 7.48389 65.043C11.5058 60.3928 16.2646 56.2338 18.8868 50.1496C25.4223 35.0219 11.123 25.3385 14.4136 12.3703C17.8642 -1.24346 34.6714 -3.13441 42.9151 6.38895C51.9243 16.7978 51.0274 34.2906 53.7239 47.0874C56.7003 61.1925 60.168 63.0664 69.7656 69.0592C71.0282 69.8476 72.3936 70.7103 73.8847 71.6758C87.5499 80.5764 86.3273 97.5893 101.786 106.067C119.159 115.591 141.274 111.209 157.618 122.989C173.889 134.706 178.533 152.713 199.842 158.649C216.655 163.333 234.131 162.55 250.67 166.738C268.174 171.171 279.24 179.878 298.007 181.557C308.404 182.483 333.312 187.053 340.253 197.205C325.811 212.618 308.09 195.542 290.763 191.395Z" fill="white"/>
<defs>
<linearGradient id="paint0_linear_1111_16928" x1="339.025" y1="122.713" x2="2.85672" y2="137.419" gradientUnits="userSpaceOnUse">
<stop stop-color="white"/>
<stop offset="0.4846" stop-color="#E1EFFA"/>
</linearGradient>
<linearGradient id="paint1_linear_1111_16928" x1="108.58" y1="300.992" x2="154.353" y2="178.021" gradientUnits="userSpaceOnUse">
<stop stop-color="white"/>
<stop offset="0.6703" stop-color="#BED9EC"/>
<stop offset="1" stop-color="#A5CAE5"/>
</linearGradient>
</defs>
</svg>
