<svg width="439" height="108" viewBox="0 0 439 108" fill="none" xmlns="http://www.w3.org/2000/svg">
<path d="M289.299 11.5384C281.152 14.5148 271.846 19.0966 263.065 19.4679C248.829 20.0677 237.46 11.6127 223.744 9.86455C216.923 8.99619 212.472 11.3213 206.017 13.0181C197.436 15.2747 188.735 14.5034 180.183 12.104C172.676 9.99593 165.101 5.08287 157.554 3.84317C149.048 2.44923 138.319 4.0317 129.756 4.47159C120.575 4.95147 113.331 10.9214 104.676 11.4413C99.9628 11.727 95.9353 9.57889 91.5592 8.05927C80.7162 4.28306 67.8908 3.29473 58.6245 11.0642C51.9918 16.6229 44.5251 20.3077 35.7901 21.793C28.7633 22.987 21.925 22.8899 15.418 26.3462C2.43835 33.2359 -9.57011 55.4647 13.3157 56.1274C30.6942 56.6301 45.0735 37.3549 62.4578 49.6433C68.3992 53.8423 73.238 61.309 80.3391 63.7427C90.628 67.2675 96.6951 60.1778 105.207 56.3845C120.683 49.4833 125.962 63.2971 134.731 72.1806C140.907 78.4362 151.75 81.8296 160.411 80.1158C170.248 78.1734 176.453 69.3527 185.713 66.4449C192.911 64.1826 197.253 66.6505 200.829 73.009C205.171 80.7271 206.742 86.0629 215.986 89.3364C228.434 93.741 238.015 91.1988 247.698 83.1265C254.49 77.465 261.523 76.6538 267.293 84.6347C272.44 91.7529 270.755 102.002 280.261 106.298C291.219 111.251 300.256 103.676 306.598 95.7576C314.059 86.4399 319.943 78.4705 332.734 77.1223C341.566 76.1911 345.731 83.0579 354.106 84.846C367.565 87.7139 372.81 76.9508 383.333 71.535C394.33 65.8736 407.476 71.1694 419.25 67.3875C451.23 57.1157 439.228 17.9997 414.342 7.20804C401.797 1.76938 393.405 0.969599 380.082 4.86578C371.422 7.4023 364.458 7.42515 355.831 4.94576C347.473 2.54635 338.653 1.63798 330.015 1.02099C314.664 -0.0815939 303.09 6.49966 289.299 11.5384Z" fill="url(#paint0_linear_1111_16937)"/>
<path d="M32.7623 26.6088C45.2792 25.8661 54.8425 18.2395 66.6511 15.6458C73.5636 14.1319 79.9906 16.0171 86.5947 18.0338C99.1973 21.8786 112.548 23.8438 125.065 18.885C137.616 13.9148 145.42 13.2692 157.252 20.5189C167.112 26.5574 173.996 31.619 186.416 28.2427C193.968 26.1918 200.161 22.2042 208.268 23.0725C216.597 23.9637 223.458 29.6195 232.124 29.1225C240.14 28.6655 246.852 24.6322 255.05 25.6433C262.974 26.6202 270.121 31.6304 278.279 31.1334C285.511 30.6878 291.824 26.3174 297.703 22.507C305.843 17.2225 314.43 10.9212 324.685 11.881C331.643 12.5323 336.916 16.777 342.794 20.1476C349.576 24.038 355.528 25.5462 363.395 22.3184C367.217 20.7474 370.536 17.314 374.301 15.4801C378.643 13.3664 383.31 11.9953 388.195 12.9436C391.651 13.6177 392.514 15.2516 395.513 16.2342C396.695 16.6227 405.213 18.5308 406.59 18.4679C407.618 18.4222 408.572 17.0854 409.601 17.0511C413.948 16.9026 415.548 16.7198 419.284 18.9993C421.158 20.1418 424.226 24.7179 426.174 24.8321C428.333 24.9635 430.333 24.0209 432.104 22.5527C427.808 15.96 421.632 10.3557 414.337 7.19073C401.791 1.75207 393.399 0.952295 380.077 4.84848C371.416 7.38499 364.452 7.40784 355.825 4.92846C347.467 2.52905 338.647 1.62068 330.009 1.00369C314.653 -0.0931851 303.078 6.48806 289.293 11.5268C281.147 14.5032 271.84 19.085 263.06 19.4563C248.823 20.0561 237.455 11.6011 223.738 9.85295C216.917 8.9846 212.466 11.3097 206.011 13.0065C197.43 15.2631 188.73 14.4918 180.177 12.0924C172.671 9.98434 165.095 5.07127 157.549 3.83158C149.042 2.43763 138.313 4.02011 129.75 4.46C120.569 4.93988 113.325 10.9098 104.67 11.4297C99.9571 11.7154 95.9296 9.5673 91.5535 8.04767C80.7104 4.27146 67.885 3.28314 58.6187 11.0527C51.9861 16.6113 44.5194 20.2961 35.7844 21.7814C28.9175 22.9526 22.2277 22.9069 15.8464 26.1289C21.4108 26.2089 26.9694 26.9516 32.7623 26.6088Z" fill="white"/>
<path d="M419.083 50.4598C413.884 50.2313 410.011 48.049 411.062 42.1133C409.491 50.974 403.807 49.5515 397.083 51.3453C394.495 52.0366 391.781 53.3391 389.09 52.4936C387.434 51.9737 382.909 48.3746 383.732 46.1694C382.366 49.8371 383.395 56.6926 379.813 59.1719C375.071 62.4511 364.702 57.8009 360.286 55.8242C357.127 54.4074 350.311 51.1168 350.7 46.4608C350.22 52.1794 345.821 52.4079 341.571 53.5219C336.589 54.8245 331.985 57.8637 327.728 60.6516C324.358 62.8568 322.061 66.3073 317.48 64.9648C314.897 64.205 311.23 60.7373 312.589 57.6181C310.447 62.5197 307.842 68.9638 301.901 70.2092C298.81 70.8605 291.343 69.8265 288.949 67.547C287.733 66.3816 286.413 60.6688 289.681 60.5431C284.328 60.7487 280.386 61.3314 276.027 58.0865C272.702 55.6129 268.709 51.7224 268.069 47.4263C265.367 53.7162 264.71 56.1556 257.134 55.1158C254.992 54.8245 244.463 53.5505 243.241 51.7738C246.486 56.4983 252.279 61.5828 245.463 65.7361C239.305 69.4894 230.25 69.8379 223.766 67.0329C217.253 64.2164 214.322 57.5552 219.926 51.4653C212.094 59.9775 206.364 50.5341 198.954 47.6148C193.864 45.6096 191.236 47.3463 186.495 47.8491C185.181 47.9919 174.641 44.6156 175.863 42.7703C173.618 46.158 174.578 50.7112 171.641 53.7676C168.642 56.8925 162.506 59.2634 158.547 60.7716C153.16 62.8282 139.158 59.7375 146.693 51.6767C140.769 58.018 135.593 55.3158 130.537 50.4141C125.578 45.6096 122.916 44.1871 116.621 42.9131C113.564 42.2961 106.04 39.0798 104.401 36.2633C107.257 41.1707 108 44.2156 102.778 46.3066C98.5907 47.9861 92.9807 49.3172 88.4561 48.5174C82.5947 47.4834 77.9329 43.93 73.5055 40.1995C70.7461 37.8743 66.6957 37.2745 64.7876 34.361C63.9535 33.0927 62.5824 26.7628 64.1706 25.6374C57.2123 30.5505 48.3288 29.0823 40.6907 32.2129C33.4411 35.1893 26.6484 40.3309 18.8161 41.7477C12.0235 42.976 6.442 41.245 4.37394 36.4404C-1.67599 45.2325 -2.26442 55.6643 13.3032 56.1156C30.6817 56.6183 45.0611 37.3431 62.4453 49.6315C68.3867 53.8304 73.2255 61.2972 80.3266 63.7308C90.6155 67.2557 96.6826 60.166 105.195 56.3726C120.671 49.4715 125.95 63.2852 134.719 72.1687C140.895 78.4243 151.738 81.8178 160.398 80.1039C170.236 78.1616 176.44 69.3409 185.701 66.433C192.899 64.1707 197.241 66.6387 200.817 72.9971C205.153 80.7152 206.73 86.051 215.973 89.3245C228.422 93.7291 238.002 91.1869 247.685 83.1146C254.478 77.4532 261.511 76.6419 267.281 84.6228C272.428 91.7411 270.743 101.99 280.249 106.286C291.206 111.239 300.244 103.664 306.585 95.7458C314.046 86.4281 319.93 78.4586 332.721 77.1104C341.554 76.1792 345.718 83.0461 354.093 84.8342C367.553 87.7021 372.797 76.939 383.32 71.5232C394.318 65.8617 407.463 71.1576 419.237 67.3757C431.92 63.3024 437.667 54.6874 438.455 45.1011C435.496 47.512 426.093 50.7626 419.083 50.4598Z" fill="url(#paint1_linear_1111_16937)"/>
<path d="M426.248 62.16C424.808 62.9027 419.649 65.5592 419.552 61.9772C419.506 60.2291 419.918 58.6123 419.552 56.8013C419.027 57.6811 419.232 58.9265 419.055 59.9377C418.781 61.4973 418.25 63.4797 417.061 64.6108C415.502 66.0905 412.291 65.8048 410.292 65.9076C407.698 66.0448 404.967 65.7534 402.413 66.1476C401.368 66.3075 400.722 66.3647 399.803 65.6334C399.409 65.3192 397.803 63.5254 398.06 62.9655C396.769 65.7248 394.438 66.3704 391.696 66.8103C388.617 67.3073 385.606 68.2271 382.784 69.5468C380.91 70.4265 379.185 71.5234 377.38 72.5289C376.648 72.9402 375.826 73.3972 374.969 73.0088C374.597 72.8374 373.661 71.8319 373.643 71.4206C373.889 76.4708 367.376 79.5443 363.309 80.6297C361.652 81.0696 358.207 80.8868 359.041 78.1104C357.213 84.1946 346.09 77.9104 342.702 76.6479C339.652 75.5167 336.498 74.5512 333.231 74.397C331.671 74.3227 326.661 76.008 326.038 73.4544C325.432 75.1796 323.496 76.625 321.896 77.3391C319.685 78.3274 317.663 79.4415 315.829 81.0525C312.35 84.1089 309.505 87.7823 306.471 91.2614C305.489 92.3926 299.656 99.7222 298.154 95.0148C296.931 101.944 289.013 104.715 282.889 101.967C275.73 98.7567 274.896 88.9648 270.423 83.3719C268.412 80.8582 265.893 78.6931 262.837 77.5733C261.534 77.0992 260.043 77.0135 258.803 76.3793C258.243 76.0937 255.884 74.2599 256.347 73.3973C254.913 76.0766 250.222 77.9104 247.543 78.9216C243.156 80.5669 238.974 82.6978 234.598 84.3717C229.799 87.1196 224.275 87.4452 219.059 85.7485C217.613 85.28 216.299 84.583 214.911 83.9946C214.248 83.7147 213.06 83.5833 212.495 83.172C211.312 82.315 210.501 79.1844 212.003 78.2075C208.267 80.6297 206.473 76.6193 205.056 73.8029C203.902 71.5063 202.983 68.4213 201.177 66.4961C200.155 65.4049 198.572 64.0053 197.047 63.7196C196.373 63.5882 195.83 63.9253 195.225 63.4111C195.042 63.2569 194.322 61.9543 194.768 61.8001C193.756 62.1486 192.882 62.9141 191.745 63.0341C190.626 63.154 189.477 62.7713 188.381 62.6799C185.804 62.4628 185.284 61.7715 185.056 59.2407C184.193 60.2633 184.056 61.6801 183.09 62.6627C182.062 63.7139 180.805 64.4909 179.451 64.8222C177.258 65.3592 175.258 64.3195 173.533 62.8284C173.921 63.8796 174.738 65.0165 174.573 66.1876C174.395 67.4787 173.247 67.8386 172.247 68.427C169.745 69.901 167.311 71.4949 164.872 73.0716C164.267 73.4601 155.943 78.0818 158.279 74.3856C156.171 75.9795 153.732 77.402 151.018 77.0992C148.413 76.8078 145.745 75.3682 143.546 74.0314C139.564 71.6148 136.085 68.4727 132.88 65.1193C132.177 64.3823 131.526 63.4797 130.743 62.8399C130.132 62.3428 129.458 62.3371 129.007 61.5773C128.504 60.7375 128.464 58.2067 129.207 57.4697C126.282 60.3947 124.853 57.4697 122.74 55.5845C120.403 53.4993 117.912 52.3453 115.079 51.1113C114.496 50.86 109.217 48.6148 110.263 47.3637C109.874 47.8321 109.874 48.6834 109.537 49.346C108.526 51.3398 106.018 52.1053 104.133 52.9794C101.87 54.0306 99.7453 55.356 97.6315 56.6699C96.6261 57.2984 95.9005 58.1039 94.6951 57.207C94.061 56.7385 93.4725 55.3103 93.6896 54.5333C91.6444 61.8058 83.9549 61.6573 78.7048 57.9839C76.2939 56.2986 74.0431 54.3105 71.7236 52.5567C70.6439 51.7397 68.0331 48.392 69.4899 46.8438C66.8677 49.6374 64.0398 46.1239 61.6061 44.9699C56.1446 42.382 50.0033 41.8508 44.0733 42.6905C42.5537 42.9076 41.0512 43.2104 39.5601 43.5817C38.5718 43.8331 37.1207 44.6558 36.081 44.4729C34.6756 44.2273 33.533 41.7765 34.1786 40.4282C33.8644 41.0852 33.1103 42.502 32.4762 43.3132C31.8135 44.153 30.8766 44.69 30.1282 45.4441C29.5855 45.9926 29.2541 46.9066 28.7342 47.3751C27.506 48.4891 25.1294 48.9918 23.5698 49.5346C20.1935 50.7114 16.6515 51.7111 13.0581 51.8768C10.2759 52.0025 7.29952 51.6083 5.05436 49.8202C3.41477 48.5119 0.592616 44.2901 1.4267 42.0392C-1.20694 49.1518 0.963945 55.773 13.3038 56.1329C30.6823 56.6357 45.0616 37.3604 62.4459 49.6488C68.3873 53.8478 73.2261 61.3145 80.3272 63.7482C90.6161 67.273 96.6832 60.1833 105.195 56.39C120.672 49.4888 125.95 63.3026 134.72 72.1861C140.895 78.4417 151.738 81.8351 160.399 80.1213C170.236 78.1789 176.441 69.3582 185.701 66.4504C192.899 64.1881 197.241 66.6561 200.818 73.0145C205.154 80.7326 206.73 86.0684 215.974 89.3419C228.422 93.7465 238.003 91.2043 247.686 83.132C254.479 77.4705 261.511 76.6593 267.281 84.6402C272.428 91.7584 270.743 102.007 280.249 106.303C291.207 111.256 300.244 103.681 306.586 95.7632C314.047 86.4455 319.931 78.476 332.722 77.1278C341.554 76.1966 345.719 83.0634 354.094 84.8516C367.554 87.7194 372.798 76.9563 383.321 71.5405C394.318 65.8791 407.464 71.1749 419.238 67.393C427.053 64.8851 432.229 60.6461 435.234 55.5216C432.532 58.1724 429.504 60.4804 426.248 62.16Z" fill="url(#paint2_linear_1111_16937)"/>
<defs>
<linearGradient id="paint0_linear_1111_16937" x1="218.418" y1="68.7413" x2="220.751" y2="17.937" gradientUnits="userSpaceOnUse">
<stop stop-color="white"/>
<stop offset="0.2973" stop-color="#E1EFFA"/>
</linearGradient>
<linearGradient id="paint1_linear_1111_16937" x1="216.122" y1="97.29" x2="219.72" y2="41.6752" gradientUnits="userSpaceOnUse">
<stop stop-color="white"/>
<stop offset="0.6703" stop-color="#BED9EC"/>
<stop offset="1" stop-color="#A5CAE5"/>
</linearGradient>
<linearGradient id="paint2_linear_1111_16937" x1="214.858" y1="97.307" x2="218.396" y2="42.6037" gradientUnits="userSpaceOnUse">
<stop stop-color="#A5CAE5"/>
<stop offset="0.3297" stop-color="#BED9EC"/>
<stop offset="1" stop-color="white"/>
</linearGradient>
</defs>
</svg>
