<svg width="617" height="175" viewBox="0 0 617 175" fill="none" xmlns="http://www.w3.org/2000/svg">
<path d="M596.438 107.104C586.321 101.717 580.168 92.8052 569.468 88.3492C558.356 83.7217 546.228 88.0578 534.985 82.362C521.902 75.7294 513.933 60.9845 500.096 54.9517C483.472 47.7021 465.333 56.2828 448.463 52.1467C428.24 47.1879 412.066 36.522 396.699 22.7139C386.924 13.9332 357.897 6.37513 345.489 9.42009C337.291 11.4253 338.456 13.1449 329.39 9.40867C321.86 6.30658 312.028 1.35346 303.705 0.696482C288.011 -0.531786 274.849 6.77505 263.937 16.4527C252.557 26.5416 239.366 27.9469 225.741 32.7686C219.908 34.8309 215.395 40.4467 209.545 41.8007C202.838 43.3489 195.206 40.3439 188.699 38.3558C174.902 34.1397 161.557 33.8084 148.251 40.4353C141.819 43.6402 137.974 50.5128 132.301 54.6489C124.989 59.979 115.637 59.2021 107.005 60.436C89.1862 62.9897 62.8212 66.4517 55.383 84.5786C47.9392 102.717 28.0812 104.134 9.97711 106.642C9.2173 106.745 8.38317 106.847 7.53195 106.945C-3.96807 113.617 -1.60291 132.053 10.7369 141.159C10.9254 141.296 11.1139 141.433 11.3025 141.57C17.2553 145.786 24.362 147.94 31.6059 148.809C37.4102 149.5 43.2661 150.957 46.9394 153.573C49.6302 155.493 49.9444 158.56 52.5838 160.977C57.1655 165.182 65.5233 167.29 71.1791 169.329C95.2474 178.018 121.252 176.842 138.922 156.498C156.644 136.092 179.947 121.97 207.157 119.907C218.274 119.062 234.785 121.615 245.068 117.376C255.197 113.206 261.675 101.729 272.244 97.2384C281.841 93.1594 291.822 96.9241 301.671 93.7821C312.211 90.4172 315.822 81.248 324.208 75.2095C333.246 68.6968 339.741 70.1993 349.453 72.056C358.783 73.8327 367.289 69.9023 377.166 71.6219C393.374 74.4383 401.823 90.6514 414.329 100.38C420.247 104.985 426.172 107.304 433.49 108.836C443.179 110.864 445.698 108.15 453.839 105.368C466.219 101.14 479.947 105.539 482.152 119.873C484.26 133.549 467.036 134.138 467.418 144.975C467.647 151.396 477.216 155.944 482.26 157.395C496.594 161.531 508.626 155.156 521.925 154.173C535.493 153.173 544.702 164.376 559.453 162.205C574.615 159.977 573.118 143.444 590.605 146.9C596.112 147.992 602.631 152.396 608.098 150.5C609.435 150.037 610.595 149.483 611.6 148.849C626.631 139.399 606.356 112.383 596.438 107.104Z" fill="url(#paint0_linear_1111_16941)"/>
<path d="M603.436 147.592C600.117 144.576 598.1 137.577 594.478 135.452C586.315 130.659 575.752 141.651 569.822 145.564C559.053 152.671 553.077 146.25 544.348 140.182C537.715 135.572 526.575 132.55 528.335 121.679C526.729 131.625 528.106 142.119 515.201 144.456C508.454 145.678 497.588 141.422 496.006 134.041C493.48 122.25 511.139 95.4906 496.857 85.4531C493.8 96.7132 490.618 95.6277 481.992 94.7023C472.697 93.7082 463.436 94.3995 453.993 93.891C452.936 93.8339 439.517 92.0629 439.705 92.6114C441.162 96.9246 440.911 101.741 436.346 104.163C430.359 107.339 429.273 102.957 425.132 99.7695C422.561 97.7929 412.266 92.6571 412.403 89.1208C412.603 83.8821 419.813 87.6126 423.029 87.4126C426.726 79.4317 418.093 70.8167 412.449 65.7209C404.388 58.4484 397.658 61.2649 388.409 60.7164C379.417 60.1794 376.983 55.4091 371.648 47.7196C378.28 74.4044 340.181 44.8689 327.641 59.1511C324.185 63.0873 326.539 71.4565 318.552 70.1483C311.52 69 315.433 62.7901 313.388 58.3569C311.468 54.1923 305.824 50.1533 302.716 46.5999C306.195 66.4921 293.119 79.7917 273.661 81.9968C267.97 82.6424 249.884 78.8033 246.153 74.9128C249.969 78.889 254.894 82.391 255.156 88.7952C255.493 97.0331 250.946 100.929 243.376 99.4554C240.211 98.8384 237.475 95.6336 234.436 94.5938C229.717 92.9828 231.825 93.3654 227.632 93.7082C221.199 94.2337 213.053 98.6499 211.065 87.087C208.065 92.9656 211.287 99.9924 207.671 105.174C202.632 112.389 188.573 111.47 181.209 111.75C174.119 112.024 166.287 111.47 159.369 113.223C154.501 114.457 150.639 118.159 145.961 119.302C134.478 122.113 119.561 113.96 110.346 107.516C109.09 114.155 127.365 121.147 129.142 127.654C131.77 137.297 112.552 151.311 103.045 150.774C98.8807 150.54 88.0719 140.605 93.1735 135.732C87.8605 140.811 88.2891 149.06 81.6165 152.699C71.6132 158.15 66.0489 150.923 59.7247 145.336C44.18 131.585 27.9267 148.095 11.5422 139.851C12.1478 136.846 13.5875 134.013 15.5641 131.887C12.165 133.504 8.88578 134.967 5.64087 136.184C7.08623 138.017 8.77727 139.708 10.7425 141.154C10.931 141.291 11.1195 141.428 11.3081 141.565C17.2609 145.781 24.3676 147.935 31.6115 148.803C37.4158 149.494 43.2716 150.946 46.945 153.568C49.6358 155.487 49.9499 158.549 52.5892 160.972C57.1709 165.176 65.5289 167.284 71.1847 169.324C95.253 178.013 121.258 176.836 138.928 156.493C156.649 136.086 179.952 121.964 207.163 119.902C218.28 119.056 234.79 121.61 245.073 117.371C255.202 113.201 261.681 101.723 272.249 97.233C281.847 93.154 291.827 96.9189 301.676 93.7768C312.222 90.412 315.827 81.2428 324.214 75.2042C333.252 68.6916 339.747 70.194 349.459 72.0507C358.788 73.8274 367.294 69.897 377.172 71.6109C393.379 74.4273 401.829 90.6404 414.334 100.369C420.253 104.98 426.177 107.294 433.495 108.825C443.184 110.853 445.704 108.139 453.845 105.357C466.224 101.129 479.952 105.528 482.158 119.862C484.266 133.538 467.041 134.127 467.424 144.964C467.653 151.385 477.222 155.933 482.266 157.384C496.6 161.52 508.631 155.144 521.931 154.162C535.499 153.162 544.708 164.365 559.458 162.194C574.62 159.966 573.124 143.433 590.611 146.889C595.964 147.946 602.265 152.094 607.635 150.586C606.184 149.792 604.773 148.803 603.436 147.592Z" fill="url(#paint1_linear_1111_16941)"/>
<path d="M596.438 107.105C586.321 101.718 580.168 92.8055 569.468 88.3495C558.356 83.7277 546.228 88.0581 534.985 82.3623C521.902 75.7297 513.933 60.9848 500.096 54.952C483.472 47.7024 465.333 56.2831 448.463 52.147C428.24 47.1882 412.067 36.5223 396.699 22.7142C386.924 13.9335 357.897 6.37538 345.489 9.41463C337.291 11.4199 338.456 13.1394 329.39 9.40322C321.86 6.30112 312.028 1.34809 303.705 0.691113C288.012 -0.537156 274.849 6.76959 263.937 16.4472C252.557 26.5361 239.366 27.9415 225.741 32.7632C219.908 34.8255 215.395 40.4413 209.545 41.7952C202.838 43.3491 195.206 40.3385 188.699 38.3504C174.902 34.1343 161.557 33.8086 148.252 40.4298C141.819 43.6348 137.974 50.5131 132.301 54.6435C124.989 59.9736 115.637 59.1967 107.005 60.4307C89.1863 62.9843 62.8213 66.4463 55.3831 84.5733C47.9393 102.712 29.9894 102.66 11.891 105.162C11.1254 105.265 5.64115 105.071 1.28794 114.24C-0.311665 117.605 -0.237367 121.753 0.676693 125.786C6.25817 125.626 11.9138 125.78 17.381 126.597C27.0472 128.043 36.3822 132.544 46.2312 132.79C61.256 133.161 74.2413 126.74 71.4534 110.693C69.4025 98.8898 63.861 86.7727 79.4915 82.4938C94.2536 78.4491 105.199 88.2067 115.534 97.2216C126.634 106.905 135.432 109.967 149.68 112.778C162.111 115.234 169.589 111.921 180.472 105.145C198.325 94.0281 211.287 70.5938 234.002 67.5774C250.152 65.4351 263.892 72.7933 275.826 57.4599C287.783 42.1037 296.118 36.5108 315.022 42.378C321.409 44.3603 327.51 48.7764 334.171 49.7705C344.894 51.3643 353.441 43.8804 362.456 39.6186C384.696 29.1069 406.028 33.0488 420.562 52.7354C429.748 65.1781 437.535 85.6416 454.062 89.9377C470.047 94.0853 481.787 79.883 495.469 75.0785C513.699 68.68 525.216 80.5 531.289 96.5532C534.968 106.282 536.899 116.645 540.858 126.266C543.737 133.264 548.673 141.405 557.179 142.165C564.275 142.799 571.433 136.892 578.197 135.167C591.245 131.842 601.666 139.577 608.727 150.22C609.795 149.809 610.766 149.352 611.606 148.826C626.631 139.4 606.356 112.383 596.438 107.105Z" fill="white"/>
<defs>
<linearGradient id="paint0_linear_1111_16941" x1="0.259224" y1="23.4209" x2="597.714" y2="204.468" gradientUnits="userSpaceOnUse">
<stop stop-color="white"/>
<stop offset="0.4846" stop-color="#E1EFFA"/>
</linearGradient>
<linearGradient id="paint1_linear_1111_16941" x1="308.309" y1="239.077" x2="305.838" y2="97.2083" gradientUnits="userSpaceOnUse">
<stop stop-color="white"/>
<stop offset="0.6703" stop-color="#BED9EC"/>
<stop offset="1" stop-color="#A5CAE5"/>
</linearGradient>
</defs>
</svg>
