<svg width="353" height="181" viewBox="0 0 353 181" fill="none" xmlns="http://www.w3.org/2000/svg">
<path d="M350.007 121.508C342.306 103.193 315.107 98.6681 289.976 97.8969C289.925 98.0568 289.902 98.2168 289.833 98.3711C282.641 115.921 265.748 112.39 249.66 111.568C217.531 109.922 185.75 119.829 153.65 115.944C138.493 114.11 125.239 109.585 112.437 101.307C98.4404 92.2525 84.9009 85.0372 70.3273 77.2905C47.67 65.2421 41.3002 41.505 31.257 18.8135C29.686 15.2601 29.8117 11.8209 30.9885 8.8788C29.3204 7.1935 27.6465 5.53682 25.9612 4.02291C19.8941 -1.42147 10.2279 -0.661707 5.45196 5.94809C1.82999 10.9526 0.0646786 17.8995 1.23582 24.3493C2.49265 31.279 5.80603 36.7862 6.64011 44.0701C8.45109 59.8205 0.401787 73.2572 0.750273 88.4249C1.6929 93.9321 3.18957 99.3137 7.04005 103.513C12.8329 109.825 19.4314 112.807 23.676 120.925C33.4565 139.612 30.8399 150.787 52.3318 160.916C89.7797 178.574 132.049 185.664 172.257 175.603C212.247 165.6 233.573 143.811 277.482 145.805C295.695 146.622 364.66 156.362 350.007 121.508Z" fill="url(#paint0_linear_1111_16938)"/>
<path d="M351.362 126.77C348.579 129.123 340.559 134.602 331.955 138.824C320.946 144.223 308.972 147.559 305.773 139.652C302.431 131.374 322.363 126.473 327.693 124.97C302.699 120.903 281.63 137.007 257.802 134.945C248.958 134.174 249.027 135.585 242.234 139.806C237.418 142.8 235.933 147.205 229.735 142.349C223.782 137.687 227.238 125.707 227.181 118.64C212.282 124.724 205.432 140.995 195.183 152.101C191.984 155.568 186.22 161.493 180.747 160.201C178.633 159.704 170.875 155.483 175.182 151.998C162.631 162.155 149.343 168.565 133.25 165.949C126.994 164.932 97.2014 156.117 102.509 144.074C97.6585 155.088 84.1476 161.738 76.2924 148.456C72.1448 141.44 75.1155 130.614 72.7447 122.913C73.8244 137.95 55.726 154.311 47.865 134.882C44.4773 126.513 52.641 126.684 53.1094 119.766C53.4579 114.596 45.2143 106.243 41.9865 101.81C42.7349 107.843 39.7128 114.881 33.0401 114.921C26.7902 114.961 17.4783 99.0679 14.4047 93.9035C9.62878 85.8769 16.0101 62.2885 3.64743 68.7326C2.05925 75.1824 0.596682 81.6379 0.756642 88.4248C1.69927 93.932 3.19612 99.3136 7.04659 103.513C12.8395 109.825 19.4378 112.807 23.6824 120.925C33.4629 139.612 30.8465 150.787 52.3383 160.921C89.7862 178.58 132.056 185.669 172.263 175.609C212.253 165.606 233.579 143.817 277.488 145.811C290.502 146.388 360.982 155.654 351.362 126.77Z" fill="url(#paint1_linear_1111_16938)"/>
<path d="M250.042 101.096C245.517 99.8562 241.084 97.9596 236.188 96.1486C215.393 88.4648 195.872 97.691 176.603 105.009C163.835 109.859 148.747 108.083 137.458 100.405C131.677 96.4742 126.952 91.1841 121.354 87.0023C115.372 82.5348 108.42 79.3813 101.119 77.8217C94.1777 76.3364 86.9965 76.2849 80.0325 74.9081C73.0686 73.5313 65.9902 70.5206 61.9741 64.6649C58.3864 59.4319 57.7752 52.805 56.6441 46.5608C54.4732 34.6038 45.8524 25.8173 38.2714 16.791C34.221 11.9636 30.1134 7.73035 25.9544 3.99985C19.9845 -1.35312 10.4554 -0.770357 5.66805 5.65663C5.63377 5.70233 5.59946 5.748 5.56519 5.79942C5.97651 6.0565 6.85632 6.07936 6.79919 6.57638C4.70827 25.4974 26.52 25.8802 27.8968 35.9634C29.2736 46.0466 20.9729 53.102 21.0871 62.2369C21.1671 68.5097 20.4643 84.3743 25.4288 89.4131C28.5366 92.5723 45.2982 94.8918 48.6973 93.7149C51.0625 92.8923 53.2105 90.55 55.4442 89.396C61.3742 86.3339 67.7841 84.3572 74.4396 85.9568C90.5099 89.8187 96.1485 108.631 102.158 121.754C116.355 152.746 154.111 166.925 180.259 140.983C191.308 130.026 205.099 109.711 221.957 107.317C228.213 106.426 232.395 108.46 237.131 112.282C244.563 118.28 250.122 125.119 260.531 127.289C270.003 129.26 281.446 123.696 289.632 119.56C304.503 112.036 315.237 107.409 327.549 115.487C330.491 117.412 334.495 117.132 336.838 114.39C338.289 112.676 339.283 111.162 340.334 109.802C341.117 108.791 322.664 100.959 321.213 100.542C310.473 97.4739 301.258 94.8289 289.524 96.0857C281.548 96.9369 274.03 100.148 266.181 101.793C260.188 103.038 255.058 102.473 250.042 101.096Z" fill="white"/>
<defs>
<linearGradient id="paint0_linear_1111_16938" x1="-111.788" y1="82.0996" x2="353.274" y2="102.676" gradientUnits="userSpaceOnUse">
<stop stop-color="white"/>
<stop offset="0.4846" stop-color="#E1EFFA"/>
</linearGradient>
<linearGradient id="paint1_linear_1111_16938" x1="153.594" y1="245.153" x2="174.616" y2="119.347" gradientUnits="userSpaceOnUse">
<stop stop-color="white"/>
<stop offset="0.6703" stop-color="#BED9EC"/>
<stop offset="1" stop-color="#A5CAE5"/>
</linearGradient>
</defs>
</svg>
