<svg width="347" height="136" viewBox="0 0 347 136" fill="none" xmlns="http://www.w3.org/2000/svg">
<path d="M342.698 22.0014C340.824 20.4589 339.042 19.4078 337.357 18.3681C330.107 15.683 328.456 10.9013 320.464 5.26271C305.05 -5.61461 287.969 3.34305 276.2 14.9459C265.134 25.8518 254.24 33.5986 237.718 33.4615C217.78 33.2901 202.573 30.3023 184.263 41.391C175.642 46.6125 169.387 53.8279 159.218 56.3587C145.821 59.6893 127.854 59.9692 114.074 58.5753C100.626 57.2156 89.3321 54.4506 75.5584 56.6043C57.5742 59.4151 40.7383 65.7621 23.594 71.4521C16.71 73.7372 9.88304 75.9824 2.97618 77.8276C0.553918 79.8786 -0.817153 82.6151 0.63963 86.5512C3.09045 93.1725 11.7454 93.298 18.3667 94.412C18.8694 94.2578 19.3837 94.0979 19.7836 93.9779C31.5064 90.3959 34.237 93.7037 34.8597 101.907C35.9166 103.307 37.0936 104.855 38.1048 105.598C37.522 104.638 42.0637 102.816 42.3721 102.65C44.2345 101.65 46.2513 100.845 47.9766 99.628C48.6107 99.1767 49.1078 98.6625 49.6048 98.1484C53.3181 88.6307 59.8422 79.4786 70.531 81.2725C73.3589 81.044 76.3352 81.9923 78.9403 84.6488C79.1402 84.8545 79.346 85.0601 79.5459 85.2658C80.3115 85.8942 80.9912 86.6025 81.6311 87.368C85.7901 91.5156 90.3889 95.5947 95.9075 97.2629C101.106 98.8396 106.191 99.7765 110.904 102.233C117.828 104.621 124.341 108.26 132.259 109.146C144.147 110.477 151.414 102.113 162.303 100.194C182.806 96.5716 183.218 119.32 192.107 131.426C197.774 139.144 210.194 135.259 211.233 125.741C212.53 113.819 213.953 99.805 221.1 92.8182C228.983 85.1172 242.848 90.3331 249.275 97.0629C250.641 98.4911 251.812 100.051 252.84 101.696C255.211 105.484 257.948 109.083 261.518 111.762C266.774 115.698 272.738 117.612 280.753 114.104C290.083 110.025 295.098 101.096 303.085 95.7489C305.422 93.5551 308.152 91.607 312.014 89.7103C317.647 86.9453 323.88 85.1401 329.044 81.5638C331.878 77.0164 332.409 72.2118 330.73 64.4023C329.404 58.2381 329.621 51.8855 334.055 46.9267C335.757 45.0243 338.259 43.4589 340.847 41.9679C341.173 41.6137 341.493 41.2594 341.824 40.9052C347.137 35.3295 349.679 27.7543 342.698 22.0014Z" fill="url(#paint0_linear_1111_16940)"/>
<path d="M332.931 38.1062C332.034 38.5118 329.617 42.6193 328.629 43.5162C326.372 45.5729 324.539 46.6926 321.568 47.1839C315.998 48.098 311.233 44.7559 305.829 45.6586C307.463 49.0006 311.879 53.331 315.073 55.8275C318.969 58.8725 324.385 59.7294 326.921 64.2083C332.051 73.2747 324.933 74.6515 317.335 74.7943C309.474 74.9428 306.977 77.2279 300.996 71.5836C300.825 76.9308 300.613 78.6848 296.574 82.2154C292.884 85.4431 290.587 85.2489 291.964 90.7561C293.204 95.7263 295.54 94.6351 289.947 98.4342C287.976 99.771 286.548 101.902 285.348 104.37C283.303 106.804 281.007 109.203 277.933 109.883C276.733 110.146 275.488 110.123 274.265 110.031C273.031 109.94 271.723 109.74 270.786 108.935C268.604 107.055 270.718 104.775 271.98 103.239C273.597 101.273 275.082 99.1083 275.379 96.5146C275.362 96.6689 266.656 99.3368 265.867 99.2911C261.086 99.0111 260.68 96.0575 258.418 92.2928C252.922 83.1407 243.176 82.6037 249.974 71.0694C243.45 74.1658 240.754 79.5931 232.19 77.4736C225.22 75.7483 220.382 72.5206 212.858 74.8C215.32 74.8686 220.199 76.114 220.564 79.3818C220.953 82.8552 215.971 83.255 213.726 84.7918C207.059 89.345 207.082 101.782 197.09 98.794C196.587 102.879 202.963 105.358 204.991 108.357C207.67 112.328 208.242 116.064 205.682 120.503C203.049 125.062 200.101 125.816 195.953 123.211C192.143 120.817 190.418 114.802 188.349 110.951C185.779 106.181 184.168 101.136 187.258 96.132C188.687 93.8125 191.783 93.9154 192.063 91.0818C184.762 93.3555 182.294 93.1327 176.192 89.625C171.976 87.2027 169.086 88.5852 164.984 87.9054C160.733 87.2027 157.42 83.3635 152.981 84.1919C159.825 91.91 150.747 97.3888 144.018 99.9482C134.98 103.382 127.622 105.192 124.497 94.7093C125.919 99.4796 117.287 100.314 114.933 99.6511C109.837 98.2114 104.102 93.3098 99.0057 91.1046C95.4523 89.5621 86.8202 86.3457 84.9064 82.7923C82.9012 79.0618 86.1347 75.4741 81.3416 74.1088C78.8794 73.4118 76.2057 75.9769 73.8749 76.354C71.1441 76.7938 69.2646 76.1197 66.6652 75.6913C57.5189 74.1888 53.6628 81.5525 49.1382 88.0824C47.1272 90.9845 46.5787 93.9382 45.0076 96.8632C44.4535 97.8972 42.5798 99.7081 41.4258 99.8338C40.7174 99.9138 39.9003 99.9539 39.4147 99.4283C39.249 99.2512 39.1462 99.0227 39.072 98.7884C38.7006 97.6573 39.0664 96.4919 38.6208 95.3436C38.1866 94.2239 37.421 93.2184 36.7469 92.2357C34.1361 88.4481 33.8618 87.9739 33.5305 82.9466C25.6353 90.2933 15.9064 88.0311 6.85718 92.1386C6.85718 92.1386 10.1363 93.3211 10.8847 93.7267C12.3986 94.5437 14.0954 95.0408 15.8149 95.1722C16.2548 95.2065 16.7004 95.2178 17.1403 95.1835C18.5799 95.0807 19.7454 94.6065 20.9908 93.9781C22.0648 93.4354 23.156 93.1669 24.3672 92.9383C26.7323 92.487 29.4115 92.3214 31.5424 93.6411C35.1073 95.852 33.8447 99.811 35.1358 103.187C35.2729 103.541 35.7928 104.513 36.0441 104.798C37.6723 106.644 40.9229 105.661 42.791 104.855C45.099 103.867 47.0644 102.165 48.5897 100.194C50.3207 97.9544 51.4747 95.3778 52.4516 92.7441C53.3256 90.4018 54.8338 88.2596 56.5533 86.4258C60.221 82.501 65.1742 80.3872 70.5615 81.2898C73.3893 81.0613 76.3657 82.0096 78.9707 84.6661C79.1707 84.8718 79.3763 85.0774 79.5762 85.2831C80.3418 85.9115 81.0217 86.62 81.6615 87.3855C85.8205 91.5331 90.4193 95.612 95.938 97.2802C101.137 98.8569 106.221 99.7938 110.934 102.25C117.858 104.638 124.371 108.277 132.289 109.163C144.178 110.494 151.444 102.13 162.333 100.211C182.837 96.5889 183.248 119.338 192.137 131.443C197.804 139.161 210.224 135.276 211.264 125.759C212.561 113.836 213.983 99.8223 221.13 92.8355C229.014 85.1345 242.879 90.3504 249.306 97.0802C250.66 98.497 251.825 100.045 252.848 101.679C256.378 107.306 261.114 112.494 267.227 115.344C270.718 116.972 274.837 117.07 278.51 115.916C283.635 114.305 287.239 110.3 291.021 106.712C293.004 104.833 294.889 102.856 296.86 100.965C298.825 99.0854 301.162 97.6115 303.116 95.7719C305.452 93.5782 308.183 91.6301 312.045 89.7334C317.678 86.9684 323.91 85.1631 329.075 81.5869C331.908 77.0394 332.44 72.2349 330.76 64.4254C329.435 58.2612 329.652 51.9085 334.085 46.9498C335.787 45.0531 338.284 43.4934 340.866 41.9967C341.192 41.6368 341.517 41.2769 341.854 40.9227C342.266 40.4885 342.631 40.02 343.008 39.563C338.941 39.1231 335.439 36.9751 332.931 38.1062Z" fill="url(#paint1_linear_1111_16940)"/>
<path d="M346.851 31.6162C347.314 28.2742 346.229 24.9035 342.698 22.0014C340.824 20.4589 339.042 19.4078 337.357 18.3681C330.107 15.683 328.456 10.9013 320.464 5.26271C305.05 -5.61461 287.969 3.34305 276.2 14.9459C265.134 25.8518 254.24 33.5986 237.718 33.4615C217.78 33.2901 202.573 30.3023 184.263 41.391C175.642 46.6125 169.387 53.8279 159.218 56.3587C145.821 59.6893 127.854 59.9692 114.074 58.5753C100.626 57.2156 89.3321 54.4506 75.5584 56.6043C57.5742 59.4151 40.7383 65.7621 23.594 71.4521C16.71 73.7372 9.88304 75.9824 2.97618 77.8276C0.553918 79.8786 -0.817153 82.6151 0.63963 86.5512C0.719611 86.7569 0.862391 86.894 0.953797 87.0882C3.57029 86.157 6.12967 85.3687 8.56335 84.9973C12.9166 84.3346 17.1726 84.5687 21.5373 84.4888C29.1811 84.3459 34.2485 82.4036 40.5041 77.9704C48.4278 72.3547 55.8832 68.1044 65.7265 67.1732C86.0186 65.2537 99.4211 75.2225 114.834 86.1112C135.766 100.896 140.679 71.4691 159.115 70.4522C175.831 69.5325 184.509 95.9488 201.024 80.0842C209.462 71.9833 215.21 57.844 227.161 54.1649C244.431 48.8519 257.193 60.7118 267.957 71.6576C275.383 79.2101 285.764 82.3808 289.391 70.3666C291.351 63.8768 291.002 56.8043 291.362 50.1031C291.996 38.3745 298.943 20.7218 313.38 21.5901C323.503 22.2014 328.902 32.2788 339.693 32.2674C342.093 32.2674 344.469 31.999 346.851 31.6162Z" fill="white"/>
<defs>
<linearGradient id="paint0_linear_1111_16940" x1="361.98" y1="67.9403" x2="-30.5635" y2="67.9403" gradientUnits="userSpaceOnUse">
<stop stop-color="white"/>
<stop offset="0.4846" stop-color="#E1EFFA"/>
</linearGradient>
<linearGradient id="paint1_linear_1111_16940" x1="140.461" y1="287.991" x2="176.809" y2="53.607" gradientUnits="userSpaceOnUse">
<stop stop-color="white"/>
<stop offset="0.6703" stop-color="#BED9EC"/>
<stop offset="1" stop-color="#A5CAE5"/>
</linearGradient>
</defs>
</svg>
