<svg width="313" height="166" viewBox="0 0 313 166" fill="none" xmlns="http://www.w3.org/2000/svg">
<path d="M296.358 49.063C297.335 47.2463 298.752 45.9895 300.351 44.9554C301.34 43.9328 302.642 43.0529 304.316 42.4017C304.756 42.2303 305.219 42.0589 305.687 41.8933C306.91 40.9906 308.304 40.2536 309.818 39.7223C317.102 37.1516 309.355 21.8296 306.595 19.7215C303.613 17.4421 299.94 16.2995 296.278 15.4825C288.029 13.643 285.584 8.62149 276.003 3.7027C257.453 -5.82066 240.143 6.62771 229.06 21.1384C218.64 34.7865 207.911 44.9496 189.807 47.349C167.961 50.2454 150.857 49.3201 132.53 64.2878C123.903 71.3375 118.173 80.1981 107.433 84.5456C93.2881 90.2642 73.6645 93.3434 58.3711 93.949C44.4945 94.4974 32.446 93.4863 18.9808 96.9369C17.1984 97.7824 15.4559 98.7993 13.7364 100.016C7.69785 104.289 -3.01383 114.847 1.0366 123.405C1.96208 125.358 14.9418 124.57 21.803 126.981C25.1621 128.163 27.8358 130.426 30.0067 133.265C30.0295 133.288 30.0523 133.311 30.0752 133.334C35.4053 137.196 40.7526 138.504 47.0196 139.583C49.7504 140.052 52.3554 140.6 54.8405 141.36C65.3522 141.834 74.807 146.81 86.0899 146.485C99.3095 146.102 105.971 135.83 117.585 132.042C139.585 124.873 143.476 150.009 155.221 161.812C162.608 169.233 175.405 163.029 175.085 152.569C174.685 139.458 175.125 131.5 181.895 122.725C188.482 114.184 200.262 111.03 208.825 115.978C212.436 117.092 216.321 116.029 219.434 118.537C226.741 124.416 230.574 135.556 238.555 140.298C247.484 145.605 253.397 138.452 258.579 129.535C259.716 125.855 261.252 122.136 263.241 118.332C268.068 109.122 270.696 103.627 279.814 97.4338C287.052 92.515 295.621 89.1729 300.877 81.7976C308.372 71.2916 290.274 60.4087 296.358 49.063Z" fill="url(#paint0_linear_1111_16927)"/>
<path d="M312.747 35.923C311.393 36.5571 309.982 37.1114 308.445 37.4713C303.035 38.7281 297.768 35.8088 294.729 37.7341C293.809 38.3168 291.798 43.184 290.861 44.3209C288.713 46.9203 286.873 48.4285 283.697 49.4225C277.738 51.2849 272.008 48.3656 266.233 50.1823C268.541 53.5872 274.037 57.6433 277.921 59.8828C282.652 62.6135 288.719 62.7107 292.186 67.2238C299.208 76.3587 291.626 78.9638 283.331 80.2949C274.751 81.6717 272.374 84.5624 264.953 79.3123C265.587 85.1965 265.627 87.1447 261.76 91.6293C258.223 95.7311 255.675 95.874 258.029 101.69C260.154 106.934 262.542 105.38 257.006 110.402C252.208 114.749 251.608 123.759 249.677 131.06C249.117 131.437 248.757 132.111 248.3 132.648C247.209 133.922 245.381 134.327 243.701 134.224C237.914 133.876 232.767 128.02 235.315 122.319C236.017 120.748 237.514 119.405 238.4 117.903C239.731 115.652 240.833 113.218 240.759 110.545C240.765 110.716 231.653 114.984 230.779 115.052C225.506 115.481 224.603 112.316 221.547 108.545C214.114 99.3816 203.368 100.296 209.024 86.6192C202.363 91.0181 200.255 97.3764 190.549 96.3766C182.653 95.5654 176.861 92.7776 168.982 96.4338C171.685 96.1253 177.22 96.7366 178.123 100.256C179.083 103.998 173.696 105.203 171.473 107.237C164.881 113.247 166.823 126.861 155.431 125.135C155.511 129.683 162.87 131.408 165.555 134.384C169.102 138.315 170.302 142.32 168.188 147.57C166.012 152.968 162.898 154.248 157.957 152.037C153.421 150.003 150.598 143.685 147.736 139.8C144.189 134.973 141.646 129.706 144.251 123.753C145.457 120.994 148.856 120.628 148.73 117.48C141.092 121.096 138.356 121.234 131.135 118.337C126.142 116.338 123.194 118.297 118.606 118.189C113.848 118.074 109.626 114.389 104.895 115.978C113.579 123.364 104.49 130.768 97.5201 134.607C88.1624 139.766 80.3871 142.88 75.3484 131.894C77.6392 136.892 68.3215 139.143 65.6479 138.778C59.8436 137.989 52.8168 133.51 46.8926 131.882C42.7622 130.745 32.8218 128.557 30.1767 124.964C27.406 121.193 30.3938 116.76 24.9323 116.012C22.1273 115.629 19.6021 118.851 17.1056 119.622C14.1863 120.525 12.0211 120.079 9.1133 120.017C5.5656 119.937 2.92055 120.971 0.755371 122.616C0.85249 122.884 0.921015 123.153 1.0467 123.416C1.39518 124.147 3.43467 124.495 6.21685 124.77C10.85 125.227 17.5283 125.484 21.813 126.992C24.0753 127.786 26.0063 129.106 27.703 130.728C27.8972 130.911 28.1086 131.071 28.2914 131.265C28.9027 131.894 29.474 132.568 30.0167 133.282C30.091 133.333 30.1596 133.385 30.2282 133.436C31.068 134.036 31.9134 134.499 32.7589 134.984C33.3017 135.293 33.8387 135.653 34.3871 135.921C35.2098 136.327 36.0439 136.641 36.878 136.961C37.3864 137.161 37.889 137.401 38.4089 137.572C39.3629 137.886 40.3457 138.138 41.334 138.389C41.7568 138.498 42.168 138.635 42.5964 138.732C44.0304 139.058 45.4987 139.338 47.024 139.6C49.7548 140.069 52.3598 140.617 54.8449 141.377C56.1589 141.434 57.4557 141.566 58.7411 141.748C61.3176 142.108 63.8427 142.674 66.3735 143.297C67.6418 143.605 68.9042 143.931 70.1782 144.245C72.7204 144.873 75.2913 145.485 77.925 145.913C80.5643 146.342 83.2664 146.593 86.0886 146.507C99.3082 146.125 105.969 135.853 117.584 132.065C118.955 131.619 120.252 131.299 121.491 131.094C121.925 131.019 122.314 131.037 122.731 130.991C123.502 130.911 124.291 130.797 125.016 130.808C125.462 130.814 125.856 130.9 126.279 130.94C126.924 130.991 127.587 131.02 128.192 131.14C128.632 131.231 129.032 131.402 129.449 131.522C129.992 131.682 130.546 131.808 131.055 132.019C131.477 132.196 131.854 132.442 132.26 132.648C132.729 132.893 133.209 133.105 133.654 133.39C134.043 133.642 134.397 133.95 134.768 134.23C135.185 134.544 135.619 134.836 136.019 135.184C136.379 135.504 136.716 135.87 137.065 136.213C137.442 136.584 137.83 136.932 138.19 137.332C138.538 137.721 138.864 138.144 139.201 138.555C139.533 138.961 139.875 139.343 140.195 139.766C140.532 140.206 140.847 140.68 141.172 141.137C141.475 141.571 141.789 141.988 142.086 142.434C142.4 142.902 142.703 143.388 143.006 143.862C143.309 144.331 143.612 144.793 143.909 145.268C144.263 145.833 144.606 146.416 144.954 146.993C145.2 147.404 145.451 147.81 145.697 148.221C146.257 149.158 146.816 150.095 147.376 151.032C147.605 151.409 147.833 151.775 148.062 152.146C148.433 152.751 148.799 153.357 149.176 153.945C149.427 154.339 149.69 154.722 149.947 155.111C150.307 155.653 150.661 156.202 151.033 156.728C151.313 157.128 151.61 157.504 151.901 157.893C152.261 158.379 152.615 158.87 152.986 159.333C153.295 159.715 153.626 160.064 153.946 160.429C154.306 160.835 154.66 161.258 155.032 161.635C155.774 162.389 156.597 162.943 157.437 163.446C157.642 163.572 157.82 163.766 158.025 163.874C158.682 164.217 159.373 164.366 160.059 164.566C160.527 164.697 160.984 164.926 161.464 164.994C161.51 165 161.55 164.988 161.596 164.994C168.263 165.811 175.324 160.395 175.084 152.597C175.061 151.929 175.061 151.335 175.044 150.689C175.021 149.821 174.998 148.924 174.987 148.107C174.981 147.341 174.998 146.633 175.004 145.907C175.009 145.199 175.004 144.462 175.027 143.782C175.049 143.068 175.107 142.4 175.152 141.72C175.192 141.086 175.215 140.429 175.272 139.817C175.335 139.149 175.449 138.521 175.541 137.875C175.621 137.292 175.684 136.692 175.792 136.133C175.918 135.47 176.101 134.842 176.266 134.196C176.398 133.682 176.495 133.156 176.649 132.653C176.86 131.968 177.146 131.3 177.409 130.625C177.58 130.191 177.712 129.746 177.906 129.317C178.232 128.586 178.649 127.866 179.054 127.141C179.254 126.775 179.414 126.404 179.637 126.038C180.22 125.078 180.899 124.113 181.631 123.141C181.728 123.01 181.796 122.884 181.893 122.753C188.16 114.624 199.106 111.459 207.539 115.435C207.961 115.635 208.413 115.766 208.824 116.006C212.435 117.12 224.186 123.421 226.248 126.318C226.3 126.375 226.38 126.426 226.425 126.489C228.882 129.917 231.213 133.528 233.984 136.458C234.098 136.635 234.275 136.755 234.401 136.927C235.68 138.224 237.023 139.418 238.554 140.326C239.639 140.971 240.673 141.417 241.673 141.714C241.696 141.72 241.719 141.726 241.736 141.731C242.039 141.817 242.313 141.805 242.61 141.863C243.244 141.988 243.884 142.108 244.484 142.108C244.89 142.108 245.272 142.011 245.661 141.954C246.141 141.885 246.615 141.823 247.077 141.68C247.472 141.554 247.843 141.377 248.22 141.2C248.649 141 249.077 140.794 249.494 140.531C249.86 140.303 250.214 140.046 250.568 139.777C250.974 139.463 251.379 139.126 251.774 138.755C252.099 138.446 252.43 138.138 252.75 137.795C253.156 137.361 253.55 136.898 253.944 136.424C254.23 136.075 254.516 135.738 254.796 135.373C255.23 134.796 255.658 134.179 256.075 133.55C256.292 133.231 256.515 132.922 256.732 132.591C257.361 131.614 257.978 130.608 258.577 129.568C259.149 127.729 259.817 125.878 260.588 124.016C261.365 122.153 262.245 120.268 263.239 118.371C264.445 116.069 265.513 114.001 266.581 112.093C267.649 110.185 268.712 108.442 269.918 106.791C271.117 105.14 272.454 103.586 274.054 102.055C274.082 102.027 274.122 101.998 274.157 101.964C275.739 100.467 277.579 98.9875 279.812 97.4678C281.623 96.2396 283.514 95.1085 285.417 93.9831C291.124 90.6239 296.928 87.3617 300.87 81.826C308.354 71.32 290.255 60.4371 296.34 49.0913C297.317 47.2746 298.733 46.0176 300.333 44.9836C301.321 43.961 302.624 43.0813 304.298 42.43C304.738 42.2586 305.2 42.0873 305.669 41.9216C306.891 41.019 308.285 40.282 309.799 39.7507C311.599 39.0994 312.473 37.6997 312.747 35.923Z" fill="url(#paint1_linear_1111_16927)"/>
<path d="M305.019 18.5673C302.174 17.2591 299.209 16.1565 296.153 15.4595C288.006 13.5914 285.538 8.60403 276.009 3.71381C257.46 -5.80955 240.15 6.63881 229.067 21.1495C218.646 34.7976 207.918 44.9609 189.813 47.3603C167.967 50.2567 150.863 49.3312 132.536 64.2989C123.91 71.3429 118.18 80.2094 107.439 84.5511C93.2944 90.2697 73.6707 93.349 58.3774 93.9545C44.5008 94.503 32.4522 93.4974 18.987 96.9422C17.2046 97.7877 15.4621 98.8046 13.7426 100.021C10.2463 102.501 5.19042 107.088 2.33398 112.173C3.76792 111.664 5.23616 111.207 6.79577 110.836C28.7047 105.603 44.9178 114.441 63.4733 123.976C88.667 136.921 89.4953 103.958 109.513 99.9931C127.663 96.3997 141.248 123.97 156.873 104.06C164.854 93.8916 168.962 77.5299 181.473 71.6571C199.548 63.1735 215.356 74.1822 228.821 84.494C238.116 91.6122 249.964 93.4746 252.084 79.7694C253.226 72.3656 251.747 64.676 251.107 57.2893C249.987 44.3553 254.86 23.9603 270.799 22.6806C281.968 21.7837 289.44 31.9755 301.249 30.3017C305.425 29.7075 307.145 29.159 311.172 27.6337C309.733 23.2691 307.093 19.5157 305.019 18.5673Z" fill="white"/>
<defs>
<linearGradient id="paint0_linear_1111_16927" x1="329.082" y1="66.2301" x2="-97.8677" y2="126.508" gradientUnits="userSpaceOnUse">
<stop stop-color="white"/>
<stop offset="0.4846" stop-color="#E1EFFA"/>
</linearGradient>
<linearGradient id="paint1_linear_1111_16927" x1="106.364" y1="323.863" x2="163.071" y2="48.6065" gradientUnits="userSpaceOnUse">
<stop stop-color="white"/>
<stop offset="0.6703" stop-color="#BED9EC"/>
<stop offset="1" stop-color="#A5CAE5"/>
</linearGradient>
</defs>
</svg>
