<svg width="313" height="228" viewBox="0 0 313 228" fill="none" xmlns="http://www.w3.org/2000/svg">
<path d="M307.951 17.5938C299.222 10.0585 292.081 19.0049 283.866 19.9646C254.884 23.3467 234.072 -9.72518 201.492 3.76292C186.238 10.0757 186.793 24.2379 166.523 26.7858C148.396 29.0595 130.704 29.0024 112.942 32.1731C80.396 37.9716 53.237 38.9942 44.6677 74.2884C40.3374 92.1068 43.2395 101.956 33.0706 116.929C25.5353 128.035 17.4572 138.655 12.2814 150.687C7.55683 161.673 -1.16104 177.389 1.38119 189.557C2.44378 194.647 12.9898 221.144 16.726 224.171C30.1284 235.043 38.7834 219.321 46.9014 211.62C59.2298 199.926 64.5542 199.532 80.9902 197.052C102.825 193.75 102.396 188.757 110.726 170.35C116.05 158.593 121.466 147.093 127.562 135.662C137.965 116.164 144.54 115.815 164.787 107.326C183.056 99.665 181.011 89.1247 190.506 75.2482C199.647 61.8914 211.958 58.2923 228.188 56.847C241.162 55.6873 332.345 38.6629 307.951 17.5938Z" fill="url(#paint0_linear_1111_17347)"/>
<path d="M307.951 17.5938C299.222 10.0585 292.081 19.0049 283.866 19.9646C254.884 23.3467 234.072 -9.72518 201.492 3.76292C186.238 10.0757 186.793 24.2379 166.523 26.7858C148.396 29.0595 130.704 29.0024 112.942 32.1731C80.396 37.9716 53.237 38.9942 44.6677 74.2884C40.3374 92.1068 43.2395 101.956 33.0706 116.929C25.5353 128.035 17.4572 138.655 12.2814 150.687C7.55683 161.673 -1.16104 177.389 1.38119 189.557C2.44378 194.647 12.9898 221.144 16.726 224.171C30.1284 235.043 38.7834 219.321 46.9014 211.62C59.2298 199.926 64.5542 199.532 80.9902 197.052C102.825 193.75 102.396 188.757 110.726 170.35C116.05 158.593 121.466 147.093 127.562 135.662C137.965 116.164 144.54 115.815 164.787 107.326C183.056 99.665 181.011 89.1247 190.506 75.2482C199.647 61.8914 211.958 58.2923 228.188 56.847C241.162 55.6873 332.345 38.6629 307.951 17.5938Z" fill="url(#paint1_linear_1111_17347)"/>
<path d="M20.2379 188.683C28.2416 185.53 31.4694 181.576 34.0174 173.43C39.3589 156.382 29.9269 135.919 55.6749 143.9C76.1841 150.258 102.092 150.218 110.221 126.938C113.409 117.809 113.506 107.372 111.215 98.0597C105.857 76.2536 106.485 42.6619 138.414 51.0713C147.218 53.3907 152.611 60.4918 160.598 63.6624C181.272 71.8718 188.825 49.1746 197.246 37.3089C205.592 25.5518 216.778 16.5655 231.826 21.9356C244.503 26.4545 250.335 37.1604 264.538 39.2856C282.527 41.9763 289.086 31.4704 301.654 21.6899C303.791 20.0275 305.859 18.6507 307.881 17.5424C299.18 10.1042 292.056 19.0049 283.858 19.9646C254.877 23.3467 234.065 -9.72518 201.485 3.76292C186.231 10.0757 186.785 24.2379 166.516 26.7858C148.389 29.0595 130.696 29.0024 112.935 32.1673C80.3887 37.9659 53.2297 38.9885 44.6604 74.2827C40.33 92.1011 43.2322 101.95 33.0633 116.924C25.528 128.029 17.45 138.65 12.2742 150.681C7.55532 161.644 -1.12827 177.309 1.36254 189.471C6.81262 192.471 16.5131 190.151 20.2379 188.683Z" fill="white"/>
<path d="M306.683 31.8018C297.411 35.0181 286.699 34.1955 277.147 36.2578C270.863 37.6175 262.225 38.2059 257.255 41.8507C252.399 45.4099 250.965 50.2258 243.732 46.9295C239.682 45.0842 236.249 39.6684 232.427 37.7489C232.244 40.8281 233.209 45.1928 231.267 47.6379C229.742 49.5631 222.389 52.2196 220.081 52.391C213.597 52.8766 204.725 46.6838 198.635 44.4101C200.834 49.7174 205.051 58.4295 197.492 61.9029C192.414 64.2338 186.746 62.6856 182.388 66.776C179.12 69.8438 175.275 76.0594 173.144 80.0984C170.431 85.2286 174.378 91.2271 171.527 96.4658C168.488 102.053 154.594 104.555 149.036 102.996C140.832 100.699 154.532 96.5401 157.754 93.7751C162.747 89.4904 164.575 80.8526 161.564 74.8883C158.302 80.2241 156.205 85.5257 151.498 90.1931C140.244 101.362 127.35 105.492 120.671 121.134C118.426 126.39 117.826 133.337 115.021 138.187C113.159 141.403 106.029 145.037 102.27 142.3C110.365 148.19 111.159 153.36 107.029 162.204C103.79 169.139 98.574 174.361 93.7637 179.96C88.8563 185.672 83.4691 189.323 75.5396 187.392C69.0669 185.821 63.0341 176 56.0473 177.114C58.1725 184.838 62.0001 191.471 53.3165 195.527C45.9983 198.949 39.7599 202.005 34.167 194.059C34.2584 199.378 35.9265 207.964 30.3165 211.123C25.2949 213.945 9.26459 210.586 6.96802 204.993C10.4586 213.494 14.6575 222.48 16.737 224.166C30.1394 235.037 38.7944 219.316 46.9124 211.615C59.2408 199.92 64.5652 199.526 81.0012 197.047C102.836 193.745 102.407 188.752 110.737 170.345C116.061 158.588 121.477 147.088 127.573 135.656C137.976 116.158 144.551 115.81 164.798 107.32C183.067 99.6593 181.022 89.1191 190.517 75.2425C199.658 61.8858 211.969 58.2867 228.199 56.8413C238.385 55.9387 296.719 45.2556 309.568 30.5107C308.608 30.9506 307.722 31.4362 306.683 31.8018Z" fill="url(#paint2_linear_1111_17347)"/>
<path d="M20.2379 188.683C28.2416 185.53 31.4694 181.576 34.0174 173.43C39.3589 156.382 29.9269 135.919 55.6749 143.9C76.1841 150.258 102.092 150.218 110.221 126.938C113.409 117.809 113.506 107.372 111.215 98.0597C105.857 76.2536 106.485 42.6619 138.414 51.0713C147.218 53.3907 152.611 60.4918 160.598 63.6624C181.272 71.8718 188.825 49.1746 197.246 37.3089C205.592 25.5518 216.778 16.5655 231.826 21.9356C244.503 26.4545 250.335 37.1604 264.538 39.2856C282.527 41.9763 289.086 31.4704 301.654 21.6899C303.791 20.0275 305.859 18.6507 307.881 17.5424C299.18 10.1042 292.056 19.0049 283.858 19.9646C254.877 23.3467 234.065 -9.72518 201.485 3.76292C186.231 10.0757 186.785 24.2379 166.516 26.7858C148.389 29.0595 130.696 29.0024 112.935 32.1673C80.3887 37.9659 53.2297 38.9885 44.6604 74.2827C40.33 92.1011 43.2322 101.95 33.0633 116.924C25.528 128.029 17.45 138.65 12.2742 150.681C7.55532 161.644 -1.12827 177.309 1.36254 189.471C6.81262 192.471 16.5131 190.151 20.2379 188.683Z" fill="white"/>
<defs>
<linearGradient id="paint0_linear_1111_17347" x1="0.930442" y1="114.195" x2="312.077" y2="114.195" gradientUnits="userSpaceOnUse">
<stop stop-color="white"/>
<stop offset="0.4846" stop-color="#E1EFFA"/>
</linearGradient>
<linearGradient id="paint1_linear_1111_17347" x1="0.930442" y1="114.195" x2="312.077" y2="114.195" gradientUnits="userSpaceOnUse">
<stop stop-color="white"/>
<stop offset="0.4846" stop-color="#E1EFFA"/>
</linearGradient>
<linearGradient id="paint2_linear_1111_17347" x1="170.44" y1="362.171" x2="151.933" y2="-9.05613" gradientUnits="userSpaceOnUse">
<stop stop-color="white"/>
<stop offset="0.6703" stop-color="#BED9EC"/>
<stop offset="1" stop-color="#A5CAE5"/>
</linearGradient>
</defs>
</svg>
