<svg width="681" height="165" viewBox="0 0 681 165" fill="none" xmlns="http://www.w3.org/2000/svg">
<path d="M449.567 16.6674C436.861 21.0092 422.316 27.7732 408.702 28.1046C386.628 28.6416 369.238 15.3876 348.032 12.337C337.486 10.8231 330.528 14.2623 320.473 16.6902C307.11 19.9123 293.657 18.5012 280.471 14.5993C268.891 11.1716 257.294 3.44208 245.628 1.33975C232.483 -1.02539 215.819 1.10549 202.53 1.5568C188.288 2.0424 176.903 10.9944 163.483 11.56C156.171 11.8685 149.989 8.47508 143.254 6.02426C126.561 -0.0485291 106.708 -1.90521 92.1292 9.74335C81.7032 18.0784 70.026 23.5228 56.458 25.5623C45.5349 27.2076 34.9433 26.8705 24.763 31.9893C4.46513 42.1925 -14.7587 75.9156 20.6897 77.5438C47.6088 78.7834 70.4145 49.6421 97.0137 68.9288C106.109 75.5214 113.398 87.0843 124.333 91.0033C140.175 96.6762 149.778 85.9874 163.072 80.4059C187.249 70.2542 195.047 91.5518 208.392 105.388C217.795 115.14 234.5 120.625 247.971 118.231C263.27 115.517 273.119 102.178 287.555 97.9673C298.77 94.6995 305.431 98.59 310.801 108.428C317.314 120.362 319.604 128.583 333.841 133.838C353.013 140.917 367.924 137.283 383.149 125.178C393.826 116.688 404.749 115.637 413.478 128.017C421.265 139.06 418.374 154.708 432.982 161.54C449.829 169.418 464.037 158.061 474.081 146.098C485.895 132.022 495.235 119.985 515.088 118.254C528.804 117.06 535.06 127.697 547.994 130.656C568.777 135.409 577.192 119.065 593.645 111.05C610.841 102.675 631.07 111.135 649.42 105.663C699.254 90.7919 681.732 30.5554 643.456 13.3653C624.164 4.69889 611.184 3.24777 590.429 8.86352C576.941 12.5141 566.144 12.3655 552.85 8.33797C539.967 4.43607 526.319 2.81359 512.951 1.63674C489.191 -0.454174 471.076 9.31491 449.567 16.6674Z" fill="url(#paint0_linear_1111_16936)"/>
<path d="M51.6234 32.8576C71.0415 32.052 86.0606 20.6262 104.439 16.9814C115.191 14.8448 125.097 17.9069 135.277 21.169C154.701 27.4017 175.336 30.7666 194.874 23.5113C214.458 16.2388 226.563 15.4561 244.707 26.8819C259.818 36.3995 270.358 44.329 289.69 39.4959C301.447 36.5595 311.154 30.6124 323.699 32.1663C336.587 33.7602 347.059 42.598 360.502 42.0781C372.933 41.5925 383.45 35.594 396.121 37.365C408.375 39.0789 419.31 46.9397 431.97 46.3913C443.184 45.9057 453.09 39.3816 462.299 33.703C475.056 25.8307 488.538 16.4044 504.403 18.1468C515.172 19.3351 523.221 25.9735 532.242 31.2979C542.651 37.4449 551.832 39.9072 564.103 35.1713C570.067 32.869 575.306 27.6988 581.19 24.9966C587.977 21.8774 595.244 19.9007 602.79 21.4889C608.126 22.6086 609.417 25.1395 614.039 26.7276C615.856 27.3504 629.007 30.5038 631.149 30.441C632.743 30.3953 634.257 28.3786 635.856 28.3501C642.603 28.2358 645.077 28.0073 650.807 31.595C653.681 33.3945 658.302 40.4842 661.325 40.7128C664.667 40.9698 667.791 39.5816 670.574 37.3821C664.095 27.1675 654.68 18.4154 643.46 13.3766C624.168 4.71019 611.188 3.25915 590.433 8.87491C576.945 12.5254 566.148 12.3768 552.854 8.34926C539.972 4.44737 526.323 2.82497 512.955 1.64812C489.196 -0.448504 471.08 9.32617 449.571 16.6729C436.866 21.0147 422.321 27.7788 408.707 28.1101C386.632 28.6471 369.242 15.3933 348.036 12.3426C337.49 10.8287 330.532 14.2678 320.477 16.6958C307.115 19.9178 293.661 18.5068 280.476 14.6049C268.896 11.1771 257.298 3.44763 245.633 1.34529C232.487 -1.01984 215.823 1.11103 202.535 1.56235C188.293 2.04794 176.907 11.0001 163.487 11.5656C156.175 11.8741 149.993 8.48071 143.258 6.02989C126.565 -0.0428992 106.713 -1.90529 92.1335 9.74898C81.7075 18.0841 70.0303 23.5284 56.4622 25.5679C45.7849 27.1732 35.4217 26.9219 25.447 31.6978C34.0449 31.9435 42.6428 33.2289 51.6234 32.8576Z" fill="white"/>
<path d="M649.618 79.76C641.569 79.2744 635.622 75.8239 637.416 66.7633C634.736 80.2971 625.967 77.9662 615.501 80.5256C611.473 81.5139 607.235 83.4391 603.087 82.0737C600.533 81.2339 593.621 75.601 594.952 72.2476C592.735 77.8291 594.141 88.3579 588.525 92.0542C581.087 96.9501 565.142 89.5462 558.361 86.3984C553.499 84.1418 543.033 78.9146 543.765 71.802C542.868 80.5485 536.046 80.7769 529.419 82.3708C521.661 84.2332 514.446 88.7693 507.773 92.9168C502.489 96.2074 498.833 101.429 491.777 99.2467C487.795 98.0127 482.208 92.6026 484.402 87.8666C480.946 95.3219 476.735 105.114 467.498 106.868C462.693 107.782 451.147 105.999 447.503 102.44C445.646 100.623 443.761 91.8371 448.828 91.7343C440.527 91.9056 434.403 92.6883 427.736 87.6038C422.652 83.7248 416.573 77.6634 415.693 71.0593C411.334 80.617 410.255 84.3361 398.538 82.5479C395.224 82.0395 378.942 79.8115 377.097 77.0579C381.999 84.3875 390.836 92.3284 380.159 98.504C370.516 104.085 356.474 104.377 346.499 99.9036C336.484 95.4133 332.125 85.1301 340.975 75.9552C328.6 88.7807 319.985 74.1672 308.583 69.4998C300.744 66.2948 296.631 68.8827 289.267 69.5283C287.222 69.7054 270.986 64.2553 272.929 61.4617C269.358 66.5918 270.718 73.5844 266.084 78.1947C261.354 82.9021 251.774 86.3641 245.604 88.5693C237.2 91.58 215.588 86.4669 227.483 74.3156C218.131 83.8733 210.184 79.5887 202.483 71.9506C194.925 64.4553 190.846 62.2044 181.128 60.0849C176.415 59.0566 164.841 53.9321 162.373 49.5674C166.663 57.1541 167.737 61.8444 159.585 64.9123C153.044 67.3688 144.32 69.2598 137.328 67.9116C128.273 66.1634 121.149 60.599 114.385 54.7662C110.174 51.1328 103.913 50.1045 101.034 45.5856C99.7769 43.6147 97.8231 33.8856 100.314 32.2118C89.3966 39.5528 75.6743 37.062 63.7515 41.6551C52.4343 46.0198 41.7683 53.7093 29.5942 55.6688C19.0311 57.3713 10.439 54.572 7.36545 47.151C-2.24932 60.4563 -3.44906 76.418 20.6707 77.5263C47.5898 78.766 70.3956 49.6246 96.9947 68.9113C106.09 75.5039 113.379 87.0668 124.314 90.9858C140.156 96.6587 149.759 85.9699 163.053 80.3884C187.224 70.2367 195.028 91.5343 208.373 105.371C217.776 115.123 234.481 120.607 247.952 118.213C263.251 115.5 273.1 102.16 287.536 97.9499C298.751 94.6821 305.412 98.5725 310.782 108.41C317.295 120.344 319.586 128.565 333.822 133.821C352.994 140.899 367.905 137.266 383.13 125.16C393.807 116.671 404.73 115.62 413.46 128C421.246 139.043 418.355 154.69 432.963 161.523C449.811 169.401 464.018 158.044 474.062 146.081C485.876 132.004 495.216 119.967 515.069 118.236C528.785 117.042 535.047 127.68 547.975 130.639C568.758 135.392 577.173 119.047 593.627 111.032C610.822 102.657 631.052 111.118 649.401 105.645C669.168 99.7494 678.309 86.7012 679.788 72.0419C675.138 75.6868 660.467 80.417 649.618 79.76Z" fill="url(#paint1_linear_1111_16936)"/>
<path d="M660.398 97.876C658.147 98.9728 650.081 102.903 650.024 97.4189C649.995 94.7453 650.686 92.2716 650.167 89.4894C649.327 90.8205 649.618 92.7344 649.309 94.2826C648.841 96.6648 647.967 99.6869 646.093 101.384C643.637 103.612 638.666 103.086 635.57 103.189C631.548 103.326 627.321 102.806 623.356 103.343C621.728 103.566 620.734 103.634 619.328 102.486C618.723 101.989 616.283 99.2013 616.706 98.3558C614.627 102.549 610.999 103.475 606.737 104.074C601.95 104.748 597.265 106.08 592.849 108.028C589.918 109.325 587.216 110.958 584.394 112.449C583.252 113.055 581.966 113.741 580.647 113.118C580.075 112.849 578.658 111.278 578.635 110.656C578.881 118.397 568.701 122.933 562.365 124.481C559.789 125.109 554.459 124.732 555.824 120.505C552.825 129.777 535.76 119.848 530.544 117.825C525.848 116.009 520.987 114.443 515.925 114.118C513.514 113.963 505.705 116.414 504.802 112.484C503.814 115.106 500.775 117.271 498.284 118.322C494.833 119.779 491.663 121.43 488.783 123.847C483.305 128.44 478.797 133.987 473.999 139.231C472.439 140.934 463.207 152.005 461.007 144.756C458.928 155.336 446.577 159.364 437.162 154.993C426.153 149.88 425.131 134.861 418.355 126.178C415.31 122.27 411.465 118.882 406.758 117.094C404.753 116.329 402.445 116.163 400.542 115.157C399.68 114.7 396.075 111.832 396.818 110.519C394.521 114.586 387.209 117.271 383.021 118.739C376.183 121.144 369.636 124.287 362.815 126.737C355.308 130.816 346.733 131.171 338.7 128.428C336.472 127.669 334.456 126.566 332.319 125.629C331.302 125.184 329.463 124.949 328.6 124.309C326.795 122.967 325.618 118.151 327.977 116.694C322.122 120.31 319.454 114.112 317.334 109.759C315.603 106.211 314.266 101.458 311.524 98.4587C309.97 96.762 307.554 94.5797 305.2 94.0884C304.155 93.8713 303.315 94.374 302.384 93.5685C302.104 93.3285 301.024 91.3118 301.715 91.089C300.138 91.5975 298.767 92.7401 296.996 92.9C295.26 93.0543 293.489 92.4373 291.798 92.2659C287.816 91.8603 287.028 90.792 286.742 86.9072C285.382 88.4554 285.125 90.6206 283.605 92.0945C281.983 93.6712 280.012 94.831 277.91 95.2994C274.493 96.065 271.42 94.414 268.792 92.0888C269.363 93.7056 270.603 95.4708 270.317 97.259C270.003 99.2299 268.215 99.7555 266.65 100.63C262.731 102.823 258.92 105.2 255.098 107.548C254.156 108.131 241.125 114.98 244.849 109.382C241.536 111.77 237.725 113.878 233.526 113.341C229.499 112.827 225.403 110.547 222.026 108.445C215.925 104.64 210.618 99.7269 205.739 94.5054C204.671 93.3628 203.688 91.9574 202.494 90.9519C201.563 90.1693 200.517 90.1464 199.832 88.9753C199.078 87.6785 199.083 83.8052 200.249 82.6854C195.633 87.0901 193.502 82.5711 190.28 79.6233C186.715 76.3612 182.882 74.5331 178.534 72.5679C177.643 72.1623 169.519 68.5917 171.17 66.695C170.559 67.3977 170.536 68.706 169.993 69.7114C168.371 72.7393 164.463 73.8419 161.516 75.133C157.979 76.6812 154.654 78.6521 151.341 80.6116C149.764 81.5428 148.622 82.7654 146.776 81.3543C145.811 80.6174 144.931 78.4179 145.291 77.2296C141.92 88.3126 130.009 87.8785 121.982 82.1084C118.292 79.4577 114.859 76.3556 111.311 73.6134C109.66 72.3337 105.707 67.135 108.003 64.8041C103.861 69.0088 99.5766 63.553 95.8346 61.7249C87.4424 57.6173 77.9419 56.6347 68.7271 57.7601C66.3676 58.0515 64.0254 58.4742 61.7117 59.0055C60.1692 59.3597 57.9011 60.5822 56.2958 60.2795C54.1249 59.8681 52.4225 56.0863 53.4565 54.0354C52.9481 55.0351 51.7484 57.1831 50.7372 58.4114C49.6917 59.6796 48.2178 60.4794 47.0409 61.6106C46.184 62.4332 45.647 63.8329 44.8301 64.5356C42.8934 66.2095 39.1971 66.9178 36.7692 67.7062C31.5076 69.4201 25.989 70.8597 20.4189 71.0083C16.1 71.1283 11.5011 70.4484 8.07342 67.6434C5.56547 65.5982 1.30934 59.0513 2.66329 55.6235C-1.60994 66.4437 1.57792 76.6469 20.6875 77.5267C47.6066 78.7664 70.4123 49.625 97.0114 68.9116C106.106 75.5043 113.396 87.0671 124.33 90.9862C140.172 96.6591 149.776 85.9703 163.069 80.3888C187.241 70.237 195.044 91.5346 208.39 105.371C217.793 115.123 234.498 120.607 247.969 118.214C263.268 115.5 273.117 102.161 287.553 97.9502C298.767 94.6825 305.429 98.5729 310.799 108.41C317.311 120.345 319.602 128.565 333.839 133.821C353.011 140.9 367.922 137.266 383.147 125.161C393.824 116.671 404.747 115.62 413.476 128C421.263 139.043 418.372 154.69 432.98 161.523C449.827 169.401 464.035 158.044 474.078 146.081C485.893 132.005 495.233 119.968 515.085 118.237C528.802 117.043 535.063 127.68 547.992 130.639C568.775 135.392 577.19 119.048 593.643 111.033C610.839 102.658 631.068 111.118 649.418 105.645C661.598 102.012 669.733 95.6594 674.532 87.8956C670.247 91.9346 665.494 95.3909 660.398 97.876Z" fill="url(#paint2_linear_1111_16936)"/>
<defs>
<linearGradient id="paint0_linear_1111_16936" x1="338.207" y1="102.263" x2="343.146" y2="24.4549" gradientUnits="userSpaceOnUse">
<stop stop-color="white"/>
<stop offset="0.2973" stop-color="#E1EFFA"/>
</linearGradient>
<linearGradient id="paint1_linear_1111_16936" x1="333.926" y1="145.932" x2="340.938" y2="60.7095" gradientUnits="userSpaceOnUse">
<stop stop-color="white"/>
<stop offset="0.6703" stop-color="#BED9EC"/>
<stop offset="1" stop-color="#A5CAE5"/>
</linearGradient>
<linearGradient id="paint2_linear_1111_16936" x1="331.957" y1="145.916" x2="338.859" y2="62.034" gradientUnits="userSpaceOnUse">
<stop stop-color="#A5CAE5"/>
<stop offset="0.3297" stop-color="#BED9EC"/>
<stop offset="1" stop-color="white"/>
</linearGradient>
</defs>
</svg>
