<svg width="485" height="165" viewBox="0 0 485 165" fill="none" xmlns="http://www.w3.org/2000/svg">
<path d="M24.6286 37.5539C44.4923 37.274 62.7735 49.0995 83.3227 48.8424C98.7304 48.6482 109.762 40.5988 123.022 32.9207C151.974 16.1534 170.501 -0.973848 206.395 0.282985C242.409 1.54553 259.262 30.2528 292.717 38.805C313.117 44.0265 336.02 43.2095 357.055 45.8146C376.119 48.1797 395.109 51.7504 414.133 54.5726C435.036 57.6747 514.508 72.7166 471.638 102.452C439.635 124.647 409.534 100.253 374.834 101.355C351.857 102.087 359.912 115.803 352.148 128.531C339.899 148.618 314.22 132.148 304.514 121.139C291.374 106.24 271.334 92.7574 250.476 101.744C240.758 105.931 236.136 114.689 229.327 122.27C221.117 131.416 211.605 137.838 201.813 145.024C178.733 161.957 150.369 175.091 125.107 151.731C107.837 135.752 104.415 107.645 85.0195 94.0885C63.4305 79.0008 44.4238 94.7969 22.5034 87.8043C4.90779 82.1885 -5.22115 67.535 4.85637 50.2478C11.2662 39.2562 18.9443 42.6955 24.6286 37.5539Z" fill="url(#paint0_linear_1111_16934)"/>
<path d="M16.7616 77.7323C19.1496 79.5604 31.5694 88.027 34.6086 86.7588C38.6362 85.0792 36.8424 75.4473 32.9633 74.8131C38.7962 75.7672 42.5153 80.743 47.8454 82.7253C53.3583 84.7763 57.82 83.5937 63.4986 82.7311C70.1998 81.7142 75.1758 83.8166 81.5285 83.6281C88.761 83.4167 95.1023 78.5378 101.666 76.007C93.9311 82.1598 98.9128 85.7819 103.42 89.958C109.082 95.2138 114.503 100.024 115.977 108.239C116.817 112.918 115.046 117.871 116.08 122.55C119.925 139.917 128.237 126.006 136.246 121.51C134.247 146.59 163.217 143.933 178.893 138.026C182.475 136.678 189.091 136.124 191.467 133.29C194.004 130.274 191.861 124.549 192.912 120.99C194.329 116.186 200.676 108.936 202.83 106.2C202.539 113.632 202.396 120.191 203.693 127.166C216.375 125.926 222.122 115.866 225.961 104.143C231.24 88.027 208.177 88.7696 209.605 75.7099C216.444 75.1958 221.048 78.5321 227.138 80.0004C235.65 82.0513 244.42 80.1889 252.858 79.5776C260.581 79.0177 267.791 80.4403 275.464 81.1829C283.233 81.9313 294.07 79.292 298.212 88.3298C298.583 88.3583 300.235 88.4327 300.509 88.5583C297.641 89.0097 287.62 91.5117 291.06 98.2872C293.196 102.423 301.571 103.754 305.365 105.628C311.815 108.816 318.162 113.181 323.263 118.397C328.085 123.333 333.249 128.434 339.345 121.716C345.498 114.935 335.86 101.721 332.724 95.2195C337.871 92.0831 344.378 91.7288 350.222 91.3689C357.158 90.9405 358.871 89.4437 365.15 86.9357C373.285 83.6908 385.151 83.0224 393.029 86.5473C401.021 90.1236 406.026 98.0588 415.932 95.9165C424.661 94.0312 431.454 86.4844 440.697 85.0448C437.321 90.135 433.853 97.6303 439.32 102.063C446.798 108.136 477.197 92.2316 484.029 87.2556C483.395 91.8145 479.659 96.8648 471.627 102.435C439.623 124.629 409.522 100.235 374.822 101.338C351.845 102.069 359.9 115.786 352.136 128.514C339.888 148.601 314.208 132.13 304.502 121.122C291.362 106.222 271.322 92.7401 250.464 101.726C240.746 105.914 236.125 114.672 229.315 122.253C221.105 131.399 211.594 137.82 201.802 145.007C178.722 161.94 150.357 175.074 125.095 151.714C107.825 135.735 104.403 107.628 85.0076 94.0712C63.4187 78.9835 44.4119 94.7739 22.4916 87.787C8.1066 83.1996 -1.27396 72.5679 1.28541 59.394C5.42153 66.6722 10.7059 73.0878 16.7616 77.7323Z" fill="url(#paint1_linear_1111_16934)"/>
<path d="M414.628 73.088C395.439 77.6697 382.83 78.1496 363.172 73.905C353.255 71.7626 343.754 68.3063 334.448 74.4191C332.431 75.7445 331.157 78.1838 329.209 79.452C315.436 88.4384 308.683 93.1572 294.983 82.9197C285.22 75.6187 278.068 65.1185 267.996 58.2116C248.606 44.9121 224.772 48.9568 206.879 62.702C187.958 77.2356 173.093 130.411 143.889 121.939C119.638 114.906 118.233 78.7894 92.8847 70.2544C79.8993 65.884 66.4112 70.203 53.1916 69.7631C35.4189 69.169 31.8083 55.3551 17.5947 50.7163C13.1158 49.2538 8.91684 49.0711 5.11206 49.848C11.4705 39.3706 19.0172 42.6269 24.6273 37.5539C44.4909 37.274 62.7721 49.0995 83.3213 48.8424C98.729 48.6482 109.761 40.5988 123.02 32.9207C151.973 16.1534 170.5 -0.973848 206.394 0.282985C242.408 1.54553 259.261 30.2528 292.715 38.805C313.116 44.0265 336.019 43.2095 357.054 45.8146C376.118 48.174 395.107 51.7504 414.131 54.5726C430.916 57.0634 485.388 67.255 484.057 86.5645C462.342 74.8589 440.765 66.8495 414.628 73.088Z" fill="white"/>
<defs>
<linearGradient id="paint0_linear_1111_16934" x1="483.791" y1="94.5516" x2="0.383451" y2="75.0547" gradientUnits="userSpaceOnUse">
<stop stop-color="white"/>
<stop offset="0.4846" stop-color="#E1EFFA"/>
</linearGradient>
<linearGradient id="paint1_linear_1111_16934" x1="258.584" y1="184.939" x2="244.876" y2="92.5748" gradientUnits="userSpaceOnUse">
<stop stop-color="white"/>
<stop offset="0.6703" stop-color="#BED9EC"/>
<stop offset="1" stop-color="#A5CAE5"/>
</linearGradient>
</defs>
</svg>
