<svg width="183" height="154" viewBox="0 0 183 154" fill="none" xmlns="http://www.w3.org/2000/svg">
<path d="M27.9738 16.0758C41.7704 16.4471 47.192 19.115 60.5658 12.2367C71.0775 6.83235 81.2349 1.1937 93.3005 0.890919C104.126 0.616701 112.65 7.60929 123.053 7.18654C132.308 6.80949 139.535 -0.37731 149.315 1.15374C167.779 4.04446 182.176 25.4735 175.657 42.3665C172.195 51.3357 165.763 54.9291 168.391 66.2862C170.607 75.8725 177.463 84.7275 179.388 94.9421C182.027 108.91 186.746 144.364 170.744 150.905C144.859 161.491 148.15 129.819 148.23 116.64C148.338 97.9413 123.47 96.8787 116.815 77.6549C113.387 67.7602 115.221 59.0138 104.315 55.0205C95.5171 51.8041 83.0002 56.8771 74.568 57.8369C57.5494 59.7678 49.4599 52.0269 35.5033 44.9829C25.62 39.9956 13.9429 49.519 5.75634 44.783C-3.50423 39.4243 1.87735 21.9315 9.48118 17.6697C19.9415 11.814 33.5495 19.0408 27.9738 16.0758Z" fill="url(#paint0_linear_1111_16939)"/>
<path d="M158.398 137.149C158.089 133.412 157.752 126.271 159.82 123.021C160.483 121.975 167.321 116.988 168.281 117.388C164.904 115.982 157.826 115.554 156.404 111.452C154.747 106.682 160.997 101.877 157.946 95.6845C153.753 87.178 145.881 94.5419 140.596 89.0347C136.9 85.1728 140.848 83.2133 139.825 78.883C139.048 75.6152 135.066 73.8671 134.203 70.8107C133.301 67.6001 134.946 63.0925 135.466 60.1047C133.615 62.4984 129.576 67.8171 125.834 66.0004C121.178 63.7438 126.862 61.7786 126.754 58.3337C126.508 51.1298 118.459 54.0547 114.18 50.7184C109.255 46.8794 113.346 40.9438 118.287 39.9669C108.284 39.6812 101.103 41.5893 91.2769 44.1544C82.8275 46.3539 82.6562 43.6174 77.7489 37.3961C79.697 39.8698 79.2513 47.2165 77.0747 50.8956C73.7441 56.5227 69.2938 54.9003 63.2725 53.7692C46.4595 50.6099 59.5534 39.3213 67.1629 34.014C60.8445 36.6648 53.6691 38.79 46.8136 37.7959C38.0786 36.522 32.1202 34.551 23.2595 37.9387C20.6773 38.9271 19.386 41.9663 17.0837 39.2356C15.05 36.8247 17.7522 31.3804 19.9974 30.1464C17.1067 33.0885 12.5936 35.5908 8.43458 33.9455C6.20085 33.0657 1.72195 28.4896 2.96736 25.7018C-0.0718922 32.5058 -0.334821 41.258 5.7551 44.7828C13.9417 49.5188 25.6245 39.9954 35.5021 44.9827C49.4586 52.0267 57.5481 59.7676 74.5668 57.8367C82.9933 56.8826 95.5159 51.8039 104.314 55.0203C115.22 59.0136 113.386 67.76 116.813 77.6547C123.469 96.8785 148.337 97.9354 148.229 116.639C148.149 129.819 144.858 161.491 170.743 150.905C174.291 149.454 176.816 146.58 178.575 142.839C171.16 145.501 159.295 148.043 158.398 137.149Z" fill="url(#paint1_linear_1111_16939)"/>
<path d="M24.4557 22.0286C32.0252 25.4049 35.0873 33.0659 44.6449 32.9973C55.7279 32.9231 61.955 24.2052 71.0728 19.5264C81.813 14.0192 89.1654 17.1212 97.5119 24.7308C104.333 30.9521 109.703 32.8316 118.844 28.6327C121.923 27.2159 124.505 24.8108 127.55 23.2969C130.641 21.7658 133.577 20.7603 136.988 21.7372C145.826 24.2566 149.311 34.8712 146.368 42.7492C144.426 47.9537 139.684 52.7981 138.793 58.3568C137.034 69.3084 147.728 69.2913 154.772 72.6333C158.92 74.5985 161.993 77.8834 163.41 82.288C165.804 89.709 159.994 98.7126 167.141 104.843C170.294 107.545 173.459 106.836 175.744 111.344C178.023 115.845 178.766 122.45 179.817 127.357C180.903 132.396 180.292 137.76 178.481 143.05C184.793 129.956 181.457 105.877 179.389 94.9421C177.458 84.7275 170.602 75.8725 168.386 66.2862C165.758 54.9291 172.191 51.3357 175.653 42.3665C182.171 25.4735 167.775 4.04446 149.311 1.15374C139.53 -0.37731 132.303 6.80949 123.048 7.18654C112.645 7.60929 104.122 0.616701 93.2958 0.890919C81.2302 1.19941 71.0671 6.83235 60.5611 12.2367C47.1872 19.115 41.7656 16.4471 27.969 16.0758C33.5448 19.0408 19.9368 11.814 9.4822 17.6697C6.60291 19.2807 4.04921 22.7884 2.48389 26.816C9.17938 22.0343 17.2517 18.8123 24.4557 22.0286Z" fill="white"/>
<defs>
<linearGradient id="paint0_linear_1111_16939" x1="0.901761" y1="77.0658" x2="182.101" y2="76.9088" gradientUnits="userSpaceOnUse">
<stop stop-color="white"/>
<stop offset="0.4846" stop-color="#E1EFFA"/>
</linearGradient>
<linearGradient id="paint1_linear_1111_16939" x1="56.3207" y1="146.052" x2="116.137" y2="40.107" gradientUnits="userSpaceOnUse">
<stop stop-color="white"/>
<stop offset="0.6703" stop-color="#BED9EC"/>
<stop offset="1" stop-color="#A5CAE5"/>
</linearGradient>
</defs>
</svg>
