<svg xmlns="http://www.w3.org/2000/svg" width="309" height="34" viewBox="0 0 309 34" fill="none">
    <path
        d="M0.181885 17.2011C0.181885 13.9831 0.82549 11.1175 2.1127 8.60437C3.43056 6.09125 5.30008 4.14511 7.72126 2.76595C10.1424 1.35615 12.9927 0.651247 16.272 0.651247C19.0916 0.651247 21.6048 1.18759 23.8114 2.26026C26.0487 3.30229 27.8569 4.78871 29.2361 6.71953C30.6459 8.65035 31.5806 10.903 32.0404 13.4774H21.283C20.7926 12.4047 20.0877 11.5772 19.1682 10.9949C18.2795 10.382 17.2528 10.0755 16.0881 10.0755C14.3719 10.0755 13.008 10.7191 11.9966 12.0063C11.0159 13.2935 10.5255 15.0251 10.5255 17.2011C10.5255 19.3771 11.0159 21.1087 11.9966 22.3959C13.008 23.6831 14.3719 24.3267 16.0881 24.3267C17.2528 24.3267 18.2795 24.0356 19.1682 23.4533C20.0877 22.8403 20.7926 21.9975 21.283 20.9248H32.0404C31.5806 23.4992 30.6459 25.7519 29.2361 27.6827C27.8569 29.6135 26.0487 31.1152 23.8114 32.1879C21.6048 33.23 19.0916 33.751 16.272 33.751C12.9927 33.751 10.1424 33.0614 7.72126 31.6822C5.30008 30.2724 3.43056 28.311 2.1127 25.7978C0.82549 23.2847 0.181885 20.4191 0.181885 17.2011ZM45.9206 25.7978H55.7585V33.5211H35.7149V0.97305H45.9206V25.7978ZM79.8415 28.6021H68.9921L67.3831 33.5211H56.6717L68.5784 0.97305H80.3472L92.2079 33.5211H81.4505L79.8415 28.6021ZM77.359 20.9248L74.4168 11.8684L71.4746 20.9248H77.359ZM107.261 33.8429C103.369 33.8429 100.15 32.9388 97.6067 31.1306C95.0936 29.2917 93.7298 26.61 93.5152 23.0855H104.365C104.518 24.955 105.345 25.8898 106.847 25.8898C107.399 25.8898 107.858 25.7672 108.226 25.522C108.625 25.2462 108.824 24.8324 108.824 24.2808C108.824 23.5146 108.41 22.9016 107.583 22.4419C106.755 21.9515 105.468 21.3999 103.721 20.7869C101.637 20.0514 99.9053 19.3311 98.5262 18.6262C97.1777 17.9213 96.013 16.8946 95.0323 15.5461C94.0516 14.1976 93.5765 12.466 93.6072 10.3513C93.6072 8.2366 94.1435 6.4437 95.2162 4.9726C96.3195 3.47085 97.8059 2.33688 99.6754 1.57068C101.576 0.804487 103.706 0.421387 106.066 0.421387C110.05 0.421387 113.206 1.34082 115.536 3.1797C117.896 5.01857 119.137 7.60832 119.259 10.9489H108.272C108.242 10.0295 108.012 9.37057 107.583 8.97215C107.154 8.57373 106.633 8.37452 106.02 8.37452C105.59 8.37452 105.238 8.52775 104.962 8.83423C104.686 9.11006 104.548 9.50849 104.548 10.0295C104.548 10.765 104.947 11.378 105.744 11.8684C106.571 12.3281 107.874 12.8951 109.651 13.5693C111.705 14.3355 113.39 15.0711 114.708 15.776C116.057 16.4809 117.221 17.4616 118.202 18.7182C119.183 19.9747 119.673 21.5531 119.673 23.4533C119.673 25.4454 119.183 27.2383 118.202 28.832C117.221 30.395 115.796 31.6209 113.927 32.5097C112.057 33.3985 109.835 33.8429 107.261 33.8429ZM135.993 33.8429C132.101 33.8429 128.883 32.9388 126.339 31.1306C123.826 29.2917 122.462 26.61 122.248 23.0855H133.097C133.25 24.955 134.078 25.8898 135.579 25.8898C136.131 25.8898 136.591 25.7672 136.959 25.522C137.357 25.2462 137.556 24.8324 137.556 24.2808C137.556 23.5146 137.142 22.9016 136.315 22.4419C135.488 21.9515 134.2 21.3999 132.453 20.7869C130.369 20.0514 128.638 19.3311 127.259 18.6262C125.91 17.9213 124.745 16.8946 123.765 15.5461C122.784 14.1976 122.309 12.466 122.34 10.3513C122.34 8.2366 122.876 6.4437 123.949 4.9726C125.052 3.47085 126.538 2.33688 128.408 1.57068C130.308 0.804487 132.438 0.421387 134.798 0.421387C138.782 0.421387 141.939 1.34082 144.268 3.1797C146.628 5.01857 147.869 7.60832 147.992 10.9489H137.005C136.974 10.0295 136.744 9.37057 136.315 8.97215C135.886 8.57373 135.365 8.37452 134.752 8.37452C134.323 8.37452 133.97 8.52775 133.695 8.83423C133.419 9.11006 133.281 9.50849 133.281 10.0295C133.281 10.765 133.679 11.378 134.476 11.8684C135.304 12.3281 136.606 12.8951 138.384 13.5693C140.437 14.3355 142.123 15.0711 143.441 15.776C144.789 16.4809 145.954 17.4616 146.934 18.7182C147.915 19.9747 148.406 21.5531 148.406 23.4533C148.406 25.4454 147.915 27.2383 146.934 28.832C145.954 30.395 144.529 31.6209 142.659 32.5097C140.79 33.3985 138.568 33.8429 135.993 33.8429ZM162.197 9.11006V13.1096H172.311V20.7869H162.197V25.3841H173.69V33.5211H151.991V0.97305H173.69V9.11006H162.197ZM216.658 0.97305V33.5211H206.499V17.293L201.488 33.5211H192.753L187.742 17.293V33.5211H177.536V0.97305H190.041L197.212 20.5111L204.2 0.97305H216.658ZM231.469 9.11006V13.1096H241.583V20.7869H231.469V25.3841H242.962V33.5211H221.263V0.97305H242.962V9.11006H231.469ZM278.023 33.5211H267.817L257.014 17.1551V33.5211H246.808V0.97305H257.014L267.817 17.6149V0.97305H278.023V33.5211ZM308.194 0.97305V9.06409H299.551V33.5211H289.346V9.06409H280.795V0.97305H308.194Z"
        fill="url(#paint0_linear_396_1433)" />
    <defs>
        <linearGradient id="paint0_linear_396_1433" x1="154.274" y1="-0.478893" x2="154.274" y2="36.3943"
            gradientUnits="userSpaceOnUse">
            <stop stop-color="#A6F4FF" />
            <stop offset="1" stop-color="#2373BD" />
        </linearGradient>
    </defs>
</svg>
