<svg width="512" height="512" viewBox="0 0 512 512" fill="none" xmlns="http://www.w3.org/2000/svg">
<g clip-path="url(#clip0_888_308)">
<path d="M440.923 212.747C493.622 165.317 418.202 40.8114 298 212.746C418.188 384.664 493.652 260.203 440.923 212.747Z" fill="url(#paint0_linear_888_308)"/>
<path d="M241.175 287.299C216.176 350.221 169.384 401.394 108.831 405.615C82.3593 407.459 79.5874 367.458 106.042 365.615C111.032 365.267 171.785 375.034 225.387 280.282C231.149 270.102 245.02 277.654 241.175 287.299Z" fill="url(#paint1_linear_888_308)"/>
<path d="M298.001 69.8231C250.572 17.1238 126.066 92.5446 298 212.746C469.918 92.5587 345.457 17.0934 298.001 69.8231Z" fill="url(#paint2_linear_888_308)"/>
<path d="M155.078 212.745C102.377 260.176 177.799 384.68 298 212.746C177.812 40.8283 102.348 165.289 155.077 212.746L155.078 212.745Z" fill="url(#paint3_linear_888_308)"/>
<path d="M298 355.667C345.429 408.369 469.934 332.947 298 212.746C126.083 332.933 250.544 408.398 298 355.667Z" fill="url(#paint4_linear_888_308)"/>
</g>
<defs>
<linearGradient id="paint0_linear_888_308" x1="298.637" y1="216.353" x2="454.2" y2="216.353" gradientUnits="userSpaceOnUse">
<stop stop-color="#8BF359"/>
<stop offset="1" stop-color="#5EBC31"/>
</linearGradient>
<linearGradient id="paint1_linear_888_308" x1="101.845" y1="408.741" x2="235.91" y2="274.677" gradientUnits="userSpaceOnUse">
<stop stop-color="#58A336"/>
<stop offset="0.995" stop-color="#97DF75"/>
</linearGradient>
<linearGradient id="paint2_linear_888_308" x1="298.636" y1="214.938" x2="293.684" y2="49.475" gradientUnits="userSpaceOnUse">
<stop offset="0.005" stop-color="#B4F993"/>
<stop offset="1" stop-color="#93F95E"/>
</linearGradient>
<linearGradient id="paint3_linear_888_308" x1="297.929" y1="213.524" x2="122.213" y2="216.706" gradientUnits="userSpaceOnUse">
<stop stop-color="#8BF359"/>
<stop offset="0.995" stop-color="#5EBC31"/>
</linearGradient>
<linearGradient id="paint4_linear_888_308" x1="298.99" y1="212.463" x2="294.393" y2="391.715" gradientUnits="userSpaceOnUse">
<stop offset="0.005" stop-color="#B4F993"/>
<stop offset="1" stop-color="#93F95E"/>
</linearGradient>
<clipPath id="clip0_888_308">
<rect width="512" height="512" fill="white"/>
</clipPath>
</defs>
</svg>
