<svg width="549" height="549" viewBox="0 0 549 549" fill="none" xmlns="http://www.w3.org/2000/svg">
<path d="M274.636 345.275C161.382 345.275 141.319 232.402 137.765 142.878C136.776 117.976 136.282 105.525 145.636 94.0046C154.989 82.4845 166.185 80.5955 188.575 76.8178C210.677 73.0888 239.568 70 274.636 70C309.706 70 338.598 73.0888 360.699 76.8178C383.089 80.5955 394.284 82.4845 403.638 94.0046C412.991 105.525 412.498 117.976 411.509 142.878C407.956 232.402 387.892 345.275 274.636 345.275Z" fill="url(#paint0_linear_911_333)"/>
<path d="M385.529 274.922L440.909 244.154C455.703 235.935 463.1 231.826 467.174 224.903C471.248 217.979 471.248 209.517 471.248 192.593V191.167C471.25 170.647 471.25 160.387 465.681 152.663C460.115 144.938 450.382 141.694 430.914 135.205L412.262 128.987L411.93 130.652C411.838 134.373 411.676 138.426 411.499 142.878C409.763 186.615 404.087 235.926 385.529 274.922ZM137.756 142.878C139.492 186.617 145.169 235.93 163.73 274.928L108.34 244.154C93.5458 235.935 86.1485 231.826 82.0747 224.903C78.0008 217.979 78.0006 209.517 78 192.593V191.167C77.9994 170.647 77.9992 160.387 83.5665 152.663C89.1337 144.938 98.867 141.694 118.334 135.205L136.986 128.987L137.327 130.692C137.419 134.403 137.58 138.443 137.756 142.878Z" fill="url(#paint1_linear_911_333)"/>
<path fill-rule="evenodd" clip-rule="evenodd" d="M141.903 463.25C141.903 455.106 148.506 448.503 156.65 448.503H392.6C400.744 448.503 407.347 455.106 407.347 463.25C407.347 471.394 400.744 477.997 392.6 477.997H156.65C148.506 477.997 141.903 471.394 141.903 463.25Z" fill="#7A4717"/>
<path d="M342.602 448.503H206.632L212.468 414.097C214.306 404.905 222.376 398.291 231.749 398.291H317.485C326.858 398.291 334.928 404.905 336.766 414.097L342.602 448.503Z" fill="url(#paint2_linear_911_333)"/>
<path d="M274.629 345.279C269.524 345.279 264.611 345.049 259.878 344.603V398.291H289.372V344.603C284.641 345.049 279.729 345.279 274.629 345.279Z" fill="#7A4717"/>
<defs>
<linearGradient id="paint0_linear_911_333" x1="170.618" y1="82.6785" x2="327.917" y2="345.275" gradientUnits="userSpaceOnUse">
<stop stop-color="#FFCE20"/>
<stop offset="1" stop-color="#B75A18"/>
</linearGradient>
<linearGradient id="paint1_linear_911_333" x1="274.624" y1="128.987" x2="274.624" y2="274.928" gradientUnits="userSpaceOnUse">
<stop stop-color="#FFB039"/>
<stop offset="1" stop-color="#793610"/>
</linearGradient>
<linearGradient id="paint2_linear_911_333" x1="220.902" y1="398.568" x2="329.207" y2="448.422" gradientUnits="userSpaceOnUse">
<stop stop-color="#FFCE20"/>
<stop offset="1" stop-color="#B75A18"/>
</linearGradient>
</defs>
</svg>
