<svg width="128" height="128" viewBox="0 0 128 128" fill="none" xmlns="http://www.w3.org/2000/svg">
<path d="M79.5363 53.3897C82.1573 51.6406 83.7329 48.6977 83.7329 45.5466V30.5627H43.6763V45.5466C43.6763 48.6977 45.2518 51.6406 47.8729 53.3897L60.3158 62.5266C60.7671 62.8577 61.0341 63.3838 61.0341 63.9433C61.0341 64.5027 60.7671 65.0288 60.3171 65.36L47.8742 74.4969C45.2518 76.246 43.6763 79.1888 43.6763 82.34V97.3238H83.7329V82.34C83.7329 79.1888 82.1573 76.246 79.5363 74.4969L67.0934 65.36C66.6421 65.0288 66.375 64.5027 66.375 63.9433C66.375 63.3838 66.6421 62.8577 67.092 62.5266L79.5363 53.3897Z" fill="url(#paint0_linear_796_1687)"/>
<path d="M87.0708 97.324H40.3381C38.4945 97.324 37 98.8185 37 100.662C37 102.506 38.4945 104 40.3381 104H87.0708C88.9144 104 90.4089 102.506 90.4089 100.662C90.4089 98.8185 88.9144 97.324 87.0708 97.324Z" fill="url(#paint1_linear_796_1687)"/>
<path d="M87.0708 23.8867H40.3381C38.4945 23.8867 37 25.3812 37 27.2248C37 29.0683 38.4945 30.5628 40.3381 30.5628H87.0708C88.9144 30.5628 90.4089 29.0683 90.4089 27.2248C90.4089 25.3812 88.9144 23.8867 87.0708 23.8867Z" fill="url(#paint2_linear_796_1687)"/>
<path d="M77.3131 50.057C78.8246 49.0489 79.7272 47.3625 79.7272 45.548C79.7272 43.8042 78.5402 42.2834 76.8485 41.8601L56.7494 36.8357C52.1442 35.6834 47.6819 39.167 47.6819 43.915V45.548C47.6819 47.3625 48.5845 49.0489 50.096 50.057L62.3693 59.0644V80.2637C62.3693 85.1106 57.3435 88.3231 52.9453 86.2869C50.5766 85.1907 47.7086 86.813 47.6832 89.4233C47.6832 89.442 47.6832 89.4594 47.6832 89.4781V97.3239H79.7285V82.3387C79.7285 82.32 79.7285 82.3026 79.7285 82.2839C79.7032 79.7056 77.2063 77.8483 74.6667 78.2903L71.9308 78.7669C68.3324 79.3932 65.0398 76.6239 65.0398 72.9734V59.0644L77.3131 50.057Z" fill="url(#paint3_linear_796_1687)"/>
<defs>
<linearGradient id="paint0_linear_796_1687" x1="63.7046" y1="30.5627" x2="63.7046" y2="97.3238" gradientUnits="userSpaceOnUse">
<stop stop-color="white"/>
<stop offset="1" stop-color="#C5F0F0"/>
</linearGradient>
<linearGradient id="paint1_linear_796_1687" x1="37" y1="99.9944" x2="90.4089" y2="99.9944" gradientUnits="userSpaceOnUse">
<stop stop-color="#8A5336"/>
<stop offset="1" stop-color="#492B1B"/>
</linearGradient>
<linearGradient id="paint2_linear_796_1687" x1="37" y1="26.5572" x2="90.4089" y2="26.5572" gradientUnits="userSpaceOnUse">
<stop stop-color="#8A5336"/>
<stop offset="1" stop-color="#492B1B"/>
</linearGradient>
<linearGradient id="paint3_linear_796_1687" x1="63.7052" y1="36.6139" x2="63.7052" y2="97.3239" gradientUnits="userSpaceOnUse">
<stop stop-color="#FFCA18"/>
<stop offset="1" stop-color="#E66D15"/>
</linearGradient>
</defs>
</svg>
