<svg width="128" height="128" viewBox="0 0 128 128" fill="none" xmlns="http://www.w3.org/2000/svg">
<g clip-path="url(#clip0_796_1627)">
<g filter="url(#filter0_d_796_1627)">
<path d="M49.7819 62.192L8.01704 58.9441C6.7356 58.8445 5.61599 59.8025 5.51634 61.0839L4.25325 77.3258C4.1536 78.6073 5.11163 79.7269 6.39308 79.8265L48.1579 83.0744C49.4393 83.1741 50.5589 82.2161 50.6586 80.9346L51.9217 64.6928C52.0213 63.4113 51.0633 62.2917 49.7819 62.192Z" fill="url(#paint0_linear_796_1627)"/>
<path d="M27.5723 68.028L24.1172 74.7855L22.087 74.6277L25.5597 68.0932L21.9517 67.8127L22.0834 66.1189L27.6868 66.5546L27.5723 68.028ZM28.3738 69.0007C28.4691 68.1756 28.7894 67.5585 29.3348 67.1496C29.8801 66.7407 30.5897 66.5703 31.4637 66.6383C32.0438 66.6834 32.531 66.8224 32.9252 67.0554C33.3273 67.2889 33.6192 67.5879 33.8009 67.9521C33.9904 68.3171 34.0683 68.716 34.0346 69.1492C33.9949 69.6596 33.8348 70.0673 33.5543 70.3723C33.2744 70.6696 32.9598 70.863 32.6105 70.9525L32.6069 70.999C33.0363 71.1802 33.3654 71.4509 33.5942 71.811C33.823 72.1712 33.9166 72.6181 33.8751 73.1517C33.8378 73.6313 33.6926 74.0479 33.4394 74.4017C33.1945 74.7484 32.8513 75.0096 32.4097 75.1854C31.9758 75.3617 31.4689 75.4273 30.8888 75.3822C29.9607 75.31 29.2359 75.0241 28.7145 74.5245C28.2009 74.0255 27.9644 73.3146 28.0051 72.3918L29.9309 72.5415C29.9122 72.8825 29.9878 73.1607 30.1577 73.3762C30.3283 73.584 30.5915 73.7017 30.9473 73.7294C31.2489 73.7529 31.4875 73.6858 31.6632 73.5283C31.8472 73.3636 31.9503 73.1382 31.9725 72.852C32.0015 72.4808 31.9023 72.2047 31.6752 72.0236C31.4564 71.8354 31.0879 71.7212 30.5697 71.6808L30.1985 71.652L30.3238 70.0394L30.6951 70.0683C31.0896 70.0989 31.4118 70.0579 31.6617 69.9451C31.9201 69.8251 32.0628 69.5911 32.0898 69.243C32.1115 68.9646 32.051 68.742 31.9083 68.5753C31.7657 68.4086 31.559 68.3147 31.2883 68.2937C30.9944 68.2708 30.7671 68.3426 30.6063 68.5091C30.4532 68.6761 30.3549 68.8902 30.3112 69.1514L28.3738 69.0007Z" fill="white"/>
<path d="M49.7367 62.7721L7.97189 59.5241C7.0108 59.4494 6.1711 60.1679 6.09636 61.129L4.83328 77.3709C4.75853 78.3319 5.47706 79.1717 6.43815 79.2464L48.203 82.4943C49.164 82.5691 50.0037 81.8505 50.0785 80.8895L51.3416 64.6476C51.4163 63.6865 50.6978 62.8468 49.7367 62.7721Z" stroke="#FDFDFD" stroke-opacity="0.25" stroke-width="2"/>
</g>
<g filter="url(#filter1_d_796_1627)">
<path d="M105.489 75.5428L64.5301 84.332C63.2734 84.6017 62.4733 85.8391 62.7429 87.0958L66.1609 103.024C66.4306 104.281 67.668 105.081 68.9247 104.811L109.883 96.0221C111.14 95.7524 111.94 94.515 111.67 93.2583L108.252 77.33C107.983 76.0733 106.745 75.2732 105.489 75.5428Z" fill="url(#paint1_linear_796_1627)"/>
<path d="M83.6643 88.8663C83.5206 88.0483 83.6515 87.3658 84.0582 86.8183C84.4643 86.2708 85.0956 85.9054 85.9532 85.721C86.5216 85.5994 87.0284 85.5936 87.4729 85.7047C87.9244 85.8141 88.2897 86.0171 88.5679 86.3144C88.8529 86.6106 89.0415 86.9707 89.1328 87.3955C89.2399 87.8958 89.2026 88.3322 89.0211 88.7045C88.8372 89.0693 88.5911 89.3445 88.2816 89.5296L88.2915 89.5755C88.7546 89.6267 89.1473 89.7925 89.4691 90.0724C89.7908 90.3523 90.0084 90.7543 90.1207 91.2773C90.2214 91.7475 90.201 92.1885 90.0591 92.5998C89.9235 93.0019 89.6687 93.3498 89.2957 93.6442C88.9297 93.9368 88.4625 94.1445 87.8935 94.2661C86.9836 94.4616 86.2074 94.3941 85.5651 94.0637C84.9309 93.732 84.5015 93.1182 84.2775 92.2216L86.1661 91.8167C86.2452 92.1489 86.3971 92.3939 86.6211 92.5521C86.8439 92.7022 87.1296 92.7406 87.4787 92.6656C87.7743 92.6021 87.9843 92.4695 88.1076 92.2688C88.2374 92.0581 88.2717 91.8132 88.2112 91.5322C88.1332 91.1685 87.9599 90.9317 87.6905 90.8229C87.4269 90.7048 87.0412 90.7002 86.5332 90.8096L86.169 90.8875L85.8298 89.3061L86.1935 89.2282C86.5804 89.145 86.8777 89.0141 87.0848 88.8343C87.2983 88.6458 87.3687 88.3811 87.2954 88.0395C87.2367 87.7667 87.1151 87.5706 86.9312 87.4513C86.7468 87.332 86.5222 87.3012 86.2563 87.3582C85.9683 87.4199 85.7711 87.5537 85.664 87.7591C85.5651 87.9627 85.5319 88.196 85.5645 88.4584L83.6643 88.8663Z" fill="white"/>
<path d="M105.611 76.1118L64.6524 84.901C63.7099 85.1033 63.1098 86.0313 63.312 86.9738L66.73 102.902C66.9323 103.845 67.8603 104.445 68.8029 104.243L109.761 95.4533C110.704 95.2511 111.304 94.323 111.102 93.3805L107.684 77.4522C107.481 76.5097 106.553 75.9095 105.611 76.1118Z" stroke="#FDFDFD" stroke-opacity="0.25" stroke-width="2"/>
</g>
<g filter="url(#filter2_d_796_1627)">
<path d="M56.9495 32.2578L17.8798 47.371C16.681 47.8347 16.0851 49.1824 16.5488 50.3811L22.4262 65.5749C22.8899 66.7736 24.2376 67.3695 25.4363 66.9058L64.506 51.7927C65.7048 51.329 66.3007 49.9813 65.837 48.7825L59.9596 33.5887C59.4959 32.39 58.1482 31.7941 56.9495 32.2578Z" fill="url(#paint2_linear_796_1627)"/>
<path d="M35.9986 54.2486C36.169 53.9581 36.2462 53.8243 36.2301 53.8471C36.7124 52.9868 37.0834 52.2902 37.343 51.7573C37.6099 51.2215 37.8046 50.6928 37.9273 50.1713C38.0499 49.6497 38.0357 49.1936 37.8845 48.8029C37.7698 48.5063 37.6115 48.3013 37.4096 48.1881C37.2078 48.0749 36.9694 48.0714 36.6945 48.1778C36.4196 48.2842 36.2431 48.473 36.1651 48.7444C36.0915 49.0057 36.1275 49.3246 36.2731 49.7008L34.4823 50.3935C34.2589 49.7728 34.1904 49.2088 34.2769 48.7013C34.3706 48.1909 34.5822 47.7596 34.9118 47.4076C35.2487 47.0527 35.6668 46.7787 36.166 46.5856C37.0269 46.2526 37.7598 46.2227 38.3646 46.4962C38.9767 46.7668 39.4199 47.2566 39.6942 47.9657C39.9936 48.7398 40.008 49.5619 39.7374 50.4318C39.4639 51.2945 39.0401 52.1987 38.466 53.1444L41.3963 52.0109L41.9798 53.5195L36.5317 55.6269L35.9986 54.2486ZM40.7041 47.5999C40.4336 46.8145 40.456 46.1197 40.7712 45.5153C41.0863 44.911 41.6527 44.4507 42.4703 44.1344C43.013 43.9245 43.5124 43.8395 43.9686 43.8793C44.4321 43.9162 44.8245 44.0597 45.1457 44.3098C45.4743 44.557 45.7169 44.8831 45.8736 45.2883C46.0583 45.7659 46.0901 46.2027 45.9689 46.599C45.8449 46.988 45.6447 47.2983 45.3683 47.5299L45.3851 47.5733C45.8507 47.5513 46.2644 47.6533 46.6263 47.8793C46.9882 48.1052 47.2658 48.4678 47.4589 48.9671C47.6324 49.4157 47.6814 49.8542 47.6059 50.2826C47.5349 50.701 47.3381 51.0849 47.0158 51.4342C46.7006 51.7806 46.2718 52.0588 45.7291 52.2687C44.8609 52.6046 44.0838 52.6598 43.3977 52.4344C42.7189 52.2063 42.1985 51.6673 41.8365 50.8176L43.6381 50.1207C43.7685 50.4362 43.9568 50.6544 44.2032 50.7754C44.4469 50.8891 44.7351 50.8816 45.0679 50.7529C45.3501 50.6437 45.5364 50.4802 45.6267 50.2622C45.7215 50.0342 45.7171 49.7864 45.6136 49.5187C45.4792 49.1714 45.2705 48.9652 44.9875 48.9C44.7088 48.8248 44.3272 48.8809 43.8424 49.0684L43.4951 49.2028L42.9116 47.6942L43.2589 47.5599C43.6279 47.4172 43.9007 47.241 44.0774 47.0311C44.2586 46.8114 44.2862 46.5387 44.1603 46.2131C44.0595 45.9526 43.9088 45.778 43.7081 45.6893C43.5074 45.6006 43.2804 45.6052 43.0272 45.7031C42.7523 45.8095 42.5783 45.9725 42.5052 46.1921C42.4393 46.4088 42.4431 46.6445 42.5166 46.8988L40.7041 47.5999Z" fill="white"/>
<path d="M57.1593 32.8005L18.0896 47.9136C17.1905 48.2614 16.7436 49.2722 17.0914 50.1712L22.9687 65.365C23.3165 66.2641 24.3273 66.711 25.2263 66.3632L64.296 51.2501C65.1951 50.9023 65.642 49.8915 65.2942 48.9925L59.4169 33.7987C59.0691 32.8996 58.0583 32.4527 57.1593 32.8005Z" stroke="#FDFDFD" stroke-opacity="0.25" stroke-width="2"/>
</g>
<g filter="url(#filter3_d_796_1627)">
<path d="M113.51 42.2799L75.6867 24.2731C74.5262 23.7206 73.1376 24.2135 72.5851 25.374L65.5824 40.0831C65.0299 41.2436 65.5228 42.6322 66.6833 43.1847L104.507 61.1916C105.667 61.7441 107.056 61.2512 107.608 60.0907L114.611 45.3816C115.163 44.2211 114.671 42.8324 113.51 42.2799Z" fill="url(#paint3_linear_796_1627)"/>
<path d="M84.9485 39.74C84.4568 39.0764 84.3893 38.3698 84.746 37.6204C84.9258 37.2421 85.1876 36.9456 85.5303 36.7308C85.8765 36.5089 86.2924 36.402 86.7783 36.41C87.2676 36.4109 87.8028 36.5498 88.3847 36.8266C88.9659 37.1034 89.4075 37.4296 89.71 37.8055C90.0225 38.1777 90.2017 38.5681 90.2477 38.9766C90.2971 39.3782 90.2319 39.7681 90.0516 40.1463C89.8718 40.5246 89.6239 40.8104 89.3086 41.0039C88.9996 41.2007 88.657 41.3079 88.2788 41.3257C88.5703 41.6879 88.7407 42.0784 88.7908 42.4973C88.8437 42.9092 88.7687 43.3288 88.565 43.756C88.3282 44.2533 87.9972 44.6241 87.5719 44.8683C87.1495 45.1054 86.6765 45.2152 86.1522 45.1976C85.6344 45.1832 85.1131 45.0511 84.5883 44.801C84.0629 44.5509 83.6277 44.2279 83.2839 43.832C82.9464 43.4395 82.737 43.0046 82.6549 42.5274C82.5758 42.0431 82.6549 41.5523 82.8917 41.055C83.0983 40.6207 83.3787 40.2943 83.7319 40.0759C84.0879 39.8504 84.4935 39.7384 84.9485 39.74ZM88.1775 39.5892C88.3143 39.302 88.3352 39.0413 88.2404 38.8072C88.156 38.5694 87.9774 38.3855 87.7039 38.2554C87.4311 38.1254 87.1722 38.1009 86.9272 38.182C86.6893 38.2664 86.5025 38.4522 86.3658 38.7393C86.2354 39.0125 86.2162 39.2696 86.3076 39.5108C86.4024 39.7449 86.5828 39.9254 86.8487 40.0521C87.1151 40.1788 87.3706 40.2016 87.6155 40.1205C87.8599 40.0395 88.0478 39.8623 88.1775 39.5892ZM86.2488 41.3128C85.9195 41.1561 85.61 41.1205 85.3202 41.2059C85.0334 41.2843 84.8152 41.4811 84.6651 41.7963C84.5255 42.0904 84.508 42.3788 84.6145 42.6612C84.7274 42.9471 84.9519 43.17 85.2882 43.3301C85.6245 43.4902 85.9323 43.5206 86.2116 43.4216C86.4972 43.3258 86.7108 43.1308 86.8504 42.8367C86.9976 42.5285 87.0127 42.2349 86.8964 41.9561C86.7864 41.6806 86.5711 41.4662 86.2488 41.3128ZM89.2318 45.156L89.9218 43.7061L95.5032 40.5377L97.5099 41.4931L95.299 46.137L96.1607 46.5471L95.42 48.1021L94.5583 47.6919L93.9085 49.0578L92.1118 48.2024L92.7623 46.8366L89.2318 45.156ZM94.8987 42.673L91.8634 44.5014L93.6286 45.3417L94.8987 42.673Z" fill="white"/>
<path d="M113.26 42.8052L75.4366 24.7984C74.5662 24.384 73.5247 24.7537 73.1103 25.6241L66.1076 40.3331C65.6933 41.2035 66.063 42.245 66.9333 42.6594L104.757 60.6662C105.627 61.0806 106.669 60.7109 107.083 59.8405L114.086 45.1315C114.5 44.2611 114.13 43.2196 113.26 42.8052Z" stroke="#FDFDFD" stroke-opacity="0.25" stroke-width="2"/>
</g>
<g filter="url(#filter4_d_796_1627)">
<path d="M86.7094 79.2321L51.3895 56.7078C50.3058 56.0167 48.867 56.3349 48.1759 57.4186L39.4164 71.1542C38.7253 72.2379 39.0436 73.6767 40.1273 74.3678L75.4473 96.8921C76.531 97.5832 77.9697 97.265 78.6608 96.1813L87.4203 82.4457C88.1114 81.362 87.7932 79.9232 86.7094 79.2321Z" fill="url(#paint4_linear_796_1627)"/>
<path d="M66.9145 75.8412L63.853 73.8891L62.9896 75.2431C63.2124 75.1826 63.4707 75.1816 63.7646 75.2402C64.0584 75.2988 64.3429 75.4157 64.6175 75.5909C65.108 75.9037 65.4425 76.2735 65.6211 76.7003C65.8062 77.1312 65.8614 77.5713 65.787 78.0204C65.7119 78.4696 65.5432 78.9002 65.2802 79.3122C64.7926 80.0775 64.1887 80.5481 63.469 80.7241C62.7539 80.8936 62.004 80.7281 61.2191 80.2276C60.6955 79.8939 60.2975 79.5156 60.0241 79.093C59.7549 78.6638 59.6179 78.2221 59.6129 77.7682C59.608 77.3142 59.7292 76.8716 59.9763 76.4405L61.6153 77.4854C61.5251 77.7132 61.5112 77.9437 61.574 78.177C61.6415 78.4037 61.8056 78.6006 62.0674 78.7674C62.3746 78.9634 62.6661 79.0113 62.9419 78.911C63.2171 78.8108 63.4591 78.5971 63.668 78.2701C63.8722 77.9496 63.9502 77.6542 63.9019 77.384C63.853 77.1139 63.6785 76.8829 63.3777 76.691C63.1554 76.5492 62.9366 76.488 62.7219 76.5074C62.5113 76.5203 62.3269 76.6004 62.168 76.7478L60.5494 75.7155L63.2712 71.4476L67.853 74.3696L66.9145 75.8412Z" fill="white"/>
<path d="M86.3966 79.7227L51.0766 57.1983C50.2639 56.68 49.1848 56.9187 48.6665 57.7314L39.907 71.467C39.3887 72.2798 39.6274 73.3588 40.4401 73.8772L75.7601 96.4015C76.5729 96.9199 77.652 96.6812 78.1703 95.8684L86.9298 82.1328C87.4481 81.3201 87.2094 80.241 86.3966 79.7227Z" stroke="#FDFDFD" stroke-opacity="0.25" stroke-width="2"/>
</g>
<g filter="url(#filter5_d_796_1627)">
<path d="M96.319 47.4153L54.6906 42.7328C53.4134 42.5891 52.2615 43.5081 52.1178 44.7853L50.2968 60.9742C50.1531 62.2514 51.0721 63.4033 52.3494 63.547L93.9777 68.2295C95.255 68.3732 96.4069 67.4542 96.5506 66.177L98.3715 49.9882C98.5152 48.7109 97.5963 47.559 96.319 47.4153Z" fill="url(#paint5_linear_796_1627)"/>
<path d="M69.2889 56.5062C69.336 57.1282 69.6566 57.4726 70.25 57.5394C70.6585 57.5853 70.968 57.4367 71.1786 57.0935C71.3887 56.7502 71.5399 56.17 71.6319 55.3529C71.4352 55.5728 71.1833 55.7318 70.8755 55.8299C70.5677 55.928 70.2332 55.9566 69.8707 55.9159C69.3773 55.8604 68.9491 55.7108 68.586 55.467C68.2241 55.2155 67.9536 54.8767 67.7756 54.4507C67.6057 54.0178 67.5533 53.5123 67.6179 52.9342C67.6825 52.3637 67.8541 51.8795 68.1328 51.4815C68.4196 51.0844 68.7914 50.7945 69.2493 50.6118C69.7148 50.4299 70.2442 50.3723 70.8377 50.4391C71.9786 50.5675 72.7367 51.0118 73.112 51.7722C73.4867 52.5326 73.5967 53.6028 73.4419 54.9827C73.329 55.9848 73.1434 56.8031 72.8845 57.4376C72.6343 58.0652 72.2742 58.5243 71.8047 58.8149C71.3421 59.1064 70.7411 59.2106 70.001 59.1273C69.4151 59.0615 68.927 58.8894 68.5372 58.6114C68.1543 58.3341 67.8727 57.9941 67.6912 57.5911C67.5178 57.1892 67.4416 56.759 67.462 56.3007L69.2889 56.5062ZM70.4973 54.4056C70.8208 54.442 71.0902 54.3747 71.3043 54.2036C71.5196 54.0248 71.6464 53.7659 71.6848 53.4267C71.7261 53.0567 71.658 52.7601 71.48 52.5372C71.302 52.3142 71.0436 52.1836 70.7044 52.1455C70.3652 52.1073 70.0836 52.181 69.8602 52.3666C69.6449 52.5454 69.5169 52.8121 69.4774 53.1667C69.4401 53.4982 69.5059 53.7788 69.6752 54.0087C69.8532 54.2316 70.1273 54.3639 70.4973 54.4056ZM80.6966 53.4919L77.0887 53.0861L76.9089 54.6818C77.0823 54.5296 77.3139 54.4151 77.6036 54.3384C77.8934 54.2617 78.2 54.2416 78.5235 54.278C79.1018 54.343 79.5649 54.5278 79.9135 54.8324C80.2695 55.1378 80.5127 55.5087 80.643 55.9449C80.7734 56.3811 80.8112 56.8421 80.7565 57.3278C80.6553 58.2297 80.3201 58.918 79.7517 59.3927C79.1839 59.8597 78.4374 60.0412 77.5123 59.9371C76.8956 59.8677 76.3713 59.7034 75.9402 59.4441C75.5097 59.1771 75.1926 58.8408 74.9884 58.4354C74.7841 58.0298 74.698 57.5791 74.7306 57.0832L76.6617 57.3003C76.6809 57.5445 76.7699 57.7575 76.9293 57.9394C77.0893 58.1135 77.3232 58.2179 77.6316 58.2526C77.994 58.2933 78.2768 58.208 78.4798 57.9967C78.6835 57.7854 78.8068 57.4871 78.8499 57.1016C78.8924 56.7238 78.8324 56.4244 78.6701 56.2031C78.5078 55.9819 78.2489 55.8513 77.8945 55.8114C77.6321 55.7819 77.4093 55.8232 77.2249 55.9352C77.0416 56.0394 76.9107 56.1926 76.8333 56.3947L74.9255 56.1801L75.4916 51.1499L80.8915 51.7574L80.6966 53.4919Z" fill="white"/>
<path d="M96.254 47.9935L54.6256 43.311C53.6677 43.2032 52.8038 43.8924 52.696 44.8504L50.875 61.0392C50.7673 61.9971 51.4565 62.861 52.4144 62.9688L94.0428 67.6513C95.0008 67.7591 95.8647 67.0699 95.9724 66.1119L97.7934 49.9231C97.9012 48.9652 97.212 48.1012 96.254 47.9935Z" stroke="#FDFDFD" stroke-opacity="0.25" stroke-width="2"/>
</g>
<g filter="url(#filter6_d_796_1627)">
<path d="M112.74 53.4169L75.3844 72.3745C74.2382 72.9562 73.7806 74.3569 74.3623 75.5031L81.7347 90.0303C82.3164 91.1765 83.7171 91.6341 84.8632 91.0524L122.219 72.0948C123.365 71.5131 123.823 70.1124 123.241 68.9662L115.869 54.439C115.287 53.2928 113.886 52.8352 112.74 53.4169Z" fill="url(#paint6_linear_796_1627)"/>
<path d="M92.9891 72.3006L92.1519 70.6507L95.026 69.1921L98.8701 76.767L97.0234 77.7043L94.0166 71.7793L92.9891 72.3006ZM101.75 67.4503L102.315 75.0188L100.499 75.9403L100.065 68.5532L96.8378 70.1909L96.0687 68.676L101.081 66.1324L101.75 67.4503Z" fill="white"/>
<path d="M113.003 53.9357L75.6476 72.8933C74.7879 73.3296 74.4447 74.3801 74.881 75.2397L82.2534 89.767C82.6896 90.6266 83.7402 90.9698 84.5998 90.5336L121.956 71.5759C122.815 71.1396 123.158 70.0891 122.722 69.2295L115.35 54.7023C114.913 53.8426 113.863 53.4994 113.003 53.9357Z" stroke="#FDFDFD" stroke-opacity="0.25" stroke-width="2"/>
</g>
<g filter="url(#filter7_d_796_1627)">
<path d="M56.6638 78.8398L15.1087 84.1331C13.8337 84.2955 12.9317 85.4607 13.0941 86.7357L15.1526 102.896C15.315 104.171 16.4803 105.073 17.7553 104.911L59.3104 99.6174C60.5854 99.455 61.4874 98.2897 61.325 97.0147L59.2665 80.8544C59.1041 79.5794 57.9388 78.6774 56.6638 78.8398Z" fill="url(#paint7_linear_796_1627)"/>
<path d="M34.8876 89.5785L34.6538 87.7428L37.8512 87.3356L38.9246 95.762L36.8699 96.0239L36.0303 89.4324L34.8876 89.5785Z" fill="white"/>
<path d="M56.7373 79.4167L15.1821 84.7099C14.2259 84.8317 13.5494 85.7056 13.6712 86.6619L15.7297 102.822C15.8515 103.778 16.7255 104.455 17.6817 104.333L59.2369 99.0399C60.1931 98.9181 60.8696 98.0442 60.7478 97.0879L58.6893 80.9276C58.5675 79.9713 57.6936 79.2949 56.7373 79.4167Z" stroke="#FDFDFD" stroke-opacity="0.25" stroke-width="2"/>
</g>
</g>
<defs>
<filter id="filter0_d_796_1627" x="-0.172119" y="58.5187" width="56.519" height="32.9811" filterUnits="userSpaceOnUse" color-interpolation-filters="sRGB">
<feFlood flood-opacity="0" result="BackgroundImageFix"/>
<feColorMatrix in="SourceAlpha" type="matrix" values="0 0 0 0 0 0 0 0 0 0 0 0 0 0 0 0 0 0 127 0" result="hardAlpha"/>
<feOffset dy="4"/>
<feGaussianBlur stdDeviation="2"/>
<feComposite in2="hardAlpha" operator="out"/>
<feColorMatrix type="matrix" values="0 0 0 0 0 0 0 0 0 0 0 0 0 0 0 0 0 0 0.25 0"/>
<feBlend mode="normal" in2="BackgroundImageFix" result="effect1_dropShadow_796_1627"/>
<feBlend mode="normal" in="SourceGraphic" in2="effect1_dropShadow_796_1627" result="shape"/>
</filter>
<filter id="filter1_d_796_1627" x="58.2727" y="75.0724" width="57.8684" height="38.2096" filterUnits="userSpaceOnUse" color-interpolation-filters="sRGB">
<feFlood flood-opacity="0" result="BackgroundImageFix"/>
<feColorMatrix in="SourceAlpha" type="matrix" values="0 0 0 0 0 0 0 0 0 0 0 0 0 0 0 0 0 0 127 0" result="hardAlpha"/>
<feOffset dy="4"/>
<feGaussianBlur stdDeviation="2"/>
<feComposite in2="hardAlpha" operator="out"/>
<feColorMatrix type="matrix" values="0 0 0 0 0 0 0 0 0 0 0 0 0 0 0 0 0 0 0.25 0"/>
<feBlend mode="normal" in2="BackgroundImageFix" result="effect1_dropShadow_796_1627"/>
<feBlend mode="normal" in="SourceGraphic" in2="effect1_dropShadow_796_1627" result="shape"/>
</filter>
<filter id="filter2_d_796_1627" x="11.9731" y="31.6823" width="58.4395" height="43.7992" filterUnits="userSpaceOnUse" color-interpolation-filters="sRGB">
<feFlood flood-opacity="0" result="BackgroundImageFix"/>
<feColorMatrix in="SourceAlpha" type="matrix" values="0 0 0 0 0 0 0 0 0 0 0 0 0 0 0 0 0 0 127 0" result="hardAlpha"/>
<feOffset dy="4"/>
<feGaussianBlur stdDeviation="2"/>
<feComposite in2="hardAlpha" operator="out"/>
<feColorMatrix type="matrix" values="0 0 0 0 0 0 0 0 0 0 0 0 0 0 0 0 0 0 0.25 0"/>
<feBlend mode="normal" in2="BackgroundImageFix" result="effect1_dropShadow_796_1627"/>
<feBlend mode="normal" in="SourceGraphic" in2="effect1_dropShadow_796_1627" result="shape"/>
</filter>
<filter id="filter3_d_796_1627" x="60.9375" y="23.6283" width="58.3181" height="46.208" filterUnits="userSpaceOnUse" color-interpolation-filters="sRGB">
<feFlood flood-opacity="0" result="BackgroundImageFix"/>
<feColorMatrix in="SourceAlpha" type="matrix" values="0 0 0 0 0 0 0 0 0 0 0 0 0 0 0 0 0 0 127 0" result="hardAlpha"/>
<feOffset dy="4"/>
<feGaussianBlur stdDeviation="2"/>
<feComposite in2="hardAlpha" operator="out"/>
<feColorMatrix type="matrix" values="0 0 0 0 0 0 0 0 0 0 0 0 0 0 0 0 0 0 0.25 0"/>
<feBlend mode="normal" in2="BackgroundImageFix" result="effect1_dropShadow_796_1627"/>
<feBlend mode="normal" in="SourceGraphic" in2="effect1_dropShadow_796_1627" result="shape"/>
</filter>
<filter id="filter4_d_796_1627" x="34.6328" y="55.9242" width="57.571" height="49.7515" filterUnits="userSpaceOnUse" color-interpolation-filters="sRGB">
<feFlood flood-opacity="0" result="BackgroundImageFix"/>
<feColorMatrix in="SourceAlpha" type="matrix" values="0 0 0 0 0 0 0 0 0 0 0 0 0 0 0 0 0 0 127 0" result="hardAlpha"/>
<feOffset dy="4"/>
<feGaussianBlur stdDeviation="2"/>
<feComposite in2="hardAlpha" operator="out"/>
<feColorMatrix type="matrix" values="0 0 0 0 0 0 0 0 0 0 0 0 0 0 0 0 0 0 0.25 0"/>
<feBlend mode="normal" in2="BackgroundImageFix" result="effect1_dropShadow_796_1627"/>
<feBlend mode="normal" in="SourceGraphic" in2="effect1_dropShadow_796_1627" result="shape"/>
</filter>
<filter id="filter5_d_796_1627" x="45.8638" y="42.2998" width="56.9409" height="34.3627" filterUnits="userSpaceOnUse" color-interpolation-filters="sRGB">
<feFlood flood-opacity="0" result="BackgroundImageFix"/>
<feColorMatrix in="SourceAlpha" type="matrix" values="0 0 0 0 0 0 0 0 0 0 0 0 0 0 0 0 0 0 127 0" result="hardAlpha"/>
<feOffset dy="4"/>
<feGaussianBlur stdDeviation="2"/>
<feComposite in2="hardAlpha" operator="out"/>
<feColorMatrix type="matrix" values="0 0 0 0 0 0 0 0 0 0 0 0 0 0 0 0 0 0 0.25 0"/>
<feBlend mode="normal" in2="BackgroundImageFix" result="effect1_dropShadow_796_1627"/>
<feBlend mode="normal" in="SourceGraphic" in2="effect1_dropShadow_796_1627" result="shape"/>
</filter>
<filter id="filter6_d_796_1627" x="69.6914" y="52.7461" width="58.2202" height="46.9771" filterUnits="userSpaceOnUse" color-interpolation-filters="sRGB">
<feFlood flood-opacity="0" result="BackgroundImageFix"/>
<feColorMatrix in="SourceAlpha" type="matrix" values="0 0 0 0 0 0 0 0 0 0 0 0 0 0 0 0 0 0 127 0" result="hardAlpha"/>
<feOffset dy="4"/>
<feGaussianBlur stdDeviation="2"/>
<feComposite in2="hardAlpha" operator="out"/>
<feColorMatrix type="matrix" values="0 0 0 0 0 0 0 0 0 0 0 0 0 0 0 0 0 0 0.25 0"/>
<feBlend mode="normal" in2="BackgroundImageFix" result="effect1_dropShadow_796_1627"/>
<feBlend mode="normal" in="SourceGraphic" in2="effect1_dropShadow_796_1627" result="shape"/>
</filter>
<filter id="filter7_d_796_1627" x="8.65698" y="78.4023" width="57.105" height="34.9451" filterUnits="userSpaceOnUse" color-interpolation-filters="sRGB">
<feFlood flood-opacity="0" result="BackgroundImageFix"/>
<feColorMatrix in="SourceAlpha" type="matrix" values="0 0 0 0 0 0 0 0 0 0 0 0 0 0 0 0 0 0 127 0" result="hardAlpha"/>
<feOffset dy="4"/>
<feGaussianBlur stdDeviation="2"/>
<feComposite in2="hardAlpha" operator="out"/>
<feColorMatrix type="matrix" values="0 0 0 0 0 0 0 0 0 0 0 0 0 0 0 0 0 0 0.25 0"/>
<feBlend mode="normal" in2="BackgroundImageFix" result="effect1_dropShadow_796_1627"/>
<feBlend mode="normal" in="SourceGraphic" in2="effect1_dropShadow_796_1627" result="shape"/>
</filter>
<linearGradient id="paint0_linear_796_1627" x1="5.69678" y1="58.7637" x2="52.1642" y2="79.4716" gradientUnits="userSpaceOnUse">
<stop stop-color="#FFC700"/>
<stop offset="1" stop-color="#905510"/>
</linearGradient>
<linearGradient id="paint1_linear_796_1627" x1="62.2546" y1="84.8203" x2="112.697" y2="91.4267" gradientUnits="userSpaceOnUse">
<stop stop-color="#FFC700"/>
<stop offset="1" stop-color="#905510"/>
</linearGradient>
<linearGradient id="paint2_linear_796_1627" x1="15.7092" y1="48.2106" x2="66.5628" y2="46.8127" gradientUnits="userSpaceOnUse">
<stop stop-color="#FFC700"/>
<stop offset="1" stop-color="#905510"/>
</linearGradient>
<linearGradient id="paint3_linear_796_1627" x1="73.5854" y1="23.2727" x2="109.538" y2="59.2648" gradientUnits="userSpaceOnUse">
<stop stop-color="#FFC700"/>
<stop offset="1" stop-color="#905510"/>
</linearGradient>
<linearGradient id="paint4_linear_796_1627" x1="49.4272" y1="55.4564" x2="80.6779" y2="95.5992" gradientUnits="userSpaceOnUse">
<stop stop-color="#FFC700"/>
<stop offset="1" stop-color="#905510"/>
</linearGradient>
<linearGradient id="paint5_linear_796_1627" x1="52.3779" y1="42.4727" x2="98.1055" y2="64.7666" gradientUnits="userSpaceOnUse">
<stop stop-color="#FFC700"/>
<stop offset="1" stop-color="#905510"/>
</linearGradient>
<linearGradient id="paint6_linear_796_1627" x1="73.3091" y1="73.4277" x2="123.766" y2="66.9333" gradientUnits="userSpaceOnUse">
<stop stop-color="#FFC700"/>
<stop offset="1" stop-color="#905510"/>
</linearGradient>
<linearGradient id="paint7_linear_796_1627" x1="12.8" y1="84.4271" x2="62.5024" y2="95.2765" gradientUnits="userSpaceOnUse">
<stop stop-color="#FFC700"/>
<stop offset="1" stop-color="#905510"/>
</linearGradient>
<clipPath id="clip0_796_1627">
<rect width="128" height="128" fill="white"/>
</clipPath>
</defs>
</svg>
