<svg width="375" height="375" viewBox="0 0 375 375" fill="none" xmlns="http://www.w3.org/2000/svg">
<path d="M135.361 126.562H30.0938C27.2805 126.562 25 128.843 25 131.656V274.281C25 277.094 27.2805 279.375 30.0938 279.375H135.361C138.174 279.375 140.455 277.094 140.455 274.281V131.656C140.455 128.843 138.174 126.562 135.361 126.562Z" fill="url(#paint0_linear_911_348)"/>
<path d="M345.906 157.125H240.639C237.825 157.125 235.545 159.406 235.545 162.219V274.281C235.545 277.094 237.825 279.375 240.639 279.375H345.906C348.719 279.375 351 277.094 351 274.281V162.219C351 159.406 348.719 157.125 345.906 157.125Z" fill="url(#paint1_linear_911_348)"/>
<path d="M240.634 96H135.361C132.548 96 130.268 98.2805 130.268 101.094V274.281C130.268 277.094 132.548 279.375 135.361 279.375H240.634C243.447 279.375 245.728 277.094 245.728 274.281V101.094C245.728 98.2805 243.447 96 240.634 96Z" fill="url(#paint2_linear_911_348)"/>
<path d="M95.4648 233.531H69.9961C68.6451 233.531 67.3495 232.995 66.3943 232.039C65.439 231.084 64.9023 229.788 64.9023 228.437V202.969C64.9023 201.618 65.439 200.322 66.3943 199.367C67.3495 198.412 68.6451 197.875 69.9961 197.875H90.3711V182.594H69.9961C68.6451 182.594 67.3495 182.057 66.3943 181.102C65.439 180.147 64.9023 178.851 64.9023 177.5C64.9023 176.149 65.439 174.853 66.3943 173.898C67.3495 172.943 68.6451 172.406 69.9961 172.406H95.4648C96.8158 172.406 98.1114 172.943 99.0667 173.898C100.022 174.853 100.559 176.149 100.559 177.5V202.969C100.559 204.32 100.022 205.615 99.0667 206.571C98.1114 207.526 96.8158 208.062 95.4648 208.062H75.0898V223.344H95.4648C96.8158 223.344 98.1114 223.88 99.0667 224.836C100.022 225.791 100.559 227.087 100.559 228.437C100.559 229.788 100.022 231.084 99.0667 232.039C98.1114 232.995 96.8158 233.531 95.4648 233.531Z" fill="#4A4A4A"/>
<path d="M198.188 208.062H193.094V162.219C193.094 160.868 192.557 159.572 191.602 158.617C190.647 157.662 189.351 157.125 188 157.125H177.812C176.462 157.125 175.166 157.662 174.211 158.617C173.255 159.572 172.719 160.868 172.719 162.219C172.719 163.57 173.255 164.865 174.211 165.821C175.166 166.776 176.462 167.312 177.812 167.312H182.906V208.062H177.812C176.462 208.062 175.166 208.599 174.211 209.554C173.255 210.51 172.719 211.805 172.719 213.156C172.719 214.507 173.255 215.803 174.211 216.758C175.166 217.713 176.462 218.25 177.812 218.25H198.188C199.538 218.25 200.834 217.713 201.789 216.758C202.745 215.803 203.281 214.507 203.281 213.156C203.281 211.805 202.745 210.51 201.789 209.554C200.834 208.599 199.538 208.062 198.188 208.062Z" fill="#FCCD63"/>
<path d="M306.004 187.688H280.535C279.184 187.688 277.889 188.224 276.933 189.179C275.978 190.135 275.441 191.43 275.441 192.781C275.441 194.132 275.978 195.428 276.933 196.383C277.889 197.338 279.184 197.875 280.535 197.875H300.91V213.156H285.629C284.278 213.156 282.982 213.693 282.027 214.648C281.072 215.603 280.535 216.899 280.535 218.25C280.535 219.601 281.072 220.897 282.027 221.852C282.982 222.807 284.278 223.344 285.629 223.344H300.91V238.625H280.535C279.184 238.625 277.889 239.162 276.933 240.117C275.978 241.072 275.441 242.368 275.441 243.719C275.441 245.07 275.978 246.365 276.933 247.321C277.889 248.276 279.184 248.812 280.535 248.812H306.004C307.355 248.812 308.65 248.276 309.606 247.321C310.561 246.365 311.098 245.07 311.098 243.719V192.781C311.098 191.43 310.561 190.135 309.606 189.179C308.65 188.224 307.355 187.688 306.004 187.688Z" fill="#722D10"/>
<defs>
<linearGradient id="paint0_linear_911_348" x1="82.7275" y1="126.562" x2="82.7275" y2="279.375" gradientUnits="userSpaceOnUse">
<stop stop-color="#ECECEC"/>
<stop offset="1" stop-color="#8A8A8A"/>
</linearGradient>
<linearGradient id="paint1_linear_911_348" x1="293.272" y1="157.125" x2="293.272" y2="279.375" gradientUnits="userSpaceOnUse">
<stop stop-color="#E27B41"/>
<stop offset="1" stop-color="#CE4623"/>
</linearGradient>
<linearGradient id="paint2_linear_911_348" x1="187.998" y1="96" x2="187.998" y2="279.375" gradientUnits="userSpaceOnUse">
<stop stop-color="#F3A022"/>
<stop offset="1" stop-color="#F36E22"/>
</linearGradient>
</defs>
</svg>
