<svg width="330" height="330" viewBox="0 0 330 330" fill="none" xmlns="http://www.w3.org/2000/svg">
<path d="M242.202 285.311C233.166 291.75 175.184 250.935 164.079 250.845C152.974 250.756 94.3389 290.632 85.4078 284.049C76.4768 277.466 97.4733 209.846 94.1272 199.284C90.7812 188.722 34.6419 145.418 38.1585 134.911C41.6759 124.403 112.634 123.427 121.671 116.989C130.707 110.551 154.647 43.9112 165.752 44.0001C176.857 44.0898 199.714 111.106 208.645 117.689C217.577 124.272 288.511 126.391 291.858 136.953C295.204 147.515 238.372 189.91 234.855 200.417C231.338 210.924 251.239 278.872 242.202 285.311Z" fill="url(#paint0_linear_888_316)"/>
<defs>
<linearGradient id="paint0_linear_888_316" x1="35.0306" y1="134.901" x2="282.812" y2="203.911" gradientUnits="userSpaceOnUse">
<stop stop-color="#FCD635"/>
<stop offset="1" stop-color="#E47D03"/>
</linearGradient>
</defs>
</svg>
