<svg width="128" height="128" viewBox="0 0 128 128" fill="none" xmlns="http://www.w3.org/2000/svg">
<g filter="url(#filter0_d_796_1665)">
<path d="M82.1406 55.159L29.527 60.5523C27.9127 60.7178 26.7382 62.1606 26.9036 63.7749L29.001 84.2358C29.1665 85.8501 30.6093 87.0246 32.2236 86.8591L84.8373 81.4659C86.4516 81.3004 87.6261 79.8576 87.4606 78.2433L85.3632 57.7824C85.1978 56.1681 83.755 54.9936 82.1406 55.159Z" fill="url(#paint0_linear_796_1665)"/>
<path d="M50.0307 71.1219C49.0649 70.7286 48.5286 70.0107 48.4217 68.9682C48.3678 68.442 48.4552 67.9507 48.6841 67.494C48.9119 67.0275 49.2905 66.6393 49.8199 66.329C50.3484 66.009 51.0169 65.8076 51.8256 65.7246C52.6343 65.6418 53.325 65.7038 53.8975 65.911C54.4788 66.1074 54.9284 66.4109 55.2462 66.8214C55.5629 67.2221 55.7482 67.6855 55.8022 68.2116C55.8561 68.7378 55.7764 69.2087 55.563 69.6244C55.3594 70.0391 55.0596 70.38 54.6636 70.647C55.2157 70.8464 55.656 71.1557 55.9845 71.5749C56.312 71.9844 56.5062 72.4863 56.5672 73.0807C56.638 73.7724 56.5241 74.3896 56.2253 74.9322C55.9254 75.4651 55.487 75.894 54.9099 76.219C54.3425 76.543 53.6934 76.7424 52.9627 76.8174C52.2319 76.8923 51.551 76.8291 50.92 76.628C50.2987 76.4258 49.7872 76.0943 49.3855 75.6334C48.9828 75.1627 48.746 74.5814 48.6751 73.8897C48.6132 73.2856 48.701 72.7498 48.9386 72.2824C49.1752 71.8053 49.5393 71.4184 50.0307 71.1219ZM53.4151 68.8403C53.3741 68.4409 53.2257 68.1459 52.9699 67.9555C52.7228 67.7544 52.4093 67.6733 52.0293 67.7122C51.6493 67.7512 51.354 67.8947 51.1431 68.1428C50.9419 68.3899 50.8619 68.7131 50.9028 69.1126C50.9418 69.4926 51.0896 69.7826 51.3465 69.9828C51.6022 70.1731 51.9153 70.2494 52.2855 70.2114C52.6558 70.1734 52.9463 70.0305 53.1572 69.7824C53.3681 69.5344 53.454 69.2203 53.4151 68.8403ZM52.4653 71.9652C52.0074 72.0121 51.6501 72.1768 51.3935 72.4591C51.1359 72.7316 51.0296 73.0871 51.0745 73.5255C51.1165 73.9347 51.2874 74.2569 51.5871 74.492C51.8967 74.7261 52.2852 74.8192 52.7529 74.7713C53.2206 74.7233 53.5725 74.5544 53.8086 74.2643C54.0545 73.9732 54.1564 73.6231 54.1145 73.2139C54.0705 72.7852 53.8943 72.4587 53.5857 72.2344C53.287 72.009 52.9135 71.9193 52.4653 71.9652ZM62.8185 67.7287C62.7036 67.3762 62.5397 67.1222 62.3269 66.9669C62.113 66.8017 61.8258 66.7376 61.4654 66.7746C60.91 66.8315 60.5355 67.116 60.3418 67.6281C60.1472 68.1305 60.0984 68.9035 60.1956 69.947C60.375 69.584 60.6544 69.2846 61.0339 69.0488C61.4231 68.812 61.8613 68.6687 62.3485 68.6187C63.3033 68.5208 64.0992 68.7445 64.7359 69.2896C65.3824 69.8338 65.7612 70.6466 65.872 71.7281C65.9449 72.4394 65.8627 73.0779 65.6253 73.6438C65.3977 74.2086 65.0217 74.6705 64.4973 75.0295C63.9826 75.3874 63.3501 75.6049 62.5999 75.6818C61.0995 75.8356 60.009 75.4748 59.3285 74.5994C58.647 73.7142 58.2159 72.3899 58.0351 70.6263C57.8454 68.7751 58.0115 67.3698 58.5334 66.4105C59.0641 65.4405 60.0115 64.8855 61.3755 64.7457C62.1063 64.6708 62.7351 64.754 63.2619 64.9954C63.7976 65.226 64.216 65.5621 64.5172 66.0039C64.8282 66.4446 65.0366 66.9401 65.1422 67.4905L62.8185 67.7287ZM61.9515 70.6531C61.5326 70.6961 61.1948 70.8587 60.9382 71.141C60.6904 71.4125 60.5899 71.7773 60.6368 72.2352C60.6848 72.7029 60.8489 73.0552 61.1292 73.2924C61.4192 73.5285 61.803 73.622 62.2804 73.5731C62.7091 73.5292 63.0323 73.368 63.2499 73.0898C63.4762 72.8007 63.5665 72.4321 63.5205 71.9839C63.4735 71.526 63.3148 71.178 63.0443 70.9399C62.7737 70.7017 62.4094 70.6062 61.9515 70.6531Z" fill="white"/>
<path d="M82.2153 55.8898L29.6017 61.2831C28.3909 61.4072 27.51 62.4893 27.6341 63.7L29.7315 84.1609C29.8556 85.3717 30.9377 86.2525 32.1485 86.1284L84.7621 80.7352C85.9729 80.6111 86.8538 79.529 86.7297 78.3182L84.6323 57.8573C84.5082 56.6466 83.4261 55.7657 82.2153 55.8898Z" stroke="#C88E08" stroke-opacity="0.25" stroke-width="2"/>
</g>
<g filter="url(#filter1_d_796_1665)">
<path d="M72.8573 38.5234L20.7188 29.6427C19.1191 29.3702 17.6014 30.4461 17.3289 32.0459L13.8753 52.3219C13.6028 53.9217 14.6787 55.4394 16.2785 55.7119L68.4169 64.5926C70.0167 64.8651 71.5344 63.7891 71.8069 62.1894L75.2605 41.9133C75.533 40.3136 74.457 38.7959 72.8573 38.5234Z" fill="url(#paint1_linear_796_1665)"/>
<path d="M37.6468 45.3129C36.8215 44.6756 36.4968 43.8403 36.6728 42.8072C36.7616 42.2859 36.9773 41.8358 37.32 41.457C37.6644 41.0686 38.1331 40.7957 38.7262 40.6384C39.321 40.4714 40.0191 40.4562 40.8204 40.5927C41.6218 40.7292 42.2707 40.9739 42.7669 41.3267C43.2745 41.6714 43.6265 42.0841 43.8228 42.5646C44.0209 43.0355 44.0754 43.5317 43.9866 44.053C43.8978 44.5744 43.695 45.0068 43.3782 45.3503C43.071 45.6954 42.6909 45.9436 42.2379 46.095C42.7166 46.4348 43.0581 46.8506 43.2624 47.3425C43.4684 47.8247 43.5212 48.3602 43.4209 48.9492C43.3041 49.6347 43.0292 50.1989 42.5961 50.6418C42.1647 51.075 41.6274 51.371 40.9844 51.5297C40.351 51.6901 39.6723 51.7086 38.9481 51.5852C38.2239 51.4619 37.5847 51.2189 37.0305 50.8563C36.486 50.4952 36.0818 50.0389 35.8181 49.4873C35.556 48.926 35.4834 48.3026 35.6001 47.6171C35.7021 47.0185 35.9301 46.5258 36.2841 46.139C36.6398 45.7425 37.094 45.4672 37.6468 45.3129ZM41.5183 44.0201C41.5858 43.6242 41.5217 43.3003 41.3262 43.0485C41.1419 42.7886 40.8615 42.6265 40.4849 42.5624C40.1084 42.4983 39.7853 42.5575 39.5158 42.7401C39.2559 42.9243 39.0922 43.2144 39.0248 43.6103C38.9607 43.9868 39.0255 44.3058 39.2195 44.5674C39.415 44.8193 39.6962 44.9765 40.0631 45.039C40.43 45.1015 40.7483 45.0414 41.0178 44.8588C41.2874 44.6762 41.4542 44.3966 41.5183 44.0201ZM39.7671 46.7769C39.3133 46.6997 38.925 46.7626 38.6022 46.966C38.2811 47.1597 38.0836 47.4738 38.0096 47.9083C37.9405 48.3138 38.019 48.6699 38.2448 48.9766C38.4805 49.2851 38.83 49.4787 39.2934 49.5577C39.7569 49.6366 40.1411 49.5679 40.4463 49.3516C40.761 49.137 40.9529 48.8269 41.022 48.4214C41.0944 47.9966 41.0119 47.6348 40.7747 47.336C40.5471 47.039 40.2112 46.8526 39.7671 46.7769ZM50.8763 45.465C50.8599 45.0946 50.77 44.8061 50.6065 44.5994C50.4446 44.383 50.1851 44.2444 49.8278 44.1836C49.2775 44.0899 48.8405 44.2638 48.5169 44.7054C48.1949 45.1374 47.9411 45.8692 47.7555 46.9006C48.0255 46.5989 48.3748 46.3852 48.8036 46.2595C49.242 46.1354 49.7026 46.1146 50.1853 46.1968C51.1315 46.3579 51.8385 46.7863 52.3062 47.482C52.7836 48.1793 52.931 49.0638 52.7484 50.1356C52.6284 50.8404 52.3783 51.4337 51.9982 51.9154C51.6278 52.3987 51.1418 52.7432 50.5405 52.9488C49.9488 53.156 49.2812 53.1962 48.5378 53.0696C47.0509 52.8164 46.0967 52.1769 45.6753 51.1513C45.2555 50.1161 45.1944 48.7247 45.4921 46.9771C45.8046 45.1426 46.3406 43.833 47.1002 43.0483C47.8711 42.2556 48.9324 41.9744 50.2841 42.2047C51.0082 42.328 51.5918 42.5764 52.0349 42.95C52.4893 43.3155 52.8026 43.7514 52.9747 44.2576C53.1564 44.7655 53.2246 45.2987 53.1791 45.8573L50.8763 45.465ZM49.2585 48.0508C48.8434 47.9801 48.4744 48.0464 48.1516 48.2498C47.8401 48.4451 47.6458 48.7697 47.5685 49.2234C47.4895 49.6869 47.5534 50.0703 47.76 50.3738C47.9763 50.6789 48.321 50.8718 48.7941 50.9523C49.2189 51.0247 49.5734 50.9559 49.8576 50.746C50.153 50.528 50.3386 50.197 50.4142 49.7528C50.4915 49.2991 50.4316 48.9213 50.2347 48.6195C50.0377 48.3176 49.7124 48.1281 49.2585 48.0508Z" fill="white"/>
<path d="M72.734 39.2476L20.5955 30.3669C19.3957 30.1625 18.2574 30.9695 18.0531 32.1693L14.5995 52.4453C14.3951 53.6451 15.2021 54.7834 16.4019 54.9878L68.5403 63.8685C69.7401 64.0729 70.8784 63.2659 71.0828 62.0661L74.5364 41.79C74.7407 40.5902 73.9338 39.4519 72.734 39.2476Z" stroke="#08B010" stroke-width="2"/>
</g>
<g filter="url(#filter2_d_796_1665)">
<path d="M111.815 49.5329L65.1425 24.6548C63.7105 23.8915 61.9308 24.4336 61.1674 25.8656L51.4927 44.0163C50.7293 45.4483 51.2714 47.228 52.7035 47.9913L99.3765 72.8694C100.809 73.6327 102.588 73.0906 103.352 71.6585L113.026 53.5079C113.79 52.0759 113.248 50.2962 111.815 49.5329Z" fill="url(#paint2_linear_796_1665)"/>
<path d="M76.2617 44.866C75.6796 44.0008 75.635 43.1057 76.1279 42.1809C76.3767 41.7142 76.7235 41.3551 77.1682 41.1038C77.6175 40.8439 78.1484 40.7329 78.7608 40.7708C79.3779 40.8 80.0451 41.0058 80.7625 41.3882C81.4799 41.7706 82.0184 42.2075 82.378 42.6988C82.7509 43.1861 82.9547 43.6887 82.9893 44.2067C83.0286 44.716 82.9239 45.204 82.6751 45.6708C82.4264 46.1375 82.0974 46.4838 81.6884 46.7097C81.2881 46.9403 80.8491 47.0559 80.3715 47.0566C80.7184 47.5301 80.9112 48.0325 80.95 48.5637C80.9933 49.0862 80.8745 49.6111 80.5934 50.1383C80.2663 50.752 79.8274 51.2006 79.2767 51.4842C78.7306 51.7591 78.1274 51.8705 77.4672 51.8182C76.8155 51.7705 76.1656 51.5739 75.5174 51.2284C74.8691 50.8829 74.3393 50.4506 73.9278 49.9317C73.5249 49.4172 73.2854 48.8567 73.2092 48.2501C73.1377 47.6348 73.2654 47.0202 73.5925 46.4066C73.8781 45.8707 74.25 45.4751 74.7079 45.2198C75.1704 44.9558 75.6884 44.8379 76.2617 44.866ZM80.3433 44.8607C80.5322 44.5063 80.5736 44.1788 80.4675 43.878C80.3747 43.5733 80.1598 43.3311 79.8227 43.1514C79.4856 42.9717 79.1603 42.926 78.8469 43.0142C78.5421 43.107 78.2953 43.3306 78.1065 43.685C77.9268 44.0221 77.8877 44.3453 77.9892 44.6547C78.0952 44.9554 78.3125 45.1933 78.6409 45.3683C78.9694 45.5435 79.2903 45.5869 79.6037 45.4987C79.917 45.4104 80.1636 45.1978 80.3433 44.8607ZM77.8117 46.9242C77.4055 46.7076 77.0171 46.6449 76.6467 46.736C76.2808 46.8185 75.9943 47.0542 75.787 47.4431C75.5935 47.8062 75.5555 48.1688 75.6731 48.5312C75.7994 48.8982 76.0699 49.1922 76.4848 49.4133C76.8997 49.6345 77.286 49.6906 77.6438 49.5816C78.0102 49.4773 78.2901 49.2435 78.4836 48.8806C78.6863 48.5003 78.7223 48.1309 78.5914 47.7726C78.4691 47.4189 78.2092 47.1361 77.8117 46.9242ZM88.7673 49.1845C88.8686 48.8278 88.8745 48.5256 88.7842 48.2779C88.699 48.0215 88.4962 47.8082 88.1767 47.6377C87.6838 47.375 87.2144 47.4022 86.7678 47.7193C86.3263 48.0276 85.8547 48.6418 85.353 49.562C85.7041 49.3609 86.103 49.2683 86.5496 49.2844C87.005 49.305 87.4487 49.4305 87.8806 49.6608C88.7276 50.1124 89.2638 50.7419 89.4879 51.5496C89.7208 52.3619 89.5812 53.2478 89.0699 54.2071C88.7335 54.8381 88.3096 55.3221 87.7969 55.6593C87.293 56.0011 86.723 56.1747 86.0875 56.18C85.4602 56.1899 84.8145 56.0175 84.149 55.6627C82.8178 54.9533 82.1142 54.0454 82.0378 52.9393C81.9661 51.8245 82.3472 50.4849 83.1811 48.9204C84.0564 47.2783 84.9783 46.2047 85.9465 45.6998C86.9279 45.1908 88.0239 45.2588 89.2345 45.9038C89.8824 46.2493 90.3576 46.6693 90.6603 47.1635C90.9761 47.6537 91.1355 48.1661 91.1392 48.7008C91.1517 49.2401 91.0481 49.7676 90.8285 50.2832L88.7673 49.1845ZM86.4166 51.1278C86.0449 50.9297 85.6732 50.8762 85.303 50.9673C84.946 51.0544 84.6588 51.301 84.4428 51.7072C84.2217 52.1221 84.1608 52.5061 84.2614 52.8592C84.3701 53.217 84.6368 53.5087 85.0599 53.7345C85.4404 53.9372 85.7989 53.9838 86.1346 53.8743C86.4835 53.7607 86.7641 53.5051 86.9756 53.1075C87.1923 52.7013 87.2548 52.3239 87.163 51.9753C87.0711 51.6268 86.8229 51.3442 86.4166 51.1278Z" fill="white"/>
<path d="M111.47 50.181L64.797 25.3029C63.723 24.7305 62.3882 25.137 61.8157 26.2111L52.1409 44.3617C51.5684 45.4357 51.975 46.7705 53.049 47.343L99.722 72.221C100.796 72.7935 102.131 72.3869 102.703 71.3129L112.378 53.1623C112.951 52.0882 112.544 50.7535 111.47 50.181Z" stroke="#A9140E" stroke-width="2"/>
</g>
<g filter="url(#filter3_d_796_1665)">
<path d="M97.4281 58.9035L48.4253 78.8035C46.9217 79.4141 46.1979 81.1279 46.8084 82.6314L54.5473 101.688C55.1579 103.192 56.8717 103.915 58.3752 103.305L107.378 83.4049C108.882 82.7944 109.605 81.0805 108.995 79.577L101.256 60.5204C100.645 59.0168 98.9316 58.293 97.4281 58.9035Z" fill="url(#paint3_linear_796_1665)"/>
<path d="M71.0676 83.2133C70.0304 83.106 69.3145 82.5668 68.9202 81.5958C68.7212 81.1058 68.6677 80.6096 68.7596 80.1071C68.8479 79.5956 69.1027 79.1168 69.5242 78.6707C69.9419 78.2157 70.5274 77.8352 71.2806 77.5294C72.0338 77.2235 72.7142 77.0899 73.3219 77.1285C73.935 77.1544 74.4515 77.3199 74.8714 77.6251C75.2876 77.9212 75.5952 78.3143 75.7942 78.8043C75.9932 79.2943 76.0484 79.7687 75.9599 80.2275C75.8804 80.6827 75.6881 81.0938 75.3826 81.461C75.9684 81.4979 76.4777 81.6717 76.9104 81.9822C77.3394 82.2838 77.6663 82.7112 77.891 83.2648C78.1527 83.9091 78.216 84.5335 78.0809 85.138C77.9422 85.7335 77.6413 86.268 77.1781 86.7415C76.7241 87.2113 76.1568 87.5844 75.4761 87.8608C74.7956 88.1372 74.1242 88.2671 73.4621 88.2506C72.809 88.2303 72.2252 88.0552 71.7106 87.725C71.1922 87.3858 70.8023 86.8941 70.5406 86.2498C70.3122 85.6872 70.2466 85.1482 70.3439 84.633C70.4375 84.1087 70.6788 83.6354 71.0676 83.2133ZM73.6784 80.0758C73.5273 79.7038 73.3023 79.4621 73.0034 79.351C72.7099 79.227 72.3863 79.2369 72.0324 79.3806C71.6785 79.5243 71.435 79.7448 71.302 80.0419C71.178 80.3354 71.1916 80.6681 71.3427 81.0402C71.4864 81.3941 71.7095 81.6312 72.0121 81.7515C72.3109 81.8627 72.6328 81.8482 72.9776 81.7082C73.3224 81.5682 73.5614 81.3496 73.6944 81.0525C73.8275 80.7552 73.8221 80.4298 73.6784 80.0758ZM73.6409 83.3416C73.2145 83.5148 72.9175 83.7729 72.7502 84.1156C72.5791 84.4494 72.5765 84.8205 72.7423 85.2288C72.8971 85.6099 73.1514 85.8714 73.5049 86.0133C73.8676 86.1514 74.2667 86.132 74.7023 85.9552C75.1379 85.7783 75.4284 85.5176 75.5739 85.1731C75.7285 84.8248 75.7284 84.4601 75.5736 84.0791C75.4115 83.6797 75.1509 83.4156 74.792 83.2865C74.4421 83.1538 74.0584 83.1721 73.6409 83.3416ZM82.3951 76.3774C82.1862 76.0711 81.9578 75.8732 81.71 75.7835C81.4584 75.6848 81.1648 75.7037 80.8291 75.84C80.3118 76.05 80.0319 76.428 79.9893 76.9739C79.943 77.5106 80.1125 78.2664 80.4977 79.241C80.5684 78.8423 80.7529 78.4767 81.0512 78.1441C81.3586 77.8078 81.7392 77.5476 82.1929 77.3633C83.0823 77.0022 83.9088 76.9942 84.6728 77.3394C85.4456 77.6809 86.0369 78.3553 86.446 79.3626C86.7149 80.0251 86.8148 80.6611 86.745 81.2708C86.6848 81.8767 86.4527 82.4254 86.0494 82.9167C85.6556 83.4044 85.1091 83.7901 84.4105 84.0739C83.0132 84.6414 81.8653 84.6002 80.9671 83.9501C80.0652 83.291 79.2806 82.1402 78.6136 80.4977C77.9135 78.7735 77.6797 77.3779 77.9124 76.3109C78.1504 75.2311 78.9047 74.4332 80.1751 73.9173C80.8557 73.6409 81.4827 73.5449 82.056 73.6291C82.6348 73.7007 83.1305 73.9064 83.5434 74.2461C83.9654 74.5822 84.304 74.9996 84.5597 75.4985L82.3951 76.3774ZM82.3811 79.4276C81.9909 79.586 81.7122 79.8367 81.5448 80.1795C81.3828 80.5095 81.3884 80.8878 81.5616 81.3143C81.7385 81.7499 81.9947 82.0423 82.3302 82.1915C82.6747 82.337 83.0692 82.3194 83.5139 82.1389C83.9132 81.9768 84.1784 81.7316 84.3092 81.4036C84.4458 81.0627 84.4296 80.6836 84.26 80.2662C84.0866 79.8397 83.8368 79.55 83.5104 79.3971C83.184 79.2442 82.8076 79.2544 82.3811 79.4276Z" fill="white"/>
<path d="M97.7045 59.584L48.7017 79.4839C47.574 79.9419 47.0311 81.2272 47.4891 82.3549L55.228 101.412C55.6859 102.539 56.9713 103.082 58.0989 102.624L107.102 82.7242C108.229 82.2663 108.772 80.9809 108.314 79.8532L100.575 60.7966C100.118 59.6689 98.8322 59.126 97.7045 59.584Z" stroke="#0E6BC3" stroke-width="2"/>
</g>
<defs>
<filter id="filter0_d_796_1665" x="22.6223" y="54.8781" width="69.1191" height="40.2621" filterUnits="userSpaceOnUse" color-interpolation-filters="sRGB">
<feFlood flood-opacity="0" result="BackgroundImageFix"/>
<feColorMatrix in="SourceAlpha" type="matrix" values="0 0 0 0 0 0 0 0 0 0 0 0 0 0 0 0 0 0 127 0" result="hardAlpha"/>
<feOffset dy="4"/>
<feGaussianBlur stdDeviation="2"/>
<feComposite in2="hardAlpha" operator="out"/>
<feColorMatrix type="matrix" values="0 0 0 0 0 0 0 0 0 0 0 0 0 0 0 0 0 0 0.25 0"/>
<feBlend mode="normal" in2="BackgroundImageFix" result="effect1_dropShadow_796_1665"/>
<feBlend mode="normal" in="SourceGraphic" in2="effect1_dropShadow_796_1665" result="shape"/>
</filter>
<filter id="filter1_d_796_1665" x="9.56763" y="29.3351" width="70.0005" height="43.5652" filterUnits="userSpaceOnUse" color-interpolation-filters="sRGB">
<feFlood flood-opacity="0" result="BackgroundImageFix"/>
<feColorMatrix in="SourceAlpha" type="matrix" values="0 0 0 0 0 0 0 0 0 0 0 0 0 0 0 0 0 0 127 0" result="hardAlpha"/>
<feOffset dy="4"/>
<feGaussianBlur stdDeviation="2"/>
<feComposite in2="hardAlpha" operator="out"/>
<feColorMatrix type="matrix" values="0 0 0 0 0 0 0 0 0 0 0 0 0 0 0 0 0 0 0.25 0"/>
<feBlend mode="normal" in2="BackgroundImageFix" result="effect1_dropShadow_796_1665"/>
<feBlend mode="normal" in="SourceGraphic" in2="effect1_dropShadow_796_1665" result="shape"/>
</filter>
<filter id="filter2_d_796_1665" x="46.8813" y="24.0433" width="70.7563" height="57.4374" filterUnits="userSpaceOnUse" color-interpolation-filters="sRGB">
<feFlood flood-opacity="0" result="BackgroundImageFix"/>
<feColorMatrix in="SourceAlpha" type="matrix" values="0 0 0 0 0 0 0 0 0 0 0 0 0 0 0 0 0 0 127 0" result="hardAlpha"/>
<feOffset dy="4"/>
<feGaussianBlur stdDeviation="2"/>
<feComposite in2="hardAlpha" operator="out"/>
<feColorMatrix type="matrix" values="0 0 0 0 0 0 0 0 0 0 0 0 0 0 0 0 0 0 0.25 0"/>
<feBlend mode="normal" in2="BackgroundImageFix" result="effect1_dropShadow_796_1665"/>
<feBlend mode="normal" in="SourceGraphic" in2="effect1_dropShadow_796_1665" result="shape"/>
</filter>
<filter id="filter3_d_796_1665" x="42.3262" y="58.4211" width="71.1509" height="53.3658" filterUnits="userSpaceOnUse" color-interpolation-filters="sRGB">
<feFlood flood-opacity="0" result="BackgroundImageFix"/>
<feColorMatrix in="SourceAlpha" type="matrix" values="0 0 0 0 0 0 0 0 0 0 0 0 0 0 0 0 0 0 127 0" result="hardAlpha"/>
<feOffset dy="4"/>
<feGaussianBlur stdDeviation="2"/>
<feComposite in2="hardAlpha" operator="out"/>
<feColorMatrix type="matrix" values="0 0 0 0 0 0 0 0 0 0 0 0 0 0 0 0 0 0 0.25 0"/>
<feBlend mode="normal" in2="BackgroundImageFix" result="effect1_dropShadow_796_1665"/>
<feBlend mode="normal" in="SourceGraphic" in2="effect1_dropShadow_796_1665" result="shape"/>
</filter>
<linearGradient id="paint0_linear_796_1665" x1="26.604" y1="60.8519" x2="89.0006" y2="76.086" gradientUnits="userSpaceOnUse">
<stop stop-color="#FFC700"/>
<stop offset="1" stop-color="#905510"/>
</linearGradient>
<linearGradient id="paint1_linear_796_1665" x1="17.8223" y1="29.1493" x2="73.8679" y2="60.5229" gradientUnits="userSpaceOnUse">
<stop stop-color="#02F41A"/>
<stop offset="1" stop-color="#0D6B05"/>
</linearGradient>
<linearGradient id="paint2_linear_796_1665" x1="62.5496" y1="23.2727" x2="105.833" y2="70.7276" gradientUnits="userSpaceOnUse">
<stop stop-color="#D9170B"/>
<stop offset="1" stop-color="#761111"/>
</linearGradient>
<linearGradient id="paint3_linear_796_1665" x1="45.7029" y1="79.9091" x2="109.87" y2="77.075" gradientUnits="userSpaceOnUse">
<stop stop-color="#10A3F5"/>
<stop offset="1" stop-color="#0B308E"/>
</linearGradient>
</defs>
</svg>
