<svg width="370" height="370" viewBox="0 0 370 370" fill="none" xmlns="http://www.w3.org/2000/svg">
<path fill-rule="evenodd" clip-rule="evenodd" d="M127.187 104.062C127.187 88.7297 133.278 74.0248 144.12 63.1829C154.962 52.3409 169.667 46.25 185 46.25C200.333 46.25 215.038 52.3409 225.879 63.1829C236.721 74.0248 242.812 88.7297 242.812 104.062C242.812 119.395 236.721 134.1 225.879 144.942C215.038 155.784 200.333 161.875 185 161.875C169.667 161.875 154.962 155.784 144.12 144.942C133.278 134.1 127.187 119.395 127.187 104.062ZM97.279 233.054C106.682 218.316 119.65 206.186 134.982 197.787C150.315 189.388 167.517 184.99 185 185C199.643 184.987 214.124 188.066 227.494 194.037C240.865 200.007 252.824 208.734 262.588 219.647C272.352 230.559 279.701 243.411 284.155 257.36C288.608 271.31 290.065 286.043 288.43 300.594C288.23 302.402 287.607 304.137 286.61 305.659C285.614 307.18 284.273 308.445 282.695 309.351C252.965 326.41 219.276 335.362 185 335.312C149.464 335.312 116.087 325.877 87.3044 309.351C85.7271 308.445 84.3858 307.18 83.3893 305.659C82.3928 304.137 81.7693 302.402 81.5694 300.594C78.9803 276.955 84.5211 253.138 97.279 233.069V233.054Z" fill="url(#paint0_linear_889_321)"/>
<path d="M258.437 115.562C249.694 124.306 244.781 136.166 244.781 148.531C244.781 160.897 249.694 172.756 258.437 181.5C267.181 190.244 279.041 195.156 291.406 195.156C303.772 195.156 315.631 190.244 324.375 181.5C333.119 172.756 338.031 160.897 338.031 148.531C338.031 136.166 333.119 124.306 324.375 115.562C315.631 106.819 303.772 101.906 291.406 101.906C279.041 101.906 267.181 106.819 258.437 115.562Z" fill="url(#paint1_linear_889_321)"/>
<path d="M48.6249 115.562C39.881 124.306 34.9688 136.166 34.9688 148.531C34.9688 160.897 39.881 172.756 48.6249 181.5C57.3688 190.244 69.228 195.156 81.5938 195.156C93.9595 195.156 105.819 190.244 114.563 181.5C123.306 172.756 128.219 160.897 128.219 148.531C128.219 136.166 123.306 124.306 114.563 115.562C105.819 106.819 93.9595 101.906 81.5938 101.906C69.228 101.906 57.3688 106.819 48.6249 115.562Z" fill="url(#paint2_linear_889_321)"/>
<path d="M58.6545 298.337C56.5137 270.227 63.6551 242.191 78.983 218.531C71.1632 218.881 63.4941 220.803 56.4333 224.183C49.3725 227.562 43.0648 232.329 37.8866 238.199C32.7083 244.069 28.7656 250.922 26.2937 258.349C23.8219 265.776 22.8715 273.625 23.4993 281.428L23.6547 283.308C23.7857 284.995 24.403 286.608 25.4319 287.952C26.4608 289.295 27.8571 290.311 29.4517 290.877L31.239 291.499C40.1429 294.633 49.3219 296.922 58.6545 298.337Z" fill="url(#paint3_linear_889_321)"/>
<path d="M294.017 218.531C309.345 242.191 316.487 270.227 314.346 298.337C323.795 296.907 332.949 294.592 341.762 291.483L343.549 290.862C345.141 290.297 346.536 289.283 347.565 287.943C348.593 286.602 349.212 284.993 349.346 283.308L349.501 281.428C350.129 273.625 349.179 265.776 346.707 258.349C344.235 250.922 340.292 244.069 335.114 238.199C329.936 232.329 323.628 227.562 316.567 224.183C309.506 220.803 301.837 218.881 294.017 218.531Z" fill="url(#paint4_linear_889_321)"/>
<defs>
<linearGradient id="paint0_linear_889_321" x1="185.014" y1="46.25" x2="185.014" y2="335.313" gradientUnits="userSpaceOnUse">
<stop stop-color="#63BFF3"/>
<stop offset="1" stop-color="#2865AD"/>
</linearGradient>
<linearGradient id="paint1_linear_889_321" x1="187" y1="90.5" x2="187" y2="311.5" gradientUnits="userSpaceOnUse">
<stop stop-color="#81F8BF"/>
<stop offset="1" stop-color="#258F5C"/>
</linearGradient>
<linearGradient id="paint2_linear_889_321" x1="187" y1="90.5" x2="187" y2="311.5" gradientUnits="userSpaceOnUse">
<stop stop-color="#81F8BF"/>
<stop offset="1" stop-color="#258F5C"/>
</linearGradient>
<linearGradient id="paint3_linear_889_321" x1="187" y1="90.5" x2="187" y2="311.5" gradientUnits="userSpaceOnUse">
<stop stop-color="#81F8BF"/>
<stop offset="1" stop-color="#258F5C"/>
</linearGradient>
<linearGradient id="paint4_linear_889_321" x1="187" y1="90.5" x2="187" y2="311.5" gradientUnits="userSpaceOnUse">
<stop stop-color="#81F8BF"/>
<stop offset="1" stop-color="#258F5C"/>
</linearGradient>
</defs>
</svg>
