<svg width="220" height="75" viewBox="0 0 220 75" fill="none" xmlns="http://www.w3.org/2000/svg">
<path d="M20.2504 20.5339C20.2504 21.9689 19.9177 23.2753 19.2523 24.4533C18.5869 25.6098 17.5996 26.5307 16.2904 27.2161C15.0025 27.9014 13.4357 28.2441 11.5899 28.2441H8.75669V35.4724H1.60938V12.7273H11.5899C14.3801 12.7273 16.5157 13.4341 17.9967 14.8476C19.4991 16.2612 20.2504 18.1566 20.2504 20.5339ZM10.785 22.6221C12.266 22.6221 13.0064 21.926 13.0064 20.5339C13.0064 19.1418 12.266 18.4457 10.785 18.4457H8.75669V22.6221H10.785ZM33.9789 35.4724L29.6969 27.3125H29.6647V35.4724H22.5174V12.7273H33.1417C34.9877 12.7273 36.5652 13.0593 37.8745 13.7232C39.1838 14.3657 40.1604 15.2545 40.8043 16.3897C41.4696 17.5034 41.8023 18.767 41.8023 20.1805C41.8023 21.7011 41.373 23.0504 40.5145 24.2284C39.6774 25.4063 38.4647 26.2523 36.8765 26.7663L41.8345 35.4724H33.9789ZM29.6647 22.5578H32.4978C33.1847 22.5578 33.6999 22.4079 34.0433 22.1081C34.3867 21.7868 34.5584 21.2942 34.5584 20.6303C34.5584 20.0306 34.376 19.5594 34.0111 19.2167C33.6677 18.8741 33.1632 18.7027 32.4978 18.7027H29.6647V22.5578ZM51.2328 18.4136V21.2085H58.3157V26.5736H51.2328V29.7861H59.2816V35.4724H44.0855V12.7273H59.2816V18.4136H51.2328ZM71.4728 12.7273C73.8552 12.7273 75.9372 13.2092 77.7187 14.173C79.5216 15.1367 80.906 16.4753 81.8718 18.1887C82.8377 19.9021 83.3206 21.8511 83.3206 24.0356C83.3206 26.1988 82.8377 28.1477 81.8718 29.8825C80.906 31.6173 79.5216 32.988 77.7187 33.9946C75.9372 34.9798 73.8552 35.4724 71.4728 35.4724H61.9752V12.7273H71.4728ZM70.8289 29.1115C72.4386 29.1115 73.7157 28.6724 74.6601 27.7943C75.6045 26.9162 76.0767 25.6633 76.0767 24.0356C76.0767 22.4079 75.6045 21.155 74.6601 20.2769C73.7157 19.3988 72.4386 18.9597 70.8289 18.9597H69.1226V29.1115H70.8289ZM93.0489 12.7273V35.4724H85.9016V12.7273H93.0489ZM95.6329 24.0677C95.6329 21.8189 96.0836 19.8164 96.9851 18.0602C97.908 16.304 99.2173 14.944 100.913 13.9802C102.609 12.995 104.605 12.5024 106.901 12.5024C108.876 12.5024 110.636 12.8772 112.181 13.6268C113.748 14.355 115.014 15.3938 115.98 16.743C116.968 18.0923 117.622 19.6665 117.944 21.4655H110.41C110.067 20.7159 109.573 20.1377 108.929 19.7307C108.307 19.3024 107.588 19.0882 106.772 19.0882C105.57 19.0882 104.615 19.538 103.907 20.4375C103.22 21.337 102.877 22.5471 102.877 24.0677C102.877 25.5884 103.22 26.7984 103.907 27.698C104.615 28.5975 105.57 29.0473 106.772 29.0473C107.588 29.0473 108.307 28.8438 108.929 28.4369C109.573 28.0085 110.067 27.4195 110.41 26.6699H117.944C117.622 28.469 116.968 30.0432 115.98 31.3924C115.014 32.7417 113.748 33.7912 112.181 34.5408C110.636 35.269 108.876 35.6331 106.901 35.6331C104.605 35.6331 102.609 35.1512 100.913 34.1874C99.2173 33.2022 97.908 31.8315 96.9851 30.0753C96.0836 28.3191 95.6329 26.3166 95.6329 24.0677ZM138.418 12.7273V18.3815H132.366V35.4724H125.218V18.3815H119.23V12.7273H138.418ZM147.504 12.7273V35.4724H140.357V12.7273H147.504ZM161.839 35.6973C159.693 35.6973 157.718 35.194 155.915 34.1874C154.134 33.1808 152.717 31.7887 151.665 30.011C150.614 28.2334 150.088 26.2309 150.088 24.0035C150.088 21.7761 150.614 19.7736 151.665 17.996C152.717 16.2183 154.134 14.8369 155.915 13.8517C157.718 12.8451 159.693 12.3418 161.839 12.3418C163.985 12.3418 165.949 12.8451 167.731 13.8517C169.512 14.8369 170.918 16.2183 171.948 17.996C173 19.7736 173.526 21.7761 173.526 24.0035C173.526 26.2309 173 28.2334 171.948 30.011C170.918 31.7887 169.502 33.1808 167.699 34.1874C165.917 35.194 163.964 35.6973 161.839 35.6973ZM161.839 29.0473C163.256 29.0473 164.35 28.5975 165.123 27.698C165.896 26.777 166.282 25.5455 166.282 24.0035C166.282 22.44 165.896 21.2085 165.123 20.309C164.35 19.3881 163.256 18.9276 161.839 18.9276C160.401 18.9276 159.296 19.3881 158.523 20.309C157.75 21.2085 157.364 22.44 157.364 24.0035C157.364 25.5455 157.75 26.777 158.523 27.698C159.296 28.5975 160.401 29.0473 161.839 29.0473ZM197.965 35.4724H190.818L183.252 24.0356V35.4724H176.105V12.7273H183.252L190.818 24.3569V12.7273H197.965V35.4724ZM210.112 35.6973C207.386 35.6973 205.133 35.0655 203.351 33.8019C201.591 32.5168 200.636 30.6428 200.486 28.1799H208.084C208.191 29.4863 208.771 30.1395 209.822 30.1395C210.209 30.1395 210.531 30.0539 210.788 29.8825C211.067 29.6898 211.207 29.4006 211.207 29.0151C211.207 28.4797 210.917 28.0513 210.337 27.7301C209.758 27.3874 208.856 27.0019 207.633 26.5736C206.174 26.0595 204.961 25.5562 203.995 25.0636C203.051 24.571 202.235 23.8536 201.548 22.9112C200.861 21.9688 200.529 20.7588 200.55 19.281C200.55 17.8032 200.926 16.5503 201.677 15.5223C202.45 14.4728 203.491 13.6804 204.8 13.1449C206.131 12.6095 207.622 12.3418 209.275 12.3418C212.065 12.3418 214.276 12.9843 215.907 14.2693C217.56 15.5544 218.429 17.3641 218.515 19.6986H210.82C210.799 19.0561 210.638 18.5956 210.337 18.3172C210.037 18.0388 209.672 17.8996 209.243 17.8996C208.942 17.8996 208.695 18.0067 208.502 18.2208C208.309 18.4136 208.213 18.692 208.213 19.0561C208.213 19.5701 208.492 19.9985 209.05 20.3411C209.629 20.6624 210.541 21.0586 211.786 21.5298C213.224 22.0652 214.405 22.5792 215.328 23.0718C216.272 23.5644 217.088 24.2498 217.774 25.1279C218.461 26.006 218.805 27.109 218.805 28.4369C218.805 29.829 218.461 31.0819 217.774 32.1956C217.088 33.2879 216.09 34.1446 214.78 34.7657C213.471 35.3868 211.915 35.6973 210.112 35.6973Z" fill="white"/>
<path d="M51.9817 42.5H0V45.8464H51.9817V42.5Z" fill="white"/>
<path d="M51.9817 49.1929H0V52.5393H51.9817V49.1929Z" fill="white"/>
<path d="M51.9817 55.8857H0V59.2322H51.9817V55.8857Z" fill="white"/>
<path d="M70.9174 47.2733C70.6383 46.8235 70.2413 46.4808 69.7261 46.2452C69.211 45.9882 68.5886 45.8597 67.8588 45.8597C66.4852 45.8597 65.4227 46.3095 64.6715 47.209C63.9203 48.0871 63.5447 49.2972 63.5447 50.8392C63.5447 52.6169 63.9632 53.9447 64.8003 54.8228C65.6374 55.7009 66.9252 56.14 68.6637 56.14C70.3164 56.14 71.6471 55.4761 72.6559 54.1482H66.9574V49.1044H78.5798V56.2364C77.5925 57.9283 76.2296 59.3847 74.491 60.6055C72.7525 61.8049 70.5525 62.4045 67.891 62.4045C65.53 62.4045 63.4696 61.9227 61.7096 60.9589C59.971 59.9737 58.6296 58.603 57.6852 56.8468C56.7622 55.0906 56.3008 53.088 56.3008 50.8392C56.3008 48.5904 56.7622 46.5879 57.6852 44.8317C58.6296 43.0755 59.971 41.7155 61.7096 40.7517C63.4481 39.7665 65.4871 39.2739 67.8266 39.2739C70.81 39.2739 73.2354 39.9914 75.1027 41.4263C76.9915 42.8613 78.1076 44.8103 78.451 47.2733H70.9174ZM92.9693 39.4988V62.2439H85.822V39.4988H92.9693ZM123.821 39.4988L116.159 62.2439H106.919L99.2561 39.4988H106.854L111.555 55.1441L116.223 39.4988H123.821ZM141.551 62.2439L137.269 54.0839H137.237V62.2439H130.089V39.4988H140.714C142.56 39.4988 144.137 39.8308 145.446 40.4947C146.756 41.1372 147.732 42.026 148.376 43.1611C149.042 44.2748 149.374 45.5385 149.374 46.952C149.374 48.4726 148.945 49.8219 148.086 50.9999C147.249 52.1778 146.037 53.0238 144.448 53.5378L149.406 62.2439H141.551ZM137.237 49.3293H140.07C140.757 49.3293 141.272 49.1794 141.615 48.8795C141.959 48.5583 142.13 48.0657 142.13 47.4018C142.13 46.8021 141.948 46.3309 141.583 45.9882C141.24 45.6455 140.735 45.4742 140.07 45.4742H137.237V49.3293ZM163.473 45.1851V47.98H170.556V53.345H163.473V56.5576H171.522V62.2439H156.326V39.4988H171.522V45.1851H163.473ZM186.031 45.1851V47.98H193.114V53.345H186.031V56.5576H194.08V62.2439H178.884V39.4988H194.08V45.1851H186.031ZM210.36 62.4688C207.634 62.4688 205.38 61.837 203.599 60.5734C201.839 59.2883 200.884 57.4143 200.733 54.9513H208.332C208.439 56.2578 209.018 56.911 210.07 56.911C210.456 56.911 210.778 56.8254 211.036 56.654C211.315 56.4613 211.454 56.1721 211.454 55.7866C211.454 55.2512 211.165 54.8228 210.585 54.5016C210.006 54.1589 209.104 53.7734 207.881 53.345C206.421 52.831 205.209 52.3277 204.243 51.8351C203.298 51.3425 202.483 50.6251 201.796 49.6827C201.109 48.7403 200.776 47.5303 200.798 46.0525C200.798 44.5747 201.173 43.3218 201.925 42.2937C202.697 41.2443 203.738 40.4519 205.048 39.9164C206.378 39.381 207.87 39.1133 209.523 39.1133C212.313 39.1133 214.524 39.7558 216.155 41.0408C217.808 42.3259 218.677 44.1356 218.763 46.4701H211.068C211.047 45.8276 210.886 45.3671 210.585 45.0887C210.285 44.8103 209.92 44.6711 209.491 44.6711C209.19 44.6711 208.943 44.7781 208.75 44.9923C208.557 45.1851 208.46 45.4635 208.46 45.8276C208.46 46.3416 208.739 46.7699 209.297 47.1126C209.877 47.4339 210.789 47.8301 212.034 48.3013C213.472 48.8367 214.652 49.3507 215.575 49.8433C216.52 50.3359 217.335 51.0213 218.022 51.8994C218.709 52.7775 219.052 53.8805 219.052 55.2083C219.052 56.6005 218.709 57.8534 218.022 58.9671C217.335 60.0594 216.337 60.916 215.028 61.5371C213.719 62.1582 212.163 62.4688 210.36 62.4688Z" fill="url(#paint0_linear_941_438)"/>
<defs>
<linearGradient id="paint0_linear_941_438" x1="137.835" y1="38.4841" x2="137.835" y2="64.2518" gradientUnits="userSpaceOnUse">
<stop stop-color="#A6F4FF"/>
<stop offset="1" stop-color="#2373BD"/>
</linearGradient>
</defs>
</svg>
