<svg width="41" height="41" viewBox="0 0 41 41" fill="none" xmlns="http://www.w3.org/2000/svg">
    <path
        d="M33.6452 20.4969C35.3712 26.9258 37.7127 33.871 37.6078 40.4802C37.5819 41.9535 37.553 43.4228 37.3896 44.8884C37.3736 45.0346 37.0666 46.6699 37.0503 46.8191C36.6256 50.704 7.11565 43.9994 12.6179 22.3399C16.4091 16.6296 28.2041 11.2002 33.6452 20.4969Z"
        fill="#EFF5F6" />
    <path
        d="M29.683 2.23448C30.0676 2.48738 30.427 2.75917 30.7785 3.05614C30.8556 3.12069 30.9327 3.18525 31.0121 3.25177C31.878 4.0016 32.4833 4.81836 33.0199 5.8228C33.3332 6.40636 33.6017 6.63664 34.1752 6.96585C34.2328 6.99922 34.2904 7.03259 34.3498 7.06697C34.5341 7.17361 34.7186 7.27969 34.9032 7.38563C35.7059 7.84631 36.491 8.31039 37.2376 8.86C37.023 9.09737 36.8078 9.23474 36.5242 9.38108C36.4375 9.4261 36.3508 9.47112 36.2614 9.5175C36.1685 9.56503 36.0755 9.61257 35.9797 9.66155C35.8844 9.71083 35.789 9.76012 35.6907 9.8109C34.9735 10.1804 34.2529 10.5432 33.5292 10.8997C33.2313 11.047 32.9416 11.1941 32.6573 11.3667C32.4635 11.4811 32.4635 11.4811 32.2763 11.4811C32.2667 11.5633 32.2572 11.6455 32.2474 11.7301C32.1511 12.4053 31.9731 13.0686 31.8161 13.7316C31.6025 14.6627 31.4831 15.278 31.9896 16.1148C32.7379 17.4409 33.8676 20.1869 34.1953 21.6379C34.2196 21.7198 34.244 21.8017 34.269 21.8861C34.2903 21.962 34.3116 22.0379 34.3335 22.1162C34.3522 22.1823 34.3708 22.2484 34.39 22.3165C34.4214 22.5294 34.389 22.6747 34.324 22.8782C34.288 22.7778 34.288 22.7778 34.2512 22.6753C33.944 21.8757 32.9778 19.9272 32.4635 19.2508C32.4058 19.1745 32.3481 19.0983 32.2887 19.0197C30.8137 17.2219 28.5167 16.499 26.2852 16.2553C22.7074 15.9672 18.7873 17.5057 16.0842 19.7807C14.4842 21.2596 13.1949 23.8038 13.0701 25.99C12.9856 30.4374 10.3489 33.4683 10.3538 38.5229C10.3538 38.6224 10.3538 38.7219 10.3539 38.8245C10.3558 40.4828 10.4065 42.1246 10.5586 43.7768C10.5681 43.8851 10.5776 43.9933 10.5874 44.1049C10.9585 48.2093 12.0319 52.5328 15.3152 55.326C19.592 56.1334 18.141 56.5079 16.8305 59.8779C16.4092 62.2649 12.2904 61.5161 11.1202 60.2523C10.9951 59.8465 10.8363 59.4821 10.6405 59.1056C10.3713 58.5879 10.3713 58.5879 10.3713 58.3801C6.34607 56.1334 6.3383 56.2739 5.6647 53.849C5.57032 53.5092 5.4719 53.1708 5.37145 52.8328C4.99271 51.5495 4.73559 50.2606 4.52221 48.9405C4.49059 48.747 4.45767 48.5537 4.4233 48.3607C3.96054 45.7417 2.95268 42.7003 4.56746 38.3474C5.72187 31.1394 8.22637 23.5362 9.51129 19.5609C9.58786 19.344 9.66516 19.1274 9.74312 18.9111C9.78346 18.7985 9.82379 18.6859 9.86535 18.5699C10.0916 17.97 10.3566 17.3882 10.6229 16.8052C10.6718 16.6979 10.7207 16.5905 10.7711 16.4799C10.8191 16.3746 10.8671 16.2694 10.9165 16.1609C11.0157 15.9427 11.1148 15.7246 11.2138 15.5064C11.2538 15.4193 11.2538 15.4193 11.2946 15.3305C11.7065 14.4314 12.0452 13.5258 12.345 12.5838C13.7436 8.209 15.6016 4.07306 19.826 1.8392C20.734 1.38469 21.6502 1.12367 22.6344 0.903088C22.6909 0.886632 22.7475 0.870176 22.8058 0.853221C25.1166 0.355366 27.7058 1.02652 29.683 2.23448Z"
        fill="#3E526B" />
    <path
        d="M10.5648 32.7834C10.8455 33.0641 10.6434 33.8515 10.6526 34.2286C11.1262 45.6608 24.0813 51.2627 34.3185 49.7387C34.3927 49.7277 34.467 49.7167 34.5434 49.7053C34.9937 49.6307 35.4111 49.513 35.8396 49.3558C36.0211 49.2999 36.0211 49.2999 36.3019 49.2999C35.5225 52.0279 33.5055 54.6384 31.0585 56.0554C28.7301 57.315 26.1182 57.6646 23.5065 57.6664C23.4316 57.6665 23.3566 57.6667 23.2794 57.6669C20.2073 57.6661 16.9519 56.9749 14.6552 54.809C12.9423 53.038 11.6789 50.6627 11.1206 48.2702C11.1045 48.2044 11.0884 48.1386 11.0718 48.0708C10.7847 46.8679 10.6643 45.6427 10.5414 44.4146C10.5335 44.3356 10.5255 44.2565 10.5174 44.1751C10.3438 42.4238 10.2606 40.6859 10.2608 38.9258C10.2606 38.6348 10.2589 38.3439 10.2571 38.0529C10.2527 36.4743 10.3022 34.3393 10.5648 32.7834Z"
        fill="#AAC5CF" />
    <path
        d="M13.4605 29.4075C13.4605 37.9261 29.4236 46.6026 37.0973 46.5383C36.9568 47.6148 36.6977 48.3464 36.2548 49.4402C31.946 60.0805 11.133 45.8991 10.5586 35.1646C10.4199 33.5787 10.5116 32.1902 11.0553 30.6873C11.0809 30.6112 11.1066 30.535 11.133 30.4565C11.3476 29.8891 12.646 25.7007 13.1797 25.4291C13.6772 25.2016 13.3201 27.7693 13.4605 29.4075Z"
        fill="#CBDDE2" />
    <path
        d="M11.8633 19.8476C12.5704 20.7476 12.419 22.1071 12.3082 23.1827C12.1337 24.5887 11.8123 25.9473 11.4011 27.3013C11.3676 27.414 11.3341 27.5267 11.2997 27.6428C11.0273 28.5481 10.7022 29.4231 10.3421 30.2969C10.302 30.3948 10.302 30.3948 10.2611 30.4946C9.86983 31.4493 9.46197 32.3863 8.96718 33.2924C8.9028 33.4142 8.83845 33.5359 8.77411 33.6577C8.25787 34.6189 7.65491 35.5088 7.00135 36.3816C6.94379 36.4587 6.88623 36.5358 6.82693 36.6152C6.16151 37.4359 5.29528 38.0168 4.3393 38.441C2.95238 39.0583 1.89787 40.0066 0.82304 41.0621C0.748873 41.1349 0.674706 41.2076 0.598292 41.2826C0.360519 41.5166 0.123514 41.7513 -0.113068 41.9865C-0.186941 42.0599 -0.260813 42.1334 -0.336925 42.209C-0.726754 42.6 -1.09928 42.9994 -1.45945 43.4178C-1.68553 43.6744 -1.92773 43.9127 -2.1725 44.1513C-2.4818 44.4559 -2.78274 44.7601 -3.06181 45.0932C-3.67393 45.8064 -4.92284 47.4454 -6.01055 47.0532C-6.33151 46.6105 -6.35409 46.1755 -6.29138 45.649C-5.76354 42.5453 -4.26193 39.5743 -2.92139 36.756C-2.87895 36.6667 -2.8365 36.5775 -2.79277 36.4855C-2.17255 35.1911 -1.47709 33.9498 -0.74101 32.7181C-0.589671 32.4643 -0.439988 32.2095 -0.290782 31.9544C1.31235 29.227 3.21775 26.6712 5.31636 24.3058C5.39672 24.2148 5.47709 24.1238 5.55989 24.0301C10.0758 19.0109 10.0758 19.0109 11.8633 19.8476Z"
        fill="#18212E" />
    <path
        d="M33.8672 21.6847C34.2519 22.0477 34.5608 22.4365 34.8677 22.8665C34.9191 22.9383 34.9706 23.0101 35.0236 23.0841C36.511 25.1778 37.9133 27.3172 39.0158 29.6416C39.0468 29.7056 39.0777 29.7695 39.1097 29.8354C39.8956 31.466 40.4314 33.1869 40.7008 34.9774C40.7168 35.0757 40.7328 35.174 40.7494 35.2753C40.798 35.6616 40.8112 36.0367 40.8134 36.4255C40.8139 36.5002 40.8145 36.5749 40.815 36.6518C40.8159 36.8095 40.8165 36.9671 40.8169 37.1248C40.8178 37.3612 40.8207 37.5976 40.8236 37.834C40.8425 40.7455 40.8425 40.7455 39.9811 41.6238C39.9097 41.6856 39.8383 41.7474 39.7647 41.811C38.6466 41.4138 37.43 40.2635 37.375 39.0363C37.3719 38.974 37.3688 38.9116 37.3656 38.8473C37.3589 38.7124 37.3525 38.5774 37.3464 38.4424C37.3298 38.081 37.3097 37.7198 37.2895 37.3586C37.2833 37.2478 37.2833 37.2478 37.277 37.1348C37.0537 33.238 36.1424 29.5943 35.0735 25.8599C34.993 25.5784 34.9129 25.2968 34.8328 25.0151C34.7358 24.6741 34.6387 24.3331 34.5415 23.9921C34.5235 23.9291 34.5056 23.8661 34.4871 23.8012C34.2854 23.0942 34.0811 22.3881 33.8672 21.6847Z"
        fill="#18212E" />
    <path
        d="M31.34 5.58362C31.5971 5.65054 31.5971 5.65054 31.9017 5.77084C32.0046 5.8109 32.1076 5.85096 32.2136 5.89224C32.3211 5.93713 32.4286 5.98202 32.5394 6.02827C32.6462 6.07219 32.753 6.11612 32.863 6.16137C33.2042 6.31733 33.5021 6.52099 33.811 6.73259C34.3581 7.09528 34.9324 7.41672 35.4992 7.74757C36.0958 8.09625 36.6846 8.44407 37.2375 8.85999C37.0229 9.09736 36.8077 9.23473 36.5241 9.38107C36.4374 9.42607 36.3508 9.47106 36.2615 9.51742C36.1684 9.56498 36.0754 9.61254 35.9796 9.66154C35.8838 9.71103 35.7881 9.76052 35.6894 9.81151C34.9839 10.1749 34.2752 10.5317 33.5635 10.8826C33.0649 11.1294 32.5817 11.3909 32.1068 11.6811C31.833 11.789 31.7102 11.7681 31.4336 11.6683C31.1784 11.484 31.1784 11.484 30.9071 11.2471C30.8075 11.1613 30.708 11.0756 30.6083 10.99C30.5585 10.9467 30.5086 10.9034 30.4573 10.8588C30.2381 10.67 30.014 10.4876 29.7896 10.3051C29.6631 10.2018 29.6631 10.2018 29.534 10.0963C29.3661 9.95945 29.1982 9.82269 29.0301 9.68604C28.7697 9.47388 28.5101 9.26078 28.2509 9.04722C28.1969 9.00292 28.1428 8.95861 28.0872 8.91297C27.917 8.77304 27.7474 8.63232 27.578 8.4914C27.524 8.44713 27.47 8.40286 27.4143 8.35725C27.2839 8.24814 27.1584 8.13327 27.0339 8.0175C27.0339 7.95571 27.0339 7.89393 27.0339 7.83028C27.1504 7.83329 27.2668 7.83631 27.3868 7.83942C28.309 7.84164 28.9256 7.80542 29.6155 7.13258C29.6904 7.05391 29.7652 6.97523 29.8423 6.89417C30.007 6.74483 30.1728 6.59658 30.3396 6.44952C30.5441 6.26562 30.7473 6.08273 30.9418 5.88822C31.0826 5.75329 31.0826 5.75329 31.34 5.58362Z"
        fill="#C07359" />
    <path
        d="M29.6833 2.23446C30.9744 3.08336 31.3045 3.21732 32.0894 4.5539C32.5753 5.37034 29.6645 5.32718 29.4409 5.08997C29.0413 4.67703 28.6164 3.7114 27.6429 3.14974C25.209 1.74557 24.1793 1.18391 21.1369 1.46474C21.0901 1.46906 21.0552 1.29794 21.1369 1.27752C21.6362 1.15271 22.1354 1.02789 22.6347 0.903071C22.6922 0.886207 22.7497 0.869344 22.809 0.851969C25.1229 0.36055 27.7036 1.02496 29.6833 2.23446Z"
        fill="#7695AC" />
    <path
        d="M31.2958 5.58362C31.7274 5.71838 32.1464 5.8707 32.5648 6.04024C32.6777 6.08534 32.7907 6.13045 32.9071 6.17692C33.2678 6.3369 33.5823 6.54596 33.9088 6.76309C34.2084 6.95543 34.5158 7.13307 34.826 7.3087C34.8837 7.34145 34.9413 7.3742 35.0008 7.40793C35.2398 7.54342 35.479 7.67855 35.7186 7.81306C35.8959 7.91278 36.0728 8.01324 36.2497 8.1138C36.3539 8.17255 36.4582 8.2313 36.5656 8.29183C36.8268 8.4579 37.0275 8.62959 37.2381 8.85205C34.6016 9.00559 32.1694 6.99963 29.8896 6.75375C29.8896 6.46536 30.4045 6.35266 30.5995 6.15627C30.6822 6.08824 30.7649 6.02021 30.8502 5.95011C30.9329 5.88134 31.0156 5.81257 31.1009 5.74171C31.1652 5.68954 31.2296 5.63737 31.2958 5.58362Z"
        fill="#DEA084" />
    <path
        d="M30.8549 6.54313C32.3865 6.99487 33.6385 7.91231 35.2605 8.45045C35.3892 8.49336 36.3136 8.7235 36.4423 8.7664C36.1686 8.84875 35.1681 8.67632 34.8857 8.63694C32.9266 8.37646 30.4956 8.05675 28.5322 7.83029C28.5322 7.47444 29.0412 7.42286 29.2811 7.17502C30.0936 6.38894 30.1886 6.42321 30.8549 6.54313Z"
        fill="#CD8061" />
    <path
        d="M29.2424 7.8219C29.7654 7.93171 30.2885 7.99619 30.8193 8.05513C30.9203 8.06666 31.0212 8.0782 31.1252 8.09008C31.4464 8.12671 31.7677 8.16278 32.0889 8.19884C32.2986 8.22263 32.5082 8.24646 32.7179 8.27032C33.1367 8.31796 33.5555 8.3654 33.9743 8.4127C34.9998 8.52873 36.2123 8.74123 37.2375 8.85996C37.2066 8.92174 37.1439 8.95357 37.0971 9.00038C34.0051 8.7463 33.8647 8.6995 32.7968 8.53817C31.5594 8.35187 30.311 8.25545 29.0651 8.14456C28.9788 8.13682 28.8925 8.12908 28.8036 8.12111C28.6404 8.10653 28.4772 8.09214 28.314 8.07799C28.098 8.05874 27.0339 8.06522 27.0339 7.83024C27.2952 7.80918 27.6501 7.78997 27.9115 7.77174C27.9841 7.7657 28.0566 7.75967 28.1313 7.75345C28.5188 7.72783 28.8627 7.73624 29.2424 7.8219Z"
        fill="#6E5D59" />
    <path
        d="M20.6715 3.24341C20.6311 4.9996 20.9409 7.09979 22.121 8.47175C22.5279 8.89182 22.9031 9.20632 23.5045 9.2345C23.874 9.23008 24.076 9.1508 24.3529 8.908C24.7144 8.53214 24.9751 8.12067 25.1831 7.64249C25.2268 7.54371 25.2268 7.54371 25.2713 7.44294C25.3908 6.93175 25.3927 6.45149 25.127 5.99006C24.6141 5.256 23.788 4.92417 22.9927 4.59725C22.2135 4.27653 21.5396 3.92224 20.9224 3.33459C20.8125 3.24341 20.8125 3.24341 20.6715 3.24341Z"
        fill="#FAFAFB" />
    <path
        d="M23.039 6.25586C22.7583 6.48436 22.6754 6.64995 22.6344 7.00225C22.6479 7.30021 22.7484 7.47542 22.9571 7.7009C23.2518 7.88434 23.4797 7.95796 23.83 7.90919C24.1438 7.7506 24.3489 7.60092 24.4846 7.28431C24.5271 7.00707 24.5128 6.79266 24.3983 6.53358C24.0379 6.11849 23.5514 6.05383 23.039 6.25586Z"
        fill="#354357" />
    <path
        d="M23.9312 6.33252C23.843 6.38548 23.7547 6.43843 23.6638 6.493C23.6858 6.62539 23.7079 6.75778 23.7306 6.89418C23.841 6.89418 23.9513 6.89418 24.065 6.89418C24.1109 6.74875 24.1109 6.74875 24.1318 6.57323C24.0357 6.43282 24.0357 6.43282 23.9312 6.33252Z"
        fill="#EAEEF0" />
</svg>
