<svg width="561" height="272" viewBox="0 0 561 272" fill="none" xmlns="http://www.w3.org/2000/svg">
    <path d="M190.936 2.20072L161.194 132.043H110.523L95.4682 58.319L80.4136 132.043H29.742L0 2.20072H43.8786L55.6286 83.994L73.2535 2.20072H117.683L135.308 83.994L147.058 2.20072H190.936ZM246.311 34.6613V50.6165H286.701V81.2431H246.311V99.5824H292.209V132.043H205.553V2.20072H292.209V34.6613H246.311ZM348.325 2.20072V132.043H307.567V2.20072H348.325ZM407.492 101.233H446.78V132.043H366.734V2.20072H407.492V101.233ZM510.46 133.327C494.916 133.327 482.065 129.72 471.906 122.506C461.869 115.171 456.423 104.473 455.566 90.4128H498.894C499.506 97.8708 502.811 101.6 508.808 101.6C511.011 101.6 512.847 101.111 514.316 100.133C515.907 99.0323 516.702 97.3817 516.702 95.181C516.702 92.1245 515.05 89.6792 511.745 87.8453C508.441 85.8891 503.3 83.6884 496.324 81.2431C488.001 78.3088 481.085 75.4357 475.578 72.6237C470.192 69.8116 465.541 65.7158 461.625 60.3363C457.708 54.9568 455.811 48.049 455.933 39.6129C455.933 31.1768 458.075 24.0245 462.359 18.1559C466.765 12.1651 472.701 7.64137 480.167 4.58482C487.756 1.52827 496.262 0 505.687 0C521.598 0 534.205 3.66786 543.507 11.0036C552.931 18.3393 557.888 28.6704 558.378 41.997H514.499C514.377 38.3291 513.459 35.7005 511.745 34.1111C510.032 32.5217 507.951 31.727 505.503 31.727C503.79 31.727 502.382 32.3383 501.281 33.5609C500.179 34.6613 499.628 36.2507 499.628 38.3292C499.628 41.2634 501.219 43.7087 504.402 45.6649C507.706 47.4988 512.908 49.7607 520.007 52.4504C528.208 55.507 534.939 58.4413 540.202 61.2533C545.588 64.0653 550.239 67.9777 554.155 72.9904C558.072 78.0032 560.03 84.2997 560.03 91.8799C560.03 99.827 558.072 106.979 554.155 113.337C550.239 119.572 544.547 124.463 537.081 128.008C529.615 131.554 520.741 133.327 510.46 133.327Z" fill="url(#paint0_linear_0_1)" fill-opacity="0.6" />
    <mask id="mask0_0_1" style="mask-type: luminance;" maskUnits="userSpaceOnUse" x="97" y="141" width="366" height="131">
        <path d="M207.181 141.327V173.604H172.666V271.169H131.908V173.604H97.7598V141.327H207.181ZM320.312 141.327V173.604H285.797V271.169H245.039V173.604H210.891V141.327H320.312ZM462.27 141.327L418.575 271.169H365.883L322.187 141.327H365.516L392.321 230.639L418.942 141.327H462.27Z" fill="white" />
    </mask>
    <g mask="url(#mask0_0_1)">
        <path d="M207.181 141.327H211.006V137.506H207.181V141.327ZM207.181 173.604V177.424H211.006V173.604H207.181ZM172.665 173.604V169.783H168.84V173.604H172.665ZM172.665 271.169V274.989H176.49V271.169H172.665ZM131.908 271.169H128.083V274.989H131.908V271.169ZM131.908 173.604H135.733V169.783H131.908V173.604ZM97.7594 173.604H93.9346V177.424H97.7594V173.604ZM97.7594 141.327V137.506H93.9346V141.327H97.7594ZM203.356 141.327V173.604H211.006V141.327H203.356ZM207.181 169.783H172.665V177.424H207.181V169.783ZM168.84 173.604V271.169H176.49V173.604H168.84ZM172.665 267.348H131.908V274.989H172.665V267.348ZM135.733 271.169V173.604H128.083V271.169H135.733ZM131.908 169.783H97.7594V177.424H131.908V169.783ZM101.584 173.604V141.327H93.9346V173.604H101.584ZM97.7594 145.147H207.181V137.506H97.7594V145.147ZM320.312 141.327H324.137V137.506H320.312V141.327ZM320.312 173.604V177.424H324.137V173.604H320.312ZM285.797 173.604V169.783H281.972V173.604H285.797ZM285.797 271.169V274.989H289.621V271.169H285.797ZM245.039 271.169H241.214V274.989H245.039V271.169ZM245.039 173.604H248.864V169.783H245.039V173.604ZM210.891 173.604H207.066V177.424H210.891V173.604ZM210.891 141.327V137.506H207.066V141.327H210.891ZM316.487 141.327V173.604H324.137V141.327H316.487ZM320.312 169.783H285.797V177.424H320.312V169.783ZM281.972 173.604V271.169H289.621V173.604H281.972ZM285.797 267.348H245.039V274.989H285.797V267.348ZM248.864 271.169V173.604H241.214V271.169H248.864ZM245.039 169.783H210.891V177.424H245.039V169.783ZM214.716 173.604V141.327H207.066V173.604H214.716ZM210.891 145.147H320.312V137.506H210.891V145.147ZM462.269 141.327L465.893 142.544L467.59 137.506H462.269V141.327ZM418.574 271.169V274.989H421.322L422.198 272.386L418.574 271.169ZM365.883 271.169L362.257 272.386L363.133 274.989H365.883V271.169ZM322.186 141.327V137.506H316.866L318.562 142.544L322.186 141.327ZM365.516 141.327L369.178 140.229L368.362 137.506H365.516V141.327ZM392.319 230.639L388.656 231.736L392.332 243.986L395.985 231.729L392.319 230.639ZM418.939 141.327V137.506H416.088L415.275 140.236L418.939 141.327ZM458.643 140.109L414.948 269.952L422.198 272.386L465.893 142.544L458.643 140.109ZM418.574 267.348H365.883V274.989H418.574V267.348ZM369.507 269.952L325.812 140.109L318.562 142.544L362.257 272.386L369.507 269.952ZM322.186 145.147H365.516V137.506H322.186V145.147ZM361.852 142.424L388.656 231.736L395.983 229.542L369.178 140.229L361.852 142.424ZM395.985 231.729L422.606 142.417L415.275 140.236L388.654 229.549L395.985 231.729ZM418.939 145.147H462.269V137.506H418.939V145.147Z" fill="url(#paint1_linear_0_1)" fill-opacity="0.6" />
    </g>
    <defs>
        <linearGradient id="paint0_linear_0_1" x1="280.015" y1="0" x2="280.015" y2="133.327" gradientUnits="userSpaceOnUse">
            <stop stop-color="#C2D1E3" />
            <stop offset="1" stop-color="#4E8BD3" />
        </linearGradient>
        <linearGradient id="paint1_linear_0_1" x1="280.762" y1="137.506" x2="280.762" y2="274.989" gradientUnits="userSpaceOnUse">
            <stop stop-color="#C2D1E3" />
            <stop offset="1" stop-color="#4E8BD3" />
        </linearGradient>
    </defs>
</svg>
