<svg xmlns="http://www.w3.org/2000/svg" width="352" height="380" viewBox="0 0 352 380" fill="none">
    <path fill-rule="evenodd" clip-rule="evenodd"
        d="M196.419 141.09C202.894 141.09 208.143 135.846 208.143 129.377C208.143 122.907 202.894 117.663 196.419 117.663C189.944 117.663 184.694 122.907 184.694 129.377C184.694 135.846 189.944 141.09 196.419 141.09ZM200.898 130.824C203.153 130.824 204.982 128.998 204.982 126.744C204.982 124.491 203.153 122.664 200.898 122.664C198.643 122.664 196.814 124.491 196.814 126.744C196.814 128.998 198.643 130.824 200.898 130.824Z"
        fill="url(#paint0_linear_936_314)" />
    <path fill-rule="evenodd" clip-rule="evenodd"
        d="M289.578 300.714C311.746 274.71 325.126 240.998 325.126 204.164C325.126 164.16 309.345 127.839 283.664 101.075C284.256 85.8889 282.098 72.5359 278.014 60.8605C322.796 92.7375 352 145.043 352 204.164C352 301.275 273.202 380 176 380C78.7979 380 0 301.275 0 204.164C0 125.37 51.8748 58.6806 123.365 36.3255C92.7245 54.0002 75.4579 79.3457 66.0273 103.536C42.2406 129.47 27.5234 163.843 26.8952 201.641C38.0387 188.664 57.5919 168.704 74.1677 160.964C72.1916 140.037 77.7246 74.4935 141.88 45.9333C138.719 36.2377 132.843 13.4773 134.635 0C139.246 6.31747 159.533 20.5318 170.335 20.2686C164.934 12.3717 163.353 5.92263 163.88 0.65807C166.647 2.63228 187.025 13.8917 195.629 16.1885C228.168 24.875 279.808 58.4366 259.653 134.115C272.563 141.222 295.775 161.675 298.515 178.205C285.781 174.432 256.992 167.176 243.713 168.334C237.331 176.591 237.014 178.872 236.758 180.714C236.692 181.191 236.63 181.639 236.467 182.154C260.503 196.851 291.874 238.763 289.578 300.714ZM233.596 341.632C215.876 349.052 196.417 353.151 176 353.151C149.667 353.151 124.927 346.332 103.455 334.364C62.4263 281.711 82.1481 203.702 118.958 193.473C128.668 190.774 134.196 179.565 135.952 174.915C137.794 172.002 136.954 166.32 135.931 159.404C135.198 154.447 134.371 148.856 134.371 143.196C134.371 112.741 158.523 119.198 169.809 126.218C146.728 100.843 154.153 85.4175 158.874 81.7323C188.948 58.2587 237.508 106.32 232.779 137.537C231.338 137.961 229.731 138.712 227.977 139.53C224.115 141.333 219.54 143.468 214.467 143.196C213.624 151.514 221.976 163.465 232.647 168.334C224.592 192.27 215.158 201.463 207.525 208.901C205.42 210.952 203.452 212.869 201.688 214.926C191.413 226.903 188.383 237.3 192.862 248.487C198.025 227.748 205.465 220.987 219.831 207.931C223.426 204.664 227.454 201.003 231.988 196.631C261.467 232.036 245.513 307.488 233.596 341.632ZM175.078 47.9075C117.904 43.8275 77.1973 103.975 81.6763 158.463C82.9937 143.196 103.676 32.6403 197.605 54.7514C191.808 51.5927 180.084 44.6171 161.245 32.6403C167.358 35.2726 191.149 41.59 199.844 41.9849C188.515 38.1681 152.814 25.928 143.329 18.8208C147.018 29.4815 163.616 42.5113 175.078 47.9075ZM191.018 25.1383C240.419 40.0107 259.521 73.7038 253.988 120.558C255.832 78.442 236.73 56.4624 226.587 46.723C226.946 47.5814 227.345 48.5034 227.764 49.4696C230.103 54.874 233.042 61.6641 233.042 66.4651C224.742 47.1178 206.826 33.9564 191.018 25.1383Z"
        fill="url(#paint1_linear_936_314)" />
    <defs>
        <linearGradient id="paint0_linear_936_314" x1="176" y1="0" x2="176" y2="380"
            gradientUnits="userSpaceOnUse">
            <stop stop-color="white" />
            <stop offset="0.447917" stop-color="#71A5D5" />
            <stop offset="1" stop-color="#17274F" />
        </linearGradient>
        <linearGradient id="paint1_linear_936_314" x1="176" y1="0" x2="176" y2="380"
            gradientUnits="userSpaceOnUse">
            <stop stop-color="white" />
            <stop offset="0.447917" stop-color="#71A5D5" />
            <stop offset="1" stop-color="#17274F" />
        </linearGradient>
    </defs>
</svg>
