<svg width="398" height="381" viewBox="0 0 398 381" fill="none" xmlns="http://www.w3.org/2000/svg">
    <path fill-rule="evenodd" clip-rule="evenodd" d="M232.342 1.4758C214.202 5.67202 200.459 15.5694 189.476 32.3479C184.334 40.2044 180.959 48.4661 175.022 67.7393C168.602 88.5796 167.277 90.9236 151.817 108.811C139.99 122.493 134.453 130.252 129.469 140.123C125.402 148.177 120.184 162.303 118.249 170.491L117.13 175.228L108.423 175.233C103.635 175.236 95.6211 174.764 90.6165 174.186C82.2313 173.216 81.2452 173.268 78.0441 174.857C72.9863 177.368 70.9283 180.647 70.8832 186.269C70.848 190.636 71.0348 191.046 73.552 192.149C80.2672 195.09 80.7643 195.525 81.0629 198.713C81.7125 205.663 88.3962 208.313 103.028 207.422C113.004 206.814 112.704 206.565 110.553 213.654C108.643 219.95 108.736 220.24 113.304 222.26C116.52 223.683 117.356 224.488 117.138 225.951C116.831 228.007 115.437 228.984 111.687 229.771C110.147 230.095 108.682 231.334 107.782 233.074C106.673 235.218 105.89 235.755 104.383 235.405C103.304 235.155 98.4126 233.895 93.5109 232.606C73.3824 227.314 52.1107 230.863 34.0898 242.521C17.3645 253.34 6.04164 269.727 1.72633 289.358C-0.166525 297.97 0.2909 315.918 2.62223 324.545C9.59819 350.35 29.5923 370.635 54.8093 377.49C64.6696 380.17 81.4563 380.136 91.5964 377.415C109.086 372.724 123.803 362.558 134.834 347.552L139.145 341.687L164.542 341.236L189.938 340.785L195.14 338.15C201.446 334.958 208.702 327.518 211.234 321.65C213.407 316.614 213.802 307.32 212.066 302.061L210.938 298.642L215.776 293.697C223.698 285.598 248.012 263.486 256.251 256.885C260.469 253.506 268.386 247.017 273.845 242.467C279.303 237.915 285.076 233.289 286.673 232.186L289.578 230.179L290.158 232.489C290.927 235.553 290.008 236.496 281.336 241.535C253.749 257.563 239.97 291.729 248.166 323.776C255.107 350.921 275.972 371.727 302.961 378.418C314.522 381.284 331.13 381.104 342.935 377.986C361.667 373.037 375.784 362.925 386.172 347.01C395.044 333.419 398.449 320.359 397.646 302.992C396.301 273.878 381.588 250.671 356.398 237.927C344.566 231.941 329.883 228.718 319.232 229.767L313.179 230.363L311.327 226.735C310.31 224.739 308.67 222.674 307.684 222.147C306.699 221.619 305.264 219.974 304.497 218.491C302.873 215.349 302.178 215.767 313.542 213.046C323.933 210.558 324.82 210.064 324.82 206.774V204.099H334.804C340.295 204.099 345.537 203.698 346.452 203.208C347.367 202.718 349.03 200.838 350.147 199.031L352.178 195.745L353.859 199.019C356.882 204.914 360.701 202.413 359.545 195.295C359.162 192.942 358.789 187.619 358.716 183.465C358.532 173.02 357.87 172.521 344.173 172.521C337.975 172.521 331.536 173.089 327.808 173.963C316.566 176.601 308.16 174.456 297.104 166.127C290.538 161.181 290.363 160.645 292.55 152.197C295.376 141.288 295.318 121.595 292.43 111.17C291.173 106.63 290.26 100.741 290.195 96.7348C290.068 88.9964 291.584 85.6519 299.556 76.0722C305.051 69.4688 310.817 66.5077 320.76 65.1824C327.331 64.3063 341.683 60.2833 344.443 58.5438C346.125 57.4837 345.845 56.5102 342.889 53.1423C339.227 48.9713 331.264 45.6033 318.854 42.9743C313.123 41.7608 307.269 40.1656 305.845 39.4294C304.094 38.5236 302.044 35.7574 299.498 30.8638C292.988 18.3509 279.528 7.4927 264.822 2.89228C256.736 0.36246 240.262 -0.355706 232.342 1.4758ZM261.548 20.0119C248.618 22.3522 229.871 36.7156 219.556 52.1859C209.087 67.8881 209.004 78.925 219.241 94.0001C228.55 107.709 227.793 116.954 215.935 134.322C208.196 145.655 206.67 149.198 206.664 155.83C206.659 163.143 208.413 170.917 213.746 187.221C216.214 194.767 219.292 205.204 220.585 210.414C221.878 215.625 223.112 220.399 223.328 221.025C223.594 221.79 226.289 220.61 231.571 217.416C247.216 207.955 262.373 190.068 271.941 169.776C279.719 153.278 282.548 141.82 282.737 126.057C282.847 116.863 282.543 114.241 280.719 108.675C277.42 98.606 273.525 93.8107 261.754 85.3271C256.12 81.2662 249.588 76.0514 247.24 73.739C242.771 69.338 236.402 59.4803 236.402 56.9668C236.402 54.8105 244.397 44.6244 250.381 39.1543C256.307 33.7382 259.932 31.6893 267.45 29.5032C273.81 27.6546 277.041 28.0723 284.927 31.7624C290.078 34.1731 291.035 34.3698 292.155 33.2483C293.277 32.1278 292.954 31.4213 289.715 27.9081C287.663 25.6814 284.032 23.0199 281.646 21.9941C276.604 19.8242 267.526 18.9292 261.548 20.0119ZM269.385 37.3895C266.223 41.9042 269.397 49.8194 274.37 49.8194C276.428 49.8194 278.807 46.0571 278.807 42.8028C278.807 38.262 276.706 35.3839 273.393 35.3839C271.725 35.3839 270.284 36.1048 269.385 37.3895ZM299.332 54.9521C298.376 55.202 297.753 56.2278 297.753 57.5541C297.753 60.3402 298.116 60.3311 315.798 57.0795L329.782 54.5082L315.347 54.5236C307.407 54.5326 300.2 54.7257 299.332 54.9521ZM173.45 131.504C171.001 134.252 167.822 138.819 166.386 141.654C162.813 148.704 162.734 158.775 166.168 169.363C167.456 173.333 168.79 179.551 169.134 183.181C169.91 191.374 174.306 207.265 177.79 214.47C182.546 224.306 191.245 233.317 193.655 230.906C193.917 230.645 192.91 228.746 191.418 226.686C189.926 224.626 188.441 221.737 188.118 220.266C187.795 218.794 183.864 207.958 179.385 196.184C166.533 162.407 165.968 160.642 165.918 154.044C165.862 146.849 168.943 139.602 175.415 131.696C180.846 125.063 179.324 124.914 173.45 131.504ZM346.487 182.154C346.495 182.563 347.059 184.724 347.741 186.957C348.915 190.801 349.014 190.889 349.606 188.628C350.53 185.099 349.846 182.054 348.052 181.712C347.184 181.546 346.479 181.745 346.487 182.154ZM272.184 195.036C270.411 196.998 268.123 200.246 267.099 202.254C265.299 205.782 265.293 205.903 266.946 205.903C269.508 205.903 276.238 203.351 278.085 201.68C278.978 200.872 279.709 199.146 279.709 197.845C279.709 195.429 277.5 191.468 276.154 191.468C275.744 191.468 273.957 193.074 272.184 195.036ZM332.489 194.078C330.008 195.504 327.166 197.593 326.173 198.719L324.369 200.765L327.414 200.177C329.088 199.853 332.133 199.581 334.18 199.574C339.771 199.553 340.578 198.732 338.917 194.756C338.161 192.947 337.421 191.471 337.271 191.476C337.122 191.481 334.97 192.651 332.489 194.078ZM296.865 195.242C296.896 197.97 298.343 198.825 301.822 198.173C305.202 197.539 305.221 197.514 303.082 196.416C299.139 194.392 296.85 193.96 296.865 195.242ZM89.3408 199.541C90.0851 200.048 91.8788 200.468 93.3259 200.476C96.7922 200.494 96.0723 199.972 91.5964 199.223C89.0106 198.79 88.3709 198.879 89.3408 199.541ZM313.542 202.325C310.565 203.229 306.229 204.222 303.906 204.531L299.683 205.093L300.612 207.756C301.122 209.22 301.911 210.647 302.364 210.927C302.817 211.207 307.242 210.496 312.197 209.346C320.192 207.492 321.205 207.036 321.208 205.301C321.212 202.935 320.332 200.455 319.536 200.586C319.216 200.638 316.519 201.42 313.542 202.325ZM115.983 206.761C115.205 208.022 116.197 209.512 117.814 209.512C119.47 209.512 119.484 208.235 117.841 206.872C116.97 206.15 116.383 206.115 115.983 206.761ZM114.764 215.469C115.004 217.477 115.755 218.106 119.114 219.112C123.092 220.304 123.215 220.278 125.182 217.864C127.548 214.963 127.153 214.682 119.276 213.663L114.476 213.042L114.764 215.469ZM129.281 227.252L126.783 229.772L129.49 230.362C130.978 230.686 133.959 231 136.114 231.059L140.031 231.165L138.325 228.233C136.008 224.251 132.622 223.884 129.281 227.252ZM248.615 225.669C247.049 226.282 247.152 226.439 249.517 227.021C250.988 227.384 253.425 228.867 254.932 230.317L257.673 232.953L262.15 228.941L266.627 224.931L258.507 224.954C254.041 224.966 249.589 225.288 248.615 225.669ZM304.444 225.978C304.734 226.598 305.22 227.816 305.527 228.684C305.833 229.552 306.443 230.263 306.881 230.263C308.054 230.263 307.851 227.188 306.595 225.933C305.175 224.512 303.775 224.541 304.444 225.978ZM157.005 228.028C157.008 229.527 162.437 243.179 163.576 244.553C164.339 245.471 165.983 245.688 169.612 245.35C175.136 244.834 194.9 238.729 194.9 237.538C194.9 237.123 193.083 236.511 190.863 236.178C187.688 235.702 186.241 234.862 184.085 232.242L181.343 228.91L169.174 228.008C160.893 227.394 157.005 227.4 157.005 228.028ZM110.976 234.345C110.348 235.101 110.086 235.971 110.392 236.278C111.048 236.933 113.701 234.915 113.701 233.762C113.701 232.519 112.23 232.834 110.976 234.345ZM122.036 238.019C121.41 238.306 120.524 239.238 120.068 240.091C119.41 241.321 120.458 242.938 125.14 247.907C133.739 257.036 138.689 263.953 143.161 273.092C145.34 277.545 147.429 281.495 147.806 281.872C148.183 282.248 150.001 282.139 151.847 281.629C154.196 280.98 155.203 280.196 155.203 279.013C155.203 276.376 149.256 256.367 146.096 248.371C144.53 244.408 142.55 240.533 141.695 239.759C140.098 238.315 124.418 236.926 122.036 238.019ZM227.025 246.278C227.346 251.116 227.898 255.394 228.252 255.786C228.935 256.542 244.786 242.344 245.242 240.567C245.614 239.122 238.533 237.481 231.925 237.481H226.442L227.025 246.278ZM193.286 250.082C184.563 255.917 177.012 262.331 174.172 266.32C172.413 268.79 172.411 268.928 174.026 273.684L175.671 278.532L181.408 279.173C184.563 279.527 189.678 280.71 192.774 281.803L198.404 283.791L206.35 276.269C215.651 267.468 221.967 260.603 221.967 259.296C221.967 258.786 220.85 257.503 219.486 256.444C216.645 254.239 202.172 244.699 201.669 244.699C201.485 244.699 197.713 247.121 193.286 250.082ZM66.7853 247.123C55.5608 248.982 42.7502 255.904 33.8543 264.916C22.7859 276.129 18.0655 288.413 18.0655 306.004C18.0655 317.244 19.4883 323.652 24.0869 333.116C33.0171 351.495 56.6074 365.28 75.8075 363.34C83.5233 362.559 96.4792 358.203 103.167 354.141C108.25 351.052 118.212 342.009 118.212 340.483C118.212 340.089 115.419 338.677 112.006 337.345C106.525 335.204 95.3045 329.405 88.527 325.213C86.6206 324.033 86.7984 324.424 89.4834 327.311C94.7334 332.957 104.887 348.454 103.338 348.454C103.128 348.454 100.413 345.105 97.3065 341.011C89.9805 331.358 84.0276 324.996 82.3224 324.996C79.9514 324.996 81.6692 334.889 85.7238 344.594C89.4951 353.619 90.206 356.44 87.9613 353.472C86.1388 351.063 79.4164 333.682 79.4164 331.379C79.4164 328.66 77.2258 329.084 74.4912 332.334C71.8152 335.515 71.8044 337.417 74.4542 338.884C75.4466 339.433 76.4183 339.975 76.6132 340.087C76.8072 340.199 76.467 340.893 75.8553 341.629C74.7366 342.977 74.9685 354.021 76.1973 357.927L76.7657 359.732L75.8499 357.927C75.3456 356.935 74.5318 355.006 74.0401 353.642C73.4103 351.896 72.4711 351.121 70.8679 351.025C69.6147 350.95 68.1188 350.849 67.5423 350.8C66.9667 350.75 65.9508 352.13 65.2858 353.867L64.076 357.025L64.3999 353.903C64.602 351.958 64.094 349.749 63.051 348.039C62.1317 346.53 61.4027 344.281 61.4325 343.041C61.4821 340.963 61.5452 340.929 62.2309 342.621C64.1094 347.255 68.0674 347.158 67.5342 342.491C67.2752 340.226 66.9026 339.918 64.7003 340.151C62.3239 340.402 62.2318 340.29 63.2342 338.346C63.8224 337.207 65.1415 335.355 66.1646 334.232C67.6298 332.623 67.7904 331.956 66.9216 331.087C64.6696 328.835 61.1519 332.305 56.3412 341.522C51.5487 350.703 48.8528 354.484 50.1123 350.258C50.4822 349.018 52.7739 344.026 55.2044 339.165C57.635 334.305 59.3844 329.941 59.0912 329.467C57.6233 327.091 54.2382 329.003 46.6361 336.499C41.2453 341.815 39.0818 343.51 40.012 341.687C40.7707 340.199 43.6461 336.748 46.3997 334.018C49.1542 331.289 51.416 328.844 51.4278 328.584C51.4386 328.325 50.0185 327.344 48.2709 326.403L45.0942 324.691L38.286 329.445C34.5418 332.06 31.2307 333.951 30.9275 333.647C30.3402 333.06 30.4647 332.945 38.222 326.932C43.6362 322.735 43.7878 321.912 39.8144 318.316C37.9721 316.649 37.843 316.661 32.4821 319.068C24.8204 322.506 23.5366 321.385 30.9275 317.71L37.022 314.679L36.4437 310.139C36.1261 307.642 35.7382 305.45 35.5821 305.268C35.426 305.086 32.6391 305.533 29.3884 306.263C26.1386 306.992 23.4788 307.222 23.4788 306.773C23.4788 305.555 29.3333 303.343 32.5588 303.343C34.1106 303.343 37.6283 302.69 40.3756 301.891C43.1228 301.092 46.7308 300.66 48.3927 300.929C51.2978 301.4 53.7131 300.094 51.2789 299.367C50.6275 299.173 44.5123 297.504 37.6888 295.659C30.8662 293.814 25.2833 291.946 25.2833 291.508C25.2833 290.103 28.4302 290.641 39.08 293.87C44.8091 295.606 50.3081 297.027 51.2987 297.027C54.8237 297.027 53.7645 294.78 48.8411 291.816C41.8886 287.629 30.7291 279.577 30.711 278.734C30.6912 277.759 34.162 279.652 45.0545 286.559C50.2215 289.836 54.7461 292.516 55.1079 292.516C55.4697 292.516 55.9795 291.96 56.2402 291.279C56.7319 289.997 54.9437 287.566 45.3748 276.506C36.3869 266.119 38.8959 266.749 49.008 277.419C57.1713 286.032 61.372 289.011 61.372 286.187C61.372 285.683 58.936 280.411 55.9587 274.472C52.9814 268.533 50.558 262.753 50.5734 261.629C50.5896 260.443 53.3396 264.886 57.1271 272.216C63.4688 284.494 63.7268 284.839 66.3396 284.553C67.8175 284.392 69.16 284.127 69.3224 283.964C69.4848 283.802 68.3525 277.844 66.8061 270.725C65.2588 263.606 63.8017 256.868 63.568 255.751C63.3334 254.634 63.3632 253.721 63.633 253.721C64.5018 253.721 65.8579 258.184 68.2532 268.929C69.5407 274.706 70.8904 279.977 71.2513 280.641C71.6266 281.331 72.3683 279.015 72.9827 275.228C74.373 266.661 77.63 253.512 78.6333 252.413C79.8179 251.116 79.6816 252.085 76.375 268.491C73.7947 281.291 73.5466 283.541 74.7393 283.311C76.4725 282.977 82.5706 273.987 87.5282 264.458C89.5673 260.538 91.4628 257.33 91.7398 257.33C92.2044 257.33 91.7281 260.042 90.5904 263.871C89.6187 267.142 92.0989 265.249 96.0614 259.696C98.3197 256.532 100.167 253.667 100.167 253.33C100.167 252.093 91.6126 248.983 84.9326 247.791C78.2787 246.604 71.4345 246.352 66.7853 247.123ZM313.215 247.539C310.454 248.334 310.228 248.654 310.715 251.087C311.297 254.001 318.386 272.722 319.297 273.754C319.605 274.103 319.732 269.535 319.579 263.604C319.423 257.539 319.659 252.819 320.119 252.819C320.93 252.819 322.1 265.966 322.109 275.177C322.111 277.798 322.775 281.452 323.583 283.297L325.053 286.652L326.623 278.983C329.847 263.243 333.78 251.554 335.33 253.104C335.573 253.346 334.302 258.762 332.507 265.137C329.272 276.619 327.484 290.558 328.804 293.997C329.274 295.221 331.723 291.278 338.362 278.605C343.272 269.234 347.708 261.147 348.22 260.635C351.248 257.608 349.166 262.81 341.06 278.532C336.024 288.299 332.112 296.5 332.366 296.754C332.953 297.341 342.558 289.936 345.639 286.52C346.916 285.104 350.714 280.367 354.077 275.994C357.441 271.621 360.418 268.267 360.692 268.542C360.967 268.816 358.866 272.535 356.024 276.805C353.182 281.076 350.995 284.708 351.164 284.876C351.333 285.046 354.507 283.339 358.22 281.085C366.158 276.264 367.811 275.5 366.814 277.113C366.425 277.742 363.212 280.084 359.674 282.317C347.224 290.174 333.89 299.29 333.866 299.96C333.853 300.332 334.494 300.636 335.289 300.636C336.401 300.636 355.348 294.643 371.735 289.109C372.938 288.702 372.938 288.805 371.735 290.043C370.082 291.743 355.518 297.217 344.134 300.417C339.521 301.713 335.951 303.106 336.201 303.51C336.45 303.914 345.157 304.245 355.549 304.245C365.94 304.245 374.442 304.599 374.442 305.032C374.442 306.573 366.551 307.046 351.21 306.423C340.985 306.009 335.647 306.103 335.647 306.696C335.647 307.194 338.996 308.732 343.09 310.112C358.617 315.349 372.969 320.826 372.005 321.147C370.437 321.67 360.578 318.891 348.566 314.54C331.963 308.527 330.306 309.574 344.079 317.377C354.24 323.135 368.356 332.588 367.312 332.937C366.455 333.223 356.722 327.936 345.826 321.267C342.691 319.348 339.883 317.778 339.587 317.778C339.291 317.778 341.491 320.389 344.476 323.58C351.732 331.337 360.364 342.081 359.795 342.65C359.544 342.902 356.545 340.181 353.132 336.606C349.718 333.029 345.284 328.408 343.278 326.335C341.274 324.263 338.153 320.838 336.345 318.725C330.524 311.925 331.025 315.228 337.569 326.801C344.869 339.71 351.217 352.063 350.55 352.063C349.856 352.063 342.877 341.057 336.247 329.507C328.361 315.766 328.739 316.33 327.939 317.096C327.048 317.948 328.508 324.766 333.064 341.034C335.048 348.118 336.513 354.614 336.318 355.469C335.939 357.136 331.069 342.294 326.911 326.801L324.369 317.327L324.125 337.6C323.973 350.288 323.526 358.22 322.932 358.802C322.267 359.453 322.069 353.439 322.273 338.754C322.549 318.909 322.168 314.032 320.865 320.711C320.015 325.063 311.273 352.111 309.757 355.079C306.665 361.132 307.903 355.499 313.46 338.233C316.731 328.069 319.407 319.309 319.407 318.766C319.407 318.223 318.684 317.778 317.8 317.778C316.695 317.778 315.114 319.962 312.736 324.771C308.593 333.149 299.42 347.507 296.683 349.897C294.855 351.494 294.879 351.334 297.023 347.552C298.289 345.319 302.25 338.685 305.825 332.808C309.4 326.933 312.183 321.984 312.01 321.81C311.837 321.637 305.864 326.762 298.738 333.198C291.611 339.635 285.553 344.674 285.274 344.395C284.521 343.642 298.046 330.191 306.324 323.456C310.294 320.227 313.884 316.989 314.302 316.261C315.84 313.578 313.906 314.014 308.381 317.597C302.18 321.619 279.684 334.018 278.587 334.018C275.362 334.018 288.156 325.732 304.195 317.433C312.696 313.035 315.347 310.561 311.557 310.561C310.797 310.561 301.961 313.2 291.922 316.425C272.358 322.712 272.491 322.677 272.491 321.524C272.491 320.224 278.722 317.854 295.033 312.948C303.989 310.254 310.885 307.704 311.121 307C311.463 305.97 308.075 305.852 290.658 306.286C279.178 306.571 269.785 306.459 269.785 306.037C269.785 304.419 274.373 303.891 289.633 303.748C310.894 303.55 310.162 303.614 308.547 302.12C307.313 300.978 287.565 294.828 277.453 292.436C274.972 291.849 272.556 291.018 272.085 290.589C270.036 288.726 277.905 290.096 290.938 293.87C298.647 296.103 305.415 297.93 305.976 297.93C309.042 297.93 299.746 291.16 286.25 283.564C281.66 280.981 277.905 278.484 277.905 278.014C277.905 277.545 281.559 278.996 286.024 281.239C293.831 285.16 296.054 285.502 292.435 282.226C290.306 280.3 283.885 269.995 284.457 269.423C284.688 269.191 285.617 270.131 286.519 271.512C290.546 277.668 306.997 292.596 308.308 291.284C308.514 291.078 307.114 288.328 305.197 285.172C303.28 282.016 300.007 276.186 297.923 272.216C294.53 265.752 294.405 265.311 296.735 267.989C298.166 269.634 301.213 274.303 303.507 278.365C305.801 282.427 307.678 285.509 307.678 285.215C307.678 284.068 304.13 274.635 301.601 269.059C300.139 265.833 298.236 261.062 297.374 258.457C296.51 255.853 295.525 253.721 295.184 253.721C294.843 253.721 292.946 254.798 290.97 256.115C279.049 264.06 271.704 273.331 267.399 285.867C265.242 292.148 264.953 294.373 264.892 305.147C264.832 315.623 265.117 318.211 266.929 323.643C270.315 333.794 274.262 340.293 281.513 347.658C286.924 353.154 289.817 355.26 295.949 358.167C305.859 362.865 311.581 364.167 322.113 364.12C349.516 363.998 372.536 346.733 378.635 321.726C380.71 313.223 380.68 296.7 378.578 288.907C374.437 273.563 363.172 259.793 349.18 252.968C344.962 250.91 339.091 248.614 336.134 247.865C330.185 246.358 317.925 246.184 313.215 247.539ZM106.435 264.838C104.279 267.904 99.1443 274.577 95.0257 279.668C90.9061 284.758 87.5364 289.122 87.5364 289.367C87.5364 291.209 91.8201 288.426 102.134 279.885C108.726 274.427 114.721 269.961 115.456 269.961C117.113 269.961 117.515 269.571 103.705 281.35C93.3936 290.144 91.2833 291.612 86.4086 293.378C85.0435 293.871 83.9275 294.7 83.9275 295.217C83.9275 296.278 84.1323 296.238 100.167 292.034C106.37 290.408 114.773 288.366 118.842 287.495C122.911 286.626 126.762 285.59 127.401 285.195C129.855 283.678 118.135 264.363 112.533 260.692C110.385 259.285 110.3 259.343 106.435 264.838ZM115.28 284.01C111.907 285.84 112.112 286.602 115.505 284.847C116.994 284.078 118.212 283.255 118.212 283.019C118.212 282.439 118.115 282.472 115.28 284.01ZM153.398 289.758C150.333 290.246 150.25 290.366 150.546 293.87C150.712 295.854 151.152 297.796 151.521 298.183C151.89 298.571 153.455 296.855 155 294.37C156.544 291.886 157.526 289.719 157.182 289.555C156.838 289.391 155.135 289.482 153.398 289.758ZM110.092 297.554C100.416 299.23 91.4836 300.376 90.243 300.103C88.5432 299.729 88.2401 299.863 89.0115 300.65C90.1284 301.787 127.033 303.774 130.653 302.892C132.495 302.443 132.654 302.023 132.114 299.031C131.34 294.743 131.062 294.301 129.211 294.414C128.372 294.465 119.768 295.878 110.092 297.554ZM181.367 295.555C181.367 298.165 183.274 301.884 186.367 305.308C191.174 310.628 189.975 316.584 183.679 318.662C178.596 320.34 174.684 317.807 171.811 310.978L170.306 307.403L168.951 310.241C167.713 312.833 167.743 313.381 169.294 316.557C171.58 321.239 177.534 324.374 183.049 323.801C187.551 323.332 190.821 321.21 193.853 316.793C197.979 310.783 194.835 300.237 187.861 296.69C183.423 294.433 181.367 294.073 181.367 295.555ZM68.8153 300.331C66.9441 301.086 67.471 304.957 69.5353 305.612C71.5599 306.255 74.0031 304.724 74.0031 302.813C74.0031 301.805 71.1909 299.564 70.2282 299.805C70.0712 299.844 69.4361 300.081 68.8153 300.331ZM41.5232 305.147C39.3904 307.28 39.1594 310.403 41.0793 311.139C41.8282 311.427 43.8175 311.008 45.5011 310.209C47.1846 309.41 49.4149 308.756 50.4561 308.756C52.7892 308.756 52.9083 306.834 50.6997 304.836C48.4297 302.782 43.7291 302.941 41.5232 305.147ZM45.3576 313.295C44.2416 313.745 43.3276 314.509 43.3276 314.994C43.3276 316.606 52.9074 322.289 55.6014 322.276C57.0387 322.268 57.7713 321.964 57.229 321.599C56.6877 321.235 55.5157 319.008 54.6252 316.651C53.1618 312.776 52.7378 312.37 50.1971 312.422C48.6516 312.453 46.4737 312.847 45.3576 313.295ZM86.3202 317.417C84.6989 319.643 84.6989 319.74 86.3202 320.961C88.8076 322.834 116.643 334.846 119.148 335.128C120.927 335.328 121.763 334.546 123.811 330.765C128.565 321.992 129.196 322.534 109.641 318.596C100.213 316.697 91.4836 315.139 90.243 315.136C88.8626 315.131 87.3406 316.016 86.3202 317.417ZM61.1465 322.926C62.2625 323.141 64.0904 323.141 65.2064 322.926C66.3225 322.711 65.4094 322.535 63.1765 322.535C60.9435 322.535 60.0304 322.711 61.1465 322.926ZM74.5552 323.028C74.3035 323.435 75.2951 323.591 76.7576 323.378C78.2201 323.163 79.4164 322.83 79.4164 322.639C79.4164 321.951 75.0018 322.305 74.5552 323.028ZM145.563 324.319C144.807 325.497 141.706 334.871 141.683 336.048C141.676 336.421 147.212 336.725 153.985 336.725H166.3L162.649 334.08C160.64 332.625 157.842 329.884 156.429 327.99C155.016 326.095 153.452 324.246 152.953 323.882C151.469 322.799 146.345 323.102 145.563 324.319Z" fill="url(#paint0_linear_1452_501)" />
    <defs>
        <linearGradient id="paint0_linear_1452_501" x1="199.155" y1="0.451904" x2="199.155" y2="380.452" gradientUnits="userSpaceOnUse">
            <stop stop-color="white" />
            <stop offset="0.447917" stop-color="#71A5D5" />
            <stop offset="1" stop-color="#17274F" />
        </linearGradient>
    </defs>
</svg>
